<?xml version="1.0" encoding="UTF-8" standalone="no"?>
<!DOCTYPE svg PUBLIC "-//W3C//DTD SVG 1.1//EN"
 "http://www.w3.org/Graphics/SVG/1.1/DTD/svg11.dtd">
<!-- Generated by graphviz version 14.0.1 (0)
 -->
<!-- Title: Who.hpp Pages: 1 -->
<svg width="820pt" height="256pt"
 viewBox="0.00 0.00 820.00 256.00" xmlns="http://www.w3.org/2000/svg" xmlns:xlink="http://www.w3.org/1999/xlink">
<g id="graph0" class="graph" transform="scale(1 1) rotate(0) translate(4 251.75)">
<title>Who.hpp</title>
<!-- Node1 -->
<g id="Node000001" class="node">
<title>Node1</title>
<g id="a_Node000001"><a xlink:title="Implements IRC WHO command.">
<polygon fill="#999999" stroke="#666666" points="384.59,-247.75 325.84,-247.75 325.84,-227 384.59,-227 384.59,-247.75"/>
<text xml:space="preserve" text-anchor="middle" x="355.21" y="-234.25" font-family="Helvetica,sans-Serif" font-size="10.00">Who.hpp</text>
</a>
</g>
</g>
<!-- Node2 -->
<g id="Node000002" class="node">
<title>Node2</title>
<g id="a_Node000002"><a xlink:href="../../d7/d42/Channel_8hpp.html" target="_top" xlink:title="Channel class.">
<polygon fill="white" stroke="#666666" points="208.59,-191 131.84,-191 131.84,-170.25 208.59,-170.25 208.59,-191"/>
<text xml:space="preserve" text-anchor="middle" x="170.21" y="-177.5" font-family="Helvetica,sans-Serif" font-size="10.00">Channel.hpp</text>
</a>
</g>
</g>
<!-- Node1&#45;&gt;Node2 -->
<g id="edge1_Node000001_Node000002" class="edge">
<title>Node1&#45;&gt;Node2</title>
<g id="a_edge1_Node000001_Node000002"><a xlink:title=" ">
<path fill="none" stroke="#63b8ff" d="M325.49,-227.58C295.35,-218.66 248.38,-204.76 213.98,-194.58"/>
<polygon fill="#63b8ff" stroke="#63b8ff" points="215.33,-191.33 204.75,-191.85 213.34,-198.04 215.33,-191.33"/>
</a>
</g>
</g>
<!-- Node4 -->
<g id="Node000004" class="node">
<title>Node4</title>
<g id="a_Node000004"><a xlink:href="../../d8/d9c/reply__codes_8hpp.html" target="_top" xlink:title="Numerical reply codes.">
<polygon fill="white" stroke="#666666" points="237.96,-77.5 142.46,-77.5 142.46,-56.75 237.96,-56.75 237.96,-77.5"/>
<text xml:space="preserve" text-anchor="middle" x="190.21" y="-64" font-family="Helvetica,sans-Serif" font-size="10.00">reply_codes.hpp</text>
</a>
</g>
</g>
<!-- Node1&#45;&gt;Node4 -->
<g id="edge27_Node000001_Node000004" class="edge">
<title>Node1&#45;&gt;Node4</title>
<g id="a_edge27_Node000001_Node000004"><a xlink:title=" ">
<path fill="none" stroke="#63b8ff" d="M345.87,-226.85C319.22,-199.67 242.54,-121.48 207.75,-86.01"/>
<polygon fill="#63b8ff" stroke="#63b8ff" points="210.42,-83.74 200.92,-79.05 205.43,-88.64 210.42,-83.74"/>
</a>
</g>
</g>
<!-- Node5 -->
<g id="Node000005" class="node">
<title>Node5</title>
<g id="a_Node000005"><a xlink:title=" ">
<polygon fill="#e0e0e0" stroke="#999999" points="288.09,-20.75 244.34,-20.75 244.34,0 288.09,0 288.09,-20.75"/>
<text xml:space="preserve" text-anchor="middle" x="266.21" y="-7.25" font-family="Helvetica,sans-Serif" font-size="10.00">string</text>
</a>
</g>
</g>
<!-- Node1&#45;&gt;Node5 -->
<g id="edge28_Node000001_Node000005" class="edge">
<title>Node1&#45;&gt;Node5</title>
<g id="a_edge28_Node000001_Node000005"><a xlink:title=" ">
<path fill="none" stroke="#63b8ff" d="M325.51,-232.6C248,-222.04 43.3,-189.3 9.21,-134.25 -44.03,-48.28 151.74,-21.25 232.7,-13.86"/>
<polygon fill="#63b8ff" stroke="#63b8ff" points="232.82,-17.36 242.48,-13.01 232.22,-10.38 232.82,-17.36"/>
</a>
</g>
</g>
<!-- Node7 -->
<g id="Node000007" class="node">
<title>Node7</title>
<g id="a_Node000007"><a xlink:title=" ">
<polygon fill="#e0e0e0" stroke="#999999" points="617.59,-20.75 570.84,-20.75 570.84,0 617.59,0 617.59,-20.75"/>
<text xml:space="preserve" text-anchor="middle" x="594.21" y="-7.25" font-family="Helvetica,sans-Serif" font-size="10.00">vector</text>
</a>
</g>
</g>
<!-- Node1&#45;&gt;Node7 -->
<g id="edge29_Node000001_Node000007" class="edge">
<title>Node1&#45;&gt;Node7</title>
<g id="a_edge29_Node000001_Node000007"><a xlink:title=" ">
<path fill="none" stroke="#63b8ff" d="M384.85,-233.24C427.89,-228.04 509.69,-215.65 575.21,-191 623.04,-173.01 649.5,-178.41 675.21,-134.25 698.17,-94.83 649.71,-50.63 618.28,-27.49"/>
<polygon fill="#63b8ff" stroke="#63b8ff" points="620.58,-24.83 610.4,-21.89 616.53,-30.54 620.58,-24.83"/>
</a>
</g>
</g>
<!-- Node8 -->
<g id="Node000008" class="node">
<title>Node8</title>
<g id="a_Node000008"><a xlink:href="../../d3/d8e/Client_8hpp.html" target="_top" xlink:title="Client class.">
<polygon fill="white" stroke="#666666" points="387.96,-191 322.46,-191 322.46,-170.25 387.96,-170.25 387.96,-191"/>
<text xml:space="preserve" text-anchor="middle" x="355.21" y="-177.5" font-family="Helvetica,sans-Serif" font-size="10.00">Client.hpp</text>
</a>
</g>
</g>
<!-- Node1&#45;&gt;Node8 -->
<g id="edge9_Node000001_Node000008" class="edge">
<title>Node1&#45;&gt;Node8</title>
<g id="a_edge9_Node000001_Node000008"><a xlink:title=" ">
<path fill="none" stroke="#63b8ff" d="M355.21,-226.59C355.21,-219.97 355.21,-210.97 355.21,-202.77"/>
<polygon fill="#63b8ff" stroke="#63b8ff" points="358.71,-202.84 355.21,-192.84 351.71,-202.84 358.71,-202.84"/>
</a>
</g>
</g>
<!-- Node13 -->
<g id="Node000013" class="node">
<title>Node13</title>
<g id="a_Node000013"><a xlink:href="../../de/dd6/ICommand_8hpp.html" target="_top" xlink:title="command interface">
<polygon fill="white" stroke="#666666" points="812.34,-77.5 722.09,-77.5 722.09,-56.75 812.34,-56.75 812.34,-77.5"/>
<text xml:space="preserve" text-anchor="middle" x="767.21" y="-64" font-family="Helvetica,sans-Serif" font-size="10.00">ICommand.hpp</text>
</a>
</g>
</g>
<!-- Node1&#45;&gt;Node13 -->
<g id="edge19_Node000001_Node000013" class="edge">
<title>Node1&#45;&gt;Node13</title>
<g id="a_edge19_Node000001_Node000013"><a xlink:title=" ">
<path fill="none" stroke="#63b8ff" d="M384.99,-236.11C460.44,-234.9 656.74,-228.17 708.21,-191 742.15,-166.49 757.36,-117.18 763.51,-89.05"/>
<polygon fill="#63b8ff" stroke="#63b8ff" points="766.94,-89.75 765.45,-79.26 760.08,-88.39 766.94,-89.75"/>
</a>
</g>
</g>
<!-- Node14 -->
<g id="Node000014" class="node">
<title>Node14</title>
<g id="a_Node000014"><a xlink:href="../../de/d3d/Server_8hpp.html" target="_top" xlink:title="Server class.">
<polygon fill="white" stroke="#666666" points="566.09,-191 498.34,-191 498.34,-170.25 566.09,-170.25 566.09,-191"/>
<text xml:space="preserve" text-anchor="middle" x="532.21" y="-177.5" font-family="Helvetica,sans-Serif" font-size="10.00">Server.hpp</text>
</a>
</g>
</g>
<!-- Node1&#45;&gt;Node14 -->
<g id="edge21_Node000001_Node000014" class="edge">
<title>Node1&#45;&gt;Node14</title>
<g id="a_edge21_Node000001_Node000014"><a xlink:title=" ">
<path fill="none" stroke="#63b8ff" d="M384.84,-227.21C413.45,-218.36 457.08,-204.86 489.46,-194.85"/>
<polygon fill="#63b8ff" stroke="#63b8ff" points="490.43,-198.21 498.95,-191.91 488.36,-191.53 490.43,-198.21"/>
</a>
</g>
</g>
<!-- Node3 -->
<g id="Node000003" class="node">
<title>Node3</title>
<g id="a_Node000003"><a xlink:href="../../da/dcb/ReplyHandler_8hpp.html" target="_top" xlink:title="ReplyHandler class.">
<polygon fill="white" stroke="#666666" points="128.34,-134.25 26.09,-134.25 26.09,-113.5 128.34,-113.5 128.34,-134.25"/>
<text xml:space="preserve" text-anchor="middle" x="77.21" y="-120.75" font-family="Helvetica,sans-Serif" font-size="10.00">ReplyHandler.hpp</text>
</a>
</g>
</g>
<!-- Node2&#45;&gt;Node3 -->
<g id="edge2_Node000002_Node000003" class="edge">
<title>Node2&#45;&gt;Node3</title>
<g id="a_edge2_Node000002_Node000003"><a xlink:title=" ">
<path fill="none" stroke="#63b8ff" d="M153.58,-169.84C139.7,-161.66 119.65,-149.86 103.58,-140.4"/>
<polygon fill="#63b8ff" stroke="#63b8ff" points="105.39,-137.4 95,-135.35 101.84,-143.44 105.39,-137.4"/>
</a>
</g>
</g>
<!-- Node2&#45;&gt;Node4 -->
<g id="edge5_Node000002_Node000004" class="edge">
<title>Node2&#45;&gt;Node4</title>
<g id="a_edge5_Node000002_Node000004"><a xlink:title=" ">
<path fill="none" stroke="#63b8ff" d="M174.59,-169.76C178.39,-160.72 183.66,-146.86 186.21,-134.25 189.25,-119.22 190.21,-101.9 190.43,-88.76"/>
<polygon fill="#63b8ff" stroke="#63b8ff" points="193.93,-89.17 190.46,-79.16 186.93,-89.15 193.93,-89.17"/>
</a>
</g>
</g>
<!-- Node2&#45;&gt;Node5 -->
<g id="edge7_Node000002_Node000005" class="edge">
<title>Node2&#45;&gt;Node5</title>
<g id="a_edge7_Node000002_Node000005"><a xlink:title=" ">
<path fill="none" stroke="#63b8ff" d="M131.58,-177.71C78.46,-173.39 -7.9,-159.3 17.21,-113.5 59.68,-36.05 175.22,-17.3 232.74,-12.78"/>
<polygon fill="#63b8ff" stroke="#63b8ff" points="232.84,-16.29 242.58,-12.12 232.37,-9.3 232.84,-16.29"/>
</a>
</g>
</g>
<!-- Node6 -->
<g id="Node000006" class="node">
<title>Node6</title>
<g id="a_Node000006"><a xlink:title=" ">
<polygon fill="#e0e0e0" stroke="#999999" points="177.71,-134.25 146.71,-134.25 146.71,-113.5 177.71,-113.5 177.71,-134.25"/>
<text xml:space="preserve" text-anchor="middle" x="162.21" y="-120.75" font-family="Helvetica,sans-Serif" font-size="10.00">set</text>
</a>
</g>
</g>
<!-- Node2&#45;&gt;Node6 -->
<g id="edge6_Node000002_Node000006" class="edge">
<title>Node2&#45;&gt;Node6</title>
<g id="a_edge6_Node000002_Node000006"><a xlink:title=" ">
<path fill="none" stroke="#63b8ff" d="M168.78,-169.84C167.8,-163.14 166.47,-154.01 165.26,-145.73"/>
<polygon fill="#63b8ff" stroke="#63b8ff" points="168.76,-145.46 163.85,-136.08 161.83,-146.48 168.76,-145.46"/>
</a>
</g>
</g>
<!-- Node2&#45;&gt;Node7 -->
<g id="edge8_Node000002_Node000007" class="edge">
<title>Node2&#45;&gt;Node7</title>
<g id="a_edge8_Node000002_Node000007"><a xlink:title=" ">
<path fill="none" stroke="#63b8ff" d="M208.63,-179.37C263.15,-177.67 365.04,-169.52 443.21,-134.25 499.67,-108.77 552.69,-56.79 578.25,-29.32"/>
<polygon fill="#63b8ff" stroke="#63b8ff" points="580.65,-31.88 584.81,-22.13 575.48,-27.16 580.65,-31.88"/>
</a>
</g>
</g>
<!-- Node3&#45;&gt;Node4 -->
<g id="edge3_Node000003_Node000004" class="edge">
<title>Node3&#45;&gt;Node4</title>
<g id="a_edge3_Node000003_Node000004"><a xlink:title=" ">
<path fill="none" stroke="#63b8ff" d="M97.41,-113.09C114.77,-104.68 140.05,-92.43 159.84,-82.84"/>
<polygon fill="#63b8ff" stroke="#63b8ff" points="161.35,-86 168.82,-78.49 158.3,-79.7 161.35,-86"/>
</a>
</g>
</g>
<!-- Node3&#45;&gt;Node5 -->
<g id="edge4_Node000003_Node000005" class="edge">
<title>Node3&#45;&gt;Node5</title>
<g id="a_edge4_Node000003_Node000005"><a xlink:title=" ">
<path fill="none" stroke="#63b8ff" d="M82.87,-113.36C91.83,-99.09 110.59,-72.17 133.21,-56.75 163.68,-35.97 204.54,-23.91 232.9,-17.52"/>
<polygon fill="#63b8ff" stroke="#63b8ff" points="233.31,-21.01 242.37,-15.5 231.86,-14.16 233.31,-21.01"/>
</a>
</g>
</g>
<!-- Node8&#45;&gt;Node4 -->
<g id="edge16_Node000008_Node000004" class="edge">
<title>Node8&#45;&gt;Node4</title>
<g id="a_edge16_Node000008_Node000004"><a xlink:title=" ">
<path fill="none" stroke="#63b8ff" d="M341.1,-169.94C322.25,-157.02 287.78,-133.44 258.21,-113.5 243.68,-103.7 227.34,-92.79 214.32,-84.13"/>
<polygon fill="#63b8ff" stroke="#63b8ff" points="216.62,-81.46 206.36,-78.83 212.75,-87.29 216.62,-81.46"/>
</a>
</g>
</g>
<!-- Node8&#45;&gt;Node5 -->
<g id="edge18_Node000008_Node000005" class="edge">
<title>Node8&#45;&gt;Node5</title>
<g id="a_edge18_Node000008_Node000005"><a xlink:title=" ">
<path fill="none" stroke="#63b8ff" d="M349.68,-169.83C339.48,-151.72 317.12,-111.72 299.21,-77.5 291.11,-62.03 282.3,-44.31 275.81,-31.12"/>
<polygon fill="#63b8ff" stroke="#63b8ff" points="279,-29.66 271.46,-22.21 272.71,-32.73 279,-29.66"/>
</a>
</g>
</g>
<!-- Node9 -->
<g id="Node000009" class="node">
<title>Node9</title>
<g id="a_Node000009"><a xlink:href="../../da/d81/TcpSocket_8hpp.html" target="_top" xlink:title="TcpSocket class.">
<polygon fill="white" stroke="#666666" points="433.71,-134.25 348.71,-134.25 348.71,-113.5 433.71,-113.5 433.71,-134.25"/>
<text xml:space="preserve" text-anchor="middle" x="391.21" y="-120.75" font-family="Helvetica,sans-Serif" font-size="10.00">TcpSocket.hpp</text>
</a>
</g>
</g>
<!-- Node8&#45;&gt;Node9 -->
<g id="edge10_Node000008_Node000009" class="edge">
<title>Node8&#45;&gt;Node9</title>
<g id="a_edge10_Node000008_Node000009"><a xlink:title=" ">
<path fill="none" stroke="#63b8ff" d="M361.65,-169.84C366.36,-162.67 372.9,-152.73 378.63,-144.01"/>
<polygon fill="#63b8ff" stroke="#63b8ff" points="381.43,-146.12 384,-135.84 375.58,-142.28 381.43,-146.12"/>
</a>
</g>
</g>
<!-- Node12 -->
<g id="Node000012" class="node">
<title>Node12</title>
<g id="a_Node000012"><a xlink:title=" ">
<polygon fill="#e0e0e0" stroke="#999999" points="528.09,-134.25 490.34,-134.25 490.34,-113.5 528.09,-113.5 528.09,-134.25"/>
<text xml:space="preserve" text-anchor="middle" x="509.21" y="-120.75" font-family="Helvetica,sans-Serif" font-size="10.00">map</text>
</a>
</g>
</g>
<!-- Node8&#45;&gt;Node12 -->
<g id="edge17_Node000008_Node000012" class="edge">
<title>Node8&#45;&gt;Node12</title>
<g id="a_edge17_Node000008_Node000012"><a xlink:title=" ">
<path fill="none" stroke="#63b8ff" d="M382.74,-169.84C409.97,-160.16 451.49,-145.4 479.46,-135.45"/>
<polygon fill="#63b8ff" stroke="#63b8ff" points="480.5,-138.8 488.75,-132.15 478.15,-132.2 480.5,-138.8"/>
</a>
</g>
</g>
<!-- Node9&#45;&gt;Node5 -->
<g id="edge15_Node000009_Node000005" class="edge">
<title>Node9&#45;&gt;Node5</title>
<g id="a_edge15_Node000009_Node000005"><a xlink:title=" ">
<path fill="none" stroke="#63b8ff" d="M373.81,-113.06C359.49,-104.58 339.06,-91.51 323.21,-77.5 306.95,-63.12 291.04,-44.13 280.18,-30.19"/>
<polygon fill="#63b8ff" stroke="#63b8ff" points="282.99,-28.11 274.15,-22.28 277.43,-32.35 282.99,-28.11"/>
</a>
</g>
</g>
<!-- Node10 -->
<g id="Node000010" class="node">
<title>Node10</title>
<g id="a_Node000010"><a xlink:href="../../df/dd7/consts_8hpp.html" target="_top" xlink:title="constants used throughout IRC server program">
<polygon fill="white" stroke="#666666" points="490.46,-77.5 421.96,-77.5 421.96,-56.75 490.46,-56.75 490.46,-77.5"/>
<text xml:space="preserve" text-anchor="middle" x="456.21" y="-64" font-family="Helvetica,sans-Serif" font-size="10.00">consts.hpp</text>
</a>
</g>
</g>
<!-- Node9&#45;&gt;Node10 -->
<g id="edge11_Node000009_Node000010" class="edge">
<title>Node9&#45;&gt;Node10</title>
<g id="a_edge11_Node000009_Node000010"><a xlink:title=" ">
<path fill="none" stroke="#63b8ff" d="M402.83,-113.09C412.08,-105.3 425.23,-94.22 436.16,-85.01"/>
<polygon fill="#63b8ff" stroke="#63b8ff" points="438.14,-87.92 443.53,-78.8 433.63,-82.57 438.14,-87.92"/>
</a>
</g>
</g>
<!-- Node11 -->
<g id="Node000011" class="node">
<title>Node11</title>
<g id="a_Node000011"><a xlink:title=" ">
<polygon fill="#e0e0e0" stroke="#999999" points="403.96,-77.5 332.46,-77.5 332.46,-56.75 403.96,-56.75 403.96,-77.5"/>
<text xml:space="preserve" text-anchor="middle" x="368.21" y="-64" font-family="Helvetica,sans-Serif" font-size="10.00">netinet/in.h</text>
</a>
</g>
</g>
<!-- Node9&#45;&gt;Node11 -->
<g id="edge14_Node000009_Node000011" class="edge">
<title>Node9&#45;&gt;Node11</title>
<g id="a_edge14_Node000009_Node000011"><a xlink:title=" ">
<path fill="none" stroke="#63b8ff" d="M387.1,-113.09C384.22,-106.24 380.27,-96.84 376.73,-88.4"/>
<polygon fill="#63b8ff" stroke="#63b8ff" points="379.97,-87.09 372.87,-79.22 373.52,-89.8 379.97,-87.09"/>
</a>
</g>
</g>
<!-- Node10&#45;&gt;Node5 -->
<g id="edge12_Node000010_Node000005" class="edge">
<title>Node10&#45;&gt;Node5</title>
<g id="a_edge12_Node000010_Node000005"><a xlink:title=" ">
<path fill="none" stroke="#63b8ff" d="M422.24,-56.34C387.43,-46.31 333.66,-30.81 299.21,-20.88"/>
<polygon fill="#63b8ff" stroke="#63b8ff" points="300.35,-17.57 289.77,-18.16 298.41,-24.3 300.35,-17.57"/>
</a>
</g>
</g>
<!-- Node10&#45;&gt;Node7 -->
<g id="edge13_Node000010_Node000007" class="edge">
<title>Node10&#45;&gt;Node7</title>
<g id="a_edge13_Node000010_Node000007"><a xlink:title=" ">
<path fill="none" stroke="#63b8ff" d="M480.88,-56.34C502.93,-47.59 535.46,-34.68 560.02,-24.94"/>
<polygon fill="#63b8ff" stroke="#63b8ff" points="561.26,-28.21 569.27,-21.27 558.68,-21.71 561.26,-28.21"/>
</a>
</g>
</g>
<!-- Node13&#45;&gt;Node7 -->
<g id="edge20_Node000013_Node000007" class="edge">
<title>Node13&#45;&gt;Node7</title>
<g id="a_edge20_Node000013_Node000007"><a xlink:title=" ">
<path fill="none" stroke="#63b8ff" d="M736.28,-56.34C706.07,-46.78 660.18,-32.25 628.78,-22.32"/>
<polygon fill="#63b8ff" stroke="#63b8ff" points="629.96,-19.02 619.37,-19.34 627.85,-25.69 629.96,-19.02"/>
</a>
</g>
</g>
<!-- Node14&#45;&gt;Node5 -->
<g id="edge25_Node000014_Node000005" class="edge">
<title>Node14&#45;&gt;Node5</title>
<g id="a_edge25_Node000014_Node000005"><a xlink:title=" ">
<path fill="none" stroke="#63b8ff" d="M535.1,-169.97C538.53,-156.87 543.1,-132.89 537.21,-113.5 528.39,-84.46 524.49,-73.55 499.21,-56.75 466.85,-35.24 355.72,-20.8 299.44,-14.68"/>
<polygon fill="#63b8ff" stroke="#63b8ff" points="300.13,-11.24 289.82,-13.66 299.39,-18.2 300.13,-11.24"/>
</a>
</g>
</g>
<!-- Node14&#45;&gt;Node7 -->
<g id="edge26_Node000014_Node000007" class="edge">
<title>Node14&#45;&gt;Node7</title>
<g id="a_edge26_Node000014_Node000007"><a xlink:title=" ">
<path fill="none" stroke="#63b8ff" d="M542.95,-169.88C551.67,-161.35 563.58,-148.16 570.21,-134.25 586.07,-101 591.45,-57.93 593.27,-32.61"/>
<polygon fill="#63b8ff" stroke="#63b8ff" points="596.77,-32.83 593.85,-22.64 589.78,-32.42 596.77,-32.83"/>
</a>
</g>
</g>
<!-- Node14&#45;&gt;Node9 -->
<g id="edge22_Node000014_Node000009" class="edge">
<title>Node14&#45;&gt;Node9</title>
<g id="a_edge22_Node000014_Node000009"><a xlink:title=" ">
<path fill="none" stroke="#63b8ff" d="M507,-169.84C484.65,-161.16 451.75,-148.38 426.73,-138.67"/>
<polygon fill="#63b8ff" stroke="#63b8ff" points="428.2,-135.48 417.61,-135.13 425.67,-142.01 428.2,-135.48"/>
</a>
</g>
</g>
<!-- Node14&#45;&gt;Node12 -->
<g id="edge23_Node000014_Node000012" class="edge">
<title>Node14&#45;&gt;Node12</title>
<g id="a_edge23_Node000014_Node000012"><a xlink:title=" ">
<path fill="none" stroke="#63b8ff" d="M528.1,-169.84C525.22,-162.99 521.27,-153.59 517.73,-145.15"/>
<polygon fill="#63b8ff" stroke="#63b8ff" points="520.97,-143.84 513.87,-135.97 514.52,-146.55 520.97,-143.84"/>
</a>
</g>
</g>
<!-- Node15 -->
<g id="Node000015" class="node">
<title>Node15</title>
<g id="a_Node000015"><a xlink:title=" ">
<polygon fill="#e0e0e0" stroke="#999999" points="665.71,-134.25 622.71,-134.25 622.71,-113.5 665.71,-113.5 665.71,-134.25"/>
<text xml:space="preserve" text-anchor="middle" x="644.21" y="-120.75" font-family="Helvetica,sans-Serif" font-size="10.00">poll.h</text>
</a>
</g>
</g>
<!-- Node14&#45;&gt;Node15 -->
<g id="edge24_Node000014_Node000015" class="edge">
<title>Node14&#45;&gt;Node15</title>
<g id="a_edge24_Node000014_Node000015"><a xlink:title=" ">
<path fill="none" stroke="#63b8ff" d="M552.23,-169.84C569.44,-161.43 594.49,-149.18 614.11,-139.59"/>
<polygon fill="#63b8ff" stroke="#63b8ff" points="615.55,-142.78 623,-135.24 612.48,-136.49 615.55,-142.78"/>
</a>
</g>
</g>
</g>
</svg>
