<?xml version="1.0" encoding="UTF-8" standalone="no"?>
<!DOCTYPE svg PUBLIC "-//W3C//DTD SVG 1.1//EN"
 "http://www.w3.org/Graphics/SVG/1.1/DTD/svg11.dtd">
<!-- Generated by graphviz version 14.0.1 (0)
 -->
<!-- Title: Who.hpp Pages: 1 -->
<svg width="1108pt" height="426pt"
 viewBox="0.00 0.00 1108.00 426.00" xmlns="http://www.w3.org/2000/svg" xmlns:xlink="http://www.w3.org/1999/xlink">
<g id="graph0" class="graph" transform="scale(1 1) rotate(0) translate(4 422)">
<title>Who.hpp</title>
<!-- Node1 -->
<g id="Node000001" class="node">
<title>Node1</title>
<g id="a_Node000001"><a xlink:title="Implements IRC WHO command.">
<polygon fill="#999999" stroke="#666666" points="630.04,-418 571.29,-418 571.29,-397.25 630.04,-397.25 630.04,-418"/>
<text xml:space="preserve" text-anchor="middle" x="600.67" y="-404.5" font-family="Helvetica,sans-Serif" font-size="10.00">Who.hpp</text>
</a>
</g>
</g>
<!-- Node2 -->
<g id="Node000002" class="node">
<title>Node2</title>
<g id="a_Node000002"><a xlink:href="../../d7/d42/Channel_8hpp.html" target="_top" xlink:title=" ">
<polygon fill="white" stroke="#666666" points="689.04,-361.25 612.29,-361.25 612.29,-340.5 689.04,-340.5 689.04,-361.25"/>
<text xml:space="preserve" text-anchor="middle" x="650.67" y="-347.75" font-family="Helvetica,sans-Serif" font-size="10.00">Channel.hpp</text>
</a>
</g>
</g>
<!-- Node1&#45;&gt;Node2 -->
<g id="edge1_Node000001_Node000002" class="edge">
<title>Node1&#45;&gt;Node2</title>
<g id="a_edge1_Node000001_Node000002"><a xlink:title=" ">
<path fill="none" stroke="#63b8ff" d="M609.61,-396.84C616.43,-389.36 626.03,-378.86 634.23,-369.88"/>
<polygon fill="#63b8ff" stroke="#63b8ff" points="636.63,-372.44 640.79,-362.7 631.46,-367.72 636.63,-372.44"/>
</a>
</g>
</g>
<!-- Node3 -->
<g id="Node000003" class="node">
<title>Node3</title>
<g id="a_Node000003"><a xlink:href="../../de/d1c/LogManager_8hpp.html" target="_top" xlink:title=" ">
<polygon fill="white" stroke="#666666" points="534.79,-304.5 438.54,-304.5 438.54,-283.75 534.79,-283.75 534.79,-304.5"/>
<text xml:space="preserve" text-anchor="middle" x="486.67" y="-291" font-family="Helvetica,sans-Serif" font-size="10.00">LogManager.hpp</text>
</a>
</g>
</g>
<!-- Node1&#45;&gt;Node3 -->
<g id="edge30_Node000001_Node000003" class="edge">
<title>Node1&#45;&gt;Node3</title>
<g id="a_edge30_Node000001_Node000003"><a xlink:title=" ">
<path fill="none" stroke="#63b8ff" d="M588.81,-396.86C578.07,-387.88 561.95,-374.06 548.67,-361.25 532.48,-345.62 515.03,-326.82 502.78,-313.27"/>
<polygon fill="#63b8ff" stroke="#63b8ff" points="505.5,-311.06 496.22,-305.95 500.29,-315.74 505.5,-311.06"/>
</a>
</g>
</g>
<!-- Node5 -->
<g id="Node000005" class="node">
<title>Node5</title>
<g id="a_Node000005"><a xlink:href="../../d3/d8e/Client_8hpp.html" target="_top" xlink:title=" ">
<polygon fill="white" stroke="#666666" points="498.42,-191 432.92,-191 432.92,-170.25 498.42,-170.25 498.42,-191"/>
<text xml:space="preserve" text-anchor="middle" x="465.67" y="-177.5" font-family="Helvetica,sans-Serif" font-size="10.00">Client.hpp</text>
</a>
</g>
</g>
<!-- Node1&#45;&gt;Node5 -->
<g id="edge27_Node000001_Node000005" class="edge">
<title>Node1&#45;&gt;Node5</title>
<g id="a_edge27_Node000001_Node000005"><a xlink:title=" ">
<path fill="none" stroke="#63b8ff" d="M597.05,-397.02C588.89,-375.84 567.86,-323.81 543.67,-283.75 524.84,-252.57 498.3,-219.62 481.54,-199.84"/>
<polygon fill="#63b8ff" stroke="#63b8ff" points="484.33,-197.72 475.17,-192.4 479.02,-202.27 484.33,-197.72"/>
</a>
</g>
</g>
<!-- Node8 -->
<g id="Node000008" class="node">
<title>Node8</title>
<g id="a_Node000008"><a xlink:title=" ">
<polygon fill="#e0e0e0" stroke="#999999" points="534.54,-20.75 490.79,-20.75 490.79,0 534.54,0 534.54,-20.75"/>
<text xml:space="preserve" text-anchor="middle" x="512.67" y="-7.25" font-family="Helvetica,sans-Serif" font-size="10.00">string</text>
</a>
</g>
</g>
<!-- Node1&#45;&gt;Node8 -->
<g id="edge45_Node000001_Node000008" class="edge">
<title>Node1&#45;&gt;Node8</title>
<g id="a_edge45_Node000001_Node000008"><a xlink:title=" ">
<path fill="none" stroke="#63b8ff" d="M570.94,-405.12C475.45,-399.47 182.67,-375.58 182.67,-295.12 182.67,-295.12 182.67,-295.12 182.67,-122.88 182.67,-60.77 395.11,-26.55 479.09,-15.44"/>
<polygon fill="#63b8ff" stroke="#63b8ff" points="479.53,-18.91 489,-14.16 478.64,-11.97 479.53,-18.91"/>
</a>
</g>
</g>
<!-- Node9 -->
<g id="Node000009" class="node">
<title>Node9</title>
<g id="a_Node000009"><a xlink:title=" ">
<polygon fill="#e0e0e0" stroke="#999999" points="948.04,-20.75 901.29,-20.75 901.29,0 948.04,0 948.04,-20.75"/>
<text xml:space="preserve" text-anchor="middle" x="924.67" y="-7.25" font-family="Helvetica,sans-Serif" font-size="10.00">vector</text>
</a>
</g>
</g>
<!-- Node1&#45;&gt;Node9 -->
<g id="edge46_Node000001_Node000009" class="edge">
<title>Node1&#45;&gt;Node9</title>
<g id="a_edge46_Node000001_Node000009"><a xlink:title=" ">
<path fill="none" stroke="#63b8ff" d="M630.25,-404.38C719.77,-396.77 981.67,-368.27 981.67,-295.12 981.67,-295.12 981.67,-295.12 981.67,-122.88 981.67,-86.84 957.78,-50.73 940.93,-29.74"/>
<polygon fill="#63b8ff" stroke="#63b8ff" points="943.65,-27.55 934.55,-22.13 938.29,-32.04 943.65,-27.55"/>
</a>
</g>
</g>
<!-- Node11 -->
<g id="Node000011" class="node">
<title>Node11</title>
<g id="a_Node000011"><a xlink:href="../../d8/d9c/reply__codes_8hpp.html" target="_top" xlink:title=" ">
<polygon fill="white" stroke="#666666" points="674.42,-134.25 578.92,-134.25 578.92,-113.5 674.42,-113.5 674.42,-134.25"/>
<text xml:space="preserve" text-anchor="middle" x="626.67" y="-120.75" font-family="Helvetica,sans-Serif" font-size="10.00">reply_codes.hpp</text>
</a>
</g>
</g>
<!-- Node1&#45;&gt;Node11 -->
<g id="edge37_Node000001_Node000011" class="edge">
<title>Node1&#45;&gt;Node11</title>
<g id="a_edge37_Node000001_Node000011"><a xlink:title=" ">
<path fill="none" stroke="#63b8ff" d="M630.4,-397.11C650.79,-389.58 677.67,-377.61 697.67,-361.25 743.54,-323.73 754.21,-305.47 767.67,-247.75 772.7,-226.17 761.62,-172.61 759.67,-170.25 749.31,-157.72 713.68,-145.94 681.91,-137.52"/>
<polygon fill="#63b8ff" stroke="#63b8ff" points="682.9,-134.16 672.35,-135.07 681.16,-140.94 682.9,-134.16"/>
</a>
</g>
</g>
<!-- Node15 -->
<g id="Node000015" class="node">
<title>Node15</title>
<g id="a_Node000015"><a xlink:title=" ">
<polygon fill="#e0e0e0" stroke="#999999" points="266.54,-191 210.79,-191 210.79,-170.25 266.54,-170.25 266.54,-191"/>
<text xml:space="preserve" text-anchor="middle" x="238.67" y="-177.5" font-family="Helvetica,sans-Serif" font-size="10.00">sstream</text>
</a>
</g>
</g>
<!-- Node1&#45;&gt;Node15 -->
<g id="edge44_Node000001_Node000015" class="edge">
<title>Node1&#45;&gt;Node15</title>
<g id="a_edge44_Node000001_Node000015"><a xlink:title=" ">
<path fill="none" stroke="#63b8ff" d="M584.05,-396.95C553.36,-379.02 485.8,-339.3 429.67,-304.5 369.02,-266.9 298.66,-221.05 262.64,-197.41"/>
<polygon fill="#63b8ff" stroke="#63b8ff" points="264.97,-194.75 254.69,-192.18 261.12,-200.6 264.97,-194.75"/>
</a>
</g>
</g>
<!-- Node18 -->
<g id="Node000018" class="node">
<title>Node18</title>
<g id="a_Node000018"><a xlink:href="../../de/dd6/ICommand_8hpp.html" target="_top" xlink:title=" ">
<polygon fill="white" stroke="#666666" points="1099.79,-361.25 1009.54,-361.25 1009.54,-340.5 1099.79,-340.5 1099.79,-361.25"/>
<text xml:space="preserve" text-anchor="middle" x="1054.67" y="-347.75" font-family="Helvetica,sans-Serif" font-size="10.00">ICommand.hpp</text>
</a>
</g>
</g>
<!-- Node1&#45;&gt;Node18 -->
<g id="edge28_Node000001_Node000018" class="edge">
<title>Node1&#45;&gt;Node18</title>
<g id="a_edge28_Node000001_Node000018"><a xlink:title=" ">
<path fill="none" stroke="#63b8ff" d="M630.46,-403.65C696.38,-396.96 859.57,-379.87 995.67,-361.25 996.5,-361.14 997.33,-361.02 998.17,-360.9"/>
<polygon fill="#63b8ff" stroke="#63b8ff" points="998.39,-364.41 1007.78,-359.51 997.38,-357.48 998.39,-364.41"/>
</a>
</g>
</g>
<!-- Node19 -->
<g id="Node000019" class="node">
<title>Node19</title>
<g id="a_Node000019"><a xlink:href="../../de/d3d/Server_8hpp.html" target="_top" xlink:title=" ">
<polygon fill="white" stroke="#666666" points="899.54,-191 831.79,-191 831.79,-170.25 899.54,-170.25 899.54,-191"/>
<text xml:space="preserve" text-anchor="middle" x="865.67" y="-177.5" font-family="Helvetica,sans-Serif" font-size="10.00">Server.hpp</text>
</a>
</g>
</g>
<!-- Node1&#45;&gt;Node19 -->
<g id="edge31_Node000001_Node000019" class="edge">
<title>Node1&#45;&gt;Node19</title>
<g id="a_edge31_Node000001_Node000019"><a xlink:title=" ">
<path fill="none" stroke="#63b8ff" d="M630.33,-405.26C688.23,-401.93 813.11,-391.37 841.67,-361.25 882.9,-317.76 876.06,-239.55 869.86,-202.36"/>
<polygon fill="#63b8ff" stroke="#63b8ff" points="873.38,-202.12 868.13,-192.92 866.49,-203.39 873.38,-202.12"/>
</a>
</g>
</g>
<!-- Node21 -->
<g id="Node000021" class="node">
<title>Node21</title>
<g id="a_Node000021"><a xlink:href="../../df/d93/utils_8hpp.html" target="_top" xlink:title=" ">
<polygon fill="white" stroke="#666666" points="153.67,-247.75 95.67,-247.75 95.67,-227 153.67,-227 153.67,-247.75"/>
<text xml:space="preserve" text-anchor="middle" x="124.67" y="-234.25" font-family="Helvetica,sans-Serif" font-size="10.00">utils.hpp</text>
</a>
</g>
</g>
<!-- Node1&#45;&gt;Node21 -->
<g id="edge38_Node000001_Node000021" class="edge">
<title>Node1&#45;&gt;Node21</title>
<g id="a_edge38_Node000001_Node000021"><a xlink:title=" ">
<path fill="none" stroke="#63b8ff" d="M570.87,-405.31C478.34,-400.99 200.25,-386.05 168.67,-361.25 137.15,-336.49 128.18,-287.27 125.65,-259.22"/>
<polygon fill="#63b8ff" stroke="#63b8ff" points="129.16,-259.24 124.98,-249.5 122.17,-259.72 129.16,-259.24"/>
</a>
</g>
</g>
<!-- Node2&#45;&gt;Node3 -->
<g id="edge2_Node000002_Node000003" class="edge">
<title>Node2&#45;&gt;Node3</title>
<g id="a_edge2_Node000002_Node000003"><a xlink:title=" ">
<path fill="none" stroke="#63b8ff" d="M621.35,-340.09C594.96,-331.28 555.95,-318.25 526.7,-308.49"/>
<polygon fill="#63b8ff" stroke="#63b8ff" points="528.04,-305.25 517.45,-305.4 525.82,-311.89 528.04,-305.25"/>
</a>
</g>
</g>
<!-- Node2&#45;&gt;Node8 -->
<g id="edge25_Node000002_Node000008" class="edge">
<title>Node2&#45;&gt;Node8</title>
<g id="a_edge25_Node000002_Node000008"><a xlink:title=" ">
<path fill="none" stroke="#63b8ff" d="M648.07,-340.05C640.45,-312.19 616.51,-230.76 581.67,-170.25 571.42,-152.45 563.48,-151.72 552.67,-134.25 538.08,-110.65 535.37,-103.84 526.67,-77.5 521.76,-62.64 518.17,-45.31 515.85,-32.13"/>
<polygon fill="#63b8ff" stroke="#63b8ff" points="519.34,-31.76 514.26,-22.46 512.43,-32.89 519.34,-31.76"/>
</a>
</g>
</g>
<!-- Node2&#45;&gt;Node9 -->
<g id="edge26_Node000002_Node000009" class="edge">
<title>Node2&#45;&gt;Node9</title>
<g id="a_edge26_Node000002_Node000009"><a xlink:title=" ">
<path fill="none" stroke="#63b8ff" d="M684.65,-340.04C742.02,-321.44 856.89,-275.25 908.67,-191 939.48,-140.87 933.68,-67.55 928.41,-32.09"/>
<polygon fill="#63b8ff" stroke="#63b8ff" points="931.89,-31.65 926.81,-22.35 924.98,-32.79 931.89,-31.65"/>
</a>
</g>
</g>
<!-- Node2&#45;&gt;Node11 -->
<g id="edge23_Node000002_Node000011" class="edge">
<title>Node2&#45;&gt;Node11</title>
<g id="a_edge23_Node000002_Node000011"><a xlink:title=" ">
<path fill="none" stroke="#63b8ff" d="M674.88,-340.05C690.15,-332.58 708.96,-320.79 719.67,-304.5 752.82,-254.1 773.46,-220.23 739.67,-170.25 731.73,-158.5 701.06,-146.6 673.68,-137.94"/>
<polygon fill="#63b8ff" stroke="#63b8ff" points="675.04,-134.69 664.46,-135.11 672.99,-141.39 675.04,-134.69"/>
</a>
</g>
</g>
<!-- Node16 -->
<g id="Node000016" class="node">
<title>Node16</title>
<g id="a_Node000016"><a xlink:href="../../da/dcb/ReplyHandler_8hpp.html" target="_top" xlink:title=" ">
<polygon fill="white" stroke="#666666" points="730.79,-191 628.54,-191 628.54,-170.25 730.79,-170.25 730.79,-191"/>
<text xml:space="preserve" text-anchor="middle" x="679.67" y="-177.5" font-family="Helvetica,sans-Serif" font-size="10.00">ReplyHandler.hpp</text>
</a>
</g>
</g>
<!-- Node2&#45;&gt;Node16 -->
<g id="edge20_Node000002_Node000016" class="edge">
<title>Node2&#45;&gt;Node16</title>
<g id="a_edge20_Node000002_Node000016"><a xlink:title=" ">
<path fill="none" stroke="#63b8ff" d="M652.31,-340.35C656.86,-313.98 669.68,-239.58 676.02,-202.78"/>
<polygon fill="#63b8ff" stroke="#63b8ff" points="679.47,-203.41 677.72,-192.96 672.57,-202.22 679.47,-203.41"/>
</a>
</g>
</g>
<!-- Node17 -->
<g id="Node000017" class="node">
<title>Node17</title>
<g id="a_Node000017"><a xlink:title=" ">
<polygon fill="#e0e0e0" stroke="#999999" points="710.17,-304.5 679.17,-304.5 679.17,-283.75 710.17,-283.75 710.17,-304.5"/>
<text xml:space="preserve" text-anchor="middle" x="694.67" y="-291" font-family="Helvetica,sans-Serif" font-size="10.00">set</text>
</a>
</g>
</g>
<!-- Node2&#45;&gt;Node17 -->
<g id="edge24_Node000002_Node000017" class="edge">
<title>Node2&#45;&gt;Node17</title>
<g id="a_edge24_Node000002_Node000017"><a xlink:title=" ">
<path fill="none" stroke="#63b8ff" d="M658.54,-340.09C664.42,-332.77 672.64,-322.54 679.75,-313.69"/>
<polygon fill="#63b8ff" stroke="#63b8ff" points="682.39,-316 685.92,-306.01 676.93,-311.61 682.39,-316"/>
</a>
</g>
</g>
<!-- Node4 -->
<g id="Node000004" class="node">
<title>Node4</title>
<g id="a_Node000004"><a xlink:href="../../d9/d11/Logger_8hpp.html" target="_top" xlink:title=" ">
<polygon fill="white" stroke="#666666" points="422.29,-247.75 353.04,-247.75 353.04,-227 422.29,-227 422.29,-247.75"/>
<text xml:space="preserve" text-anchor="middle" x="387.67" y="-234.25" font-family="Helvetica,sans-Serif" font-size="10.00">Logger.hpp</text>
</a>
</g>
</g>
<!-- Node3&#45;&gt;Node4 -->
<g id="edge3_Node000003_Node000004" class="edge">
<title>Node3&#45;&gt;Node4</title>
<g id="a_edge3_Node000003_Node000004"><a xlink:title=" ">
<path fill="none" stroke="#63b8ff" d="M468.97,-283.34C454.05,-275.08 432.44,-263.13 415.25,-253.63"/>
<polygon fill="#63b8ff" stroke="#63b8ff" points="416.99,-250.59 406.54,-248.81 413.6,-256.71 416.99,-250.59"/>
</a>
</g>
</g>
<!-- Node4&#45;&gt;Node5 -->
<g id="edge4_Node000004_Node000005" class="edge">
<title>Node4&#45;&gt;Node5</title>
<g id="a_edge4_Node000004_Node000005"><a xlink:title=" ">
<path fill="none" stroke="#63b8ff" d="M401.61,-226.59C413.04,-218.57 429.44,-207.06 442.78,-197.69"/>
<polygon fill="#63b8ff" stroke="#63b8ff" points="444.43,-200.81 450.61,-192.2 440.41,-195.08 444.43,-200.81"/>
</a>
</g>
</g>
<!-- Node4&#45;&gt;Node8 -->
<g id="edge19_Node000004_Node000008" class="edge">
<title>Node4&#45;&gt;Node8</title>
<g id="a_edge19_Node000004_Node000008"><a xlink:title=" ">
<path fill="none" stroke="#63b8ff" d="M373.44,-226.59C357.49,-214.29 334.92,-192.15 343.67,-170.25 370.69,-102.66 443.81,-51.31 484.46,-26.96"/>
<polygon fill="#63b8ff" stroke="#63b8ff" points="486.11,-30.05 492.98,-21.99 482.58,-24.01 486.11,-30.05"/>
</a>
</g>
</g>
<!-- Node12 -->
<g id="Node000012" class="node">
<title>Node12</title>
<g id="a_Node000012"><a xlink:title=" ">
<polygon fill="#e0e0e0" stroke="#999999" points="484.54,-134.25 446.79,-134.25 446.79,-113.5 484.54,-113.5 484.54,-134.25"/>
<text xml:space="preserve" text-anchor="middle" x="465.67" y="-120.75" font-family="Helvetica,sans-Serif" font-size="10.00">map</text>
</a>
</g>
</g>
<!-- Node4&#45;&gt;Node12 -->
<g id="edge17_Node000004_Node000012" class="edge">
<title>Node4&#45;&gt;Node12</title>
<g id="a_edge17_Node000004_Node000012"><a xlink:title=" ">
<path fill="none" stroke="#63b8ff" d="M375.54,-226.62C360.61,-213.4 338.76,-189.29 351.67,-170.25 370.21,-142.92 408.11,-132.05 435.12,-127.73"/>
<polygon fill="#63b8ff" stroke="#63b8ff" points="435.36,-131.23 444.8,-126.41 434.42,-124.29 435.36,-131.23"/>
</a>
</g>
</g>
<!-- Node13 -->
<g id="Node000013" class="node">
<title>Node13</title>
<g id="a_Node000013"><a xlink:title=" ">
<polygon fill="#e0e0e0" stroke="#999999" points="414.79,-191 360.54,-191 360.54,-170.25 414.79,-170.25 414.79,-191"/>
<text xml:space="preserve" text-anchor="middle" x="387.67" y="-177.5" font-family="Helvetica,sans-Serif" font-size="10.00">fstream</text>
</a>
</g>
</g>
<!-- Node4&#45;&gt;Node13 -->
<g id="edge15_Node000004_Node000013" class="edge">
<title>Node4&#45;&gt;Node13</title>
<g id="a_edge15_Node000004_Node000013"><a xlink:title=" ">
<path fill="none" stroke="#63b8ff" d="M387.67,-226.59C387.67,-219.97 387.67,-210.97 387.67,-202.77"/>
<polygon fill="#63b8ff" stroke="#63b8ff" points="391.17,-202.84 387.67,-192.84 384.17,-202.84 391.17,-202.84"/>
</a>
</g>
</g>
<!-- Node14 -->
<g id="Node000014" class="node">
<title>Node14</title>
<g id="a_Node000014"><a xlink:title=" ">
<polygon fill="#e0e0e0" stroke="#999999" points="572.54,-191 516.79,-191 516.79,-170.25 572.54,-170.25 572.54,-191"/>
<text xml:space="preserve" text-anchor="middle" x="544.67" y="-177.5" font-family="Helvetica,sans-Serif" font-size="10.00">iomanip</text>
</a>
</g>
</g>
<!-- Node4&#45;&gt;Node14 -->
<g id="edge16_Node000004_Node000014" class="edge">
<title>Node4&#45;&gt;Node14</title>
<g id="a_edge16_Node000004_Node000014"><a xlink:title=" ">
<path fill="none" stroke="#63b8ff" d="M415.74,-226.59C440.89,-217.82 478.02,-204.87 505.98,-195.12"/>
<polygon fill="#63b8ff" stroke="#63b8ff" points="506.86,-198.52 515.15,-191.92 504.56,-191.91 506.86,-198.52"/>
</a>
</g>
</g>
<!-- Node4&#45;&gt;Node15 -->
<g id="edge18_Node000004_Node000015" class="edge">
<title>Node4&#45;&gt;Node15</title>
<g id="a_edge18_Node000004_Node000015"><a xlink:title=" ">
<path fill="none" stroke="#63b8ff" d="M361.03,-226.59C337.37,-217.89 302.55,-205.1 276.1,-195.38"/>
<polygon fill="#63b8ff" stroke="#63b8ff" points="277.34,-192.11 266.75,-191.94 274.93,-198.68 277.34,-192.11"/>
</a>
</g>
</g>
<!-- Node6 -->
<g id="Node000006" class="node">
<title>Node6</title>
<g id="a_Node000006"><a xlink:href="../../da/d81/TcpSocket_8hpp.html" target="_top" xlink:title=" ">
<polygon fill="white" stroke="#666666" points="777.17,-134.25 692.17,-134.25 692.17,-113.5 777.17,-113.5 777.17,-134.25"/>
<text xml:space="preserve" text-anchor="middle" x="734.67" y="-120.75" font-family="Helvetica,sans-Serif" font-size="10.00">TcpSocket.hpp</text>
</a>
</g>
</g>
<!-- Node5&#45;&gt;Node6 -->
<g id="edge5_Node000005_Node000006" class="edge">
<title>Node5&#45;&gt;Node6</title>
<g id="a_edge5_Node000005_Node000006"><a xlink:title=" ">
<path fill="none" stroke="#63b8ff" d="M498.67,-172.19C501.71,-171.52 504.75,-170.87 507.67,-170.25 566.75,-157.75 634.69,-144.29 680.72,-135.31"/>
<polygon fill="#63b8ff" stroke="#63b8ff" points="681.31,-138.76 690.45,-133.41 679.97,-131.89 681.31,-138.76"/>
</a>
</g>
</g>
<!-- Node5&#45;&gt;Node8 -->
<g id="edge14_Node000005_Node000008" class="edge">
<title>Node5&#45;&gt;Node8</title>
<g id="a_edge14_Node000005_Node000008"><a xlink:title=" ">
<path fill="none" stroke="#63b8ff" d="M456.81,-169.96C446.28,-157.25 430.91,-134.11 437.67,-113.5 448.73,-79.75 475.67,-47.96 494.06,-29.07"/>
<polygon fill="#63b8ff" stroke="#63b8ff" points="496.36,-31.72 500.98,-22.18 491.42,-26.75 496.36,-31.72"/>
</a>
</g>
</g>
<!-- Node5&#45;&gt;Node11 -->
<g id="edge12_Node000005_Node000011" class="edge">
<title>Node5&#45;&gt;Node11</title>
<g id="a_edge12_Node000005_Node000011"><a xlink:title=" ">
<path fill="none" stroke="#63b8ff" d="M494.45,-169.84C520.24,-161.07 558.32,-148.12 586.99,-138.37"/>
<polygon fill="#63b8ff" stroke="#63b8ff" points="588.09,-141.69 596.43,-135.16 585.84,-135.06 588.09,-141.69"/>
</a>
</g>
</g>
<!-- Node5&#45;&gt;Node12 -->
<g id="edge13_Node000005_Node000012" class="edge">
<title>Node5&#45;&gt;Node12</title>
<g id="a_edge13_Node000005_Node000012"><a xlink:title=" ">
<path fill="none" stroke="#63b8ff" d="M465.67,-169.84C465.67,-163.22 465.67,-154.22 465.67,-146.02"/>
<polygon fill="#63b8ff" stroke="#63b8ff" points="469.17,-146.09 465.67,-136.09 462.17,-146.09 469.17,-146.09"/>
</a>
</g>
</g>
<!-- Node7 -->
<g id="Node000007" class="node">
<title>Node7</title>
<g id="a_Node000007"><a xlink:href="../../df/dd7/consts_8hpp.html" target="_top" xlink:title=" ">
<polygon fill="white" stroke="#666666" points="776.92,-77.5 708.42,-77.5 708.42,-56.75 776.92,-56.75 776.92,-77.5"/>
<text xml:space="preserve" text-anchor="middle" x="742.67" y="-64" font-family="Helvetica,sans-Serif" font-size="10.00">consts.hpp</text>
</a>
</g>
</g>
<!-- Node6&#45;&gt;Node7 -->
<g id="edge6_Node000006_Node000007" class="edge">
<title>Node6&#45;&gt;Node7</title>
<g id="a_edge6_Node000006_Node000007"><a xlink:title=" ">
<path fill="none" stroke="#63b8ff" d="M736.1,-113.09C737.08,-106.39 738.41,-97.26 739.62,-88.98"/>
<polygon fill="#63b8ff" stroke="#63b8ff" points="743.05,-89.73 741.03,-79.33 736.12,-88.71 743.05,-89.73"/>
</a>
</g>
</g>
<!-- Node6&#45;&gt;Node8 -->
<g id="edge10_Node000006_Node000008" class="edge">
<title>Node6&#45;&gt;Node8</title>
<g id="a_edge10_Node000006_Node000008"><a xlink:title=" ">
<path fill="none" stroke="#63b8ff" d="M700.55,-113.04C674.86,-105.03 639.16,-92.6 609.67,-77.5 582.02,-63.34 552.91,-42.6 533.88,-28.13"/>
<polygon fill="#63b8ff" stroke="#63b8ff" points="536.16,-25.47 526.1,-22.13 531.88,-31.02 536.16,-25.47"/>
</a>
</g>
</g>
<!-- Node6&#45;&gt;Node9 -->
<g id="edge11_Node000006_Node000009" class="edge">
<title>Node6&#45;&gt;Node9</title>
<g id="a_edge11_Node000006_Node000009"><a xlink:title=" ">
<path fill="none" stroke="#63b8ff" d="M751.2,-113.18C784.18,-93.82 858.42,-50.25 898.25,-26.88"/>
<polygon fill="#63b8ff" stroke="#63b8ff" points="899.89,-29.98 906.74,-21.9 896.34,-23.94 899.89,-29.98"/>
</a>
</g>
</g>
<!-- Node10 -->
<g id="Node000010" class="node">
<title>Node10</title>
<g id="a_Node000010"><a xlink:title=" ">
<polygon fill="#e0e0e0" stroke="#999999" points="690.42,-77.5 618.92,-77.5 618.92,-56.75 690.42,-56.75 690.42,-77.5"/>
<text xml:space="preserve" text-anchor="middle" x="654.67" y="-64" font-family="Helvetica,sans-Serif" font-size="10.00">netinet/in.h</text>
</a>
</g>
</g>
<!-- Node6&#45;&gt;Node10 -->
<g id="edge9_Node000006_Node000010" class="edge">
<title>Node6&#45;&gt;Node10</title>
<g id="a_edge9_Node000006_Node000010"><a xlink:title=" ">
<path fill="none" stroke="#63b8ff" d="M720.37,-113.09C708.65,-105.07 691.83,-93.56 678.14,-84.19"/>
<polygon fill="#63b8ff" stroke="#63b8ff" points="680.33,-81.44 670.1,-78.68 676.37,-87.22 680.33,-81.44"/>
</a>
</g>
</g>
<!-- Node7&#45;&gt;Node8 -->
<g id="edge7_Node000007_Node000008" class="edge">
<title>Node7&#45;&gt;Node8</title>
<g id="a_edge7_Node000007_Node000008"><a xlink:title=" ">
<path fill="none" stroke="#63b8ff" d="M708.24,-57.93C664.39,-47.49 589.13,-29.58 545.87,-19.28"/>
<polygon fill="#63b8ff" stroke="#63b8ff" points="546.84,-15.91 536.3,-17 545.22,-22.72 546.84,-15.91"/>
</a>
</g>
</g>
<!-- Node7&#45;&gt;Node9 -->
<g id="edge8_Node000007_Node000009" class="edge">
<title>Node7&#45;&gt;Node9</title>
<g id="a_edge8_Node000007_Node000009"><a xlink:title=" ">
<path fill="none" stroke="#63b8ff" d="M775.21,-56.34C807.49,-46.62 856.81,-31.79 889.86,-21.85"/>
<polygon fill="#63b8ff" stroke="#63b8ff" points="890.81,-25.22 899.37,-18.98 888.79,-18.51 890.81,-25.22"/>
</a>
</g>
</g>
<!-- Node16&#45;&gt;Node8 -->
<g id="edge22_Node000016_Node000008" class="edge">
<title>Node16&#45;&gt;Node8</title>
<g id="a_edge22_Node000016_Node000008"><a xlink:title=" ">
<path fill="none" stroke="#63b8ff" d="M636.04,-169.76C613.92,-162.9 587.95,-151.75 569.67,-134.25 554.08,-119.32 531.53,-62.59 520.02,-31.7"/>
<polygon fill="#63b8ff" stroke="#63b8ff" points="523.32,-30.53 516.59,-22.35 516.75,-32.94 523.32,-30.53"/>
</a>
</g>
</g>
<!-- Node16&#45;&gt;Node11 -->
<g id="edge21_Node000016_Node000011" class="edge">
<title>Node16&#45;&gt;Node11</title>
<g id="a_edge21_Node000016_Node000011"><a xlink:title=" ">
<path fill="none" stroke="#63b8ff" d="M670.19,-169.84C662.88,-162.28 652.58,-151.64 643.83,-142.6"/>
<polygon fill="#63b8ff" stroke="#63b8ff" points="646.59,-140.42 637.12,-135.67 641.56,-145.29 646.59,-140.42"/>
</a>
</g>
</g>
<!-- Node18&#45;&gt;Node9 -->
<g id="edge29_Node000018_Node000009" class="edge">
<title>Node18&#45;&gt;Node9</title>
<g id="a_edge29_Node000018_Node000009"><a xlink:title=" ">
<path fill="none" stroke="#63b8ff" d="M1052.01,-340.12C1047.01,-320.83 1036.67,-276.42 1036.67,-238.38 1036.67,-238.38 1036.67,-238.38 1036.67,-122.88 1036.67,-77.57 990.07,-44.32 956.99,-26.42"/>
<polygon fill="#63b8ff" stroke="#63b8ff" points="958.63,-23.33 948.14,-21.85 955.42,-29.55 958.63,-23.33"/>
</a>
</g>
</g>
<!-- Node19&#45;&gt;Node6 -->
<g id="edge32_Node000019_Node000006" class="edge">
<title>Node19&#45;&gt;Node6</title>
<g id="a_edge32_Node000019_Node000006"><a xlink:title=" ">
<path fill="none" stroke="#63b8ff" d="M842.25,-169.84C821.67,-161.23 791.47,-148.61 768.3,-138.93"/>
<polygon fill="#63b8ff" stroke="#63b8ff" points="769.86,-135.79 759.28,-135.16 767.16,-142.25 769.86,-135.79"/>
</a>
</g>
</g>
<!-- Node19&#45;&gt;Node8 -->
<g id="edge35_Node000019_Node000008" class="edge">
<title>Node19&#45;&gt;Node8</title>
<g id="a_edge35_Node000019_Node000008"><a xlink:title=" ">
<path fill="none" stroke="#63b8ff" d="M855.69,-169.77C847.09,-160.95 834.68,-147.43 825.67,-134.25 803.8,-102.25 817,-79.57 785.67,-56.75 748,-29.31 610.65,-17.4 546.33,-13.24"/>
<polygon fill="#63b8ff" stroke="#63b8ff" points="546.55,-9.75 536.36,-12.63 546.12,-16.74 546.55,-9.75"/>
</a>
</g>
</g>
<!-- Node19&#45;&gt;Node9 -->
<g id="edge36_Node000019_Node000009" class="edge">
<title>Node19&#45;&gt;Node9</title>
<g id="a_edge36_Node000019_Node000009"><a xlink:title=" ">
<path fill="none" stroke="#63b8ff" d="M870.56,-170.05C875.08,-160.98 881.81,-146.89 886.67,-134.25 900.23,-98.94 912.48,-56.56 919.22,-31.93"/>
<polygon fill="#63b8ff" stroke="#63b8ff" points="922.53,-33.11 921.75,-22.54 915.77,-31.29 922.53,-33.11"/>
</a>
</g>
</g>
<!-- Node19&#45;&gt;Node12 -->
<g id="edge33_Node000019_Node000012" class="edge">
<title>Node19&#45;&gt;Node12</title>
<g id="a_edge33_Node000019_Node000012"><a xlink:title=" ">
<path fill="none" stroke="#63b8ff" d="M831.57,-174.96C754.79,-164.45 569.39,-139.07 496.16,-129.05"/>
<polygon fill="#63b8ff" stroke="#63b8ff" points="496.89,-125.62 486.51,-127.73 495.94,-132.55 496.89,-125.62"/>
</a>
</g>
</g>
<!-- Node20 -->
<g id="Node000020" class="node">
<title>Node20</title>
<g id="a_Node000020"><a xlink:title=" ">
<polygon fill="#e0e0e0" stroke="#999999" points="877.17,-134.25 834.17,-134.25 834.17,-113.5 877.17,-113.5 877.17,-134.25"/>
<text xml:space="preserve" text-anchor="middle" x="855.67" y="-120.75" font-family="Helvetica,sans-Serif" font-size="10.00">poll.h</text>
</a>
</g>
</g>
<!-- Node19&#45;&gt;Node20 -->
<g id="edge34_Node000019_Node000020" class="edge">
<title>Node19&#45;&gt;Node20</title>
<g id="a_edge34_Node000019_Node000020"><a xlink:title=" ">
<path fill="none" stroke="#63b8ff" d="M863.88,-169.84C862.66,-163.14 860.99,-154.01 859.48,-145.73"/>
<polygon fill="#63b8ff" stroke="#63b8ff" points="862.95,-145.28 857.71,-136.07 856.07,-146.53 862.95,-145.28"/>
</a>
</g>
</g>
<!-- Node21&#45;&gt;Node5 -->
<g id="edge39_Node000021_Node000005" class="edge">
<title>Node21&#45;&gt;Node5</title>
<g id="a_edge39_Node000021_Node000005"><a xlink:title=" ">
<path fill="none" stroke="#63b8ff" d="M154.07,-232.6C205.96,-225.79 317.4,-210.5 421.66,-191.27"/>
<polygon fill="#63b8ff" stroke="#63b8ff" points="422.02,-194.76 431.21,-189.49 420.74,-187.88 422.02,-194.76"/>
</a>
</g>
</g>
<!-- Node21&#45;&gt;Node8 -->
<g id="edge43_Node000021_Node000008" class="edge">
<title>Node21&#45;&gt;Node8</title>
<g id="a_edge43_Node000021_Node000008"><a xlink:title=" ">
<path fill="none" stroke="#63b8ff" d="M95.45,-232.72C53.49,-226.06 -16.66,-208.92 3.67,-170.25 45.1,-91.47 85.58,-88.67 168.67,-56.75 276.7,-15.24 416.32,-10.48 479.28,-10.69"/>
<polygon fill="#63b8ff" stroke="#63b8ff" points="478.92,-14.18 488.95,-10.77 478.98,-7.18 478.92,-14.18"/>
</a>
</g>
</g>
<!-- Node21&#45;&gt;Node15 -->
<g id="edge41_Node000021_Node000015" class="edge">
<title>Node21&#45;&gt;Node15</title>
<g id="a_edge41_Node000021_Node000015"><a xlink:title=" ">
<path fill="none" stroke="#63b8ff" d="M145.05,-226.59C162.64,-218.14 188.3,-205.82 208.3,-196.21"/>
<polygon fill="#63b8ff" stroke="#63b8ff" points="209.6,-199.47 217.1,-191.98 206.57,-193.16 209.6,-199.47"/>
</a>
</g>
</g>
<!-- Node22 -->
<g id="Node000022" class="node">
<title>Node22</title>
<g id="a_Node000022"><a xlink:title=" ">
<polygon fill="#e0e0e0" stroke="#999999" points="72.42,-191 12.92,-191 12.92,-170.25 72.42,-170.25 72.42,-191"/>
<text xml:space="preserve" text-anchor="middle" x="42.67" y="-177.5" font-family="Helvetica,sans-Serif" font-size="10.00">iostream</text>
</a>
</g>
</g>
<!-- Node21&#45;&gt;Node22 -->
<g id="edge40_Node000021_Node000022" class="edge">
<title>Node21&#45;&gt;Node22</title>
<g id="a_edge40_Node000021_Node000022"><a xlink:title=" ">
<path fill="none" stroke="#63b8ff" d="M110.01,-226.59C98,-218.57 80.76,-207.06 66.73,-197.69"/>
<polygon fill="#63b8ff" stroke="#63b8ff" points="68.72,-194.81 58.46,-192.17 64.83,-200.63 68.72,-194.81"/>
</a>
</g>
</g>
<!-- Node23 -->
<g id="Node000023" class="node">
<title>Node23</title>
<g id="a_Node000023"><a xlink:title=" ">
<polygon fill="#e0e0e0" stroke="#999999" points="154.67,-191 90.67,-191 90.67,-170.25 154.67,-170.25 154.67,-191"/>
<text xml:space="preserve" text-anchor="middle" x="122.67" y="-177.5" font-family="Helvetica,sans-Serif" font-size="10.00">stdexcept</text>
</a>
</g>
</g>
<!-- Node21&#45;&gt;Node23 -->
<g id="edge42_Node000021_Node000023" class="edge">
<title>Node21&#45;&gt;Node23</title>
<g id="a_edge42_Node000021_Node000023"><a xlink:title=" ">
<path fill="none" stroke="#63b8ff" d="M124.31,-226.59C124.07,-219.97 123.74,-210.97 123.44,-202.77"/>
<polygon fill="#63b8ff" stroke="#63b8ff" points="126.94,-202.71 123.08,-192.84 119.95,-202.96 126.94,-202.71"/>
</a>
</g>
</g>
</g>
</svg>
