<?xml version="1.0" encoding="UTF-8" standalone="no"?>
<!DOCTYPE svg PUBLIC "-//W3C//DTD SVG 1.1//EN"
 "http://www.w3.org/Graphics/SVG/1.1/DTD/svg11.dtd">
<!-- Generated by graphviz version 14.0.1 (0)
 -->
<!-- Title: Privmsg Pages: 1 -->
<svg width="97pt" height="220pt"
 viewBox="0.00 0.00 97.00 220.00" xmlns="http://www.w3.org/2000/svg" xmlns:xlink="http://www.w3.org/1999/xlink">
<g id="graph0" class="graph" transform="scale(1 1) rotate(0) translate(4 215.5)">
<title>Privmsg</title>
<!-- Node1 -->
<g id="Node000001" class="node">
<title>Node1</title>
<g id="a_Node000001"><a xlink:title="Handler for IRC PRIVMSG.">
<polygon fill="#999999" stroke="none" points="82.5,-87.75 6.75,-87.75 6.75,0 82.5,0 82.5,-87.75"/>
<text xml:space="preserve" text-anchor="start" x="24.75" y="-74.25" font-family="Helvetica,sans-Serif" font-size="10.00">Privmsg</text>
<text xml:space="preserve" text-anchor="start" x="43.12" y="-57.5" font-family="Helvetica,sans-Serif" font-size="10.00"> </text>
<text xml:space="preserve" text-anchor="start" x="10.75" y="-40.75" font-family="Helvetica,sans-Serif" font-size="10.00">+</text>
<text xml:space="preserve" text-anchor="start" x="23" y="-40.75" font-family="Helvetica,sans-Serif" font-size="10.00">Privmsg()</text>
<text xml:space="preserve" text-anchor="start" x="10.75" y="-24" font-family="Helvetica,sans-Serif" font-size="10.00">+</text>
<text xml:space="preserve" text-anchor="start" x="23" y="-24" font-family="Helvetica,sans-Serif" font-size="10.00">~Privmsg()</text>
<text xml:space="preserve" text-anchor="start" x="10.75" y="-7.25" font-family="Helvetica,sans-Serif" font-size="10.00">+</text>
<text xml:space="preserve" text-anchor="start" x="23" y="-7.25" font-family="Helvetica,sans-Serif" font-size="10.00">execute()</text>
<polygon fill="#666666" stroke="#666666" points="6.75,-69 6.75,-69 82.5,-69 82.5,-69 6.75,-69"/>
<polygon fill="#666666" stroke="#666666" points="6.75,-52.25 6.75,-52.25 82.5,-52.25 82.5,-52.25 6.75,-52.25"/>
<polygon fill="none" stroke="#666666" points="6.75,0 6.75,-87.75 82.5,-87.75 82.5,0 6.75,0"/>
</a>
</g>
</g>
<!-- Node2 -->
<g id="Node000002" class="node">
<title>Node2</title>
<g id="a_Node000002"><a xlink:href="../../db/da2/classICommand.html" target="_top" xlink:title="Interface providing an execute behavior for all commands.">
<polygon fill="white" stroke="none" points="89.25,-211.5 0,-211.5 0,-123.75 89.25,-123.75 89.25,-211.5"/>
<text xml:space="preserve" text-anchor="start" x="18" y="-198" font-family="Helvetica,sans-Serif" font-size="10.00">ICommand</text>
<text xml:space="preserve" text-anchor="start" x="43.12" y="-181.25" font-family="Helvetica,sans-Serif" font-size="10.00"> </text>
<text xml:space="preserve" text-anchor="start" x="4" y="-164.5" font-family="Helvetica,sans-Serif" font-size="10.00">+</text>
<text xml:space="preserve" text-anchor="start" x="16.25" y="-164.5" font-family="Helvetica,sans-Serif" font-size="10.00">~ICommand()</text>
<text xml:space="preserve" text-anchor="start" x="4" y="-147.75" font-family="Helvetica,sans-Serif" font-size="10.00">+</text>
<text xml:space="preserve" text-anchor="start" x="16.25" y="-147.75" font-family="Helvetica,sans-Serif" font-size="10.00">execute()</text>
<text xml:space="preserve" text-anchor="start" x="4" y="-131" font-family="Helvetica,sans-Serif" font-size="10.00">#</text>
<text xml:space="preserve" text-anchor="start" x="16.25" y="-131" font-family="Helvetica,sans-Serif" font-size="10.00">ICommand()</text>
<polygon fill="#666666" stroke="#666666" points="0,-192.75 0,-192.75 89.25,-192.75 89.25,-192.75 0,-192.75"/>
<polygon fill="#666666" stroke="#666666" points="0,-176 0,-176 89.25,-176 89.25,-176 0,-176"/>
<polygon fill="none" stroke="#666666" points="0,-123.75 0,-211.5 89.25,-211.5 89.25,-123.75 0,-123.75"/>
</a>
</g>
</g>
<!-- Node2&#45;&gt;Node1 -->
<g id="edge1_Node000001_Node000002" class="edge">
<title>Node2&#45;&gt;Node1</title>
<g id="a_edge1_Node000001_Node000002"><a xlink:title=" ">
<path fill="none" stroke="#63b8ff" d="M44.62,-112.75C44.62,-104.34 44.62,-95.75 44.62,-87.64"/>
<polygon fill="none" stroke="#63b8ff" points="41.13,-112.53 44.63,-122.53 48.13,-112.53 41.13,-112.53"/>
</a>
</g>
</g>
</g>
</svg>
