<?xml version="1.0" encoding="UTF-8" standalone="no"?>
<!DOCTYPE svg PUBLIC "-//W3C//DTD SVG 1.1//EN"
 "http://www.w3.org/Graphics/SVG/1.1/DTD/svg11.dtd">
<!-- Generated by graphviz version 14.0.1 (0)
 -->
<!-- Title: Channel.hpp Pages: 1 -->
<svg width="478pt" height="86pt"
 viewBox="0.00 0.00 478.00 86.00" xmlns="http://www.w3.org/2000/svg" xmlns:xlink="http://www.w3.org/1999/xlink">
<g id="graph0" class="graph" transform="scale(1 1) rotate(0) translate(4 81.5)">
<title>Channel.hpp</title>
<!-- Node1 -->
<g id="Node000001" class="node">
<title>Node1</title>
<g id="a_Node000001"><a xlink:title="Channel class.">
<polygon fill="#999999" stroke="#666666" points="266.12,-77.5 189.38,-77.5 189.38,-56.75 266.12,-56.75 266.12,-77.5"/>
<text xml:space="preserve" text-anchor="middle" x="227.75" y="-64" font-family="Helvetica,sans-Serif" font-size="10.00">Channel.hpp</text>
</a>
</g>
</g>
<!-- Node2 -->
<g id="Node000002" class="node">
<title>Node2</title>
<g id="a_Node000002"><a xlink:href="../../d8/d55/Bot_8hpp.html" target="_top" xlink:title="Implements BOT Command (non RFC)">
<polygon fill="white" stroke="#666666" points="53.5,-20.75 0,-20.75 0,0 53.5,0 53.5,-20.75"/>
<text xml:space="preserve" text-anchor="middle" x="26.75" y="-7.25" font-family="Helvetica,sans-Serif" font-size="10.00">Bot.hpp</text>
</a>
</g>
</g>
<!-- Node1&#45;&gt;Node2 -->
<g id="edge1_Node000001_Node000002" class="edge">
<title>Node1&#45;&gt;Node2</title>
<g id="a_edge1_Node000001_Node000002"><a xlink:title=" ">
<path fill="none" stroke="#63b8ff" d="M180.89,-53.36C141.49,-42.63 86.54,-27.66 54,-18.8"/>
<polygon fill="#63b8ff" stroke="#63b8ff" points="179.79,-56.69 190.35,-55.94 181.63,-49.93 179.79,-56.69"/>
</a>
</g>
</g>
<!-- Node3 -->
<g id="Node000003" class="node">
<title>Node3</title>
<g id="a_Node000003"><a xlink:href="../../d0/d9f/Invite_8hpp.html" target="_top" xlink:title="Implements IRC INVITE command.">
<polygon fill="white" stroke="#666666" points="136.12,-20.75 71.38,-20.75 71.38,0 136.12,0 136.12,-20.75"/>
<text xml:space="preserve" text-anchor="middle" x="103.75" y="-7.25" font-family="Helvetica,sans-Serif" font-size="10.00">Invite.hpp</text>
</a>
</g>
</g>
<!-- Node1&#45;&gt;Node3 -->
<g id="edge2_Node000001_Node000003" class="edge">
<title>Node1&#45;&gt;Node3</title>
<g id="a_edge2_Node000001_Node000003"><a xlink:title=" ">
<path fill="none" stroke="#63b8ff" d="M195.1,-51.71C173.21,-42.05 144.98,-29.58 125.73,-21.08"/>
<polygon fill="#63b8ff" stroke="#63b8ff" points="193.64,-54.89 204.2,-55.73 196.46,-48.48 193.64,-54.89"/>
</a>
</g>
</g>
<!-- Node4 -->
<g id="Node000004" class="node">
<title>Node4</title>
<g id="a_Node000004"><a xlink:href="../../d7/ddd/Parser_8hpp.html" target="_top" xlink:title="Parser class.">
<polygon fill="white" stroke="#666666" points="220.88,-20.75 154.62,-20.75 154.62,0 220.88,0 220.88,-20.75"/>
<text xml:space="preserve" text-anchor="middle" x="187.75" y="-7.25" font-family="Helvetica,sans-Serif" font-size="10.00">Parser.hpp</text>
</a>
</g>
</g>
<!-- Node1&#45;&gt;Node4 -->
<g id="edge3_Node000001_Node000004" class="edge">
<title>Node1&#45;&gt;Node4</title>
<g id="a_edge3_Node000001_Node000004"><a xlink:title=" ">
<path fill="none" stroke="#63b8ff" d="M213.9,-47.17C207.48,-38.38 200.11,-28.3 194.84,-21.08"/>
<polygon fill="#63b8ff" stroke="#63b8ff" points="210.98,-49.1 219.71,-55.11 216.63,-44.98 210.98,-49.1"/>
</a>
</g>
</g>
<!-- Node5 -->
<g id="Node000005" class="node">
<title>Node5</title>
<g id="a_Node000005"><a xlink:href="../../df/d5f/Pass_8hpp.html" target="_top" xlink:title="Implements IRC PASS command.">
<polygon fill="white" stroke="#666666" points="298.12,-20.75 239.38,-20.75 239.38,0 298.12,0 298.12,-20.75"/>
<text xml:space="preserve" text-anchor="middle" x="268.75" y="-7.25" font-family="Helvetica,sans-Serif" font-size="10.00">Pass.hpp</text>
</a>
</g>
</g>
<!-- Node1&#45;&gt;Node5 -->
<g id="edge4_Node000001_Node000005" class="edge">
<title>Node1&#45;&gt;Node5</title>
<g id="a_edge4_Node000001_Node000005"><a xlink:title=" ">
<path fill="none" stroke="#63b8ff" d="M241.94,-47.17C248.53,-38.38 256.08,-28.3 261.48,-21.08"/>
<polygon fill="#63b8ff" stroke="#63b8ff" points="239.18,-45.02 235.99,-55.13 244.78,-49.22 239.18,-45.02"/>
</a>
</g>
</g>
<!-- Node6 -->
<g id="Node000006" class="node">
<title>Node6</title>
<g id="a_Node000006"><a xlink:href="../../d6/df8/Privmsg_8hpp.html" target="_top" xlink:title="Implements IRC PRIVMSG command.">
<polygon fill="white" stroke="#666666" points="393.12,-20.75 316.38,-20.75 316.38,0 393.12,0 393.12,-20.75"/>
<text xml:space="preserve" text-anchor="middle" x="354.75" y="-7.25" font-family="Helvetica,sans-Serif" font-size="10.00">Privmsg.hpp</text>
</a>
</g>
</g>
<!-- Node1&#45;&gt;Node6 -->
<g id="edge5_Node000001_Node000006" class="edge">
<title>Node1&#45;&gt;Node6</title>
<g id="a_edge5_Node000001_Node000006"><a xlink:title=" ">
<path fill="none" stroke="#63b8ff" d="M260.88,-51.84C283.34,-42.16 312.44,-29.62 332.24,-21.08"/>
<polygon fill="#63b8ff" stroke="#63b8ff" points="259.64,-48.56 251.84,-55.74 262.41,-54.99 259.64,-48.56"/>
</a>
</g>
</g>
<!-- Node7 -->
<g id="Node000007" class="node">
<title>Node7</title>
<g id="a_Node000007"><a xlink:href="../../df/d93/Who_8hpp.html" target="_top" xlink:title="Implements IRC WHO command.">
<polygon fill="white" stroke="#666666" points="470.12,-20.75 411.38,-20.75 411.38,0 470.12,0 470.12,-20.75"/>
<text xml:space="preserve" text-anchor="middle" x="440.75" y="-7.25" font-family="Helvetica,sans-Serif" font-size="10.00">Who.hpp</text>
</a>
</g>
</g>
<!-- Node1&#45;&gt;Node7 -->
<g id="edge6_Node000001_Node000007" class="edge">
<title>Node1&#45;&gt;Node7</title>
<g id="a_edge6_Node000001_Node000007"><a xlink:title=" ">
<path fill="none" stroke="#63b8ff" d="M276.77,-53.52C318.17,-42.88 376.13,-27.99 410.9,-19.05"/>
<polygon fill="#63b8ff" stroke="#63b8ff" points="276.11,-50.08 267.3,-55.96 277.85,-56.86 276.11,-50.08"/>
</a>
</g>
</g>
</g>
</svg>
