<?xml version="1.0" encoding="UTF-8" standalone="no"?>
<!DOCTYPE svg PUBLIC "-//W3C//DTD SVG 1.1//EN"
 "http://www.w3.org/Graphics/SVG/1.1/DTD/svg11.dtd">
<!-- Generated by graphviz version 14.0.1 (0)
 -->
<!-- Title: consts.hpp Pages: 1 -->
<svg width="496pt" height="313pt"
 viewBox="0.00 0.00 496.00 313.00" xmlns="http://www.w3.org/2000/svg" xmlns:xlink="http://www.w3.org/1999/xlink">
<g id="graph0" class="graph" transform="scale(1 1) rotate(0) translate(4 308.5)">
<title>consts.hpp</title>
<!-- Node1 -->
<g id="Node000001" class="node">
<title>Node1</title>
<g id="a_Node000001"><a xlink:title="constants used throughout IRC server program">
<polygon fill="#999999" stroke="#666666" points="165,-304.5 96.5,-304.5 96.5,-283.75 165,-283.75 165,-304.5"/>
<text xml:space="preserve" text-anchor="middle" x="130.75" y="-291" font-family="Helvetica,sans-Serif" font-size="10.00">consts.hpp</text>
</a>
</g>
</g>
<!-- Node2 -->
<g id="Node000002" class="node">
<title>Node2</title>
<g id="a_Node000002"><a xlink:href="../../da/d81/TcpSocket_8hpp.html" target="_top" xlink:title="TcpSocket class.">
<polygon fill="white" stroke="#666666" points="173.25,-247.75 88.25,-247.75 88.25,-227 173.25,-227 173.25,-247.75"/>
<text xml:space="preserve" text-anchor="middle" x="130.75" y="-234.25" font-family="Helvetica,sans-Serif" font-size="10.00">TcpSocket.hpp</text>
</a>
</g>
</g>
<!-- Node1&#45;&gt;Node2 -->
<g id="edge1_Node000001_Node000002" class="edge">
<title>Node1&#45;&gt;Node2</title>
<g id="a_edge1_Node000001_Node000002"><a xlink:title=" ">
<path fill="none" stroke="#63b8ff" d="M130.75,-271.88C130.75,-263.66 130.75,-254.68 130.75,-248.08"/>
<polygon fill="#63b8ff" stroke="#63b8ff" points="127.25,-271.82 130.75,-281.82 134.25,-271.82 127.25,-271.82"/>
</a>
</g>
</g>
<!-- Node3 -->
<g id="Node000003" class="node">
<title>Node3</title>
<g id="a_Node000003"><a xlink:href="../../d8/d55/Bot_8hpp.html" target="_top" xlink:title="Implements BOT Command (non RFC)">
<polygon fill="white" stroke="#666666" points="53.5,-134.25 0,-134.25 0,-113.5 53.5,-113.5 53.5,-134.25"/>
<text xml:space="preserve" text-anchor="middle" x="26.75" y="-120.75" font-family="Helvetica,sans-Serif" font-size="10.00">Bot.hpp</text>
</a>
</g>
</g>
<!-- Node2&#45;&gt;Node3 -->
<g id="edge2_Node000002_Node000003" class="edge">
<title>Node2&#45;&gt;Node3</title>
<g id="a_edge2_Node000002_Node000003"><a xlink:title=" ">
<path fill="none" stroke="#63b8ff" d="M113.65,-218.44C105.74,-210.12 96.24,-200.08 87.75,-191 68.98,-170.92 47.18,-147.2 35.4,-134.33"/>
<polygon fill="#63b8ff" stroke="#63b8ff" points="111.01,-220.75 120.44,-225.58 116.08,-215.92 111.01,-220.75"/>
</a>
</g>
</g>
<!-- Node4 -->
<g id="Node000004" class="node">
<title>Node4</title>
<g id="a_Node000004"><a xlink:href="../../d3/d8e/Client_8hpp.html" target="_top" xlink:title="Client class.">
<polygon fill="white" stroke="#666666" points="259.5,-191 194,-191 194,-170.25 259.5,-170.25 259.5,-191"/>
<text xml:space="preserve" text-anchor="middle" x="226.75" y="-177.5" font-family="Helvetica,sans-Serif" font-size="10.00">Client.hpp</text>
</a>
</g>
</g>
<!-- Node2&#45;&gt;Node4 -->
<g id="edge3_Node000002_Node000004" class="edge">
<title>Node2&#45;&gt;Node4</title>
<g id="a_edge3_Node000002_Node000004"><a xlink:title=" ">
<path fill="none" stroke="#63b8ff" d="M157.66,-221.03C174.36,-211.5 195.31,-199.56 209.74,-191.33"/>
<polygon fill="#63b8ff" stroke="#63b8ff" points="156.18,-217.84 149.23,-225.84 159.65,-223.92 156.18,-217.84"/>
</a>
</g>
</g>
<!-- Node12 -->
<g id="Node000012" class="node">
<title>Node12</title>
<g id="a_Node000012"><a xlink:href="../../de/d3d/Server_8hpp.html" target="_top" xlink:title="Server class.">
<polygon fill="white" stroke="#666666" points="164.62,-191 96.88,-191 96.88,-170.25 164.62,-170.25 164.62,-191"/>
<text xml:space="preserve" text-anchor="middle" x="130.75" y="-177.5" font-family="Helvetica,sans-Serif" font-size="10.00">Server.hpp</text>
</a>
</g>
</g>
<!-- Node2&#45;&gt;Node12 -->
<g id="edge14_Node000002_Node000012" class="edge">
<title>Node2&#45;&gt;Node12</title>
<g id="a_edge14_Node000002_Node000012"><a xlink:title=" ">
<path fill="none" stroke="#63b8ff" d="M130.75,-215.13C130.75,-206.91 130.75,-197.93 130.75,-191.33"/>
<polygon fill="#63b8ff" stroke="#63b8ff" points="127.25,-215.07 130.75,-225.07 134.25,-215.07 127.25,-215.07"/>
</a>
</g>
</g>
<!-- Node4&#45;&gt;Node3 -->
<g id="edge4_Node000004_Node000003" class="edge">
<title>Node4&#45;&gt;Node3</title>
<g id="a_edge4_Node000004_Node000003"><a xlink:title=" ">
<path fill="none" stroke="#63b8ff" d="M182.85,-167.61C143.43,-156.82 86.84,-141.32 53.73,-132.26"/>
<polygon fill="#63b8ff" stroke="#63b8ff" points="181.69,-170.92 192.26,-170.18 183.54,-164.17 181.69,-170.92"/>
</a>
</g>
</g>
<!-- Node5 -->
<g id="Node000005" class="node">
<title>Node5</title>
<g id="a_Node000005"><a xlink:href="../../d0/d9f/Invite_8hpp.html" target="_top" xlink:title="Implements IRC INVITE command.">
<polygon fill="white" stroke="#666666" points="251.12,-134.25 186.38,-134.25 186.38,-113.5 251.12,-113.5 251.12,-134.25"/>
<text xml:space="preserve" text-anchor="middle" x="218.75" y="-120.75" font-family="Helvetica,sans-Serif" font-size="10.00">Invite.hpp</text>
</a>
</g>
</g>
<!-- Node4&#45;&gt;Node5 -->
<g id="edge5_Node000004_Node000005" class="edge">
<title>Node4&#45;&gt;Node5</title>
<g id="a_edge5_Node000004_Node000005"><a xlink:title=" ">
<path fill="none" stroke="#63b8ff" d="M223.69,-158.67C222.48,-150.38 221.14,-141.25 220.17,-134.58"/>
<polygon fill="#63b8ff" stroke="#63b8ff" points="220.19,-158.95 225.1,-168.34 227.12,-157.94 220.19,-158.95"/>
</a>
</g>
</g>
<!-- Node6 -->
<g id="Node000006" class="node">
<title>Node6</title>
<g id="a_Node000006"><a xlink:href="../../da/dac/Join_8hpp.html" target="_top" xlink:title="Implement IRC JOIN Command.">
<polygon fill="white" stroke="#666666" points="488.25,-134.25 433.25,-134.25 433.25,-113.5 488.25,-113.5 488.25,-134.25"/>
<text xml:space="preserve" text-anchor="middle" x="460.75" y="-120.75" font-family="Helvetica,sans-Serif" font-size="10.00">Join.hpp</text>
</a>
</g>
</g>
<!-- Node4&#45;&gt;Node6 -->
<g id="edge6_Node000004_Node000006" class="edge">
<title>Node4&#45;&gt;Node6</title>
<g id="a_edge6_Node000004_Node000006"><a xlink:title=" ">
<path fill="none" stroke="#63b8ff" d="M270.99,-169.27C318.63,-158.13 392.98,-140.73 433,-131.37"/>
<polygon fill="#63b8ff" stroke="#63b8ff" points="270.19,-165.87 261.25,-171.55 271.79,-172.68 270.19,-165.87"/>
</a>
</g>
</g>
<!-- Node7 -->
<g id="Node000007" class="node">
<title>Node7</title>
<g id="a_Node000007"><a xlink:href="../../d9/d11/Logger_8hpp.html" target="_top" xlink:title="Logger class.">
<polygon fill="white" stroke="#666666" points="376.38,-134.25 307.12,-134.25 307.12,-113.5 376.38,-113.5 376.38,-134.25"/>
<text xml:space="preserve" text-anchor="middle" x="341.75" y="-120.75" font-family="Helvetica,sans-Serif" font-size="10.00">Logger.hpp</text>
</a>
</g>
</g>
<!-- Node4&#45;&gt;Node7 -->
<g id="edge7_Node000004_Node000007" class="edge">
<title>Node4&#45;&gt;Node7</title>
<g id="a_edge7_Node000004_Node000007"><a xlink:title=" ">
<path fill="none" stroke="#63b8ff" d="M257.58,-164.95C277.81,-155.32 303.68,-143 321.37,-134.58"/>
<polygon fill="#63b8ff" stroke="#63b8ff" points="256.2,-161.73 248.68,-169.19 259.21,-168.05 256.2,-161.73"/>
</a>
</g>
</g>
<!-- Node9 -->
<g id="Node000009" class="node">
<title>Node9</title>
<g id="a_Node000009"><a xlink:href="../../de/d3e/Motd_8hpp.html" target="_top" xlink:title="Implements IRC MOTD command.">
<polygon fill="white" stroke="#666666" points="347.62,-20.75 285.88,-20.75 285.88,0 347.62,0 347.62,-20.75"/>
<text xml:space="preserve" text-anchor="middle" x="316.75" y="-7.25" font-family="Helvetica,sans-Serif" font-size="10.00">Motd.hpp</text>
</a>
</g>
</g>
<!-- Node4&#45;&gt;Node9 -->
<g id="edge10_Node000004_Node000009" class="edge">
<title>Node4&#45;&gt;Node9</title>
<g id="a_edge10_Node000004_Node000009"><a xlink:title=" ">
<path fill="none" stroke="#63b8ff" d="M241.69,-160.82C247.68,-152.86 254.4,-143.34 259.75,-134.25 272.03,-113.37 301.45,-46.53 312.48,-21.22"/>
<polygon fill="#63b8ff" stroke="#63b8ff" points="238.94,-158.66 235.6,-168.72 244.48,-162.94 238.94,-158.66"/>
</a>
</g>
</g>
<!-- Node10 -->
<g id="Node000010" class="node">
<title>Node10</title>
<g id="a_Node000010"><a xlink:href="../../df/d93/Who_8hpp.html" target="_top" xlink:title="Implements IRC WHO command.">
<polygon fill="white" stroke="#666666" points="168.12,-134.25 109.38,-134.25 109.38,-113.5 168.12,-113.5 168.12,-134.25"/>
<text xml:space="preserve" text-anchor="middle" x="138.75" y="-120.75" font-family="Helvetica,sans-Serif" font-size="10.00">Who.hpp</text>
</a>
</g>
</g>
<!-- Node4&#45;&gt;Node10 -->
<g id="edge11_Node000004_Node000010" class="edge">
<title>Node4&#45;&gt;Node10</title>
<g id="a_edge11_Node000004_Node000010"><a xlink:title=" ">
<path fill="none" stroke="#63b8ff" d="M201.64,-164.01C186.41,-154.53 167.45,-142.73 154.35,-134.58"/>
<polygon fill="#63b8ff" stroke="#63b8ff" points="199.39,-166.73 209.73,-169.04 203.09,-160.78 199.39,-166.73"/>
</a>
</g>
</g>
<!-- Node11 -->
<g id="Node000011" class="node">
<title>Node11</title>
<g id="a_Node000011"><a xlink:href="../../df/d93/utils_8hpp.html" target="_top" xlink:title="utils class">
<polygon fill="white" stroke="#666666" points="478.75,-77.5 420.75,-77.5 420.75,-56.75 478.75,-56.75 478.75,-77.5"/>
<text xml:space="preserve" text-anchor="middle" x="449.75" y="-64" font-family="Helvetica,sans-Serif" font-size="10.00">utils.hpp</text>
</a>
</g>
</g>
<!-- Node4&#45;&gt;Node11 -->
<g id="edge12_Node000004_Node000011" class="edge">
<title>Node4&#45;&gt;Node11</title>
<g id="a_edge12_Node000004_Node000011"><a xlink:title=" ">
<path fill="none" stroke="#63b8ff" d="M271.05,-173.37C304.4,-167.2 350.29,-155.5 385.75,-134.25 410.69,-119.3 432.52,-92.19 443.05,-77.76"/>
<polygon fill="#63b8ff" stroke="#63b8ff" points="270.55,-169.91 261.3,-175.07 271.75,-176.8 270.55,-169.91"/>
</a>
</g>
</g>
<!-- Node8 -->
<g id="Node000008" class="node">
<title>Node8</title>
<g id="a_Node000008"><a xlink:href="../../de/d1c/LogManager_8hpp.html" target="_top" xlink:title="LogManager class.">
<polygon fill="white" stroke="#666666" points="402.88,-77.5 306.62,-77.5 306.62,-56.75 402.88,-56.75 402.88,-77.5"/>
<text xml:space="preserve" text-anchor="middle" x="354.75" y="-64" font-family="Helvetica,sans-Serif" font-size="10.00">LogManager.hpp</text>
</a>
</g>
</g>
<!-- Node7&#45;&gt;Node8 -->
<g id="edge8_Node000007_Node000008" class="edge">
<title>Node7&#45;&gt;Node8</title>
<g id="a_edge8_Node000007_Node000008"><a xlink:title=" ">
<path fill="none" stroke="#63b8ff" d="M346.73,-101.92C348.69,-93.63 350.86,-84.5 352.45,-77.83"/>
<polygon fill="#63b8ff" stroke="#63b8ff" points="343.33,-101.08 344.42,-111.61 350.14,-102.69 343.33,-101.08"/>
</a>
</g>
</g>
<!-- Node8&#45;&gt;Node9 -->
<g id="edge9_Node000008_Node000009" class="edge">
<title>Node8&#45;&gt;Node9</title>
<g id="a_edge9_Node000008_Node000009"><a xlink:title=" ">
<path fill="none" stroke="#63b8ff" d="M341.4,-46.89C335.34,-38.16 328.44,-28.22 323.48,-21.08"/>
<polygon fill="#63b8ff" stroke="#63b8ff" points="338.52,-48.87 347.09,-55.09 344.27,-44.88 338.52,-48.87"/>
</a>
</g>
</g>
<!-- Node11&#45;&gt;Node9 -->
<g id="edge13_Node000011_Node000009" class="edge">
<title>Node11&#45;&gt;Node9</title>
<g id="a_edge13_Node000011_Node000009"><a xlink:title=" ">
<path fill="none" stroke="#63b8ff" d="M415.38,-51.97C391.81,-42.27 361.16,-29.66 340.32,-21.08"/>
<polygon fill="#63b8ff" stroke="#63b8ff" points="413.99,-55.19 424.57,-55.76 416.66,-48.72 413.99,-55.19"/>
</a>
</g>
</g>
<!-- Node12&#45;&gt;Node3 -->
<g id="edge15_Node000012_Node000003" class="edge">
<title>Node12&#45;&gt;Node3</title>
<g id="a_edge15_Node000012_Node000003"><a xlink:title=" ">
<path fill="none" stroke="#63b8ff" d="M102.1,-164.54C83.93,-154.98 60.96,-142.88 45.18,-134.58"/>
<polygon fill="#63b8ff" stroke="#63b8ff" points="100.34,-167.57 110.82,-169.13 103.6,-161.38 100.34,-167.57"/>
</a>
</g>
</g>
<!-- Node12&#45;&gt;Node5 -->
<g id="edge16_Node000012_Node000005" class="edge">
<title>Node12&#45;&gt;Node5</title>
<g id="a_edge16_Node000012_Node000005"><a xlink:title=" ">
<path fill="none" stroke="#63b8ff" d="M155.86,-164.01C171.09,-154.53 190.05,-142.73 203.15,-134.58"/>
<polygon fill="#63b8ff" stroke="#63b8ff" points="154.41,-160.78 147.77,-169.04 158.11,-166.73 154.41,-160.78"/>
</a>
</g>
</g>
<!-- Node12&#45;&gt;Node9 -->
<g id="edge17_Node000012_Node000009" class="edge">
<title>Node12&#45;&gt;Node9</title>
<g id="a_edge17_Node000012_Node000009"><a xlink:title=" ">
<path fill="none" stroke="#63b8ff" d="M112.74,-161.25C101.6,-147.58 91.1,-128.73 100.75,-113.5 141.81,-48.67 236.33,-24.21 285.6,-15.62"/>
<polygon fill="#63b8ff" stroke="#63b8ff" points="110.05,-163.5 119.31,-168.65 115.28,-158.85 110.05,-163.5"/>
</a>
</g>
</g>
<!-- Node12&#45;&gt;Node10 -->
<g id="edge18_Node000012_Node000010" class="edge">
<title>Node12&#45;&gt;Node10</title>
<g id="a_edge18_Node000012_Node000010"><a xlink:title=" ">
<path fill="none" stroke="#63b8ff" d="M133.81,-158.67C135.02,-150.38 136.36,-141.25 137.33,-134.58"/>
<polygon fill="#63b8ff" stroke="#63b8ff" points="130.38,-157.94 132.4,-168.34 137.31,-158.95 130.38,-157.94"/>
</a>
</g>
</g>
</g>
</svg>
