<?xml version="1.0" encoding="UTF-8" standalone="no"?>
<!DOCTYPE svg PUBLIC "-//W3C//DTD SVG 1.1//EN"
 "http://www.w3.org/Graphics/SVG/1.1/DTD/svg11.dtd">
<!-- Generated by graphviz version 14.0.1 (0)
 -->
<!-- Title: TcpSocket.hpp Pages: 1 -->
<svg width="224pt" height="142pt"
 viewBox="0.00 0.00 224.00 142.00" xmlns="http://www.w3.org/2000/svg" xmlns:xlink="http://www.w3.org/1999/xlink">
<g id="graph0" class="graph" transform="scale(1 1) rotate(0) translate(4 138.25)">
<title>TcpSocket.hpp</title>
<!-- Node1 -->
<g id="Node000001" class="node">
<title>Node1</title>
<g id="a_Node000001"><a xlink:title=" ">
<polygon fill="#999999" stroke="#666666" points="127.38,-134.25 42.38,-134.25 42.38,-113.5 127.38,-113.5 127.38,-134.25"/>
<text xml:space="preserve" text-anchor="middle" x="84.88" y="-120.75" font-family="Helvetica,sans-Serif" font-size="10.00">TcpSocket.hpp</text>
</a>
</g>
</g>
<!-- Node2 -->
<g id="Node000002" class="node">
<title>Node2</title>
<g id="a_Node000002"><a xlink:href="../../df/dd7/consts_8hpp.html" target="_top" xlink:title=" ">
<polygon fill="white" stroke="#666666" points="88.12,-77.5 19.62,-77.5 19.62,-56.75 88.12,-56.75 88.12,-77.5"/>
<text xml:space="preserve" text-anchor="middle" x="53.88" y="-64" font-family="Helvetica,sans-Serif" font-size="10.00">consts.hpp</text>
</a>
</g>
</g>
<!-- Node1&#45;&gt;Node2 -->
<g id="edge1_Node000001_Node000002" class="edge">
<title>Node1&#45;&gt;Node2</title>
<g id="a_edge1_Node000001_Node000002"><a xlink:title=" ">
<path fill="none" stroke="#63b8ff" d="M79.33,-113.09C75.37,-106.08 69.89,-96.41 65.03,-87.83"/>
<polygon fill="#63b8ff" stroke="#63b8ff" points="68.09,-86.12 60.11,-79.15 62,-89.57 68.09,-86.12"/>
</a>
</g>
</g>
<!-- Node3 -->
<g id="Node000003" class="node">
<title>Node3</title>
<g id="a_Node000003"><a xlink:title=" ">
<polygon fill="#e0e0e0" stroke="#999999" points="43.75,-20.75 0,-20.75 0,0 43.75,0 43.75,-20.75"/>
<text xml:space="preserve" text-anchor="middle" x="21.88" y="-7.25" font-family="Helvetica,sans-Serif" font-size="10.00">string</text>
</a>
</g>
</g>
<!-- Node1&#45;&gt;Node3 -->
<g id="edge5_Node000001_Node000003" class="edge">
<title>Node1&#45;&gt;Node3</title>
<g id="a_edge5_Node000001_Node000003"><a xlink:title=" ">
<path fill="none" stroke="#63b8ff" d="M55.7,-113.14C39.38,-106.03 20.45,-94.59 10.88,-77.5 2.97,-63.38 6.9,-45.09 12.14,-31.32"/>
<polygon fill="#63b8ff" stroke="#63b8ff" points="15.24,-32.97 16.01,-22.4 8.82,-30.18 15.24,-32.97"/>
</a>
</g>
</g>
<!-- Node4 -->
<g id="Node000004" class="node">
<title>Node4</title>
<g id="a_Node000004"><a xlink:title=" ">
<polygon fill="#e0e0e0" stroke="#999999" points="123.25,-20.75 76.5,-20.75 76.5,0 123.25,0 123.25,-20.75"/>
<text xml:space="preserve" text-anchor="middle" x="99.88" y="-7.25" font-family="Helvetica,sans-Serif" font-size="10.00">vector</text>
</a>
</g>
</g>
<!-- Node1&#45;&gt;Node4 -->
<g id="edge6_Node000001_Node000004" class="edge">
<title>Node1&#45;&gt;Node4</title>
<g id="a_edge6_Node000001_Node000004"><a xlink:title=" ">
<path fill="none" stroke="#63b8ff" d="M88.06,-113.26C90.92,-104.17 94.95,-90.07 96.88,-77.5 99.17,-62.51 99.9,-45.39 100.06,-32.33"/>
<polygon fill="#63b8ff" stroke="#63b8ff" points="103.56,-32.37 100.07,-22.37 96.56,-32.36 103.56,-32.37"/>
</a>
</g>
</g>
<!-- Node5 -->
<g id="Node000005" class="node">
<title>Node5</title>
<g id="a_Node000005"><a xlink:title=" ">
<polygon fill="#e0e0e0" stroke="#999999" points="215.62,-77.5 144.12,-77.5 144.12,-56.75 215.62,-56.75 215.62,-77.5"/>
<text xml:space="preserve" text-anchor="middle" x="179.88" y="-64" font-family="Helvetica,sans-Serif" font-size="10.00">netinet/in.h</text>
</a>
</g>
</g>
<!-- Node1&#45;&gt;Node5 -->
<g id="edge4_Node000001_Node000005" class="edge">
<title>Node1&#45;&gt;Node5</title>
<g id="a_edge4_Node000001_Node000005"><a xlink:title=" ">
<path fill="none" stroke="#63b8ff" d="M101.86,-113.09C116.18,-104.83 136.92,-92.88 153.41,-83.38"/>
<polygon fill="#63b8ff" stroke="#63b8ff" points="154.81,-86.61 161.73,-78.58 151.31,-80.55 154.81,-86.61"/>
</a>
</g>
</g>
<!-- Node2&#45;&gt;Node3 -->
<g id="edge2_Node000002_Node000003" class="edge">
<title>Node2&#45;&gt;Node3</title>
<g id="a_edge2_Node000002_Node000003"><a xlink:title=" ">
<path fill="none" stroke="#63b8ff" d="M48.15,-56.34C44.01,-49.25 38.28,-39.44 33.22,-30.79"/>
<polygon fill="#63b8ff" stroke="#63b8ff" points="36.38,-29.25 28.31,-22.39 30.33,-32.78 36.38,-29.25"/>
</a>
</g>
</g>
<!-- Node2&#45;&gt;Node4 -->
<g id="edge3_Node000002_Node000004" class="edge">
<title>Node2&#45;&gt;Node4</title>
<g id="a_edge3_Node000002_Node000004"><a xlink:title=" ">
<path fill="none" stroke="#63b8ff" d="M62.1,-56.34C68.31,-48.94 77.02,-38.57 84.51,-29.66"/>
<polygon fill="#63b8ff" stroke="#63b8ff" points="87,-32.15 90.75,-22.24 81.64,-27.64 87,-32.15"/>
</a>
</g>
</g>
</g>
</svg>
