<?xml version="1.0" encoding="UTF-8" standalone="no"?>
<!DOCTYPE svg PUBLIC "-//W3C//DTD SVG 1.1//EN"
 "http://www.w3.org/Graphics/SVG/1.1/DTD/svg11.dtd">
<!-- Generated by graphviz version 14.0.1 (0)
 -->
<!-- Title: TcpSocket.hpp Pages: 1 -->
<svg width="216pt" height="142pt"
 viewBox="0.00 0.00 216.00 142.00" xmlns="http://www.w3.org/2000/svg" xmlns:xlink="http://www.w3.org/1999/xlink">
<g id="graph0" class="graph" transform="scale(1 1) rotate(0) translate(4 138.25)">
<title>TcpSocket.hpp</title>
<!-- Node1 -->
<g id="Node000001" class="node">
<title>Node1</title>
<g id="a_Node000001"><a xlink:title="TcpSocket class.">
<polygon fill="#999999" stroke="#666666" points="126.38,-134.25 41.38,-134.25 41.38,-113.5 126.38,-113.5 126.38,-134.25"/>
<text xml:space="preserve" text-anchor="middle" x="83.88" y="-120.75" font-family="Helvetica,sans-Serif" font-size="10.00">TcpSocket.hpp</text>
</a>
</g>
</g>
<!-- Node2 -->
<g id="Node000002" class="node">
<title>Node2</title>
<g id="a_Node000002"><a xlink:href="../../df/dd7/consts_8hpp.html" target="_top" xlink:title="constants used throughout IRC server program">
<polygon fill="white" stroke="#666666" points="118.12,-77.5 49.62,-77.5 49.62,-56.75 118.12,-56.75 118.12,-77.5"/>
<text xml:space="preserve" text-anchor="middle" x="83.88" y="-64" font-family="Helvetica,sans-Serif" font-size="10.00">consts.hpp</text>
</a>
</g>
</g>
<!-- Node1&#45;&gt;Node2 -->
<g id="edge1_Node000001_Node000002" class="edge">
<title>Node1&#45;&gt;Node2</title>
<g id="a_edge1_Node000001_Node000002"><a xlink:title=" ">
<path fill="none" stroke="#63b8ff" d="M83.88,-113.09C83.88,-106.47 83.88,-97.47 83.88,-89.27"/>
<polygon fill="#63b8ff" stroke="#63b8ff" points="87.38,-89.34 83.88,-79.34 80.38,-89.34 87.38,-89.34"/>
</a>
</g>
</g>
<!-- Node3 -->
<g id="Node000003" class="node">
<title>Node3</title>
<g id="a_Node000003"><a xlink:title=" ">
<polygon fill="#e0e0e0" stroke="#999999" points="43.75,-20.75 0,-20.75 0,0 43.75,0 43.75,-20.75"/>
<text xml:space="preserve" text-anchor="middle" x="21.88" y="-7.25" font-family="Helvetica,sans-Serif" font-size="10.00">string</text>
</a>
</g>
</g>
<!-- Node1&#45;&gt;Node3 -->
<g id="edge5_Node000001_Node000003" class="edge">
<title>Node1&#45;&gt;Node3</title>
<g id="a_edge5_Node000001_Node000003"><a xlink:title=" ">
<path fill="none" stroke="#63b8ff" d="M72.02,-113.25C62.33,-104.78 48.95,-91.63 40.88,-77.5 32.8,-63.37 27.94,-45.54 25.16,-31.96"/>
<polygon fill="#63b8ff" stroke="#63b8ff" points="28.65,-31.61 23.42,-22.4 21.76,-32.86 28.65,-31.61"/>
</a>
</g>
</g>
<!-- Node5 -->
<g id="Node000005" class="node">
<title>Node5</title>
<g id="a_Node000005"><a xlink:title=" ">
<polygon fill="#e0e0e0" stroke="#999999" points="207.62,-77.5 136.12,-77.5 136.12,-56.75 207.62,-56.75 207.62,-77.5"/>
<text xml:space="preserve" text-anchor="middle" x="171.88" y="-64" font-family="Helvetica,sans-Serif" font-size="10.00">netinet/in.h</text>
</a>
</g>
</g>
<!-- Node1&#45;&gt;Node5 -->
<g id="edge4_Node000001_Node000005" class="edge">
<title>Node1&#45;&gt;Node5</title>
<g id="a_edge4_Node000001_Node000005"><a xlink:title=" ">
<path fill="none" stroke="#63b8ff" d="M99.61,-113.09C112.75,-104.91 131.72,-93.11 146.93,-83.65"/>
<polygon fill="#63b8ff" stroke="#63b8ff" points="148.35,-86.88 154.99,-78.63 144.65,-80.94 148.35,-86.88"/>
</a>
</g>
</g>
<!-- Node2&#45;&gt;Node3 -->
<g id="edge2_Node000002_Node000003" class="edge">
<title>Node2&#45;&gt;Node3</title>
<g id="a_edge2_Node000002_Node000003"><a xlink:title=" ">
<path fill="none" stroke="#63b8ff" d="M72.79,-56.34C64.06,-48.63 51.68,-37.7 41.31,-28.54"/>
<polygon fill="#63b8ff" stroke="#63b8ff" points="43.81,-26.08 34,-22.08 39.18,-31.32 43.81,-26.08"/>
</a>
</g>
</g>
<!-- Node4 -->
<g id="Node000004" class="node">
<title>Node4</title>
<g id="a_Node000004"><a xlink:title=" ">
<polygon fill="#e0e0e0" stroke="#999999" points="108.25,-20.75 61.5,-20.75 61.5,0 108.25,0 108.25,-20.75"/>
<text xml:space="preserve" text-anchor="middle" x="84.88" y="-7.25" font-family="Helvetica,sans-Serif" font-size="10.00">vector</text>
</a>
</g>
</g>
<!-- Node2&#45;&gt;Node4 -->
<g id="edge3_Node000002_Node000004" class="edge">
<title>Node2&#45;&gt;Node4</title>
<g id="a_edge3_Node000002_Node000004"><a xlink:title=" ">
<path fill="none" stroke="#63b8ff" d="M84.05,-56.34C84.17,-49.72 84.34,-40.72 84.49,-32.52"/>
<polygon fill="#63b8ff" stroke="#63b8ff" points="87.99,-32.65 84.67,-22.59 80.99,-32.53 87.99,-32.65"/>
</a>
</g>
</g>
</g>
</svg>
