<?xml version="1.0" encoding="UTF-8" standalone="no"?>
<!DOCTYPE svg PUBLIC "-//W3C//DTD SVG 1.1//EN"
 "http://www.w3.org/Graphics/SVG/1.1/DTD/svg11.dtd">
<!-- Generated by graphviz version 14.0.1 (0)
 -->
<!-- Title: Channel.hpp Pages: 1 -->
<svg width="303pt" height="142pt"
 viewBox="0.00 0.00 303.00 142.00" xmlns="http://www.w3.org/2000/svg" xmlns:xlink="http://www.w3.org/1999/xlink">
<g id="graph0" class="graph" transform="scale(1 1) rotate(0) translate(4 138.25)">
<title>Channel.hpp</title>
<!-- Node1 -->
<g id="Node000001" class="node">
<title>Node1</title>
<g id="a_Node000001"><a xlink:title="Channel class.">
<polygon fill="#999999" stroke="#666666" points="209.12,-134.25 132.38,-134.25 132.38,-113.5 209.12,-113.5 209.12,-134.25"/>
<text xml:space="preserve" text-anchor="middle" x="170.75" y="-120.75" font-family="Helvetica,sans-Serif" font-size="10.00">Channel.hpp</text>
</a>
</g>
</g>
<!-- Node2 -->
<g id="Node000002" class="node">
<title>Node2</title>
<g id="a_Node000002"><a xlink:href="../../da/dcb/ReplyHandler_8hpp.html" target="_top" xlink:title="ReplyHandler class.">
<polygon fill="white" stroke="#666666" points="142.88,-77.5 40.63,-77.5 40.63,-56.75 142.88,-56.75 142.88,-77.5"/>
<text xml:space="preserve" text-anchor="middle" x="91.75" y="-64" font-family="Helvetica,sans-Serif" font-size="10.00">ReplyHandler.hpp</text>
</a>
</g>
</g>
<!-- Node1&#45;&gt;Node2 -->
<g id="edge1_Node000001_Node000002" class="edge">
<title>Node1&#45;&gt;Node2</title>
<g id="a_edge1_Node000001_Node000002"><a xlink:title=" ">
<path fill="none" stroke="#63b8ff" d="M156.63,-113.09C145.06,-105.07 128.45,-93.56 114.93,-84.19"/>
<polygon fill="#63b8ff" stroke="#63b8ff" points="117.21,-81.51 107,-78.69 113.22,-87.26 117.21,-81.51"/>
</a>
</g>
</g>
<!-- Node3 -->
<g id="Node000003" class="node">
<title>Node3</title>
<g id="a_Node000003"><a xlink:href="../../d8/d9c/reply__codes_8hpp.html" target="_top" xlink:title="Numerical reply codes.">
<polygon fill="white" stroke="#666666" points="95.5,-20.75 0,-20.75 0,0 95.5,0 95.5,-20.75"/>
<text xml:space="preserve" text-anchor="middle" x="47.75" y="-7.25" font-family="Helvetica,sans-Serif" font-size="10.00">reply_codes.hpp</text>
</a>
</g>
</g>
<!-- Node1&#45;&gt;Node3 -->
<g id="edge4_Node000001_Node000003" class="edge">
<title>Node1&#45;&gt;Node3</title>
<g id="a_edge4_Node000001_Node000003"><a xlink:title=" ">
<path fill="none" stroke="#63b8ff" d="M132.11,-121.99C99.46,-118.94 54.48,-108.83 31.75,-77.5 21.8,-63.79 28.02,-44.68 35.42,-30.53"/>
<polygon fill="#63b8ff" stroke="#63b8ff" points="38.29,-32.56 40.29,-22.16 32.24,-29.04 38.29,-32.56"/>
</a>
</g>
</g>
<!-- Node4 -->
<g id="Node000004" class="node">
<title>Node4</title>
<g id="a_Node000004"><a xlink:title=" ">
<polygon fill="#e0e0e0" stroke="#999999" points="174.62,-20.75 130.88,-20.75 130.88,0 174.62,0 174.62,-20.75"/>
<text xml:space="preserve" text-anchor="middle" x="152.75" y="-7.25" font-family="Helvetica,sans-Serif" font-size="10.00">string</text>
</a>
</g>
</g>
<!-- Node1&#45;&gt;Node4 -->
<g id="edge6_Node000001_Node000004" class="edge">
<title>Node1&#45;&gt;Node4</title>
<g id="a_edge6_Node000001_Node000004"><a xlink:title=" ">
<path fill="none" stroke="#63b8ff" d="M169.22,-113.37C166.33,-95.52 160.05,-56.61 156.13,-32.34"/>
<polygon fill="#63b8ff" stroke="#63b8ff" points="159.62,-31.98 154.57,-22.67 152.71,-33.1 159.62,-31.98"/>
</a>
</g>
</g>
<!-- Node5 -->
<g id="Node000005" class="node">
<title>Node5</title>
<g id="a_Node000005"><a xlink:title=" ">
<polygon fill="#e0e0e0" stroke="#999999" points="230.25,-77.5 199.25,-77.5 199.25,-56.75 230.25,-56.75 230.25,-77.5"/>
<text xml:space="preserve" text-anchor="middle" x="214.75" y="-64" font-family="Helvetica,sans-Serif" font-size="10.00">set</text>
</a>
</g>
</g>
<!-- Node1&#45;&gt;Node5 -->
<g id="edge5_Node000001_Node000005" class="edge">
<title>Node1&#45;&gt;Node5</title>
<g id="a_edge5_Node000001_Node000005"><a xlink:title=" ">
<path fill="none" stroke="#63b8ff" d="M178.62,-113.09C184.5,-105.77 192.72,-95.54 199.83,-86.69"/>
<polygon fill="#63b8ff" stroke="#63b8ff" points="202.47,-89 206,-79.01 197.01,-84.61 202.47,-89"/>
</a>
</g>
</g>
<!-- Node6 -->
<g id="Node000006" class="node">
<title>Node6</title>
<g id="a_Node000006"><a xlink:title=" ">
<polygon fill="#e0e0e0" stroke="#999999" points="295.12,-77.5 248.38,-77.5 248.38,-56.75 295.12,-56.75 295.12,-77.5"/>
<text xml:space="preserve" text-anchor="middle" x="271.75" y="-64" font-family="Helvetica,sans-Serif" font-size="10.00">vector</text>
</a>
</g>
</g>
<!-- Node1&#45;&gt;Node6 -->
<g id="edge7_Node000001_Node000006" class="edge">
<title>Node1&#45;&gt;Node6</title>
<g id="a_edge7_Node000001_Node000006"><a xlink:title=" ">
<path fill="none" stroke="#63b8ff" d="M188.81,-113.09C204.17,-104.76 226.49,-92.66 244.11,-83.11"/>
<polygon fill="#63b8ff" stroke="#63b8ff" points="245.4,-86.39 252.52,-78.55 242.06,-80.24 245.4,-86.39"/>
</a>
</g>
</g>
<!-- Node2&#45;&gt;Node3 -->
<g id="edge2_Node000002_Node000003" class="edge">
<title>Node2&#45;&gt;Node3</title>
<g id="a_edge2_Node000002_Node000003"><a xlink:title=" ">
<path fill="none" stroke="#63b8ff" d="M83.88,-56.34C78,-49.02 69.78,-38.79 62.67,-29.94"/>
<polygon fill="#63b8ff" stroke="#63b8ff" points="65.49,-27.86 56.5,-22.26 60.03,-32.25 65.49,-27.86"/>
</a>
</g>
</g>
<!-- Node2&#45;&gt;Node4 -->
<g id="edge3_Node000002_Node000004" class="edge">
<title>Node2&#45;&gt;Node4</title>
<g id="a_edge3_Node000002_Node000004"><a xlink:title=" ">
<path fill="none" stroke="#63b8ff" d="M102.66,-56.34C111.24,-48.63 123.42,-37.7 133.63,-28.54"/>
<polygon fill="#63b8ff" stroke="#63b8ff" points="135.71,-31.37 140.81,-22.09 131.03,-26.16 135.71,-31.37"/>
</a>
</g>
</g>
</g>
</svg>
