<?xml version="1.0" encoding="UTF-8" standalone="no"?>
<!DOCTYPE svg PUBLIC "-//W3C//DTD SVG 1.1//EN"
 "http://www.w3.org/Graphics/SVG/1.1/DTD/svg11.dtd">
<!-- Generated by graphviz version 14.0.1 (0)
 -->
<!-- Title: Channel.hpp Pages: 1 -->
<svg width="644pt" height="369pt"
 viewBox="0.00 0.00 644.00 369.00" xmlns="http://www.w3.org/2000/svg" xmlns:xlink="http://www.w3.org/1999/xlink">
<g id="graph0" class="graph" transform="scale(1 1) rotate(0) translate(4 365.25)">
<title>Channel.hpp</title>
<!-- Node1 -->
<g id="Node000001" class="node">
<title>Node1</title>
<g id="a_Node000001"><a xlink:title=" ">
<polygon fill="#999999" stroke="#666666" points="495.38,-361.25 418.62,-361.25 418.62,-340.5 495.38,-340.5 495.38,-361.25"/>
<text xml:space="preserve" text-anchor="middle" x="457" y="-347.75" font-family="Helvetica,sans-Serif" font-size="10.00">Channel.hpp</text>
</a>
</g>
</g>
<!-- Node2 -->
<g id="Node000002" class="node">
<title>Node2</title>
<g id="a_Node000002"><a xlink:href="../../de/d1c/LogManager_8hpp.html" target="_top" xlink:title=" ">
<polygon fill="white" stroke="#666666" points="342.12,-304.5 245.88,-304.5 245.88,-283.75 342.12,-283.75 342.12,-304.5"/>
<text xml:space="preserve" text-anchor="middle" x="294" y="-291" font-family="Helvetica,sans-Serif" font-size="10.00">LogManager.hpp</text>
</a>
</g>
</g>
<!-- Node1&#45;&gt;Node2 -->
<g id="edge1_Node000001_Node000002" class="edge">
<title>Node1&#45;&gt;Node2</title>
<g id="a_edge1_Node000001_Node000002"><a xlink:title=" ">
<path fill="none" stroke="#63b8ff" d="M427.86,-340.09C401.63,-331.28 362.86,-318.25 333.79,-308.49"/>
<polygon fill="#63b8ff" stroke="#63b8ff" points="335.19,-305.27 324.6,-305.4 332.96,-311.9 335.19,-305.27"/>
</a>
</g>
</g>
<!-- Node7 -->
<g id="Node000007" class="node">
<title>Node7</title>
<g id="a_Node000007"><a xlink:title=" ">
<polygon fill="#e0e0e0" stroke="#999999" points="382.88,-20.75 339.12,-20.75 339.12,0 382.88,0 382.88,-20.75"/>
<text xml:space="preserve" text-anchor="middle" x="361" y="-7.25" font-family="Helvetica,sans-Serif" font-size="10.00">string</text>
</a>
</g>
</g>
<!-- Node1&#45;&gt;Node7 -->
<g id="edge24_Node000001_Node000007" class="edge">
<title>Node1&#45;&gt;Node7</title>
<g id="a_edge24_Node000001_Node000007"><a xlink:title=" ">
<path fill="none" stroke="#63b8ff" d="M481.37,-340.1C516.18,-324.33 576,-289.76 576,-238.38 576,-238.38 576,-238.38 576,-122.88 576,-42.07 454.83,-19.75 394.42,-13.64"/>
<polygon fill="#63b8ff" stroke="#63b8ff" points="394.98,-10.18 384.71,-12.76 394.35,-17.15 394.98,-10.18"/>
</a>
</g>
</g>
<!-- Node8 -->
<g id="Node000008" class="node">
<title>Node8</title>
<g id="a_Node000008"><a xlink:title=" ">
<polygon fill="#e0e0e0" stroke="#999999" points="113.38,-20.75 66.62,-20.75 66.62,0 113.38,0 113.38,-20.75"/>
<text xml:space="preserve" text-anchor="middle" x="90" y="-7.25" font-family="Helvetica,sans-Serif" font-size="10.00">vector</text>
</a>
</g>
</g>
<!-- Node1&#45;&gt;Node8 -->
<g id="edge25_Node000001_Node000008" class="edge">
<title>Node1&#45;&gt;Node8</title>
<g id="a_edge25_Node000001_Node000008"><a xlink:title=" ">
<path fill="none" stroke="#63b8ff" d="M418.43,-348.69C308.25,-344.27 0,-324.23 0,-238.38 0,-238.38 0,-238.38 0,-122.88 0,-81.44 38.09,-46.73 64.71,-27.53"/>
<polygon fill="#63b8ff" stroke="#63b8ff" points="66.43,-30.6 72.66,-22.03 62.45,-24.84 66.43,-30.6"/>
</a>
</g>
</g>
<!-- Node10 -->
<g id="Node000010" class="node">
<title>Node10</title>
<g id="a_Node000010"><a xlink:href="../../d8/d9c/reply__codes_8hpp.html" target="_top" xlink:title=" ">
<polygon fill="white" stroke="#666666" points="503.75,-134.25 408.25,-134.25 408.25,-113.5 503.75,-113.5 503.75,-134.25"/>
<text xml:space="preserve" text-anchor="middle" x="456" y="-120.75" font-family="Helvetica,sans-Serif" font-size="10.00">reply_codes.hpp</text>
</a>
</g>
</g>
<!-- Node1&#45;&gt;Node10 -->
<g id="edge22_Node000001_Node000010" class="edge">
<title>Node1&#45;&gt;Node10</title>
<g id="a_edge22_Node000001_Node000010"><a xlink:title=" ">
<path fill="none" stroke="#63b8ff" d="M453.8,-340.05C445.38,-312.83 424.14,-234.24 437,-170.25 438.74,-161.59 442.18,-152.51 445.66,-144.78"/>
<polygon fill="#63b8ff" stroke="#63b8ff" points="448.72,-146.49 449.93,-135.97 442.42,-143.44 448.72,-146.49"/>
</a>
</g>
</g>
<!-- Node15 -->
<g id="Node000015" class="node">
<title>Node15</title>
<g id="a_Node000015"><a xlink:href="../../da/dcb/ReplyHandler_8hpp.html" target="_top" xlink:title=" ">
<polygon fill="white" stroke="#666666" points="548.12,-191 445.88,-191 445.88,-170.25 548.12,-170.25 548.12,-191"/>
<text xml:space="preserve" text-anchor="middle" x="497" y="-177.5" font-family="Helvetica,sans-Serif" font-size="10.00">ReplyHandler.hpp</text>
</a>
</g>
</g>
<!-- Node1&#45;&gt;Node15 -->
<g id="edge19_Node000001_Node000015" class="edge">
<title>Node1&#45;&gt;Node15</title>
<g id="a_edge19_Node000001_Node000015"><a xlink:title=" ">
<path fill="none" stroke="#63b8ff" d="M459.27,-340.35C465.56,-313.87 483.38,-238.93 492.09,-202.3"/>
<polygon fill="#63b8ff" stroke="#63b8ff" points="495.4,-203.48 494.31,-192.94 488.59,-201.86 495.4,-203.48"/>
</a>
</g>
</g>
<!-- Node16 -->
<g id="Node000016" class="node">
<title>Node16</title>
<g id="a_Node000016"><a xlink:title=" ">
<polygon fill="#e0e0e0" stroke="#999999" points="635.5,-304.5 604.5,-304.5 604.5,-283.75 635.5,-283.75 635.5,-304.5"/>
<text xml:space="preserve" text-anchor="middle" x="620" y="-291" font-family="Helvetica,sans-Serif" font-size="10.00">set</text>
</a>
</g>
</g>
<!-- Node1&#45;&gt;Node16 -->
<g id="edge23_Node000001_Node000016" class="edge">
<title>Node1&#45;&gt;Node16</title>
<g id="a_edge23_Node000001_Node000016"><a xlink:title=" ">
<path fill="none" stroke="#63b8ff" d="M486.14,-340.09C516.7,-329.82 564.29,-313.84 593.72,-303.95"/>
<polygon fill="#63b8ff" stroke="#63b8ff" points="594.61,-307.35 602.97,-300.84 592.38,-300.71 594.61,-307.35"/>
</a>
</g>
</g>
<!-- Node3 -->
<g id="Node000003" class="node">
<title>Node3</title>
<g id="a_Node000003"><a xlink:href="../../d9/d11/Logger_8hpp.html" target="_top" xlink:title=" ">
<polygon fill="white" stroke="#666666" points="281.62,-247.75 212.38,-247.75 212.38,-227 281.62,-227 281.62,-247.75"/>
<text xml:space="preserve" text-anchor="middle" x="247" y="-234.25" font-family="Helvetica,sans-Serif" font-size="10.00">Logger.hpp</text>
</a>
</g>
</g>
<!-- Node2&#45;&gt;Node3 -->
<g id="edge2_Node000002_Node000003" class="edge">
<title>Node2&#45;&gt;Node3</title>
<g id="a_edge2_Node000002_Node000003"><a xlink:title=" ">
<path fill="none" stroke="#63b8ff" d="M285.6,-283.34C279.25,-275.94 270.35,-265.57 262.7,-256.66"/>
<polygon fill="#63b8ff" stroke="#63b8ff" points="265.49,-254.53 256.32,-249.23 260.17,-259.09 265.49,-254.53"/>
</a>
</g>
</g>
<!-- Node4 -->
<g id="Node000004" class="node">
<title>Node4</title>
<g id="a_Node000004"><a xlink:href="../../d3/d8e/Client_8hpp.html" target="_top" xlink:title=" ">
<polygon fill="white" stroke="#666666" points="279.75,-191 214.25,-191 214.25,-170.25 279.75,-170.25 279.75,-191"/>
<text xml:space="preserve" text-anchor="middle" x="247" y="-177.5" font-family="Helvetica,sans-Serif" font-size="10.00">Client.hpp</text>
</a>
</g>
</g>
<!-- Node3&#45;&gt;Node4 -->
<g id="edge3_Node000003_Node000004" class="edge">
<title>Node3&#45;&gt;Node4</title>
<g id="a_edge3_Node000003_Node000004"><a xlink:title=" ">
<path fill="none" stroke="#63b8ff" d="M247,-226.59C247,-219.97 247,-210.97 247,-202.77"/>
<polygon fill="#63b8ff" stroke="#63b8ff" points="250.5,-202.84 247,-192.84 243.5,-202.84 250.5,-202.84"/>
</a>
</g>
</g>
<!-- Node3&#45;&gt;Node7 -->
<g id="edge18_Node000003_Node000007" class="edge">
<title>Node3&#45;&gt;Node7</title>
<g id="a_edge18_Node000003_Node000007"><a xlink:title=" ">
<path fill="none" stroke="#63b8ff" d="M282.11,-232.75C308.68,-227.95 343.48,-216.83 361,-191 394.04,-142.29 378.36,-67.76 367.84,-31.97"/>
<polygon fill="#63b8ff" stroke="#63b8ff" points="371.2,-30.97 364.88,-22.47 364.52,-33.06 371.2,-30.97"/>
</a>
</g>
</g>
<!-- Node11 -->
<g id="Node000011" class="node">
<title>Node11</title>
<g id="a_Node000011"><a xlink:title=" ">
<polygon fill="#e0e0e0" stroke="#999999" points="186.88,-134.25 149.12,-134.25 149.12,-113.5 186.88,-113.5 186.88,-134.25"/>
<text xml:space="preserve" text-anchor="middle" x="168" y="-120.75" font-family="Helvetica,sans-Serif" font-size="10.00">map</text>
</a>
</g>
</g>
<!-- Node3&#45;&gt;Node11 -->
<g id="edge16_Node000003_Node000011" class="edge">
<title>Node3&#45;&gt;Node11</title>
<g id="a_edge16_Node000003_Node000011"><a xlink:title=" ">
<path fill="none" stroke="#63b8ff" d="M236.59,-226.53C227.6,-217.72 214.59,-204.2 205,-191 194.37,-176.37 184.48,-158.38 177.61,-144.86"/>
<polygon fill="#63b8ff" stroke="#63b8ff" points="180.84,-143.49 173.27,-136.08 174.56,-146.6 180.84,-143.49"/>
</a>
</g>
</g>
<!-- Node12 -->
<g id="Node000012" class="node">
<title>Node12</title>
<g id="a_Node000012"><a xlink:title=" ">
<polygon fill="#e0e0e0" stroke="#999999" points="352.12,-191 297.88,-191 297.88,-170.25 352.12,-170.25 352.12,-191"/>
<text xml:space="preserve" text-anchor="middle" x="325" y="-177.5" font-family="Helvetica,sans-Serif" font-size="10.00">fstream</text>
</a>
</g>
</g>
<!-- Node3&#45;&gt;Node12 -->
<g id="edge14_Node000003_Node000012" class="edge">
<title>Node3&#45;&gt;Node12</title>
<g id="a_edge14_Node000003_Node000012"><a xlink:title=" ">
<path fill="none" stroke="#63b8ff" d="M260.94,-226.59C272.37,-218.57 288.77,-207.06 302.11,-197.69"/>
<polygon fill="#63b8ff" stroke="#63b8ff" points="303.76,-200.81 309.94,-192.2 299.74,-195.08 303.76,-200.81"/>
</a>
</g>
</g>
<!-- Node13 -->
<g id="Node000013" class="node">
<title>Node13</title>
<g id="a_Node000013"><a xlink:title=" ">
<polygon fill="#e0e0e0" stroke="#999999" points="83.88,-191 28.12,-191 28.12,-170.25 83.88,-170.25 83.88,-191"/>
<text xml:space="preserve" text-anchor="middle" x="56" y="-177.5" font-family="Helvetica,sans-Serif" font-size="10.00">iomanip</text>
</a>
</g>
</g>
<!-- Node3&#45;&gt;Node13 -->
<g id="edge15_Node000003_Node000013" class="edge">
<title>Node3&#45;&gt;Node13</title>
<g id="a_edge15_Node000003_Node000013"><a xlink:title=" ">
<path fill="none" stroke="#63b8ff" d="M212.85,-226.59C179.74,-217.09 129.56,-202.71 94.92,-192.78"/>
<polygon fill="#63b8ff" stroke="#63b8ff" points="96.29,-189.53 85.71,-190.14 94.36,-196.26 96.29,-189.53"/>
</a>
</g>
</g>
<!-- Node14 -->
<g id="Node000014" class="node">
<title>Node14</title>
<g id="a_Node000014"><a xlink:title=" ">
<polygon fill="#e0e0e0" stroke="#999999" points="157.88,-191 102.12,-191 102.12,-170.25 157.88,-170.25 157.88,-191"/>
<text xml:space="preserve" text-anchor="middle" x="130" y="-177.5" font-family="Helvetica,sans-Serif" font-size="10.00">sstream</text>
</a>
</g>
</g>
<!-- Node3&#45;&gt;Node14 -->
<g id="edge17_Node000003_Node000014" class="edge">
<title>Node3&#45;&gt;Node14</title>
<g id="a_edge17_Node000003_Node000014"><a xlink:title=" ">
<path fill="none" stroke="#63b8ff" d="M226.08,-226.59C208.03,-218.14 181.7,-205.82 161.16,-196.21"/>
<polygon fill="#63b8ff" stroke="#63b8ff" points="162.65,-193.04 152.11,-191.97 159.68,-199.38 162.65,-193.04"/>
</a>
</g>
</g>
<!-- Node5 -->
<g id="Node000005" class="node">
<title>Node5</title>
<g id="a_Node000005"><a xlink:href="../../da/d81/TcpSocket_8hpp.html" target="_top" xlink:title=" ">
<polygon fill="white" stroke="#666666" points="289.5,-134.25 204.5,-134.25 204.5,-113.5 289.5,-113.5 289.5,-134.25"/>
<text xml:space="preserve" text-anchor="middle" x="247" y="-120.75" font-family="Helvetica,sans-Serif" font-size="10.00">TcpSocket.hpp</text>
</a>
</g>
</g>
<!-- Node4&#45;&gt;Node5 -->
<g id="edge4_Node000004_Node000005" class="edge">
<title>Node4&#45;&gt;Node5</title>
<g id="a_edge4_Node000004_Node000005"><a xlink:title=" ">
<path fill="none" stroke="#63b8ff" d="M247,-169.84C247,-163.22 247,-154.22 247,-146.02"/>
<polygon fill="#63b8ff" stroke="#63b8ff" points="250.5,-146.09 247,-136.09 243.5,-146.09 250.5,-146.09"/>
</a>
</g>
</g>
<!-- Node4&#45;&gt;Node7 -->
<g id="edge13_Node000004_Node000007" class="edge">
<title>Node4&#45;&gt;Node7</title>
<g id="a_edge13_Node000004_Node000007"><a xlink:title=" ">
<path fill="none" stroke="#63b8ff" d="M260.69,-170.03C272.02,-161.58 287.98,-148.44 299,-134.25 324.3,-101.67 343.68,-57.14 353.61,-31.61"/>
<polygon fill="#63b8ff" stroke="#63b8ff" points="356.81,-33.03 357.07,-22.44 350.26,-30.56 356.81,-33.03"/>
</a>
</g>
</g>
<!-- Node4&#45;&gt;Node10 -->
<g id="edge11_Node000004_Node000010" class="edge">
<title>Node4&#45;&gt;Node10</title>
<g id="a_edge11_Node000004_Node000010"><a xlink:title=" ">
<path fill="none" stroke="#63b8ff" d="M280.12,-170.95C314.37,-161.98 368.23,-147.87 407.33,-137.62"/>
<polygon fill="#63b8ff" stroke="#63b8ff" points="408.2,-141.02 416.98,-135.1 406.42,-134.24 408.2,-141.02"/>
</a>
</g>
</g>
<!-- Node4&#45;&gt;Node11 -->
<g id="edge12_Node000004_Node000011" class="edge">
<title>Node4&#45;&gt;Node11</title>
<g id="a_edge12_Node000004_Node000011"><a xlink:title=" ">
<path fill="none" stroke="#63b8ff" d="M232.88,-169.84C221.31,-161.82 204.7,-150.31 191.18,-140.94"/>
<polygon fill="#63b8ff" stroke="#63b8ff" points="193.46,-138.26 183.25,-135.44 189.47,-144.01 193.46,-138.26"/>
</a>
</g>
</g>
<!-- Node6 -->
<g id="Node000006" class="node">
<title>Node6</title>
<g id="a_Node000006"><a xlink:href="../../df/dd7/consts_8hpp.html" target="_top" xlink:title=" ">
<polygon fill="white" stroke="#666666" points="276.25,-77.5 207.75,-77.5 207.75,-56.75 276.25,-56.75 276.25,-77.5"/>
<text xml:space="preserve" text-anchor="middle" x="242" y="-64" font-family="Helvetica,sans-Serif" font-size="10.00">consts.hpp</text>
</a>
</g>
</g>
<!-- Node5&#45;&gt;Node6 -->
<g id="edge5_Node000005_Node000006" class="edge">
<title>Node5&#45;&gt;Node6</title>
<g id="a_edge5_Node000005_Node000006"><a xlink:title=" ">
<path fill="none" stroke="#63b8ff" d="M246.11,-113.09C245.5,-106.47 244.68,-97.47 243.93,-89.27"/>
<polygon fill="#63b8ff" stroke="#63b8ff" points="247.42,-88.98 243.02,-79.34 240.45,-89.61 247.42,-88.98"/>
</a>
</g>
</g>
<!-- Node5&#45;&gt;Node7 -->
<g id="edge9_Node000005_Node000007" class="edge">
<title>Node5&#45;&gt;Node7</title>
<g id="a_edge9_Node000005_Node000007"><a xlink:title=" ">
<path fill="none" stroke="#63b8ff" d="M256.72,-113.37C275.81,-94.7 318.45,-52.99 342.88,-29.1"/>
<polygon fill="#63b8ff" stroke="#63b8ff" points="345.2,-31.73 349.9,-22.23 340.3,-26.72 345.2,-31.73"/>
</a>
</g>
</g>
<!-- Node5&#45;&gt;Node8 -->
<g id="edge10_Node000005_Node000008" class="edge">
<title>Node5&#45;&gt;Node8</title>
<g id="a_edge10_Node000005_Node000008"><a xlink:title=" ">
<path fill="none" stroke="#63b8ff" d="M204.11,-113.41C168.76,-104.8 122.34,-91.35 109,-77.5 97.34,-65.39 92.76,-46.6 90.99,-32.15"/>
<polygon fill="#63b8ff" stroke="#63b8ff" points="94.5,-32.02 90.19,-22.34 87.52,-32.59 94.5,-32.02"/>
</a>
</g>
</g>
<!-- Node9 -->
<g id="Node000009" class="node">
<title>Node9</title>
<g id="a_Node000009"><a xlink:title=" ">
<polygon fill="#e0e0e0" stroke="#999999" points="189.75,-77.5 118.25,-77.5 118.25,-56.75 189.75,-56.75 189.75,-77.5"/>
<text xml:space="preserve" text-anchor="middle" x="154" y="-64" font-family="Helvetica,sans-Serif" font-size="10.00">netinet/in.h</text>
</a>
</g>
</g>
<!-- Node5&#45;&gt;Node9 -->
<g id="edge8_Node000005_Node000009" class="edge">
<title>Node5&#45;&gt;Node9</title>
<g id="a_edge8_Node000005_Node000009"><a xlink:title=" ">
<path fill="none" stroke="#63b8ff" d="M230.37,-113.09C216.49,-104.91 196.44,-93.11 180.37,-83.65"/>
<polygon fill="#63b8ff" stroke="#63b8ff" points="182.18,-80.65 171.79,-78.6 178.63,-86.69 182.18,-80.65"/>
</a>
</g>
</g>
<!-- Node6&#45;&gt;Node7 -->
<g id="edge6_Node000006_Node000007" class="edge">
<title>Node6&#45;&gt;Node7</title>
<g id="a_edge6_Node000006_Node000007"><a xlink:title=" ">
<path fill="none" stroke="#63b8ff" d="M263.27,-56.34C281.72,-47.85 308.66,-35.45 329.59,-25.83"/>
<polygon fill="#63b8ff" stroke="#63b8ff" points="330.91,-29.07 338.53,-21.71 327.99,-22.71 330.91,-29.07"/>
</a>
</g>
</g>
<!-- Node6&#45;&gt;Node8 -->
<g id="edge7_Node000006_Node000008" class="edge">
<title>Node6&#45;&gt;Node8</title>
<g id="a_edge7_Node000006_Node000008"><a xlink:title=" ">
<path fill="none" stroke="#63b8ff" d="M214.83,-56.34C189.46,-47.2 151.51,-33.53 124.11,-23.66"/>
<polygon fill="#63b8ff" stroke="#63b8ff" points="125.47,-20.43 114.87,-20.33 123.1,-27.02 125.47,-20.43"/>
</a>
</g>
</g>
<!-- Node15&#45;&gt;Node7 -->
<g id="edge21_Node000015_Node000007" class="edge">
<title>Node15&#45;&gt;Node7</title>
<g id="a_edge21_Node000015_Node000007"><a xlink:title=" ">
<path fill="none" stroke="#63b8ff" d="M503.3,-170.12C511.29,-156.78 522.89,-132.05 513,-113.5 487.93,-66.46 430.51,-37.23 393.86,-22.66"/>
<polygon fill="#63b8ff" stroke="#63b8ff" points="395.21,-19.43 384.62,-19.14 392.72,-25.97 395.21,-19.43"/>
</a>
</g>
</g>
<!-- Node15&#45;&gt;Node10 -->
<g id="edge20_Node000015_Node000010" class="edge">
<title>Node15&#45;&gt;Node10</title>
<g id="a_edge20_Node000015_Node000010"><a xlink:title=" ">
<path fill="none" stroke="#63b8ff" d="M489.67,-169.84C484.25,-162.6 476.69,-152.51 470.11,-143.72"/>
<polygon fill="#63b8ff" stroke="#63b8ff" points="472.97,-141.7 464.17,-135.79 467.37,-145.89 472.97,-141.7"/>
</a>
</g>
</g>
</g>
</svg>
