<?xml version="1.0" encoding="UTF-8" standalone="no"?>
<!DOCTYPE svg PUBLIC "-//W3C//DTD SVG 1.1//EN"
 "http://www.w3.org/Graphics/SVG/1.1/DTD/svg11.dtd">
<!-- Generated by graphviz version 14.0.1 (0)
 -->
<!-- Title: utils.hpp Pages: 1 -->
<svg width="146pt" height="86pt"
 viewBox="0.00 0.00 146.00 86.00" xmlns="http://www.w3.org/2000/svg" xmlns:xlink="http://www.w3.org/1999/xlink">
<g id="graph0" class="graph" transform="scale(1 1) rotate(0) translate(4 81.5)">
<title>utils.hpp</title>
<!-- Node1 -->
<g id="Node000001" class="node">
<title>Node1</title>
<g id="a_Node000001"><a xlink:title=" ">
<polygon fill="#999999" stroke="#666666" points="98.88,-77.5 40.88,-77.5 40.88,-56.75 98.88,-56.75 98.88,-77.5"/>
<text xml:space="preserve" text-anchor="middle" x="69.88" y="-64" font-family="Helvetica,sans-Serif" font-size="10.00">utils.hpp</text>
</a>
</g>
</g>
<!-- Node2 -->
<g id="Node000002" class="node">
<title>Node2</title>
<g id="a_Node000002"><a xlink:href="../../de/d3e/Motd_8hpp.html" target="_top" xlink:title="Implements IRC MOTD command.">
<polygon fill="white" stroke="#666666" points="61.75,-20.75 0,-20.75 0,0 61.75,0 61.75,-20.75"/>
<text xml:space="preserve" text-anchor="middle" x="30.88" y="-7.25" font-family="Helvetica,sans-Serif" font-size="10.00">Motd.hpp</text>
</a>
</g>
</g>
<!-- Node1&#45;&gt;Node2 -->
<g id="edge1_Node000001_Node000002" class="edge">
<title>Node1&#45;&gt;Node2</title>
<g id="a_edge1_Node000001_Node000002"><a xlink:title=" ">
<path fill="none" stroke="#63b8ff" d="M56.38,-47.17C50.11,-38.38 42.93,-28.3 37.79,-21.08"/>
<polygon fill="#63b8ff" stroke="#63b8ff" points="53.37,-48.99 62.02,-55.1 59.07,-44.93 53.37,-48.99"/>
</a>
</g>
</g>
<!-- Node3 -->
<g id="Node000003" class="node">
<title>Node3</title>
<g id="a_Node000003"><a xlink:href="../../df/d93/Who_8hpp.html" target="_top" xlink:title="Implements IRC WHO command.">
<polygon fill="white" stroke="#666666" points="138.25,-20.75 79.5,-20.75 79.5,0 138.25,0 138.25,-20.75"/>
<text xml:space="preserve" text-anchor="middle" x="108.88" y="-7.25" font-family="Helvetica,sans-Serif" font-size="10.00">Who.hpp</text>
</a>
</g>
</g>
<!-- Node1&#45;&gt;Node3 -->
<g id="edge2_Node000001_Node000003" class="edge">
<title>Node1&#45;&gt;Node3</title>
<g id="a_edge2_Node000001_Node000003"><a xlink:title=" ">
<path fill="none" stroke="#63b8ff" d="M83.37,-47.17C89.64,-38.38 96.82,-28.3 101.96,-21.08"/>
<polygon fill="#63b8ff" stroke="#63b8ff" points="80.68,-44.93 77.73,-55.1 86.38,-48.99 80.68,-44.93"/>
</a>
</g>
</g>
</g>
</svg>
