<?xml version="1.0" encoding="UTF-8" standalone="no"?>
<!DOCTYPE svg PUBLIC "-//W3C//DTD SVG 1.1//EN"
 "http://www.w3.org/Graphics/SVG/1.1/DTD/svg11.dtd">
<!-- Generated by graphviz version 14.0.1 (0)
 -->
<!-- Title: ReplyHandler.hpp Pages: 1 -->
<svg width="166pt" height="86pt"
 viewBox="0.00 0.00 166.00 86.00" xmlns="http://www.w3.org/2000/svg" xmlns:xlink="http://www.w3.org/1999/xlink">
<g id="graph0" class="graph" transform="scale(1 1) rotate(0) translate(4 81.5)">
<title>ReplyHandler.hpp</title>
<!-- Node1 -->
<g id="Node000001" class="node">
<title>Node1</title>
<g id="a_Node000001"><a xlink:title=" ">
<polygon fill="#999999" stroke="#666666" points="142.88,-77.5 40.63,-77.5 40.63,-56.75 142.88,-56.75 142.88,-77.5"/>
<text xml:space="preserve" text-anchor="middle" x="91.75" y="-64" font-family="Helvetica,sans-Serif" font-size="10.00">ReplyHandler.hpp</text>
</a>
</g>
</g>
<!-- Node2 -->
<g id="Node000002" class="node">
<title>Node2</title>
<g id="a_Node000002"><a xlink:href="../../d8/d9c/reply__codes_8hpp.html" target="_top" xlink:title=" ">
<polygon fill="white" stroke="#666666" points="95.5,-20.75 0,-20.75 0,0 95.5,0 95.5,-20.75"/>
<text xml:space="preserve" text-anchor="middle" x="47.75" y="-7.25" font-family="Helvetica,sans-Serif" font-size="10.00">reply_codes.hpp</text>
</a>
</g>
</g>
<!-- Node1&#45;&gt;Node2 -->
<g id="edge1_Node000001_Node000002" class="edge">
<title>Node1&#45;&gt;Node2</title>
<g id="a_edge1_Node000001_Node000002"><a xlink:title=" ">
<path fill="none" stroke="#63b8ff" d="M83.88,-56.34C78,-49.02 69.78,-38.79 62.67,-29.94"/>
<polygon fill="#63b8ff" stroke="#63b8ff" points="65.49,-27.86 56.5,-22.26 60.03,-32.25 65.49,-27.86"/>
</a>
</g>
</g>
<!-- Node3 -->
<g id="Node000003" class="node">
<title>Node3</title>
<g id="a_Node000003"><a xlink:title=" ">
<polygon fill="#e0e0e0" stroke="#999999" points="157.62,-20.75 113.88,-20.75 113.88,0 157.62,0 157.62,-20.75"/>
<text xml:space="preserve" text-anchor="middle" x="135.75" y="-7.25" font-family="Helvetica,sans-Serif" font-size="10.00">string</text>
</a>
</g>
</g>
<!-- Node1&#45;&gt;Node3 -->
<g id="edge2_Node000001_Node000003" class="edge">
<title>Node1&#45;&gt;Node3</title>
<g id="a_edge2_Node000001_Node000003"><a xlink:title=" ">
<path fill="none" stroke="#63b8ff" d="M99.62,-56.34C105.5,-49.02 113.72,-38.79 120.83,-29.94"/>
<polygon fill="#63b8ff" stroke="#63b8ff" points="123.47,-32.25 127,-22.26 118.01,-27.86 123.47,-32.25"/>
</a>
</g>
</g>
</g>
</svg>
