<?xml version="1.0" encoding="UTF-8" standalone="no"?>
<!DOCTYPE svg PUBLIC "-//W3C//DTD SVG 1.1//EN"
 "http://www.w3.org/Graphics/SVG/1.1/DTD/svg11.dtd">
<!-- Generated by graphviz version 14.0.1 (0)
 -->
<!-- Title: Motd.hpp Pages: 1 -->
<svg width="734pt" height="369pt"
 viewBox="0.00 0.00 734.00 369.00" xmlns="http://www.w3.org/2000/svg" xmlns:xlink="http://www.w3.org/1999/xlink">
<g id="graph0" class="graph" transform="scale(1 1) rotate(0) translate(4 365.25)">
<title>Motd.hpp</title>
<!-- Node1 -->
<g id="Node000001" class="node">
<title>Node1</title>
<g id="a_Node000001"><a xlink:title="Implements IRC MOTD command.">
<polygon fill="#999999" stroke="#666666" points="449.88,-361.25 388.12,-361.25 388.12,-340.5 449.88,-340.5 449.88,-361.25"/>
<text xml:space="preserve" text-anchor="middle" x="419" y="-347.75" font-family="Helvetica,sans-Serif" font-size="10.00">Motd.hpp</text>
</a>
</g>
</g>
<!-- Node2 -->
<g id="Node000002" class="node">
<title>Node2</title>
<g id="a_Node000002"><a xlink:href="../../d3/d8e/Client_8hpp.html" target="_top" xlink:title="Client class.">
<polygon fill="white" stroke="#666666" points="373.75,-191 308.25,-191 308.25,-170.25 373.75,-170.25 373.75,-191"/>
<text xml:space="preserve" text-anchor="middle" x="341" y="-177.5" font-family="Helvetica,sans-Serif" font-size="10.00">Client.hpp</text>
</a>
</g>
</g>
<!-- Node1&#45;&gt;Node2 -->
<g id="edge1_Node000001_Node000002" class="edge">
<title>Node1&#45;&gt;Node2</title>
<g id="a_edge1_Node000001_Node000002"><a xlink:title=" ">
<path fill="none" stroke="#63b8ff" d="M400.59,-340.09C387.68,-332.23 371.14,-319.96 362,-304.5 343.16,-272.62 340.12,-228.47 340.18,-202.69"/>
<polygon fill="#63b8ff" stroke="#63b8ff" points="343.68,-202.93 340.38,-192.86 336.68,-202.78 343.68,-202.93"/>
</a>
</g>
</g>
<!-- Node5 -->
<g id="Node000005" class="node">
<title>Node5</title>
<g id="a_Node000005"><a xlink:title=" ">
<polygon fill="#e0e0e0" stroke="#999999" points="199.88,-20.75 156.12,-20.75 156.12,0 199.88,0 199.88,-20.75"/>
<text xml:space="preserve" text-anchor="middle" x="178" y="-7.25" font-family="Helvetica,sans-Serif" font-size="10.00">string</text>
</a>
</g>
</g>
<!-- Node1&#45;&gt;Node5 -->
<g id="edge37_Node000001_Node000005" class="edge">
<title>Node1&#45;&gt;Node5</title>
<g id="a_edge37_Node000001_Node000005"><a xlink:title=" ">
<path fill="none" stroke="#63b8ff" d="M387.85,-348.3C290.74,-342.55 0,-318.64 0,-238.38 0,-238.38 0,-238.38 0,-122.88 0,-55.38 93.04,-27.2 144.59,-16.77"/>
<polygon fill="#63b8ff" stroke="#63b8ff" points="145.15,-20.22 154.33,-14.92 143.85,-13.34 145.15,-20.22"/>
</a>
</g>
</g>
<!-- Node8 -->
<g id="Node000008" class="node">
<title>Node8</title>
<g id="a_Node000008"><a xlink:href="../../d8/d9c/reply__codes_8hpp.html" target="_top" xlink:title="Numerical reply codes.">
<polygon fill="white" stroke="#666666" points="605.75,-134.25 510.25,-134.25 510.25,-113.5 605.75,-113.5 605.75,-134.25"/>
<text xml:space="preserve" text-anchor="middle" x="558" y="-120.75" font-family="Helvetica,sans-Serif" font-size="10.00">reply_codes.hpp</text>
</a>
</g>
</g>
<!-- Node1&#45;&gt;Node8 -->
<g id="edge27_Node000001_Node000008" class="edge">
<title>Node1&#45;&gt;Node8</title>
<g id="a_edge27_Node000001_Node000008"><a xlink:title=" ">
<path fill="none" stroke="#63b8ff" d="M449.03,-340.02C469.3,-332.4 495.92,-320.47 516,-304.5 566.18,-264.61 584.08,-251.59 605,-191 608.01,-182.28 608.6,-178.74 605,-170.25 600.26,-159.09 591.29,-149.34 582.44,-141.77"/>
<polygon fill="#63b8ff" stroke="#63b8ff" points="584.67,-139.06 574.64,-135.63 580.34,-144.57 584.67,-139.06"/>
</a>
</g>
</g>
<!-- Node10 -->
<g id="Node000010" class="node">
<title>Node10</title>
<g id="a_Node000010"><a xlink:href="../../de/dd6/ICommand_8hpp.html" target="_top" xlink:title="command interface">
<polygon fill="white" stroke="#666666" points="726.12,-247.75 635.88,-247.75 635.88,-227 726.12,-227 726.12,-247.75"/>
<text xml:space="preserve" text-anchor="middle" x="681" y="-234.25" font-family="Helvetica,sans-Serif" font-size="10.00">ICommand.hpp</text>
</a>
</g>
</g>
<!-- Node1&#45;&gt;Node10 -->
<g id="edge11_Node000001_Node000010" class="edge">
<title>Node1&#45;&gt;Node10</title>
<g id="a_edge11_Node000001_Node000010"><a xlink:title=" ">
<path fill="none" stroke="#63b8ff" d="M450.03,-348.78C491.8,-346.07 567.2,-336.69 622,-304.5 641.62,-292.98 658.26,-272.7 668.81,-257.63"/>
<polygon fill="#63b8ff" stroke="#63b8ff" points="671.63,-259.72 674.27,-249.46 665.81,-255.83 671.63,-259.72"/>
</a>
</g>
</g>
<!-- Node11 -->
<g id="Node000011" class="node">
<title>Node11</title>
<g id="a_Node000011"><a xlink:href="../../de/d1c/LogManager_8hpp.html" target="_top" xlink:title="LogManager class.">
<polygon fill="white" stroke="#666666" points="467.12,-304.5 370.88,-304.5 370.88,-283.75 467.12,-283.75 467.12,-304.5"/>
<text xml:space="preserve" text-anchor="middle" x="419" y="-291" font-family="Helvetica,sans-Serif" font-size="10.00">LogManager.hpp</text>
</a>
</g>
</g>
<!-- Node1&#45;&gt;Node11 -->
<g id="edge13_Node000001_Node000011" class="edge">
<title>Node1&#45;&gt;Node11</title>
<g id="a_edge13_Node000001_Node000011"><a xlink:title=" ">
<path fill="none" stroke="#63b8ff" d="M419,-340.09C419,-333.47 419,-324.47 419,-316.27"/>
<polygon fill="#63b8ff" stroke="#63b8ff" points="422.5,-316.34 419,-306.34 415.5,-316.34 422.5,-316.34"/>
</a>
</g>
</g>
<!-- Node13 -->
<g id="Node000013" class="node">
<title>Node13</title>
<g id="a_Node000013"><a xlink:title=" ">
<polygon fill="#e0e0e0" stroke="#999999" points="522.12,-191 467.88,-191 467.88,-170.25 522.12,-170.25 522.12,-191"/>
<text xml:space="preserve" text-anchor="middle" x="495" y="-177.5" font-family="Helvetica,sans-Serif" font-size="10.00">fstream</text>
</a>
</g>
</g>
<!-- Node1&#45;&gt;Node13 -->
<g id="edge34_Node000001_Node000013" class="edge">
<title>Node1&#45;&gt;Node13</title>
<g id="a_edge34_Node000001_Node000013"><a xlink:title=" ">
<path fill="none" stroke="#63b8ff" d="M437.48,-340.14C450.43,-332.3 466.98,-320.03 476,-304.5 494.54,-272.56 496.79,-228.43 496.23,-202.67"/>
<polygon fill="#63b8ff" stroke="#63b8ff" points="499.74,-202.7 495.84,-192.84 492.74,-202.98 499.74,-202.7"/>
</a>
</g>
</g>
<!-- Node14 -->
<g id="Node000014" class="node">
<title>Node14</title>
<g id="a_Node000014"><a xlink:title=" ">
<polygon fill="#e0e0e0" stroke="#999999" points="595.88,-191 540.12,-191 540.12,-170.25 595.88,-170.25 595.88,-191"/>
<text xml:space="preserve" text-anchor="middle" x="568" y="-177.5" font-family="Helvetica,sans-Serif" font-size="10.00">iomanip</text>
</a>
</g>
</g>
<!-- Node1&#45;&gt;Node14 -->
<g id="edge35_Node000001_Node000014" class="edge">
<title>Node1&#45;&gt;Node14</title>
<g id="a_edge35_Node000001_Node000014"><a xlink:title=" ">
<path fill="none" stroke="#63b8ff" d="M440.95,-340.16C457.03,-332.26 478.63,-319.9 494,-304.5 524.66,-273.78 547.88,-227.93 559.57,-201.79"/>
<polygon fill="#63b8ff" stroke="#63b8ff" points="562.75,-203.25 563.51,-192.69 556.33,-200.47 562.75,-203.25"/>
</a>
</g>
</g>
<!-- Node15 -->
<g id="Node000015" class="node">
<title>Node15</title>
<g id="a_Node000015"><a xlink:title=" ">
<polygon fill="#e0e0e0" stroke="#999999" points="289.88,-191 234.12,-191 234.12,-170.25 289.88,-170.25 289.88,-191"/>
<text xml:space="preserve" text-anchor="middle" x="262" y="-177.5" font-family="Helvetica,sans-Serif" font-size="10.00">sstream</text>
</a>
</g>
</g>
<!-- Node1&#45;&gt;Node15 -->
<g id="edge36_Node000001_Node000015" class="edge">
<title>Node1&#45;&gt;Node15</title>
<g id="a_edge36_Node000001_Node000015"><a xlink:title=" ">
<path fill="none" stroke="#63b8ff" d="M399.78,-340.05C384.88,-331.84 364.25,-319.14 349,-304.5 316,-272.83 287.46,-227.04 272.71,-201.23"/>
<polygon fill="#63b8ff" stroke="#63b8ff" points="275.93,-199.83 267.99,-192.82 269.83,-203.25 275.93,-199.83"/>
</a>
</g>
</g>
<!-- Node16 -->
<g id="Node000016" class="node">
<title>Node16</title>
<g id="a_Node000016"><a xlink:href="../../de/d3d/Server_8hpp.html" target="_top" xlink:title="Server class.">
<polygon fill="white" stroke="#666666" points="133.88,-191 66.12,-191 66.12,-170.25 133.88,-170.25 133.88,-191"/>
<text xml:space="preserve" text-anchor="middle" x="100" y="-177.5" font-family="Helvetica,sans-Serif" font-size="10.00">Server.hpp</text>
</a>
</g>
</g>
<!-- Node1&#45;&gt;Node16 -->
<g id="edge21_Node000001_Node000016" class="edge">
<title>Node1&#45;&gt;Node16</title>
<g id="a_edge21_Node000001_Node000016"><a xlink:title=" ">
<path fill="none" stroke="#63b8ff" d="M387.77,-343.75C356.39,-336.86 307.21,-324.01 268,-304.5 209.03,-275.16 148.87,-225.31 119.1,-199.03"/>
<polygon fill="#63b8ff" stroke="#63b8ff" points="121.46,-196.44 111.68,-192.39 116.8,-201.66 121.46,-196.44"/>
</a>
</g>
</g>
<!-- Node18 -->
<g id="Node000018" class="node">
<title>Node18</title>
<g id="a_Node000018"><a xlink:href="../../df/d93/utils_8hpp.html" target="_top" xlink:title="utils class">
<polygon fill="white" stroke="#666666" points="277,-247.75 219,-247.75 219,-227 277,-227 277,-247.75"/>
<text xml:space="preserve" text-anchor="middle" x="248" y="-234.25" font-family="Helvetica,sans-Serif" font-size="10.00">utils.hpp</text>
</a>
</g>
</g>
<!-- Node1&#45;&gt;Node18 -->
<g id="edge28_Node000001_Node000018" class="edge">
<title>Node1&#45;&gt;Node18</title>
<g id="a_edge28_Node000001_Node000018"><a xlink:title=" ">
<path fill="none" stroke="#63b8ff" d="M387.81,-344.71C360.04,-338.83 319.52,-326.97 291,-304.5 275.4,-292.21 263.68,-272.62 256.44,-257.95"/>
<polygon fill="#63b8ff" stroke="#63b8ff" points="259.8,-256.87 252.43,-249.26 253.45,-259.81 259.8,-256.87"/>
</a>
</g>
</g>
<!-- Node20 -->
<g id="Node000020" class="node">
<title>Node20</title>
<g id="a_Node000020"><a xlink:title=" ">
<polygon fill="#e0e0e0" stroke="#999999" points="717.88,-304.5 674.12,-304.5 674.12,-283.75 717.88,-283.75 717.88,-304.5"/>
<text xml:space="preserve" text-anchor="middle" x="696" y="-291" font-family="Helvetica,sans-Serif" font-size="10.00">ctime</text>
</a>
</g>
</g>
<!-- Node1&#45;&gt;Node20 -->
<g id="edge33_Node000001_Node000020" class="edge">
<title>Node1&#45;&gt;Node20</title>
<g id="a_edge33_Node000001_Node000020"><a xlink:title=" ">
<path fill="none" stroke="#63b8ff" d="M450.34,-344.68C496.45,-336.88 585.22,-321.26 660,-304.5 660.99,-304.28 662,-304.05 663.01,-303.81"/>
<polygon fill="#63b8ff" stroke="#63b8ff" points="663.63,-307.26 672.5,-301.48 661.96,-300.47 663.63,-307.26"/>
</a>
</g>
</g>
<!-- Node3 -->
<g id="Node000003" class="node">
<title>Node3</title>
<g id="a_Node000003"><a xlink:href="../../da/d81/TcpSocket_8hpp.html" target="_top" xlink:title="TcpSocket class.">
<polygon fill="white" stroke="#666666" points="277.5,-134.25 192.5,-134.25 192.5,-113.5 277.5,-113.5 277.5,-134.25"/>
<text xml:space="preserve" text-anchor="middle" x="235" y="-120.75" font-family="Helvetica,sans-Serif" font-size="10.00">TcpSocket.hpp</text>
</a>
</g>
</g>
<!-- Node2&#45;&gt;Node3 -->
<g id="edge2_Node000002_Node000003" class="edge">
<title>Node2&#45;&gt;Node3</title>
<g id="a_edge2_Node000002_Node000003"><a xlink:title=" ">
<path fill="none" stroke="#63b8ff" d="M322.05,-169.84C305.92,-161.51 282.5,-149.41 264.01,-139.86"/>
<polygon fill="#63b8ff" stroke="#63b8ff" points="265.62,-136.75 255.13,-135.27 262.41,-142.97 265.62,-136.75"/>
</a>
</g>
</g>
<!-- Node2&#45;&gt;Node5 -->
<g id="edge10_Node000002_Node000005" class="edge">
<title>Node2&#45;&gt;Node5</title>
<g id="a_edge10_Node000002_Node000005"><a xlink:title=" ">
<path fill="none" stroke="#63b8ff" d="M339.29,-169.93C334.8,-147.16 320.61,-89.71 287,-56.75 266.25,-36.4 235.04,-24.67 211.33,-18.26"/>
<polygon fill="#63b8ff" stroke="#63b8ff" points="212.39,-14.92 201.84,-15.89 210.7,-21.71 212.39,-14.92"/>
</a>
</g>
</g>
<!-- Node2&#45;&gt;Node8 -->
<g id="edge8_Node000002_Node000008" class="edge">
<title>Node2&#45;&gt;Node8</title>
<g id="a_edge8_Node000002_Node000008"><a xlink:title=" ">
<path fill="none" stroke="#63b8ff" d="M373.96,-171.31C409.61,-162.31 466.88,-147.87 508.06,-137.47"/>
<polygon fill="#63b8ff" stroke="#63b8ff" points="508.91,-140.87 517.75,-135.03 507.2,-134.08 508.91,-140.87"/>
</a>
</g>
</g>
<!-- Node9 -->
<g id="Node000009" class="node">
<title>Node9</title>
<g id="a_Node000009"><a xlink:title=" ">
<polygon fill="#e0e0e0" stroke="#999999" points="411.88,-134.25 374.12,-134.25 374.12,-113.5 411.88,-113.5 411.88,-134.25"/>
<text xml:space="preserve" text-anchor="middle" x="393" y="-120.75" font-family="Helvetica,sans-Serif" font-size="10.00">map</text>
</a>
</g>
</g>
<!-- Node2&#45;&gt;Node9 -->
<g id="edge9_Node000002_Node000009" class="edge">
<title>Node2&#45;&gt;Node9</title>
<g id="a_edge9_Node000002_Node000009"><a xlink:title=" ">
<path fill="none" stroke="#63b8ff" d="M350.3,-169.84C357.4,-162.36 367.37,-151.86 375.9,-142.88"/>
<polygon fill="#63b8ff" stroke="#63b8ff" points="378.39,-145.34 382.74,-135.68 373.32,-140.52 378.39,-145.34"/>
</a>
</g>
</g>
<!-- Node4 -->
<g id="Node000004" class="node">
<title>Node4</title>
<g id="a_Node000004"><a xlink:href="../../df/dd7/consts_8hpp.html" target="_top" xlink:title="constants used throughout IRC server program">
<polygon fill="white" stroke="#666666" points="440.25,-77.5 371.75,-77.5 371.75,-56.75 440.25,-56.75 440.25,-77.5"/>
<text xml:space="preserve" text-anchor="middle" x="406" y="-64" font-family="Helvetica,sans-Serif" font-size="10.00">consts.hpp</text>
</a>
</g>
</g>
<!-- Node3&#45;&gt;Node4 -->
<g id="edge3_Node000003_Node000004" class="edge">
<title>Node3&#45;&gt;Node4</title>
<g id="a_edge3_Node000003_Node000004"><a xlink:title=" ">
<path fill="none" stroke="#63b8ff" d="M265.57,-113.09C293.21,-104.24 334.12,-91.14 364.66,-81.36"/>
<polygon fill="#63b8ff" stroke="#63b8ff" points="365.51,-84.76 373.96,-78.38 363.37,-78.1 365.51,-84.76"/>
</a>
</g>
</g>
<!-- Node3&#45;&gt;Node5 -->
<g id="edge7_Node000003_Node000005" class="edge">
<title>Node3&#45;&gt;Node5</title>
<g id="a_edge7_Node000003_Node000005"><a xlink:title=" ">
<path fill="none" stroke="#63b8ff" d="M224.91,-113.32C216.35,-104.7 204.33,-91.29 197,-77.5 189.36,-63.13 184.47,-45.32 181.57,-31.8"/>
<polygon fill="#63b8ff" stroke="#63b8ff" points="185.07,-31.46 179.73,-22.31 178.19,-32.79 185.07,-31.46"/>
</a>
</g>
</g>
<!-- Node7 -->
<g id="Node000007" class="node">
<title>Node7</title>
<g id="a_Node000007"><a xlink:title=" ">
<polygon fill="#e0e0e0" stroke="#999999" points="277.75,-77.5 206.25,-77.5 206.25,-56.75 277.75,-56.75 277.75,-77.5"/>
<text xml:space="preserve" text-anchor="middle" x="242" y="-64" font-family="Helvetica,sans-Serif" font-size="10.00">netinet/in.h</text>
</a>
</g>
</g>
<!-- Node3&#45;&gt;Node7 -->
<g id="edge6_Node000003_Node000007" class="edge">
<title>Node3&#45;&gt;Node7</title>
<g id="a_edge6_Node000003_Node000007"><a xlink:title=" ">
<path fill="none" stroke="#63b8ff" d="M236.25,-113.09C237.11,-106.39 238.27,-97.26 239.33,-88.98"/>
<polygon fill="#63b8ff" stroke="#63b8ff" points="242.77,-89.69 240.57,-79.33 235.83,-88.81 242.77,-89.69"/>
</a>
</g>
</g>
<!-- Node4&#45;&gt;Node5 -->
<g id="edge4_Node000004_Node000005" class="edge">
<title>Node4&#45;&gt;Node5</title>
<g id="a_edge4_Node000004_Node000005"><a xlink:title=" ">
<path fill="none" stroke="#63b8ff" d="M371.37,-57.81C327.99,-47.39 254.16,-29.66 211.37,-19.39"/>
<polygon fill="#63b8ff" stroke="#63b8ff" points="212.19,-15.99 201.65,-17.05 210.56,-22.79 212.19,-15.99"/>
</a>
</g>
</g>
<!-- Node6 -->
<g id="Node000006" class="node">
<title>Node6</title>
<g id="a_Node000006"><a xlink:title=" ">
<polygon fill="#e0e0e0" stroke="#999999" points="491.38,-20.75 444.62,-20.75 444.62,0 491.38,0 491.38,-20.75"/>
<text xml:space="preserve" text-anchor="middle" x="468" y="-7.25" font-family="Helvetica,sans-Serif" font-size="10.00">vector</text>
</a>
</g>
</g>
<!-- Node4&#45;&gt;Node6 -->
<g id="edge5_Node000004_Node000006" class="edge">
<title>Node4&#45;&gt;Node6</title>
<g id="a_edge5_Node000004_Node000006"><a xlink:title=" ">
<path fill="none" stroke="#63b8ff" d="M417.08,-56.34C425.81,-48.63 438.19,-37.7 448.56,-28.54"/>
<polygon fill="#63b8ff" stroke="#63b8ff" points="450.7,-31.32 455.88,-22.08 446.06,-26.08 450.7,-31.32"/>
</a>
</g>
</g>
<!-- Node10&#45;&gt;Node6 -->
<g id="edge12_Node000010_Node000006" class="edge">
<title>Node10&#45;&gt;Node6</title>
<g id="a_edge12_Node000010_Node000006"><a xlink:title=" ">
<path fill="none" stroke="#63b8ff" d="M677.66,-226.83C669.61,-204.86 647.39,-149.83 615,-113.5 580.99,-75.37 530.03,-44.09 497.92,-26.59"/>
<polygon fill="#63b8ff" stroke="#63b8ff" points="499.62,-23.53 489.14,-21.91 496.32,-29.71 499.62,-23.53"/>
</a>
</g>
</g>
<!-- Node12 -->
<g id="Node000012" class="node">
<title>Node12</title>
<g id="a_Node000012"><a xlink:href="../../d9/d11/Logger_8hpp.html" target="_top" xlink:title="Logger class.">
<polygon fill="white" stroke="#666666" points="453.62,-247.75 384.38,-247.75 384.38,-227 453.62,-227 453.62,-247.75"/>
<text xml:space="preserve" text-anchor="middle" x="419" y="-234.25" font-family="Helvetica,sans-Serif" font-size="10.00">Logger.hpp</text>
</a>
</g>
</g>
<!-- Node11&#45;&gt;Node12 -->
<g id="edge14_Node000011_Node000012" class="edge">
<title>Node11&#45;&gt;Node12</title>
<g id="a_edge14_Node000011_Node000012"><a xlink:title=" ">
<path fill="none" stroke="#63b8ff" d="M419,-283.34C419,-276.72 419,-267.72 419,-259.52"/>
<polygon fill="#63b8ff" stroke="#63b8ff" points="422.5,-259.59 419,-249.59 415.5,-259.59 422.5,-259.59"/>
</a>
</g>
</g>
<!-- Node12&#45;&gt;Node2 -->
<g id="edge15_Node000012_Node000002" class="edge">
<title>Node12&#45;&gt;Node2</title>
<g id="a_edge15_Node000012_Node000002"><a xlink:title=" ">
<path fill="none" stroke="#63b8ff" d="M405.06,-226.59C393.63,-218.57 377.23,-207.06 363.89,-197.69"/>
<polygon fill="#63b8ff" stroke="#63b8ff" points="366.26,-195.08 356.06,-192.2 362.24,-200.81 366.26,-195.08"/>
</a>
</g>
</g>
<!-- Node12&#45;&gt;Node5 -->
<g id="edge20_Node000012_Node000005" class="edge">
<title>Node12&#45;&gt;Node5</title>
<g id="a_edge20_Node000012_Node000005"><a xlink:title=" ">
<path fill="none" stroke="#63b8ff" d="M422.45,-226.53C429.55,-204.4 443.34,-149.86 421,-113.5 406.39,-89.73 334.69,-67.65 309,-56.75 276.23,-42.85 237.61,-29.87 210.83,-21.38"/>
<polygon fill="#63b8ff" stroke="#63b8ff" points="212.16,-18.13 201.58,-18.48 210.07,-24.81 212.16,-18.13"/>
</a>
</g>
</g>
<!-- Node12&#45;&gt;Node9 -->
<g id="edge18_Node000012_Node000009" class="edge">
<title>Node12&#45;&gt;Node9</title>
<g id="a_edge18_Node000012_Node000009"><a xlink:title=" ">
<path fill="none" stroke="#63b8ff" d="M416.78,-226.87C412.62,-209.02 403.55,-170.11 397.89,-145.84"/>
<polygon fill="#63b8ff" stroke="#63b8ff" points="401.31,-145.09 395.63,-136.15 394.49,-146.68 401.31,-145.09"/>
</a>
</g>
</g>
<!-- Node12&#45;&gt;Node13 -->
<g id="edge16_Node000012_Node000013" class="edge">
<title>Node12&#45;&gt;Node13</title>
<g id="a_edge16_Node000012_Node000013"><a xlink:title=" ">
<path fill="none" stroke="#63b8ff" d="M432.59,-226.59C443.61,-218.65 459.39,-207.28 472.32,-197.96"/>
<polygon fill="#63b8ff" stroke="#63b8ff" points="474.23,-200.9 480.3,-192.21 470.14,-195.22 474.23,-200.9"/>
</a>
</g>
</g>
<!-- Node12&#45;&gt;Node14 -->
<g id="edge17_Node000012_Node000014" class="edge">
<title>Node12&#45;&gt;Node14</title>
<g id="a_edge17_Node000012_Node000014"><a xlink:title=" ">
<path fill="none" stroke="#63b8ff" d="M445.64,-226.59C469.3,-217.89 504.12,-205.1 530.57,-195.38"/>
<polygon fill="#63b8ff" stroke="#63b8ff" points="531.74,-198.68 539.92,-191.94 529.33,-192.11 531.74,-198.68"/>
</a>
</g>
</g>
<!-- Node12&#45;&gt;Node15 -->
<g id="edge19_Node000012_Node000015" class="edge">
<title>Node12&#45;&gt;Node15</title>
<g id="a_edge19_Node000012_Node000015"><a xlink:title=" ">
<path fill="none" stroke="#63b8ff" d="M390.93,-226.59C365.78,-217.82 328.65,-204.87 300.69,-195.12"/>
<polygon fill="#63b8ff" stroke="#63b8ff" points="302.11,-191.91 291.52,-191.92 299.81,-198.52 302.11,-191.91"/>
</a>
</g>
</g>
<!-- Node16&#45;&gt;Node3 -->
<g id="edge22_Node000016_Node000003" class="edge">
<title>Node16&#45;&gt;Node3</title>
<g id="a_edge22_Node000016_Node000003"><a xlink:title=" ">
<path fill="none" stroke="#63b8ff" d="M124.14,-169.84C145.44,-161.19 176.75,-148.5 200.67,-138.8"/>
<polygon fill="#63b8ff" stroke="#63b8ff" points="201.72,-142.15 209.67,-135.15 199.09,-135.66 201.72,-142.15"/>
</a>
</g>
</g>
<!-- Node16&#45;&gt;Node5 -->
<g id="edge25_Node000016_Node000005" class="edge">
<title>Node16&#45;&gt;Node5</title>
<g id="a_edge25_Node000016_Node000005"><a xlink:title=" ">
<path fill="none" stroke="#63b8ff" d="M104.42,-170.1C116.75,-143.5 151.74,-68.02 168.64,-31.57"/>
<polygon fill="#63b8ff" stroke="#63b8ff" points="171.77,-33.14 172.8,-22.59 165.42,-30.19 171.77,-33.14"/>
</a>
</g>
</g>
<!-- Node16&#45;&gt;Node6 -->
<g id="edge26_Node000016_Node000006" class="edge">
<title>Node16&#45;&gt;Node6</title>
<g id="a_edge26_Node000016_Node000006"><a xlink:title=" ">
<path fill="none" stroke="#63b8ff" d="M134.33,-171.72C180.11,-161.12 258.65,-142.63 287,-134.25 305.29,-128.84 435.9,-91.37 449,-77.5 460.54,-65.28 465.14,-46.5 466.93,-32.08"/>
<polygon fill="#63b8ff" stroke="#63b8ff" points="470.41,-32.56 467.77,-22.3 463.43,-31.97 470.41,-32.56"/>
</a>
</g>
</g>
<!-- Node16&#45;&gt;Node9 -->
<g id="edge23_Node000016_Node000009" class="edge">
<title>Node16&#45;&gt;Node9</title>
<g id="a_edge23_Node000016_Node000009"><a xlink:title=" ">
<path fill="none" stroke="#63b8ff" d="M134.24,-172C137.2,-171.39 140.15,-170.8 143,-170.25 239.01,-151.83 264.61,-155.64 360,-134.25 360.99,-134.03 362,-133.79 363.01,-133.55"/>
<polygon fill="#63b8ff" stroke="#63b8ff" points="363.65,-137 372.43,-131.08 361.87,-130.23 363.65,-137"/>
</a>
</g>
</g>
<!-- Node17 -->
<g id="Node000017" class="node">
<title>Node17</title>
<g id="a_Node000017"><a xlink:title=" ">
<polygon fill="#e0e0e0" stroke="#999999" points="111.5,-134.25 68.5,-134.25 68.5,-113.5 111.5,-113.5 111.5,-134.25"/>
<text xml:space="preserve" text-anchor="middle" x="90" y="-120.75" font-family="Helvetica,sans-Serif" font-size="10.00">poll.h</text>
</a>
</g>
</g>
<!-- Node16&#45;&gt;Node17 -->
<g id="edge24_Node000016_Node000017" class="edge">
<title>Node16&#45;&gt;Node17</title>
<g id="a_edge24_Node000016_Node000017"><a xlink:title=" ">
<path fill="none" stroke="#63b8ff" d="M98.21,-169.84C96.99,-163.14 95.32,-154.01 93.81,-145.73"/>
<polygon fill="#63b8ff" stroke="#63b8ff" points="97.28,-145.28 92.04,-136.07 90.4,-146.53 97.28,-145.28"/>
</a>
</g>
</g>
<!-- Node18&#45;&gt;Node2 -->
<g id="edge29_Node000018_Node000002" class="edge">
<title>Node18&#45;&gt;Node2</title>
<g id="a_edge29_Node000018_Node000002"><a xlink:title=" ">
<path fill="none" stroke="#63b8ff" d="M264.63,-226.59C278.51,-218.41 298.56,-206.61 314.63,-197.15"/>
<polygon fill="#63b8ff" stroke="#63b8ff" points="316.37,-200.19 323.21,-192.1 312.82,-194.15 316.37,-200.19"/>
</a>
</g>
</g>
<!-- Node18&#45;&gt;Node5 -->
<g id="edge32_Node000018_Node000005" class="edge">
<title>Node18&#45;&gt;Node5</title>
<g id="a_edge32_Node000018_Node000005"><a xlink:title=" ">
<path fill="none" stroke="#63b8ff" d="M218.55,-233.75C170.06,-228.76 76.81,-216.07 57,-191 49.78,-181.86 42.22,-148.38 59,-113.5 78.03,-73.95 120.28,-43.72 148.96,-26.75"/>
<polygon fill="#63b8ff" stroke="#63b8ff" points="150.58,-29.85 157.53,-21.85 147.11,-23.77 150.58,-29.85"/>
</a>
</g>
</g>
<!-- Node18&#45;&gt;Node15 -->
<g id="edge30_Node000018_Node000015" class="edge">
<title>Node18&#45;&gt;Node15</title>
<g id="a_edge30_Node000018_Node000015"><a xlink:title=" ">
<path fill="none" stroke="#63b8ff" d="M250.5,-226.59C252.22,-219.89 254.55,-210.76 256.67,-202.48"/>
<polygon fill="#63b8ff" stroke="#63b8ff" points="260.06,-203.35 259.14,-192.79 253.28,-201.62 260.06,-203.35"/>
</a>
</g>
</g>
<!-- Node19 -->
<g id="Node000019" class="node">
<title>Node19</title>
<g id="a_Node000019"><a xlink:title=" ">
<polygon fill="#e0e0e0" stroke="#999999" points="216,-191 152,-191 152,-170.25 216,-170.25 216,-191"/>
<text xml:space="preserve" text-anchor="middle" x="184" y="-177.5" font-family="Helvetica,sans-Serif" font-size="10.00">stdexcept</text>
</a>
</g>
</g>
<!-- Node18&#45;&gt;Node19 -->
<g id="edge31_Node000018_Node000019" class="edge">
<title>Node18&#45;&gt;Node19</title>
<g id="a_edge31_Node000018_Node000019"><a xlink:title=" ">
<path fill="none" stroke="#63b8ff" d="M236.56,-226.59C227.55,-218.88 214.77,-207.95 204.07,-198.79"/>
<polygon fill="#63b8ff" stroke="#63b8ff" points="206.37,-196.15 196.49,-192.31 201.82,-201.47 206.37,-196.15"/>
</a>
</g>
</g>
</g>
</svg>
