<?xml version="1.0" encoding="UTF-8" standalone="no"?>
<!DOCTYPE svg PUBLIC "-//W3C//DTD SVG 1.1//EN"
 "http://www.w3.org/Graphics/SVG/1.1/DTD/svg11.dtd">
<!-- Generated by graphviz version 14.0.1 (0)
 -->
<!-- Title: Motd.hpp Pages: 1 -->
<svg width="812pt" height="369pt"
 viewBox="0.00 0.00 812.00 369.00" xmlns="http://www.w3.org/2000/svg" xmlns:xlink="http://www.w3.org/1999/xlink">
<g id="graph0" class="graph" transform="scale(1 1) rotate(0) translate(4 365.25)">
<title>Motd.hpp</title>
<!-- Node1 -->
<g id="Node000001" class="node">
<title>Node1</title>
<g id="a_Node000001"><a xlink:title=" ">
<polygon fill="#999999" stroke="#666666" points="528.88,-361.25 467.12,-361.25 467.12,-340.5 528.88,-340.5 528.88,-361.25"/>
<text xml:space="preserve" text-anchor="middle" x="498" y="-347.75" font-family="Helvetica,sans-Serif" font-size="10.00">Motd.hpp</text>
</a>
</g>
</g>
<!-- Node2 -->
<g id="Node000002" class="node">
<title>Node2</title>
<g id="a_Node000002"><a xlink:href="../../d3/d8e/Client_8hpp.html" target="_top" xlink:title=" ">
<polygon fill="white" stroke="#666666" points="377.75,-191 312.25,-191 312.25,-170.25 377.75,-170.25 377.75,-191"/>
<text xml:space="preserve" text-anchor="middle" x="345" y="-177.5" font-family="Helvetica,sans-Serif" font-size="10.00">Client.hpp</text>
</a>
</g>
</g>
<!-- Node1&#45;&gt;Node2 -->
<g id="edge1_Node000001_Node000002" class="edge">
<title>Node1&#45;&gt;Node2</title>
<g id="a_edge1_Node000001_Node000002"><a xlink:title=" ">
<path fill="none" stroke="#63b8ff" d="M478.69,-340.14C463.74,-331.99 443.09,-319.31 428,-304.5 395.83,-272.93 368.84,-227.07 354.99,-201.23"/>
<polygon fill="#63b8ff" stroke="#63b8ff" points="358.17,-199.76 350.43,-192.53 351.97,-203.01 358.17,-199.76"/>
</a>
</g>
</g>
<!-- Node5 -->
<g id="Node000005" class="node">
<title>Node5</title>
<g id="a_Node000005"><a xlink:title=" ">
<polygon fill="#e0e0e0" stroke="#999999" points="209.88,-20.75 166.12,-20.75 166.12,0 209.88,0 209.88,-20.75"/>
<text xml:space="preserve" text-anchor="middle" x="188" y="-7.25" font-family="Helvetica,sans-Serif" font-size="10.00">string</text>
</a>
</g>
</g>
<!-- Node1&#45;&gt;Node5 -->
<g id="edge39_Node000001_Node000005" class="edge">
<title>Node1&#45;&gt;Node5</title>
<g id="a_edge39_Node000001_Node000005"><a xlink:title=" ">
<path fill="none" stroke="#63b8ff" d="M466.85,-349.59C357.82,-347.78 0,-334.5 0,-238.38 0,-238.38 0,-238.38 0,-122.88 0,-51.81 100.59,-25.05 154.61,-15.8"/>
<polygon fill="#63b8ff" stroke="#63b8ff" points="154.88,-19.31 164.2,-14.28 153.78,-12.39 154.88,-19.31"/>
</a>
</g>
</g>
<!-- Node8 -->
<g id="Node000008" class="node">
<title>Node8</title>
<g id="a_Node000008"><a xlink:href="../../d8/d9c/reply__codes_8hpp.html" target="_top" xlink:title=" ">
<polygon fill="white" stroke="#666666" points="683.75,-134.25 588.25,-134.25 588.25,-113.5 683.75,-113.5 683.75,-134.25"/>
<text xml:space="preserve" text-anchor="middle" x="636" y="-120.75" font-family="Helvetica,sans-Serif" font-size="10.00">reply_codes.hpp</text>
</a>
</g>
</g>
<!-- Node1&#45;&gt;Node8 -->
<g id="edge28_Node000001_Node000008" class="edge">
<title>Node1&#45;&gt;Node8</title>
<g id="a_edge28_Node000001_Node000008"><a xlink:title=" ">
<path fill="none" stroke="#63b8ff" d="M528.05,-340.05C548.34,-332.45 574.96,-320.52 595,-304.5 644.86,-264.64 662.33,-251.39 683,-191 685.99,-182.27 686.6,-178.74 683,-170.25 678.26,-159.09 669.29,-149.34 660.44,-141.77"/>
<polygon fill="#63b8ff" stroke="#63b8ff" points="662.67,-139.06 652.64,-135.63 658.34,-144.57 662.67,-139.06"/>
</a>
</g>
</g>
<!-- Node10 -->
<g id="Node000010" class="node">
<title>Node10</title>
<g id="a_Node000010"><a xlink:href="../../de/dd6/ICommand_8hpp.html" target="_top" xlink:title=" ">
<polygon fill="white" stroke="#666666" points="804.12,-247.75 713.88,-247.75 713.88,-227 804.12,-227 804.12,-247.75"/>
<text xml:space="preserve" text-anchor="middle" x="759" y="-234.25" font-family="Helvetica,sans-Serif" font-size="10.00">ICommand.hpp</text>
</a>
</g>
</g>
<!-- Node1&#45;&gt;Node10 -->
<g id="edge12_Node000001_Node000010" class="edge">
<title>Node1&#45;&gt;Node10</title>
<g id="a_edge12_Node000001_Node000010"><a xlink:title=" ">
<path fill="none" stroke="#63b8ff" d="M529.23,-348.72C570.87,-345.94 645.63,-336.48 700,-304.5 719.61,-292.97 736.25,-272.69 746.81,-257.63"/>
<polygon fill="#63b8ff" stroke="#63b8ff" points="749.62,-259.72 752.27,-249.46 743.8,-255.83 749.62,-259.72"/>
</a>
</g>
</g>
<!-- Node11 -->
<g id="Node000011" class="node">
<title>Node11</title>
<g id="a_Node000011"><a xlink:href="../../de/d1c/LogManager_8hpp.html" target="_top" xlink:title=" ">
<polygon fill="white" stroke="#666666" points="546.12,-304.5 449.88,-304.5 449.88,-283.75 546.12,-283.75 546.12,-304.5"/>
<text xml:space="preserve" text-anchor="middle" x="498" y="-291" font-family="Helvetica,sans-Serif" font-size="10.00">LogManager.hpp</text>
</a>
</g>
</g>
<!-- Node1&#45;&gt;Node11 -->
<g id="edge14_Node000001_Node000011" class="edge">
<title>Node1&#45;&gt;Node11</title>
<g id="a_edge14_Node000001_Node000011"><a xlink:title=" ">
<path fill="none" stroke="#63b8ff" d="M498,-340.09C498,-333.47 498,-324.47 498,-316.27"/>
<polygon fill="#63b8ff" stroke="#63b8ff" points="501.5,-316.34 498,-306.34 494.5,-316.34 501.5,-316.34"/>
</a>
</g>
</g>
<!-- Node13 -->
<g id="Node000013" class="node">
<title>Node13</title>
<g id="a_Node000013"><a xlink:title=" ">
<polygon fill="#e0e0e0" stroke="#999999" points="600.12,-191 545.88,-191 545.88,-170.25 600.12,-170.25 600.12,-191"/>
<text xml:space="preserve" text-anchor="middle" x="573" y="-177.5" font-family="Helvetica,sans-Serif" font-size="10.00">fstream</text>
</a>
</g>
</g>
<!-- Node1&#45;&gt;Node13 -->
<g id="edge36_Node000001_Node000013" class="edge">
<title>Node1&#45;&gt;Node13</title>
<g id="a_edge36_Node000001_Node000013"><a xlink:title=" ">
<path fill="none" stroke="#63b8ff" d="M516.52,-340.16C529.49,-332.33 546.05,-320.07 555,-304.5 573.39,-272.52 575.24,-228.4 574.44,-202.66"/>
<polygon fill="#63b8ff" stroke="#63b8ff" points="577.95,-202.65 573.95,-192.84 570.96,-203 577.95,-202.65"/>
</a>
</g>
</g>
<!-- Node14 -->
<g id="Node000014" class="node">
<title>Node14</title>
<g id="a_Node000014"><a xlink:title=" ">
<polygon fill="#e0e0e0" stroke="#999999" points="673.88,-191 618.12,-191 618.12,-170.25 673.88,-170.25 673.88,-191"/>
<text xml:space="preserve" text-anchor="middle" x="646" y="-177.5" font-family="Helvetica,sans-Serif" font-size="10.00">iomanip</text>
</a>
</g>
</g>
<!-- Node1&#45;&gt;Node14 -->
<g id="edge37_Node000001_Node000014" class="edge">
<title>Node1&#45;&gt;Node14</title>
<g id="a_edge37_Node000001_Node000014"><a xlink:title=" ">
<path fill="none" stroke="#63b8ff" d="M520.32,-340.02C536.37,-332.12 557.78,-319.84 573,-304.5 603.46,-273.79 626.28,-227.94 637.75,-201.8"/>
<polygon fill="#63b8ff" stroke="#63b8ff" points="640.93,-203.27 641.61,-192.69 634.48,-200.53 640.93,-203.27"/>
</a>
</g>
</g>
<!-- Node15 -->
<g id="Node000015" class="node">
<title>Node15</title>
<g id="a_Node000015"><a xlink:title=" ">
<polygon fill="#e0e0e0" stroke="#999999" points="451.88,-191 396.12,-191 396.12,-170.25 451.88,-170.25 451.88,-191"/>
<text xml:space="preserve" text-anchor="middle" x="424" y="-177.5" font-family="Helvetica,sans-Serif" font-size="10.00">sstream</text>
</a>
</g>
</g>
<!-- Node1&#45;&gt;Node15 -->
<g id="edge38_Node000001_Node000015" class="edge">
<title>Node1&#45;&gt;Node15</title>
<g id="a_edge38_Node000001_Node000015"><a xlink:title=" ">
<path fill="none" stroke="#63b8ff" d="M479.17,-340.01C466.22,-332.19 449.83,-319.99 441,-304.5 422.76,-272.49 421.31,-228.38 422.35,-202.64"/>
<polygon fill="#63b8ff" stroke="#63b8ff" points="425.83,-203.02 422.93,-192.83 418.85,-202.61 425.83,-203.02"/>
</a>
</g>
</g>
<!-- Node16 -->
<g id="Node000016" class="node">
<title>Node16</title>
<g id="a_Node000016"><a xlink:href="../../de/d3d/Server_8hpp.html" target="_top" xlink:title=" ">
<polygon fill="white" stroke="#666666" points="133.88,-191 66.12,-191 66.12,-170.25 133.88,-170.25 133.88,-191"/>
<text xml:space="preserve" text-anchor="middle" x="100" y="-177.5" font-family="Helvetica,sans-Serif" font-size="10.00">Server.hpp</text>
</a>
</g>
</g>
<!-- Node1&#45;&gt;Node16 -->
<g id="edge22_Node000001_Node000016" class="edge">
<title>Node1&#45;&gt;Node16</title>
<g id="a_edge22_Node000001_Node000016"><a xlink:title=" ">
<path fill="none" stroke="#63b8ff" d="M466.86,-344.41C430.9,-337.52 370.36,-324.17 321,-304.5 245.38,-274.37 163.36,-223.42 123.88,-197.62"/>
<polygon fill="#63b8ff" stroke="#63b8ff" points="125.89,-194.75 115.62,-192.17 122.04,-200.6 125.89,-194.75"/>
</a>
</g>
</g>
<!-- Node18 -->
<g id="Node000018" class="node">
<title>Node18</title>
<g id="a_Node000018"><a xlink:href="../../df/d93/utils_8hpp.html" target="_top" xlink:title=" ">
<polygon fill="white" stroke="#666666" points="314,-247.75 256,-247.75 256,-227 314,-227 314,-247.75"/>
<text xml:space="preserve" text-anchor="middle" x="285" y="-234.25" font-family="Helvetica,sans-Serif" font-size="10.00">utils.hpp</text>
</a>
</g>
</g>
<!-- Node1&#45;&gt;Node18 -->
<g id="edge29_Node000001_Node000018" class="edge">
<title>Node1&#45;&gt;Node18</title>
<g id="a_edge29_Node000001_Node000018"><a xlink:title=" ">
<path fill="none" stroke="#63b8ff" d="M466.63,-344.77C435.56,-338.71 387.48,-326.51 351,-304.5 330.27,-291.99 311.27,-271.58 299.03,-256.74"/>
<polygon fill="#63b8ff" stroke="#63b8ff" points="301.93,-254.76 292.96,-249.12 296.45,-259.12 301.93,-254.76"/>
</a>
</g>
</g>
<!-- Node21 -->
<g id="Node000021" class="node">
<title>Node21</title>
<g id="a_Node000021"><a xlink:title=" ">
<polygon fill="#e0e0e0" stroke="#999999" points="795.88,-304.5 752.12,-304.5 752.12,-283.75 795.88,-283.75 795.88,-304.5"/>
<text xml:space="preserve" text-anchor="middle" x="774" y="-291" font-family="Helvetica,sans-Serif" font-size="10.00">ctime</text>
</a>
</g>
</g>
<!-- Node1&#45;&gt;Node21 -->
<g id="edge35_Node000001_Node000021" class="edge">
<title>Node1&#45;&gt;Node21</title>
<g id="a_edge35_Node000001_Node000021"><a xlink:title=" ">
<path fill="none" stroke="#63b8ff" d="M529.21,-344.67C575.13,-336.86 663.52,-321.22 738,-304.5 738.99,-304.28 740,-304.05 741.01,-303.81"/>
<polygon fill="#63b8ff" stroke="#63b8ff" points="741.63,-307.26 750.5,-301.48 739.96,-300.47 741.63,-307.26"/>
</a>
</g>
</g>
<!-- Node3 -->
<g id="Node000003" class="node">
<title>Node3</title>
<g id="a_Node000003"><a xlink:href="../../da/d81/TcpSocket_8hpp.html" target="_top" xlink:title=" ">
<polygon fill="white" stroke="#666666" points="359.5,-134.25 274.5,-134.25 274.5,-113.5 359.5,-113.5 359.5,-134.25"/>
<text xml:space="preserve" text-anchor="middle" x="317" y="-120.75" font-family="Helvetica,sans-Serif" font-size="10.00">TcpSocket.hpp</text>
</a>
</g>
</g>
<!-- Node2&#45;&gt;Node3 -->
<g id="edge2_Node000002_Node000003" class="edge">
<title>Node2&#45;&gt;Node3</title>
<g id="a_edge2_Node000002_Node000003"><a xlink:title=" ">
<path fill="none" stroke="#63b8ff" d="M339.99,-169.84C336.41,-162.83 331.46,-153.16 327.08,-144.58"/>
<polygon fill="#63b8ff" stroke="#63b8ff" points="330.32,-143.24 322.65,-135.93 324.09,-146.42 330.32,-143.24"/>
</a>
</g>
</g>
<!-- Node2&#45;&gt;Node5 -->
<g id="edge11_Node000002_Node000005" class="edge">
<title>Node2&#45;&gt;Node5</title>
<g id="a_edge11_Node000002_Node000005"><a xlink:title=" ">
<path fill="none" stroke="#63b8ff" d="M322.49,-169.76C305.59,-161.69 282.46,-149.21 265,-134.25 231.35,-105.44 207.58,-58.18 196.01,-31.45"/>
<polygon fill="#63b8ff" stroke="#63b8ff" points="199.34,-30.34 192.26,-22.45 192.87,-33.03 199.34,-30.34"/>
</a>
</g>
</g>
<!-- Node2&#45;&gt;Node8 -->
<g id="edge9_Node000002_Node000008" class="edge">
<title>Node2&#45;&gt;Node8</title>
<g id="a_edge9_Node000002_Node000008"><a xlink:title=" ">
<path fill="none" stroke="#63b8ff" d="M377.99,-172.13C381.03,-171.48 384.07,-170.84 387,-170.25 451.86,-157.11 526.59,-143.72 577.12,-134.93"/>
<polygon fill="#63b8ff" stroke="#63b8ff" points="577.41,-138.43 586.67,-133.28 576.22,-131.54 577.41,-138.43"/>
</a>
</g>
</g>
<!-- Node9 -->
<g id="Node000009" class="node">
<title>Node9</title>
<g id="a_Node000009"><a xlink:title=" ">
<polygon fill="#e0e0e0" stroke="#999999" points="489.88,-134.25 452.12,-134.25 452.12,-113.5 489.88,-113.5 489.88,-134.25"/>
<text xml:space="preserve" text-anchor="middle" x="471" y="-120.75" font-family="Helvetica,sans-Serif" font-size="10.00">map</text>
</a>
</g>
</g>
<!-- Node2&#45;&gt;Node9 -->
<g id="edge10_Node000002_Node000009" class="edge">
<title>Node2&#45;&gt;Node9</title>
<g id="a_edge10_Node000002_Node000009"><a xlink:title=" ">
<path fill="none" stroke="#63b8ff" d="M367.53,-169.84C388.21,-160.85 418.98,-147.48 441.6,-137.65"/>
<polygon fill="#63b8ff" stroke="#63b8ff" points="442.8,-140.95 450.57,-133.75 440.01,-134.53 442.8,-140.95"/>
</a>
</g>
</g>
<!-- Node4 -->
<g id="Node000004" class="node">
<title>Node4</title>
<g id="a_Node000004"><a xlink:href="../../df/dd7/consts_8hpp.html" target="_top" xlink:title=" ">
<polygon fill="white" stroke="#666666" points="450.25,-77.5 381.75,-77.5 381.75,-56.75 450.25,-56.75 450.25,-77.5"/>
<text xml:space="preserve" text-anchor="middle" x="416" y="-64" font-family="Helvetica,sans-Serif" font-size="10.00">consts.hpp</text>
</a>
</g>
</g>
<!-- Node3&#45;&gt;Node4 -->
<g id="edge3_Node000003_Node000004" class="edge">
<title>Node3&#45;&gt;Node4</title>
<g id="a_edge3_Node000003_Node000004"><a xlink:title=" ">
<path fill="none" stroke="#63b8ff" d="M334.7,-113.09C349.62,-104.83 371.23,-92.88 388.42,-83.38"/>
<polygon fill="#63b8ff" stroke="#63b8ff" points="390.07,-86.46 397.13,-78.56 386.68,-80.34 390.07,-86.46"/>
</a>
</g>
</g>
<!-- Node3&#45;&gt;Node5 -->
<g id="edge7_Node000003_Node000005" class="edge">
<title>Node3&#45;&gt;Node5</title>
<g id="a_edge7_Node000003_Node000005"><a xlink:title=" ">
<path fill="none" stroke="#63b8ff" d="M298.22,-113.08C283.05,-104.7 261.57,-91.77 245,-77.5 228.55,-63.34 212.66,-44.32 201.86,-30.32"/>
<polygon fill="#63b8ff" stroke="#63b8ff" points="204.68,-28.24 195.87,-22.36 199.09,-32.45 204.68,-28.24"/>
</a>
</g>
</g>
<!-- Node6 -->
<g id="Node000006" class="node">
<title>Node6</title>
<g id="a_Node000006"><a xlink:title=" ">
<polygon fill="#e0e0e0" stroke="#999999" points="520.38,-20.75 473.62,-20.75 473.62,0 520.38,0 520.38,-20.75"/>
<text xml:space="preserve" text-anchor="middle" x="497" y="-7.25" font-family="Helvetica,sans-Serif" font-size="10.00">vector</text>
</a>
</g>
</g>
<!-- Node3&#45;&gt;Node6 -->
<g id="edge8_Node000003_Node000006" class="edge">
<title>Node3&#45;&gt;Node6</title>
<g id="a_edge8_Node000003_Node000006"><a xlink:title=" ">
<path fill="none" stroke="#63b8ff" d="M359.71,-117.57C390.13,-111.94 430.51,-100.51 459,-77.5 473.79,-65.55 483.95,-46.2 490.01,-31.51"/>
<polygon fill="#63b8ff" stroke="#63b8ff" points="493.2,-32.97 493.47,-22.38 486.66,-30.49 493.2,-32.97"/>
</a>
</g>
</g>
<!-- Node7 -->
<g id="Node000007" class="node">
<title>Node7</title>
<g id="a_Node000007"><a xlink:title=" ">
<polygon fill="#e0e0e0" stroke="#999999" points="325.75,-77.5 254.25,-77.5 254.25,-56.75 325.75,-56.75 325.75,-77.5"/>
<text xml:space="preserve" text-anchor="middle" x="290" y="-64" font-family="Helvetica,sans-Serif" font-size="10.00">netinet/in.h</text>
</a>
</g>
</g>
<!-- Node3&#45;&gt;Node7 -->
<g id="edge6_Node000003_Node000007" class="edge">
<title>Node3&#45;&gt;Node7</title>
<g id="a_edge6_Node000003_Node000007"><a xlink:title=" ">
<path fill="none" stroke="#63b8ff" d="M312.17,-113.09C308.76,-106.16 304.05,-96.62 299.86,-88.11"/>
<polygon fill="#63b8ff" stroke="#63b8ff" points="303.02,-86.61 295.45,-79.19 296.74,-89.7 303.02,-86.61"/>
</a>
</g>
</g>
<!-- Node4&#45;&gt;Node5 -->
<g id="edge4_Node000004_Node000005" class="edge">
<title>Node4&#45;&gt;Node5</title>
<g id="a_edge4_Node000004_Node000005"><a xlink:title=" ">
<path fill="none" stroke="#63b8ff" d="M381.37,-57.81C337.99,-47.39 264.16,-29.66 221.37,-19.39"/>
<polygon fill="#63b8ff" stroke="#63b8ff" points="222.19,-15.99 211.65,-17.05 220.56,-22.79 222.19,-15.99"/>
</a>
</g>
</g>
<!-- Node4&#45;&gt;Node6 -->
<g id="edge5_Node000004_Node000006" class="edge">
<title>Node4&#45;&gt;Node6</title>
<g id="a_edge5_Node000004_Node000006"><a xlink:title=" ">
<path fill="none" stroke="#63b8ff" d="M430.48,-56.34C442.35,-48.32 459.37,-36.81 473.23,-27.44"/>
<polygon fill="#63b8ff" stroke="#63b8ff" points="475.07,-30.43 481.39,-21.93 471.15,-24.63 475.07,-30.43"/>
</a>
</g>
</g>
<!-- Node10&#45;&gt;Node6 -->
<g id="edge13_Node000010_Node000006" class="edge">
<title>Node10&#45;&gt;Node6</title>
<g id="a_edge13_Node000010_Node000006"><a xlink:title=" ">
<path fill="none" stroke="#63b8ff" d="M755.97,-226.53C748.57,-203.94 727.63,-147.7 693,-113.5 646.11,-67.19 573.91,-37.05 531.47,-22.23"/>
<polygon fill="#63b8ff" stroke="#63b8ff" points="532.62,-18.92 522.03,-19.03 530.37,-25.55 532.62,-18.92"/>
</a>
</g>
</g>
<!-- Node12 -->
<g id="Node000012" class="node">
<title>Node12</title>
<g id="a_Node000012"><a xlink:href="../../d9/d11/Logger_8hpp.html" target="_top" xlink:title=" ">
<polygon fill="white" stroke="#666666" points="532.62,-247.75 463.38,-247.75 463.38,-227 532.62,-227 532.62,-247.75"/>
<text xml:space="preserve" text-anchor="middle" x="498" y="-234.25" font-family="Helvetica,sans-Serif" font-size="10.00">Logger.hpp</text>
</a>
</g>
</g>
<!-- Node11&#45;&gt;Node12 -->
<g id="edge15_Node000011_Node000012" class="edge">
<title>Node11&#45;&gt;Node12</title>
<g id="a_edge15_Node000011_Node000012"><a xlink:title=" ">
<path fill="none" stroke="#63b8ff" d="M498,-283.34C498,-276.72 498,-267.72 498,-259.52"/>
<polygon fill="#63b8ff" stroke="#63b8ff" points="501.5,-259.59 498,-249.59 494.5,-259.59 501.5,-259.59"/>
</a>
</g>
</g>
<!-- Node12&#45;&gt;Node2 -->
<g id="edge16_Node000012_Node000002" class="edge">
<title>Node12&#45;&gt;Node2</title>
<g id="a_edge16_Node000012_Node000002"><a xlink:title=" ">
<path fill="none" stroke="#63b8ff" d="M470.65,-226.59C446.25,-217.86 410.28,-204.98 383.07,-195.25"/>
<polygon fill="#63b8ff" stroke="#63b8ff" points="384.39,-192 373.8,-191.93 382.04,-198.6 384.39,-192"/>
</a>
</g>
</g>
<!-- Node12&#45;&gt;Node5 -->
<g id="edge21_Node000012_Node000005" class="edge">
<title>Node12&#45;&gt;Node5</title>
<g id="a_edge21_Node000012_Node000005"><a xlink:title=" ">
<path fill="none" stroke="#63b8ff" d="M501.69,-226.54C509.48,-203.96 524.82,-147.73 499,-113.5 463.93,-67 426.89,-99.59 373,-77.5 355.2,-70.2 352.73,-64.24 335,-56.75 296.93,-40.67 251.18,-27.45 220.94,-19.51"/>
<polygon fill="#63b8ff" stroke="#63b8ff" points="222.18,-16.22 211.62,-17.11 220.43,-22.99 222.18,-16.22"/>
</a>
</g>
</g>
<!-- Node12&#45;&gt;Node9 -->
<g id="edge19_Node000012_Node000009" class="edge">
<title>Node12&#45;&gt;Node9</title>
<g id="a_edge19_Node000012_Node000009"><a xlink:title=" ">
<path fill="none" stroke="#63b8ff" d="M495.7,-226.87C491.38,-209.02 481.95,-170.11 476.08,-145.84"/>
<polygon fill="#63b8ff" stroke="#63b8ff" points="479.48,-145.04 473.73,-136.15 472.68,-146.69 479.48,-145.04"/>
</a>
</g>
</g>
<!-- Node12&#45;&gt;Node13 -->
<g id="edge17_Node000012_Node000013" class="edge">
<title>Node12&#45;&gt;Node13</title>
<g id="a_edge17_Node000012_Node000013"><a xlink:title=" ">
<path fill="none" stroke="#63b8ff" d="M511.41,-226.59C522.29,-218.65 537.86,-207.28 550.62,-197.96"/>
<polygon fill="#63b8ff" stroke="#63b8ff" points="552.47,-200.94 558.49,-192.22 548.34,-195.29 552.47,-200.94"/>
</a>
</g>
</g>
<!-- Node12&#45;&gt;Node14 -->
<g id="edge18_Node000012_Node000014" class="edge">
<title>Node12&#45;&gt;Node14</title>
<g id="a_edge18_Node000012_Node000014"><a xlink:title=" ">
<path fill="none" stroke="#63b8ff" d="M524.46,-226.59C548.03,-217.87 582.76,-205.02 609.07,-195.29"/>
<polygon fill="#63b8ff" stroke="#63b8ff" points="610.19,-198.61 618.35,-191.85 607.76,-192.04 610.19,-198.61"/>
</a>
</g>
</g>
<!-- Node12&#45;&gt;Node15 -->
<g id="edge20_Node000012_Node000015" class="edge">
<title>Node12&#45;&gt;Node15</title>
<g id="a_edge20_Node000012_Node000015"><a xlink:title=" ">
<path fill="none" stroke="#63b8ff" d="M484.77,-226.59C474.04,-218.65 458.68,-207.28 446.08,-197.96"/>
<polygon fill="#63b8ff" stroke="#63b8ff" points="448.45,-195.36 438.33,-192.23 444.29,-200.99 448.45,-195.36"/>
</a>
</g>
</g>
<!-- Node16&#45;&gt;Node3 -->
<g id="edge23_Node000016_Node000003" class="edge">
<title>Node16&#45;&gt;Node3</title>
<g id="a_edge23_Node000016_Node000003"><a xlink:title=" ">
<path fill="none" stroke="#63b8ff" d="M133.91,-171.07C169.64,-162.05 226.31,-147.76 267.14,-137.46"/>
<polygon fill="#63b8ff" stroke="#63b8ff" points="267.9,-140.87 276.74,-135.03 266.18,-134.09 267.9,-140.87"/>
</a>
</g>
</g>
<!-- Node16&#45;&gt;Node5 -->
<g id="edge26_Node000016_Node000005" class="edge">
<title>Node16&#45;&gt;Node5</title>
<g id="a_edge26_Node000016_Node000005"><a xlink:title=" ">
<path fill="none" stroke="#63b8ff" d="M99.37,-169.8C98.89,-156.51 99.31,-132.31 107,-113.5 120.88,-79.53 149.68,-47.62 168.93,-28.79"/>
<polygon fill="#63b8ff" stroke="#63b8ff" points="171.08,-31.57 175.91,-22.14 166.26,-26.5 171.08,-31.57"/>
</a>
</g>
</g>
<!-- Node16&#45;&gt;Node6 -->
<g id="edge27_Node000016_Node000006" class="edge">
<title>Node16&#45;&gt;Node6</title>
<g id="a_edge27_Node000016_Node000006"><a xlink:title=" ">
<path fill="none" stroke="#63b8ff" d="M134.23,-171.98C137.19,-171.37 140.15,-170.79 143,-170.25 242.95,-151.41 272.19,-165.44 369,-134.25 422.49,-117.02 447.36,-121.75 482,-77.5 492,-64.73 495.58,-46.54 496.76,-32.48"/>
<polygon fill="#63b8ff" stroke="#63b8ff" points="500.25,-32.65 497.2,-22.5 493.26,-32.33 500.25,-32.65"/>
</a>
</g>
</g>
<!-- Node16&#45;&gt;Node9 -->
<g id="edge24_Node000016_Node000009" class="edge">
<title>Node16&#45;&gt;Node9</title>
<g id="a_edge24_Node000016_Node000009"><a xlink:title=" ">
<path fill="none" stroke="#63b8ff" d="M134.21,-171.86C137.18,-171.28 140.14,-170.74 143,-170.25 273.22,-148.16 308.53,-160.38 438,-134.25 439,-134.05 440.01,-133.83 441.02,-133.61"/>
<polygon fill="#63b8ff" stroke="#63b8ff" points="441.63,-137.06 450.46,-131.21 439.91,-130.28 441.63,-137.06"/>
</a>
</g>
</g>
<!-- Node17 -->
<g id="Node000017" class="node">
<title>Node17</title>
<g id="a_Node000017"><a xlink:title=" ">
<polygon fill="#e0e0e0" stroke="#999999" points="159.5,-134.25 116.5,-134.25 116.5,-113.5 159.5,-113.5 159.5,-134.25"/>
<text xml:space="preserve" text-anchor="middle" x="138" y="-120.75" font-family="Helvetica,sans-Serif" font-size="10.00">poll.h</text>
</a>
</g>
</g>
<!-- Node16&#45;&gt;Node17 -->
<g id="edge25_Node000016_Node000017" class="edge">
<title>Node16&#45;&gt;Node17</title>
<g id="a_edge25_Node000016_Node000017"><a xlink:title=" ">
<path fill="none" stroke="#63b8ff" d="M106.79,-169.84C111.77,-162.67 118.67,-152.73 124.72,-144.01"/>
<polygon fill="#63b8ff" stroke="#63b8ff" points="127.58,-146.03 130.4,-135.82 121.82,-142.04 127.58,-146.03"/>
</a>
</g>
</g>
<!-- Node18&#45;&gt;Node2 -->
<g id="edge30_Node000018_Node000002" class="edge">
<title>Node18&#45;&gt;Node2</title>
<g id="a_edge30_Node000018_Node000002"><a xlink:title=" ">
<path fill="none" stroke="#63b8ff" d="M295.73,-226.59C304.09,-218.96 315.91,-208.17 325.88,-199.07"/>
<polygon fill="#63b8ff" stroke="#63b8ff" points="328.22,-201.67 333.25,-192.35 323.5,-196.5 328.22,-201.67"/>
</a>
</g>
</g>
<!-- Node18&#45;&gt;Node5 -->
<g id="edge34_Node000018_Node000005" class="edge">
<title>Node18&#45;&gt;Node5</title>
<g id="a_edge34_Node000018_Node000005"><a xlink:title=" ">
<path fill="none" stroke="#63b8ff" d="M255.73,-235.01C199.96,-231.72 81.83,-221.26 57,-191 9.24,-132.8 110.32,-59 161.15,-27.17"/>
<polygon fill="#63b8ff" stroke="#63b8ff" points="162.89,-30.21 169.58,-22 159.23,-24.24 162.89,-30.21"/>
</a>
</g>
</g>
<!-- Node18&#45;&gt;Node15 -->
<g id="edge32_Node000018_Node000015" class="edge">
<title>Node18&#45;&gt;Node15</title>
<g id="a_edge32_Node000018_Node000015"><a xlink:title=" ">
<path fill="none" stroke="#63b8ff" d="M309.85,-226.59C331.89,-217.91 364.32,-205.13 388.98,-195.42"/>
<polygon fill="#63b8ff" stroke="#63b8ff" points="389.93,-198.8 397.96,-191.88 387.37,-192.29 389.93,-198.8"/>
</a>
</g>
</g>
<!-- Node19 -->
<g id="Node000019" class="node">
<title>Node19</title>
<g id="a_Node000019"><a xlink:title=" ">
<polygon fill="#e0e0e0" stroke="#999999" points="211.75,-191 152.25,-191 152.25,-170.25 211.75,-170.25 211.75,-191"/>
<text xml:space="preserve" text-anchor="middle" x="182" y="-177.5" font-family="Helvetica,sans-Serif" font-size="10.00">iostream</text>
</a>
</g>
</g>
<!-- Node18&#45;&gt;Node19 -->
<g id="edge31_Node000018_Node000019" class="edge">
<title>Node18&#45;&gt;Node19</title>
<g id="a_edge31_Node000018_Node000019"><a xlink:title=" ">
<path fill="none" stroke="#63b8ff" d="M266.59,-226.59C250.91,-218.26 228.15,-206.16 210.19,-196.61"/>
<polygon fill="#63b8ff" stroke="#63b8ff" points="212.06,-193.64 201.59,-192.04 208.78,-199.82 212.06,-193.64"/>
</a>
</g>
</g>
<!-- Node20 -->
<g id="Node000020" class="node">
<title>Node20</title>
<g id="a_Node000020"><a xlink:title=" ">
<polygon fill="#e0e0e0" stroke="#999999" points="294,-191 230,-191 230,-170.25 294,-170.25 294,-191"/>
<text xml:space="preserve" text-anchor="middle" x="262" y="-177.5" font-family="Helvetica,sans-Serif" font-size="10.00">stdexcept</text>
</a>
</g>
</g>
<!-- Node18&#45;&gt;Node20 -->
<g id="edge33_Node000018_Node000020" class="edge">
<title>Node18&#45;&gt;Node20</title>
<g id="a_edge33_Node000018_Node000020"><a xlink:title=" ">
<path fill="none" stroke="#63b8ff" d="M280.89,-226.59C278.01,-219.74 274.06,-210.34 270.52,-201.9"/>
<polygon fill="#63b8ff" stroke="#63b8ff" points="273.76,-200.59 266.66,-192.72 267.31,-203.3 273.76,-200.59"/>
</a>
</g>
</g>
</g>
</svg>
