<?xml version="1.0" encoding="UTF-8" standalone="no"?>
<!DOCTYPE svg PUBLIC "-//W3C//DTD SVG 1.1//EN"
 "http://www.w3.org/Graphics/SVG/1.1/DTD/svg11.dtd">
<!-- Generated by graphviz version 14.0.1 (0)
 -->
<!-- Title: Part.hpp Pages: 1 -->
<svg width="160pt" height="142pt"
 viewBox="0.00 0.00 160.00 142.00" xmlns="http://www.w3.org/2000/svg" xmlns:xlink="http://www.w3.org/1999/xlink">
<g id="graph0" class="graph" transform="scale(1 1) rotate(0) translate(4 138.25)">
<title>Part.hpp</title>
<!-- Node1 -->
<g id="Node000001" class="node">
<title>Node1</title>
<g id="a_Node000001"><a xlink:title="Implements IRC PART command.">
<polygon fill="#999999" stroke="#666666" points="115,-134.25 59.25,-134.25 59.25,-113.5 115,-113.5 115,-134.25"/>
<text xml:space="preserve" text-anchor="middle" x="87.12" y="-120.75" font-family="Helvetica,sans-Serif" font-size="10.00">Part.hpp</text>
</a>
</g>
</g>
<!-- Node2 -->
<g id="Node000002" class="node">
<title>Node2</title>
<g id="a_Node000002"><a xlink:href="../../de/dd6/ICommand_8hpp.html" target="_top" xlink:title="command interface">
<polygon fill="white" stroke="#666666" points="90.25,-77.5 0,-77.5 0,-56.75 90.25,-56.75 90.25,-77.5"/>
<text xml:space="preserve" text-anchor="middle" x="45.12" y="-64" font-family="Helvetica,sans-Serif" font-size="10.00">ICommand.hpp</text>
</a>
</g>
</g>
<!-- Node1&#45;&gt;Node2 -->
<g id="edge1_Node000001_Node000002" class="edge">
<title>Node1&#45;&gt;Node2</title>
<g id="a_edge1_Node000001_Node000002"><a xlink:title=" ">
<path fill="none" stroke="#63b8ff" d="M79.62,-113.09C74,-105.77 66.16,-95.54 59.37,-86.69"/>
<polygon fill="#63b8ff" stroke="#63b8ff" points="62.35,-84.83 53.49,-79.03 56.8,-89.09 62.35,-84.83"/>
</a>
</g>
</g>
<!-- Node4 -->
<g id="Node000004" class="node">
<title>Node4</title>
<g id="a_Node000004"><a xlink:title=" ">
<polygon fill="#e0e0e0" stroke="#999999" points="152,-77.5 108.25,-77.5 108.25,-56.75 152,-56.75 152,-77.5"/>
<text xml:space="preserve" text-anchor="middle" x="130.12" y="-64" font-family="Helvetica,sans-Serif" font-size="10.00">string</text>
</a>
</g>
</g>
<!-- Node1&#45;&gt;Node4 -->
<g id="edge3_Node000001_Node000004" class="edge">
<title>Node1&#45;&gt;Node4</title>
<g id="a_edge3_Node000001_Node000004"><a xlink:title=" ">
<path fill="none" stroke="#63b8ff" d="M94.81,-113.09C100.56,-105.77 108.59,-95.54 115.54,-86.69"/>
<polygon fill="#63b8ff" stroke="#63b8ff" points="118.15,-89.05 121.57,-79.02 112.64,-84.72 118.15,-89.05"/>
</a>
</g>
</g>
<!-- Node3 -->
<g id="Node000003" class="node">
<title>Node3</title>
<g id="a_Node000003"><a xlink:title=" ">
<polygon fill="#e0e0e0" stroke="#999999" points="68.5,-20.75 21.75,-20.75 21.75,0 68.5,0 68.5,-20.75"/>
<text xml:space="preserve" text-anchor="middle" x="45.12" y="-7.25" font-family="Helvetica,sans-Serif" font-size="10.00">vector</text>
</a>
</g>
</g>
<!-- Node2&#45;&gt;Node3 -->
<g id="edge2_Node000002_Node000003" class="edge">
<title>Node2&#45;&gt;Node3</title>
<g id="a_edge2_Node000002_Node000003"><a xlink:title=" ">
<path fill="none" stroke="#63b8ff" d="M45.12,-56.34C45.12,-49.72 45.12,-40.72 45.12,-32.52"/>
<polygon fill="#63b8ff" stroke="#63b8ff" points="48.63,-32.59 45.13,-22.59 41.63,-32.59 48.63,-32.59"/>
</a>
</g>
</g>
</g>
</svg>
