<?xml version="1.0" encoding="UTF-8" standalone="no"?>
<!DOCTYPE svg PUBLIC "-//W3C//DTD SVG 1.1//EN"
 "http://www.w3.org/Graphics/SVG/1.1/DTD/svg11.dtd">
<!-- Generated by graphviz version 14.0.1 (0)
 -->
<!-- Title: Config.hpp Pages: 1 -->
<svg width="352pt" height="86pt"
 viewBox="0.00 0.00 352.00 86.00" xmlns="http://www.w3.org/2000/svg" xmlns:xlink="http://www.w3.org/1999/xlink">
<g id="graph0" class="graph" transform="scale(1 1) rotate(0) translate(4 81.5)">
<title>Config.hpp</title>
<!-- Node1 -->
<g id="Node000001" class="node">
<title>Node1</title>
<g id="a_Node000001"><a xlink:title=" ">
<polygon fill="#999999" stroke="#666666" points="232.62,-77.5 164.88,-77.5 164.88,-56.75 232.62,-56.75 232.62,-77.5"/>
<text xml:space="preserve" text-anchor="middle" x="198.75" y="-64" font-family="Helvetica,sans-Serif" font-size="10.00">Config.hpp</text>
</a>
</g>
</g>
<!-- Node2 -->
<g id="Node000002" class="node">
<title>Node2</title>
<g id="a_Node000002"><a xlink:href="../../d8/d9c/reply__codes_8hpp.html" target="_top" xlink:title=" ">
<polygon fill="white" stroke="#666666" points="95.5,-20.75 0,-20.75 0,0 95.5,0 95.5,-20.75"/>
<text xml:space="preserve" text-anchor="middle" x="47.75" y="-7.25" font-family="Helvetica,sans-Serif" font-size="10.00">reply_codes.hpp</text>
</a>
</g>
</g>
<!-- Node1&#45;&gt;Node2 -->
<g id="edge1_Node000001_Node000002" class="edge">
<title>Node1&#45;&gt;Node2</title>
<g id="a_edge1_Node000001_Node000002"><a xlink:title=" ">
<path fill="none" stroke="#63b8ff" d="M171.75,-56.34C147.67,-47.61 112.17,-34.73 85.32,-25"/>
<polygon fill="#63b8ff" stroke="#63b8ff" points="86.78,-21.8 76.19,-21.69 84.4,-28.39 86.78,-21.8"/>
</a>
</g>
</g>
<!-- Node3 -->
<g id="Node000003" class="node">
<title>Node3</title>
<g id="a_Node000003"><a xlink:title=" ">
<polygon fill="#e0e0e0" stroke="#999999" points="161.88,-20.75 113.62,-20.75 113.62,0 161.88,0 161.88,-20.75"/>
<text xml:space="preserve" text-anchor="middle" x="137.75" y="-7.25" font-family="Helvetica,sans-Serif" font-size="10.00">cstdlib</text>
</a>
</g>
</g>
<!-- Node1&#45;&gt;Node3 -->
<g id="edge2_Node000001_Node000003" class="edge">
<title>Node1&#45;&gt;Node3</title>
<g id="a_edge2_Node000001_Node000003"><a xlink:title=" ">
<path fill="none" stroke="#63b8ff" d="M187.84,-56.34C179.26,-48.63 167.08,-37.7 156.87,-28.54"/>
<polygon fill="#63b8ff" stroke="#63b8ff" points="159.47,-26.16 149.69,-22.09 154.79,-31.37 159.47,-26.16"/>
</a>
</g>
</g>
<!-- Node4 -->
<g id="Node000004" class="node">
<title>Node4</title>
<g id="a_Node000004"><a xlink:title=" ">
<polygon fill="#e0e0e0" stroke="#999999" points="217.62,-20.75 179.88,-20.75 179.88,0 217.62,0 217.62,-20.75"/>
<text xml:space="preserve" text-anchor="middle" x="198.75" y="-7.25" font-family="Helvetica,sans-Serif" font-size="10.00">map</text>
</a>
</g>
</g>
<!-- Node1&#45;&gt;Node4 -->
<g id="edge3_Node000001_Node000004" class="edge">
<title>Node1&#45;&gt;Node4</title>
<g id="a_edge3_Node000001_Node000004"><a xlink:title=" ">
<path fill="none" stroke="#63b8ff" d="M198.75,-56.34C198.75,-49.72 198.75,-40.72 198.75,-32.52"/>
<polygon fill="#63b8ff" stroke="#63b8ff" points="202.25,-32.59 198.75,-22.59 195.25,-32.59 202.25,-32.59"/>
</a>
</g>
</g>
<!-- Node5 -->
<g id="Node000005" class="node">
<title>Node5</title>
<g id="a_Node000005"><a xlink:title=" ">
<polygon fill="#e0e0e0" stroke="#999999" points="279.62,-20.75 235.88,-20.75 235.88,0 279.62,0 279.62,-20.75"/>
<text xml:space="preserve" text-anchor="middle" x="257.75" y="-7.25" font-family="Helvetica,sans-Serif" font-size="10.00">string</text>
</a>
</g>
</g>
<!-- Node1&#45;&gt;Node5 -->
<g id="edge4_Node000001_Node000005" class="edge">
<title>Node1&#45;&gt;Node5</title>
<g id="a_edge4_Node000001_Node000005"><a xlink:title=" ">
<path fill="none" stroke="#63b8ff" d="M209.3,-56.34C217.52,-48.71 229.15,-37.92 238.95,-28.82"/>
<polygon fill="#63b8ff" stroke="#63b8ff" points="241.23,-31.48 246.18,-22.11 236.47,-26.34 241.23,-31.48"/>
</a>
</g>
</g>
<!-- Node6 -->
<g id="Node000006" class="node">
<title>Node6</title>
<g id="a_Node000006"><a xlink:title=" ">
<polygon fill="#e0e0e0" stroke="#999999" points="344.12,-20.75 297.38,-20.75 297.38,0 344.12,0 344.12,-20.75"/>
<text xml:space="preserve" text-anchor="middle" x="320.75" y="-7.25" font-family="Helvetica,sans-Serif" font-size="10.00">vector</text>
</a>
</g>
</g>
<!-- Node1&#45;&gt;Node6 -->
<g id="edge5_Node000001_Node000006" class="edge">
<title>Node1&#45;&gt;Node6</title>
<g id="a_edge5_Node000001_Node000006"><a xlink:title=" ">
<path fill="none" stroke="#63b8ff" d="M220.56,-56.34C239.56,-47.81 267.35,-35.34 288.84,-25.69"/>
<polygon fill="#63b8ff" stroke="#63b8ff" points="290.06,-28.99 297.75,-21.7 287.19,-22.6 290.06,-28.99"/>
</a>
</g>
</g>
</g>
</svg>
