<?xml version="1.0" encoding="UTF-8" standalone="no"?>
<!DOCTYPE svg PUBLIC "-//W3C//DTD SVG 1.1//EN"
 "http://www.w3.org/Graphics/SVG/1.1/DTD/svg11.dtd">
<!-- Generated by graphviz version 14.0.1 (0)
 -->
<!-- Title: Client.hpp Pages: 1 -->
<svg width="418pt" height="256pt"
 viewBox="0.00 0.00 418.00 256.00" xmlns="http://www.w3.org/2000/svg" xmlns:xlink="http://www.w3.org/1999/xlink">
<g id="graph0" class="graph" transform="scale(1 1) rotate(0) translate(4 251.75)">
<title>Client.hpp</title>
<!-- Node1 -->
<g id="Node000001" class="node">
<title>Node1</title>
<g id="a_Node000001"><a xlink:title=" ">
<polygon fill="#999999" stroke="#666666" points="302.12,-247.75 236.62,-247.75 236.62,-227 302.12,-227 302.12,-247.75"/>
<text xml:space="preserve" text-anchor="middle" x="269.38" y="-234.25" font-family="Helvetica,sans-Serif" font-size="10.00">Client.hpp</text>
</a>
</g>
</g>
<!-- Node2 -->
<g id="Node000002" class="node">
<title>Node2</title>
<g id="a_Node000002"><a xlink:href="../../d0/d9f/Invite_8hpp.html" target="_top" xlink:title="Implements IRC INVITE command.">
<polygon fill="white" stroke="#666666" points="64.75,-20.75 0,-20.75 0,0 64.75,0 64.75,-20.75"/>
<text xml:space="preserve" text-anchor="middle" x="32.38" y="-7.25" font-family="Helvetica,sans-Serif" font-size="10.00">Invite.hpp</text>
</a>
</g>
</g>
<!-- Node1&#45;&gt;Node2 -->
<g id="edge1_Node000001_Node000002" class="edge">
<title>Node1&#45;&gt;Node2</title>
<g id="a_edge1_Node000001_Node000002"><a xlink:title=" ">
<path fill="none" stroke="#63b8ff" d="M225.33,-229.54C197.38,-223.36 161.82,-211.88 136.38,-191 77.33,-142.53 44.76,-51.15 35.3,-21.17"/>
<polygon fill="#63b8ff" stroke="#63b8ff" points="224.42,-232.93 234.92,-231.5 225.83,-226.07 224.42,-232.93"/>
</a>
</g>
</g>
<!-- Node3 -->
<g id="Node000003" class="node">
<title>Node3</title>
<g id="a_Node000003"><a xlink:href="../../da/dac/Join_8hpp.html" target="_top" xlink:title=" ">
<polygon fill="white" stroke="#666666" points="409.88,-191 354.88,-191 354.88,-170.25 409.88,-170.25 409.88,-191"/>
<text xml:space="preserve" text-anchor="middle" x="382.38" y="-177.5" font-family="Helvetica,sans-Serif" font-size="10.00">Join.hpp</text>
</a>
</g>
</g>
<!-- Node1&#45;&gt;Node3 -->
<g id="edge2_Node000001_Node000003" class="edge">
<title>Node1&#45;&gt;Node3</title>
<g id="a_edge2_Node000001_Node000003"><a xlink:title=" ">
<path fill="none" stroke="#63b8ff" d="M299.67,-221.7C319.54,-212.07 344.97,-199.75 362.35,-191.33"/>
<polygon fill="#63b8ff" stroke="#63b8ff" points="298.41,-218.42 290.94,-225.93 301.46,-224.72 298.41,-218.42"/>
</a>
</g>
</g>
<!-- Node4 -->
<g id="Node000004" class="node">
<title>Node4</title>
<g id="a_Node000004"><a xlink:href="../../d9/d11/Logger_8hpp.html" target="_top" xlink:title=" ">
<polygon fill="white" stroke="#666666" points="215,-191 145.75,-191 145.75,-170.25 215,-170.25 215,-191"/>
<text xml:space="preserve" text-anchor="middle" x="180.38" y="-177.5" font-family="Helvetica,sans-Serif" font-size="10.00">Logger.hpp</text>
</a>
</g>
</g>
<!-- Node1&#45;&gt;Node4 -->
<g id="edge3_Node000001_Node000004" class="edge">
<title>Node1&#45;&gt;Node4</title>
<g id="a_edge3_Node000001_Node000004"><a xlink:title=" ">
<path fill="none" stroke="#63b8ff" d="M243.98,-220.76C228.58,-211.28 209.4,-199.48 196.15,-191.33"/>
<polygon fill="#63b8ff" stroke="#63b8ff" points="241.82,-223.54 252.17,-225.79 245.49,-217.57 241.82,-223.54"/>
</a>
</g>
</g>
<!-- Node9 -->
<g id="Node000009" class="node">
<title>Node9</title>
<g id="a_Node000009"><a xlink:href="../../df/d93/Who_8hpp.html" target="_top" xlink:title="Implements IRC WHO command.">
<polygon fill="white" stroke="#666666" points="313.75,-20.75 255,-20.75 255,0 313.75,0 313.75,-20.75"/>
<text xml:space="preserve" text-anchor="middle" x="284.38" y="-7.25" font-family="Helvetica,sans-Serif" font-size="10.00">Who.hpp</text>
</a>
</g>
</g>
<!-- Node1&#45;&gt;Node9 -->
<g id="edge13_Node000001_Node000009" class="edge">
<title>Node1&#45;&gt;Node9</title>
<g id="a_edge13_Node000001_Node000009"><a xlink:title=" ">
<path fill="none" stroke="#63b8ff" d="M267.23,-215.43C264.26,-181.73 260.23,-113.54 269.38,-56.75 271.41,-44.14 276.42,-30.28 280.1,-21.24"/>
<polygon fill="#63b8ff" stroke="#63b8ff" points="263.72,-215.42 268.14,-225.05 270.68,-214.76 263.72,-215.42"/>
</a>
</g>
</g>
<!-- Node10 -->
<g id="Node000010" class="node">
<title>Node10</title>
<g id="a_Node000010"><a xlink:href="../../de/d3e/Motd_8hpp.html" target="_top" xlink:title="Implements IRC MOTD command.">
<polygon fill="white" stroke="#666666" points="340.25,-77.5 278.5,-77.5 278.5,-56.75 340.25,-56.75 340.25,-77.5"/>
<text xml:space="preserve" text-anchor="middle" x="309.38" y="-64" font-family="Helvetica,sans-Serif" font-size="10.00">Motd.hpp</text>
</a>
</g>
</g>
<!-- Node1&#45;&gt;Node10 -->
<g id="edge12_Node000001_Node000010" class="edge">
<title>Node1&#45;&gt;Node10</title>
<g id="a_edge12_Node000001_Node000010"><a xlink:title=" ">
<path fill="none" stroke="#63b8ff" d="M274.3,-215.66C282.98,-179.15 300.68,-104.71 307.04,-77.97"/>
<polygon fill="#63b8ff" stroke="#63b8ff" points="270.9,-214.84 271.99,-225.37 277.71,-216.46 270.9,-214.84"/>
</a>
</g>
</g>
<!-- Node11 -->
<g id="Node000011" class="node">
<title>Node11</title>
<g id="a_Node000011"><a xlink:href="../../df/d93/utils_8hpp.html" target="_top" xlink:title=" ">
<polygon fill="white" stroke="#666666" points="374.38,-134.25 316.38,-134.25 316.38,-113.5 374.38,-113.5 374.38,-134.25"/>
<text xml:space="preserve" text-anchor="middle" x="345.38" y="-120.75" font-family="Helvetica,sans-Serif" font-size="10.00">utils.hpp</text>
</a>
</g>
</g>
<!-- Node1&#45;&gt;Node11 -->
<g id="edge14_Node000001_Node000011" class="edge">
<title>Node1&#45;&gt;Node11</title>
<g id="a_edge14_Node000001_Node000011"><a xlink:title=" ">
<path fill="none" stroke="#63b8ff" d="M283.26,-217.75C289.24,-209.6 296.25,-199.9 302.38,-191 316.04,-171.15 331.24,-147.34 339.4,-134.39"/>
<polygon fill="#63b8ff" stroke="#63b8ff" points="280.64,-215.41 277.5,-225.53 286.27,-219.57 280.64,-215.41"/>
</a>
</g>
</g>
<!-- Node5 -->
<g id="Node000005" class="node">
<title>Node5</title>
<g id="a_Node000005"><a xlink:href="../../de/d1c/LogManager_8hpp.html" target="_top" xlink:title=" ">
<polygon fill="white" stroke="#666666" points="222.5,-134.25 126.25,-134.25 126.25,-113.5 222.5,-113.5 222.5,-134.25"/>
<text xml:space="preserve" text-anchor="middle" x="174.38" y="-120.75" font-family="Helvetica,sans-Serif" font-size="10.00">LogManager.hpp</text>
</a>
</g>
</g>
<!-- Node4&#45;&gt;Node5 -->
<g id="edge4_Node000004_Node000005" class="edge">
<title>Node4&#45;&gt;Node5</title>
<g id="a_edge4_Node000004_Node000005"><a xlink:title=" ">
<path fill="none" stroke="#63b8ff" d="M178.08,-158.67C177.17,-150.38 176.17,-141.25 175.44,-134.58"/>
<polygon fill="#63b8ff" stroke="#63b8ff" points="174.57,-158.77 179.14,-168.33 181.53,-158.01 174.57,-158.77"/>
</a>
</g>
</g>
<!-- Node6 -->
<g id="Node000006" class="node">
<title>Node6</title>
<g id="a_Node000006"><a xlink:href="../../d7/d42/Channel_8hpp.html" target="_top" xlink:title=" ">
<polygon fill="white" stroke="#666666" points="184.75,-77.5 108,-77.5 108,-56.75 184.75,-56.75 184.75,-77.5"/>
<text xml:space="preserve" text-anchor="middle" x="146.38" y="-64" font-family="Helvetica,sans-Serif" font-size="10.00">Channel.hpp</text>
</a>
</g>
</g>
<!-- Node5&#45;&gt;Node6 -->
<g id="edge5_Node000005_Node000006" class="edge">
<title>Node5&#45;&gt;Node6</title>
<g id="a_edge5_Node000005_Node000006"><a xlink:title=" ">
<path fill="none" stroke="#63b8ff" d="M164.25,-103.07C159.85,-94.48 154.91,-84.81 151.34,-77.83"/>
<polygon fill="#63b8ff" stroke="#63b8ff" points="161.01,-104.43 168.68,-111.74 167.24,-101.24 161.01,-104.43"/>
</a>
</g>
</g>
<!-- Node5&#45;&gt;Node9 -->
<g id="edge11_Node000005_Node000009" class="edge">
<title>Node5&#45;&gt;Node9</title>
<g id="a_edge11_Node000005_Node000009"><a xlink:title=" ">
<path fill="none" stroke="#63b8ff" d="M190.67,-104.92C203.01,-91.46 220.49,-72.7 236.38,-56.75 249,-44.07 264.06,-30 273.9,-20.93"/>
<polygon fill="#63b8ff" stroke="#63b8ff" points="188.21,-102.42 184.05,-112.17 193.38,-107.14 188.21,-102.42"/>
</a>
</g>
</g>
<!-- Node5&#45;&gt;Node10 -->
<g id="edge10_Node000005_Node000010" class="edge">
<title>Node5&#45;&gt;Node10</title>
<g id="a_edge10_Node000005_Node000010"><a xlink:title=" ">
<path fill="none" stroke="#63b8ff" d="M208.94,-108.86C232.91,-99.14 264.21,-86.44 285.45,-77.83"/>
<polygon fill="#63b8ff" stroke="#63b8ff" points="207.86,-105.52 199.91,-112.52 210.5,-112 207.86,-105.52"/>
</a>
</g>
</g>
<!-- Node6&#45;&gt;Node2 -->
<g id="edge6_Node000006_Node000002" class="edge">
<title>Node6&#45;&gt;Node2</title>
<g id="a_edge6_Node000006_Node000002"><a xlink:title=" ">
<path fill="none" stroke="#63b8ff" d="M115.81,-51.45C95.76,-41.82 70.11,-29.5 52.58,-21.08"/>
<polygon fill="#63b8ff" stroke="#63b8ff" points="114.1,-54.51 124.63,-55.68 117.13,-48.2 114.1,-54.51"/>
</a>
</g>
</g>
<!-- Node7 -->
<g id="Node000007" class="node">
<title>Node7</title>
<g id="a_Node000007"><a xlink:href="../../df/d5f/Pass_8hpp.html" target="_top" xlink:title=" ">
<polygon fill="white" stroke="#666666" points="141.75,-20.75 83,-20.75 83,0 141.75,0 141.75,-20.75"/>
<text xml:space="preserve" text-anchor="middle" x="112.38" y="-7.25" font-family="Helvetica,sans-Serif" font-size="10.00">Pass.hpp</text>
</a>
</g>
</g>
<!-- Node6&#45;&gt;Node7 -->
<g id="edge7_Node000006_Node000007" class="edge">
<title>Node6&#45;&gt;Node7</title>
<g id="a_edge7_Node000006_Node000007"><a xlink:title=" ">
<path fill="none" stroke="#63b8ff" d="M134.25,-46.6C128.88,-37.95 122.79,-28.14 118.4,-21.08"/>
<polygon fill="#63b8ff" stroke="#63b8ff" points="131.25,-48.4 139.5,-55.05 137.2,-44.71 131.25,-48.4"/>
</a>
</g>
</g>
<!-- Node8 -->
<g id="Node000008" class="node">
<title>Node8</title>
<g id="a_Node000008"><a xlink:href="../../d6/df8/Privmsg_8hpp.html" target="_top" xlink:title="Implements IRC PRIVMSG command.">
<polygon fill="white" stroke="#666666" points="236.75,-20.75 160,-20.75 160,0 236.75,0 236.75,-20.75"/>
<text xml:space="preserve" text-anchor="middle" x="198.38" y="-7.25" font-family="Helvetica,sans-Serif" font-size="10.00">Privmsg.hpp</text>
</a>
</g>
</g>
<!-- Node6&#45;&gt;Node8 -->
<g id="edge8_Node000006_Node000008" class="edge">
<title>Node6&#45;&gt;Node8</title>
<g id="a_edge8_Node000006_Node000008"><a xlink:title=" ">
<path fill="none" stroke="#63b8ff" d="M163.57,-48.02C172.11,-39.03 182.08,-28.53 189.16,-21.08"/>
<polygon fill="#63b8ff" stroke="#63b8ff" points="161.06,-45.58 156.71,-55.24 166.14,-50.4 161.06,-45.58"/>
</a>
</g>
</g>
<!-- Node6&#45;&gt;Node9 -->
<g id="edge9_Node000006_Node000009" class="edge">
<title>Node6&#45;&gt;Node9</title>
<g id="a_edge9_Node000006_Node000009"><a xlink:title=" ">
<path fill="none" stroke="#63b8ff" d="M181.71,-52.11C206.21,-42.39 238.2,-29.69 259.92,-21.08"/>
<polygon fill="#63b8ff" stroke="#63b8ff" points="180.46,-48.84 172.45,-55.78 183.04,-55.34 180.46,-48.84"/>
</a>
</g>
</g>
<!-- Node11&#45;&gt;Node9 -->
<g id="edge16_Node000011_Node000009" class="edge">
<title>Node11&#45;&gt;Node9</title>
<g id="a_edge16_Node000011_Node000009"><a xlink:title=" ">
<path fill="none" stroke="#63b8ff" d="M351.84,-102.55C354.99,-88.85 356.7,-70.79 349.38,-56.75 340.78,-40.28 323.18,-28.56 308.45,-21.16"/>
<polygon fill="#63b8ff" stroke="#63b8ff" points="348.58,-101.23 349.3,-111.8 355.33,-103.08 348.58,-101.23"/>
</a>
</g>
</g>
<!-- Node11&#45;&gt;Node10 -->
<g id="edge15_Node000011_Node000010" class="edge">
<title>Node11&#45;&gt;Node10</title>
<g id="a_edge15_Node000011_Node000010"><a xlink:title=" ">
<path fill="none" stroke="#63b8ff" d="M332.73,-103.64C326.99,-94.91 320.45,-84.97 315.76,-77.83"/>
<polygon fill="#63b8ff" stroke="#63b8ff" points="329.69,-105.39 338.11,-111.82 335.54,-101.54 329.69,-105.39"/>
</a>
</g>
</g>
</g>
</svg>
