<?xml version="1.0" encoding="UTF-8" standalone="no"?>
<!DOCTYPE svg PUBLIC "-//W3C//DTD SVG 1.1//EN"
 "http://www.w3.org/Graphics/SVG/1.1/DTD/svg11.dtd">
<!-- Generated by graphviz version 14.0.1 (0)
 -->
<!-- Title: Client.hpp Pages: 1 -->
<svg width="447pt" height="199pt"
 viewBox="0.00 0.00 447.00 199.00" xmlns="http://www.w3.org/2000/svg" xmlns:xlink="http://www.w3.org/1999/xlink">
<g id="graph0" class="graph" transform="scale(1 1) rotate(0) translate(4 195)">
<title>Client.hpp</title>
<!-- Node1 -->
<g id="Node000001" class="node">
<title>Node1</title>
<g id="a_Node000001"><a xlink:title="Client class.">
<polygon fill="#999999" stroke="#666666" points="294.5,-191 229,-191 229,-170.25 294.5,-170.25 294.5,-191"/>
<text xml:space="preserve" text-anchor="middle" x="261.75" y="-177.5" font-family="Helvetica,sans-Serif" font-size="10.00">Client.hpp</text>
</a>
</g>
</g>
<!-- Node2 -->
<g id="Node000002" class="node">
<title>Node2</title>
<g id="a_Node000002"><a xlink:href="../../d8/d55/Bot_8hpp.html" target="_top" xlink:title="Implements BOT Command (non RFC)">
<polygon fill="white" stroke="#666666" points="53.5,-134.25 0,-134.25 0,-113.5 53.5,-113.5 53.5,-134.25"/>
<text xml:space="preserve" text-anchor="middle" x="26.75" y="-120.75" font-family="Helvetica,sans-Serif" font-size="10.00">Bot.hpp</text>
</a>
</g>
</g>
<!-- Node1&#45;&gt;Node2 -->
<g id="edge1_Node000001_Node000002" class="edge">
<title>Node1&#45;&gt;Node2</title>
<g id="a_edge1_Node000001_Node000002"><a xlink:title=" ">
<path fill="none" stroke="#63b8ff" d="M217.51,-169.94C177.13,-161.01 115.81,-147.21 62.75,-134.25 59.86,-133.55 56.85,-132.79 53.85,-132.03"/>
<polygon fill="#63b8ff" stroke="#63b8ff" points="216.58,-173.32 227.1,-172.06 218.09,-166.49 216.58,-173.32"/>
</a>
</g>
</g>
<!-- Node3 -->
<g id="Node000003" class="node">
<title>Node3</title>
<g id="a_Node000003"><a xlink:href="../../d0/d9f/Invite_8hpp.html" target="_top" xlink:title="Implements IRC INVITE command.">
<polygon fill="white" stroke="#666666" points="136.12,-134.25 71.38,-134.25 71.38,-113.5 136.12,-113.5 136.12,-134.25"/>
<text xml:space="preserve" text-anchor="middle" x="103.75" y="-120.75" font-family="Helvetica,sans-Serif" font-size="10.00">Invite.hpp</text>
</a>
</g>
</g>
<!-- Node1&#45;&gt;Node3 -->
<g id="edge2_Node000001_Node000003" class="edge">
<title>Node1&#45;&gt;Node3</title>
<g id="a_edge2_Node000001_Node000003"><a xlink:title=" ">
<path fill="none" stroke="#63b8ff" d="M222.84,-166.14C194.7,-156.39 157.34,-143.44 132.02,-134.67"/>
<polygon fill="#63b8ff" stroke="#63b8ff" points="221.48,-169.37 232.07,-169.34 223.77,-162.76 221.48,-169.37"/>
</a>
</g>
</g>
<!-- Node4 -->
<g id="Node000004" class="node">
<title>Node4</title>
<g id="a_Node000004"><a xlink:href="../../da/dac/Join_8hpp.html" target="_top" xlink:title="Implement IRC JOIN Command.">
<polygon fill="white" stroke="#666666" points="209.25,-134.25 154.25,-134.25 154.25,-113.5 209.25,-113.5 209.25,-134.25"/>
<text xml:space="preserve" text-anchor="middle" x="181.75" y="-120.75" font-family="Helvetica,sans-Serif" font-size="10.00">Join.hpp</text>
</a>
</g>
</g>
<!-- Node1&#45;&gt;Node4 -->
<g id="edge3_Node000001_Node000004" class="edge">
<title>Node1&#45;&gt;Node4</title>
<g id="a_edge3_Node000001_Node000004"><a xlink:title=" ">
<path fill="none" stroke="#63b8ff" d="M238.13,-163.46C224.42,-154.08 207.61,-142.57 195.93,-134.58"/>
<polygon fill="#63b8ff" stroke="#63b8ff" points="235.97,-166.22 246.2,-168.98 239.92,-160.45 235.97,-166.22"/>
</a>
</g>
</g>
<!-- Node5 -->
<g id="Node000005" class="node">
<title>Node5</title>
<g id="a_Node000005"><a xlink:href="../../d9/d11/Logger_8hpp.html" target="_top" xlink:title="Logger class.">
<polygon fill="white" stroke="#666666" points="296.38,-134.25 227.12,-134.25 227.12,-113.5 296.38,-113.5 296.38,-134.25"/>
<text xml:space="preserve" text-anchor="middle" x="261.75" y="-120.75" font-family="Helvetica,sans-Serif" font-size="10.00">Logger.hpp</text>
</a>
</g>
</g>
<!-- Node1&#45;&gt;Node5 -->
<g id="edge4_Node000001_Node000005" class="edge">
<title>Node1&#45;&gt;Node5</title>
<g id="a_edge4_Node000001_Node000005"><a xlink:title=" ">
<path fill="none" stroke="#63b8ff" d="M261.75,-158.38C261.75,-150.16 261.75,-141.18 261.75,-134.58"/>
<polygon fill="#63b8ff" stroke="#63b8ff" points="258.25,-158.32 261.75,-168.32 265.25,-158.32 258.25,-158.32"/>
</a>
</g>
</g>
<!-- Node7 -->
<g id="Node000007" class="node">
<title>Node7</title>
<g id="a_Node000007"><a xlink:href="../../de/d3e/Motd_8hpp.html" target="_top" xlink:title="Implements IRC MOTD command.">
<polygon fill="white" stroke="#666666" points="355.62,-20.75 293.88,-20.75 293.88,0 355.62,0 355.62,-20.75"/>
<text xml:space="preserve" text-anchor="middle" x="324.75" y="-7.25" font-family="Helvetica,sans-Serif" font-size="10.00">Motd.hpp</text>
</a>
</g>
</g>
<!-- Node1&#45;&gt;Node7 -->
<g id="edge7_Node000001_Node000007" class="edge">
<title>Node1&#45;&gt;Node7</title>
<g id="a_edge7_Node000001_Node000007"><a xlink:title=" ">
<path fill="none" stroke="#63b8ff" d="M283.41,-162.45C291.7,-154.72 300.44,-144.93 305.75,-134.25 324.89,-95.79 325.75,-42.88 325.19,-21.22"/>
<polygon fill="#63b8ff" stroke="#63b8ff" points="281.16,-159.77 275.91,-168.98 285.75,-165.05 281.16,-159.77"/>
</a>
</g>
</g>
<!-- Node8 -->
<g id="Node000008" class="node">
<title>Node8</title>
<g id="a_Node000008"><a xlink:href="../../df/d93/Who_8hpp.html" target="_top" xlink:title="Implements IRC WHO command.">
<polygon fill="white" stroke="#666666" points="411.12,-134.25 352.38,-134.25 352.38,-113.5 411.12,-113.5 411.12,-134.25"/>
<text xml:space="preserve" text-anchor="middle" x="381.75" y="-120.75" font-family="Helvetica,sans-Serif" font-size="10.00">Who.hpp</text>
</a>
</g>
</g>
<!-- Node1&#45;&gt;Node8 -->
<g id="edge8_Node000001_Node000008" class="edge">
<title>Node1&#45;&gt;Node8</title>
<g id="a_edge8_Node000001_Node000008"><a xlink:title=" ">
<path fill="none" stroke="#63b8ff" d="M293.63,-165.08C314.78,-155.43 341.94,-143.04 360.48,-134.58"/>
<polygon fill="#63b8ff" stroke="#63b8ff" points="292.23,-161.87 284.58,-169.21 295.13,-168.24 292.23,-161.87"/>
</a>
</g>
</g>
<!-- Node9 -->
<g id="Node000009" class="node">
<title>Node9</title>
<g id="a_Node000009"><a xlink:href="../../df/d93/utils_8hpp.html" target="_top" xlink:title="utils class">
<polygon fill="white" stroke="#666666" points="438.75,-77.5 380.75,-77.5 380.75,-56.75 438.75,-56.75 438.75,-77.5"/>
<text xml:space="preserve" text-anchor="middle" x="409.75" y="-64" font-family="Helvetica,sans-Serif" font-size="10.00">utils.hpp</text>
</a>
</g>
</g>
<!-- Node1&#45;&gt;Node9 -->
<g id="edge9_Node000001_Node000009" class="edge">
<title>Node1&#45;&gt;Node9</title>
<g id="a_edge9_Node000001_Node000009"><a xlink:title=" ">
<path fill="none" stroke="#63b8ff" d="M305.98,-172.96C347.76,-165.65 406.02,-152.48 419.75,-134.25 432.32,-117.56 422.27,-91.65 415.2,-77.73"/>
<polygon fill="#63b8ff" stroke="#63b8ff" points="305.45,-169.5 296.17,-174.61 306.62,-176.4 305.45,-169.5"/>
</a>
</g>
</g>
<!-- Node6 -->
<g id="Node000006" class="node">
<title>Node6</title>
<g id="a_Node000006"><a xlink:href="../../de/d1c/LogManager_8hpp.html" target="_top" xlink:title="LogManager class.">
<polygon fill="white" stroke="#666666" points="296.88,-77.5 200.62,-77.5 200.62,-56.75 296.88,-56.75 296.88,-77.5"/>
<text xml:space="preserve" text-anchor="middle" x="248.75" y="-64" font-family="Helvetica,sans-Serif" font-size="10.00">LogManager.hpp</text>
</a>
</g>
</g>
<!-- Node5&#45;&gt;Node6 -->
<g id="edge5_Node000005_Node000006" class="edge">
<title>Node5&#45;&gt;Node6</title>
<g id="a_edge5_Node000005_Node000006"><a xlink:title=" ">
<path fill="none" stroke="#63b8ff" d="M256.77,-101.92C254.81,-93.63 252.64,-84.5 251.05,-77.83"/>
<polygon fill="#63b8ff" stroke="#63b8ff" points="253.36,-102.69 259.08,-111.61 260.17,-101.08 253.36,-102.69"/>
</a>
</g>
</g>
<!-- Node6&#45;&gt;Node7 -->
<g id="edge6_Node000006_Node000007" class="edge">
<title>Node6&#45;&gt;Node7</title>
<g id="a_edge6_Node000006_Node000007"><a xlink:title=" ">
<path fill="none" stroke="#63b8ff" d="M271.57,-49.69C284.52,-40.36 300.29,-29 311.28,-21.08"/>
<polygon fill="#63b8ff" stroke="#63b8ff" points="269.63,-46.77 263.57,-55.45 273.72,-52.45 269.63,-46.77"/>
</a>
</g>
</g>
<!-- Node9&#45;&gt;Node7 -->
<g id="edge10_Node000009_Node000007" class="edge">
<title>Node9&#45;&gt;Node7</title>
<g id="a_edge10_Node000009_Node000007"><a xlink:title=" ">
<path fill="none" stroke="#63b8ff" d="M385.08,-50.23C370.44,-40.8 352.35,-29.15 339.81,-21.08"/>
<polygon fill="#63b8ff" stroke="#63b8ff" points="382.98,-53.04 393.28,-55.52 386.77,-47.16 382.98,-53.04"/>
</a>
</g>
</g>
</g>
</svg>
