<?xml version="1.0" encoding="UTF-8" standalone="no"?>
<!DOCTYPE svg PUBLIC "-//W3C//DTD SVG 1.1//EN"
 "http://www.w3.org/Graphics/SVG/1.1/DTD/svg11.dtd">
<!-- Generated by graphviz version 14.0.1 (0)
 -->
<!-- Title: Logger.hpp Pages: 1 -->
<svg width="683pt" height="256pt"
 viewBox="0.00 0.00 683.00 256.00" xmlns="http://www.w3.org/2000/svg" xmlns:xlink="http://www.w3.org/1999/xlink">
<g id="graph0" class="graph" transform="scale(1 1) rotate(0) translate(4 251.75)">
<title>Logger.hpp</title>
<!-- Node1 -->
<g id="Node000001" class="node">
<title>Node1</title>
<g id="a_Node000001"><a xlink:title=" ">
<polygon fill="#999999" stroke="#666666" points="506.9,-247.75 437.65,-247.75 437.65,-227 506.9,-227 506.9,-247.75"/>
<text xml:space="preserve" text-anchor="middle" x="472.28" y="-234.25" font-family="Helvetica,sans-Serif" font-size="10.00">Logger.hpp</text>
</a>
</g>
</g>
<!-- Node2 -->
<g id="Node000002" class="node">
<title>Node2</title>
<g id="a_Node000002"><a xlink:href="../../d3/d8e/Client_8hpp.html" target="_top" xlink:title=" ">
<polygon fill="white" stroke="#666666" points="346.03,-191 280.53,-191 280.53,-170.25 346.03,-170.25 346.03,-191"/>
<text xml:space="preserve" text-anchor="middle" x="313.28" y="-177.5" font-family="Helvetica,sans-Serif" font-size="10.00">Client.hpp</text>
</a>
</g>
</g>
<!-- Node1&#45;&gt;Node2 -->
<g id="edge1_Node000001_Node000002" class="edge">
<title>Node1&#45;&gt;Node2</title>
<g id="a_edge1_Node000001_Node000002"><a xlink:title=" ">
<path fill="none" stroke="#63b8ff" d="M443.85,-226.59C418.38,-217.82 380.78,-204.87 352.46,-195.12"/>
<polygon fill="#63b8ff" stroke="#63b8ff" points="353.75,-191.86 343.16,-191.91 351.47,-198.48 353.75,-191.86"/>
</a>
</g>
</g>
<!-- Node5 -->
<g id="Node000005" class="node">
<title>Node5</title>
<g id="a_Node000005"><a xlink:title=" ">
<polygon fill="#e0e0e0" stroke="#999999" points="146.15,-20.75 102.4,-20.75 102.4,0 146.15,0 146.15,-20.75"/>
<text xml:space="preserve" text-anchor="middle" x="124.28" y="-7.25" font-family="Helvetica,sans-Serif" font-size="10.00">string</text>
</a>
</g>
</g>
<!-- Node1&#45;&gt;Node5 -->
<g id="edge16_Node000001_Node000005" class="edge">
<title>Node1&#45;&gt;Node5</title>
<g id="a_edge16_Node000001_Node000005"><a xlink:title=" ">
<path fill="none" stroke="#63b8ff" d="M469.83,-226.77C463.03,-200.8 443.3,-129.98 426.28,-113.5 350.24,-39.86 219.26,-19.25 157.87,-13.54"/>
<polygon fill="#63b8ff" stroke="#63b8ff" points="158.32,-10.06 148.07,-12.71 157.74,-17.04 158.32,-10.06"/>
</a>
</g>
</g>
<!-- Node9 -->
<g id="Node000009" class="node">
<title>Node9</title>
<g id="a_Node000009"><a xlink:title=" ">
<polygon fill="#e0e0e0" stroke="#999999" points="417.15,-134.25 379.4,-134.25 379.4,-113.5 417.15,-113.5 417.15,-134.25"/>
<text xml:space="preserve" text-anchor="middle" x="398.28" y="-120.75" font-family="Helvetica,sans-Serif" font-size="10.00">map</text>
</a>
</g>
</g>
<!-- Node1&#45;&gt;Node9 -->
<g id="edge14_Node000001_Node000009" class="edge">
<title>Node1&#45;&gt;Node9</title>
<g id="a_edge14_Node000001_Node000009"><a xlink:title=" ">
<path fill="none" stroke="#63b8ff" d="M461.98,-226.59C453.12,-217.83 440.37,-204.33 431.28,-191 421.43,-176.57 412.73,-158.79 406.73,-145.3"/>
<polygon fill="#63b8ff" stroke="#63b8ff" points="409.96,-143.95 402.8,-136.14 403.53,-146.71 409.96,-143.95"/>
</a>
</g>
</g>
<!-- Node10 -->
<g id="Node000010" class="node">
<title>Node10</title>
<g id="a_Node000010"><a xlink:title=" ">
<polygon fill="#e0e0e0" stroke="#999999" points="527.4,-191 473.15,-191 473.15,-170.25 527.4,-170.25 527.4,-191"/>
<text xml:space="preserve" text-anchor="middle" x="500.28" y="-177.5" font-family="Helvetica,sans-Serif" font-size="10.00">fstream</text>
</a>
</g>
</g>
<!-- Node1&#45;&gt;Node10 -->
<g id="edge12_Node000001_Node000010" class="edge">
<title>Node1&#45;&gt;Node10</title>
<g id="a_edge12_Node000001_Node000010"><a xlink:title=" ">
<path fill="none" stroke="#63b8ff" d="M477.28,-226.59C480.87,-219.58 485.81,-209.91 490.2,-201.33"/>
<polygon fill="#63b8ff" stroke="#63b8ff" points="493.19,-203.17 494.63,-192.68 486.96,-199.99 493.19,-203.17"/>
</a>
</g>
</g>
<!-- Node11 -->
<g id="Node000011" class="node">
<title>Node11</title>
<g id="a_Node000011"><a xlink:title=" ">
<polygon fill="#e0e0e0" stroke="#999999" points="601.15,-191 545.4,-191 545.4,-170.25 601.15,-170.25 601.15,-191"/>
<text xml:space="preserve" text-anchor="middle" x="573.28" y="-177.5" font-family="Helvetica,sans-Serif" font-size="10.00">iomanip</text>
</a>
</g>
</g>
<!-- Node1&#45;&gt;Node11 -->
<g id="edge13_Node000001_Node000011" class="edge">
<title>Node1&#45;&gt;Node11</title>
<g id="a_edge13_Node000001_Node000011"><a xlink:title=" ">
<path fill="none" stroke="#63b8ff" d="M490.33,-226.59C505.7,-218.26 528.02,-206.16 545.64,-196.61"/>
<polygon fill="#63b8ff" stroke="#63b8ff" points="546.92,-199.89 554.05,-192.05 543.59,-193.74 546.92,-199.89"/>
</a>
</g>
</g>
<!-- Node12 -->
<g id="Node000012" class="node">
<title>Node12</title>
<g id="a_Node000012"><a xlink:title=" ">
<polygon fill="#e0e0e0" stroke="#999999" points="675.15,-191 619.4,-191 619.4,-170.25 675.15,-170.25 675.15,-191"/>
<text xml:space="preserve" text-anchor="middle" x="647.28" y="-177.5" font-family="Helvetica,sans-Serif" font-size="10.00">sstream</text>
</a>
</g>
</g>
<!-- Node1&#45;&gt;Node12 -->
<g id="edge15_Node000001_Node000012" class="edge">
<title>Node1&#45;&gt;Node12</title>
<g id="a_edge15_Node000001_Node000012"><a xlink:title=" ">
<path fill="none" stroke="#63b8ff" d="M503.56,-226.59C532.94,-217.4 576.97,-203.62 608.55,-193.74"/>
<polygon fill="#63b8ff" stroke="#63b8ff" points="609.21,-197.2 617.71,-190.88 607.12,-190.52 609.21,-197.2"/>
</a>
</g>
</g>
<!-- Node3 -->
<g id="Node000003" class="node">
<title>Node3</title>
<g id="a_Node000003"><a xlink:href="../../da/d81/TcpSocket_8hpp.html" target="_top" xlink:title=" ">
<polygon fill="white" stroke="#666666" points="151.78,-134.25 66.78,-134.25 66.78,-113.5 151.78,-113.5 151.78,-134.25"/>
<text xml:space="preserve" text-anchor="middle" x="109.28" y="-120.75" font-family="Helvetica,sans-Serif" font-size="10.00">TcpSocket.hpp</text>
</a>
</g>
</g>
<!-- Node2&#45;&gt;Node3 -->
<g id="edge2_Node000002_Node000003" class="edge">
<title>Node2&#45;&gt;Node3</title>
<g id="a_edge2_Node000002_Node000003"><a xlink:title=" ">
<path fill="none" stroke="#63b8ff" d="M280.05,-170.71C246.55,-161.72 194.53,-147.75 156.7,-137.6"/>
<polygon fill="#63b8ff" stroke="#63b8ff" points="157.97,-134.32 147.4,-135.11 156.16,-141.08 157.97,-134.32"/>
</a>
</g>
</g>
<!-- Node2&#45;&gt;Node5 -->
<g id="edge11_Node000002_Node000005" class="edge">
<title>Node2&#45;&gt;Node5</title>
<g id="a_edge11_Node000002_Node000005"><a xlink:title=" ">
<path fill="none" stroke="#63b8ff" d="M297.41,-169.83C284.99,-161.55 267.93,-148.74 256.28,-134.25 232.24,-104.35 245.49,-83.79 218.28,-56.75 201.33,-39.91 176.9,-28.38 157.2,-21.15"/>
<polygon fill="#63b8ff" stroke="#63b8ff" points="158.55,-17.92 147.96,-17.98 156.28,-24.54 158.55,-17.92"/>
</a>
</g>
</g>
<!-- Node8 -->
<g id="Node000008" class="node">
<title>Node8</title>
<g id="a_Node000008"><a xlink:href="../../d8/d9c/reply__codes_8hpp.html" target="_top" xlink:title=" ">
<polygon fill="white" stroke="#666666" points="361.03,-134.25 265.53,-134.25 265.53,-113.5 361.03,-113.5 361.03,-134.25"/>
<text xml:space="preserve" text-anchor="middle" x="313.28" y="-120.75" font-family="Helvetica,sans-Serif" font-size="10.00">reply_codes.hpp</text>
</a>
</g>
</g>
<!-- Node2&#45;&gt;Node8 -->
<g id="edge9_Node000002_Node000008" class="edge">
<title>Node2&#45;&gt;Node8</title>
<g id="a_edge9_Node000002_Node000008"><a xlink:title=" ">
<path fill="none" stroke="#63b8ff" d="M313.28,-169.84C313.28,-163.22 313.28,-154.22 313.28,-146.02"/>
<polygon fill="#63b8ff" stroke="#63b8ff" points="316.78,-146.09 313.28,-136.09 309.78,-146.09 316.78,-146.09"/>
</a>
</g>
</g>
<!-- Node2&#45;&gt;Node9 -->
<g id="edge10_Node000002_Node000009" class="edge">
<title>Node2&#45;&gt;Node9</title>
<g id="a_edge10_Node000002_Node000009"><a xlink:title=" ">
<path fill="none" stroke="#63b8ff" d="M328.47,-169.84C341.05,-161.74 359.14,-150.08 373.76,-140.67"/>
<polygon fill="#63b8ff" stroke="#63b8ff" points="375.43,-143.76 381.94,-135.4 371.64,-137.87 375.43,-143.76"/>
</a>
</g>
</g>
<!-- Node4 -->
<g id="Node000004" class="node">
<title>Node4</title>
<g id="a_Node000004"><a xlink:href="../../df/dd7/consts_8hpp.html" target="_top" xlink:title=" ">
<polygon fill="white" stroke="#666666" points="81.53,-77.5 13.03,-77.5 13.03,-56.75 81.53,-56.75 81.53,-77.5"/>
<text xml:space="preserve" text-anchor="middle" x="47.28" y="-64" font-family="Helvetica,sans-Serif" font-size="10.00">consts.hpp</text>
</a>
</g>
</g>
<!-- Node3&#45;&gt;Node4 -->
<g id="edge3_Node000003_Node000004" class="edge">
<title>Node3&#45;&gt;Node4</title>
<g id="a_edge3_Node000003_Node000004"><a xlink:title=" ">
<path fill="none" stroke="#63b8ff" d="M98.19,-113.09C89.47,-105.38 77.08,-94.45 66.72,-85.29"/>
<polygon fill="#63b8ff" stroke="#63b8ff" points="69.21,-82.83 59.4,-78.83 64.58,-88.07 69.21,-82.83"/>
</a>
</g>
</g>
<!-- Node3&#45;&gt;Node5 -->
<g id="edge7_Node000003_Node000005" class="edge">
<title>Node3&#45;&gt;Node5</title>
<g id="a_edge7_Node000003_Node000005"><a xlink:title=" ">
<path fill="none" stroke="#63b8ff" d="M110.56,-113.37C112.96,-95.52 118.19,-56.61 121.46,-32.34"/>
<polygon fill="#63b8ff" stroke="#63b8ff" points="124.89,-33.05 122.76,-22.68 117.96,-32.12 124.89,-33.05"/>
</a>
</g>
</g>
<!-- Node6 -->
<g id="Node000006" class="node">
<title>Node6</title>
<g id="a_Node000006"><a xlink:title=" ">
<polygon fill="#e0e0e0" stroke="#999999" points="54.65,-20.75 7.9,-20.75 7.9,0 54.65,0 54.65,-20.75"/>
<text xml:space="preserve" text-anchor="middle" x="31.28" y="-7.25" font-family="Helvetica,sans-Serif" font-size="10.00">vector</text>
</a>
</g>
</g>
<!-- Node3&#45;&gt;Node6 -->
<g id="edge8_Node000003_Node000006" class="edge">
<title>Node3&#45;&gt;Node6</title>
<g id="a_edge8_Node000003_Node000006"><a xlink:title=" ">
<path fill="none" stroke="#63b8ff" d="M66.45,-115.9C43.88,-109.82 18.08,-98.49 4.28,-77.5 -5.57,-62.51 4.32,-43.36 14.8,-29.52"/>
<polygon fill="#63b8ff" stroke="#63b8ff" points="17.28,-32.02 20.95,-22.08 11.88,-27.56 17.28,-32.02"/>
</a>
</g>
</g>
<!-- Node7 -->
<g id="Node000007" class="node">
<title>Node7</title>
<g id="a_Node000007"><a xlink:title=" ">
<polygon fill="#e0e0e0" stroke="#999999" points="209.03,-77.5 137.53,-77.5 137.53,-56.75 209.03,-56.75 209.03,-77.5"/>
<text xml:space="preserve" text-anchor="middle" x="173.28" y="-64" font-family="Helvetica,sans-Serif" font-size="10.00">netinet/in.h</text>
</a>
</g>
</g>
<!-- Node3&#45;&gt;Node7 -->
<g id="edge6_Node000003_Node000007" class="edge">
<title>Node3&#45;&gt;Node7</title>
<g id="a_edge6_Node000003_Node000007"><a xlink:title=" ">
<path fill="none" stroke="#63b8ff" d="M120.72,-113.09C129.73,-105.38 142.51,-94.45 153.21,-85.29"/>
<polygon fill="#63b8ff" stroke="#63b8ff" points="155.46,-87.97 160.79,-78.81 150.91,-82.65 155.46,-87.97"/>
</a>
</g>
</g>
<!-- Node4&#45;&gt;Node5 -->
<g id="edge4_Node000004_Node000005" class="edge">
<title>Node4&#45;&gt;Node5</title>
<g id="a_edge4_Node000004_Node000005"><a xlink:title=" ">
<path fill="none" stroke="#63b8ff" d="M61.04,-56.34C72.21,-48.4 88.2,-37.03 101.3,-27.71"/>
<polygon fill="#63b8ff" stroke="#63b8ff" points="103.28,-30.6 109.4,-21.96 99.22,-24.9 103.28,-30.6"/>
</a>
</g>
</g>
<!-- Node4&#45;&gt;Node6 -->
<g id="edge5_Node000004_Node000006" class="edge">
<title>Node4&#45;&gt;Node6</title>
<g id="a_edge5_Node000004_Node000006"><a xlink:title=" ">
<path fill="none" stroke="#63b8ff" d="M44.42,-56.34C42.44,-49.56 39.73,-40.3 37.29,-31.94"/>
<polygon fill="#63b8ff" stroke="#63b8ff" points="40.7,-31.15 34.54,-22.53 33.98,-33.11 40.7,-31.15"/>
</a>
</g>
</g>
</g>
</svg>
