<?xml version="1.0" encoding="UTF-8" standalone="no"?>
<!DOCTYPE svg PUBLIC "-//W3C//DTD SVG 1.1//EN"
 "http://www.w3.org/Graphics/SVG/1.1/DTD/svg11.dtd">
<!-- Generated by graphviz version 14.0.1 (0)
 -->
<!-- Title: Graphical Class Hierarchy Pages: 1 -->
<svg width="169pt" height="575pt"
 viewBox="0.00 0.00 169.00 575.00" xmlns="http://www.w3.org/2000/svg" xmlns:xlink="http://www.w3.org/1999/xlink">
<g id="graph0" class="graph" transform="scale(1 1) rotate(0) translate(4 570.75)">
<title>Graphical Class Hierarchy</title>
<!-- Node0 -->
<g id="Node000000" class="node">
<title>Node0</title>
<g id="a_Node000000"><a xlink:href="db/da2/classICommand.html" target="_top" xlink:title="Interface providing an execute behavior for all commands.">
<polygon fill="white" stroke="#666666" points="69.25,-293.75 0,-293.75 0,-273 69.25,-273 69.25,-293.75"/>
<text xml:space="preserve" text-anchor="middle" x="34.62" y="-280.25" font-family="Helvetica,sans-Serif" font-size="10.00">ICommand</text>
</a>
</g>
</g>
<!-- Node1 -->
<g id="Node000001" class="node">
<title>Node1</title>
<g id="a_Node000001"><a xlink:href="db/d6d/classBot.html" target="_top" xlink:title="Implement non RFC Bot command.">
<polygon fill="white" stroke="#666666" points="149.38,-566.75 116.88,-566.75 116.88,-546 149.38,-546 149.38,-566.75"/>
<text xml:space="preserve" text-anchor="middle" x="133.12" y="-553.25" font-family="Helvetica,sans-Serif" font-size="10.00">Bot</text>
</a>
</g>
</g>
<!-- Node0&#45;&gt;Node1 -->
<g id="edge1_Node000000_Node000001" class="edge">
<title>Node0&#45;&gt;Node1</title>
<g id="a_edge1_Node000000_Node000001"><a xlink:title=" ">
<path fill="none" stroke="#63b8ff" d="M36.92,-305.38C40.61,-351.92 54.48,-462.13 105.25,-536.38 108.2,-540.7 112.4,-544.45 116.61,-547.5"/>
<polygon fill="#63b8ff" stroke="#63b8ff" points="40.42,-305.27 36.23,-295.54 33.44,-305.76 40.42,-305.27"/>
</a>
</g>
</g>
<!-- Node2 -->
<g id="Node000002" class="node">
<title>Node2</title>
<g id="a_Node000002"><a xlink:href="dc/db9/classInvite.html" target="_top" xlink:title="Handler for IRC INVITE.">
<polygon fill="white" stroke="#666666" points="155,-527.75 111.25,-527.75 111.25,-507 155,-507 155,-527.75"/>
<text xml:space="preserve" text-anchor="middle" x="133.12" y="-514.25" font-family="Helvetica,sans-Serif" font-size="10.00">Invite</text>
</a>
</g>
</g>
<!-- Node0&#45;&gt;Node2 -->
<g id="edge2_Node000000_Node000002" class="edge">
<title>Node0&#45;&gt;Node2</title>
<g id="a_edge2_Node000000_Node000002"><a xlink:title=" ">
<path fill="none" stroke="#63b8ff" d="M38.33,-305.57C44.26,-346.81 61.56,-436.54 105.25,-497.38 107.69,-500.78 110.89,-503.85 114.22,-506.5"/>
<polygon fill="#63b8ff" stroke="#63b8ff" points="41.8,-305.15 37.01,-295.71 34.86,-306.08 41.8,-305.15"/>
</a>
</g>
</g>
<!-- Node3 -->
<g id="Node000003" class="node">
<title>Node3</title>
<g id="a_Node000003"><a xlink:href="d4/dd2/classJoin.html" target="_top" xlink:title="Handler for IRC JOIN.">
<polygon fill="white" stroke="#666666" points="150.12,-488.75 116.12,-488.75 116.12,-468 150.12,-468 150.12,-488.75"/>
<text xml:space="preserve" text-anchor="middle" x="133.12" y="-475.25" font-family="Helvetica,sans-Serif" font-size="10.00">Join</text>
</a>
</g>
</g>
<!-- Node0&#45;&gt;Node3 -->
<g id="edge3_Node000000_Node000003" class="edge">
<title>Node0&#45;&gt;Node3</title>
<g id="a_edge3_Node000000_Node000003"><a xlink:title=" ">
<path fill="none" stroke="#63b8ff" d="M40.08,-304.62C48.23,-339.57 68.2,-410.12 105.25,-458.38 108.15,-462.16 111.96,-465.57 115.78,-468.46"/>
<polygon fill="#63b8ff" stroke="#63b8ff" points="43.6,-304.32 38.01,-295.31 36.76,-305.83 43.6,-304.32"/>
</a>
</g>
</g>
<!-- Node4 -->
<g id="Node000004" class="node">
<title>Node4</title>
<g id="a_Node000004"><a xlink:href="de/dcb/classKick.html" target="_top" xlink:title="Handler for IRC KICK.">
<polygon fill="white" stroke="#666666" points="151.62,-449.75 114.62,-449.75 114.62,-429 151.62,-429 151.62,-449.75"/>
<text xml:space="preserve" text-anchor="middle" x="133.12" y="-436.25" font-family="Helvetica,sans-Serif" font-size="10.00">Kick</text>
</a>
</g>
</g>
<!-- Node0&#45;&gt;Node4 -->
<g id="edge4_Node000000_Node000004" class="edge">
<title>Node0&#45;&gt;Node4</title>
<g id="a_edge4_Node000000_Node000004"><a xlink:title=" ">
<path fill="none" stroke="#63b8ff" d="M43.12,-304.96C53.74,-333.39 75.27,-383.93 105.25,-419.38 108.1,-422.75 111.63,-425.88 115.18,-428.62"/>
<polygon fill="#63b8ff" stroke="#63b8ff" points="46.45,-303.87 39.76,-295.66 39.87,-306.25 46.45,-303.87"/>
</a>
</g>
</g>
<!-- Node5 -->
<g id="Node000005" class="node">
<title>Node5</title>
<g id="a_Node000005"><a xlink:href="d9/d03/classMode.html" target="_top" xlink:title="Handler for IRC MODE.">
<polygon fill="white" stroke="#666666" points="154.62,-410.75 111.62,-410.75 111.62,-390 154.62,-390 154.62,-410.75"/>
<text xml:space="preserve" text-anchor="middle" x="133.12" y="-397.25" font-family="Helvetica,sans-Serif" font-size="10.00">Mode</text>
</a>
</g>
</g>
<!-- Node0&#45;&gt;Node5 -->
<g id="edge5_Node000000_Node000005" class="edge">
<title>Node0&#45;&gt;Node5</title>
<g id="a_edge5_Node000000_Node000005"><a xlink:title=" ">
<path fill="none" stroke="#63b8ff" d="M47.62,-303.72C60.36,-324.37 81.86,-356.58 105.25,-380.38 108.43,-383.61 112.17,-386.73 115.83,-389.51"/>
<polygon fill="#63b8ff" stroke="#63b8ff" points="50.75,-302.13 42.58,-295.38 44.76,-305.75 50.75,-302.13"/>
</a>
</g>
</g>
<!-- Node6 -->
<g id="Node000006" class="node">
<title>Node6</title>
<g id="a_Node000006"><a xlink:href="d1/d48/classMotd.html" target="_top" xlink:title="Handler for IRC MOTD.">
<polygon fill="white" stroke="#666666" points="153.5,-371.75 112.75,-371.75 112.75,-351 153.5,-351 153.5,-371.75"/>
<text xml:space="preserve" text-anchor="middle" x="133.12" y="-358.25" font-family="Helvetica,sans-Serif" font-size="10.00">Motd</text>
</a>
</g>
</g>
<!-- Node0&#45;&gt;Node6 -->
<g id="edge6_Node000000_Node000006" class="edge">
<title>Node0&#45;&gt;Node6</title>
<g id="a_edge6_Node000000_Node000006"><a xlink:title=" ">
<path fill="none" stroke="#63b8ff" d="M56.69,-301.43C70.37,-313.04 88.68,-328.32 105.25,-341.38 109.09,-344.4 113.3,-347.59 117.23,-350.52"/>
<polygon fill="#63b8ff" stroke="#63b8ff" points="59.07,-298.86 49.19,-295.04 54.53,-304.19 59.07,-298.86"/>
</a>
</g>
</g>
<!-- Node7 -->
<g id="Node000007" class="node">
<title>Node7</title>
<g id="a_Node000007"><a xlink:href="d1/d47/classNick.html" target="_top" xlink:title="Handler for IRC NICK.">
<polygon fill="white" stroke="#666666" points="152,-332.75 114.25,-332.75 114.25,-312 152,-312 152,-332.75"/>
<text xml:space="preserve" text-anchor="middle" x="133.12" y="-319.25" font-family="Helvetica,sans-Serif" font-size="10.00">Nick</text>
</a>
</g>
</g>
<!-- Node0&#45;&gt;Node7 -->
<g id="edge7_Node000000_Node000007" class="edge">
<title>Node0&#45;&gt;Node7</title>
<g id="a_edge7_Node000000_Node000007"><a xlink:title=" ">
<path fill="none" stroke="#63b8ff" d="M72.92,-298.45C86.99,-304.13 102.37,-310.35 113.93,-315.02"/>
<polygon fill="#63b8ff" stroke="#63b8ff" points="74.49,-295.31 63.91,-294.81 71.87,-301.8 74.49,-295.31"/>
</a>
</g>
</g>
<!-- Node8 -->
<g id="Node000008" class="node">
<title>Node8</title>
<g id="a_Node000008"><a xlink:href="d8/d2d/classPart.html" target="_top" xlink:title="Handler for IRC PART.">
<polygon fill="white" stroke="#666666" points="150.5,-293.75 115.75,-293.75 115.75,-273 150.5,-273 150.5,-293.75"/>
<text xml:space="preserve" text-anchor="middle" x="133.12" y="-280.25" font-family="Helvetica,sans-Serif" font-size="10.00">Part</text>
</a>
</g>
</g>
<!-- Node0&#45;&gt;Node8 -->
<g id="edge8_Node000000_Node000008" class="edge">
<title>Node0&#45;&gt;Node8</title>
<g id="a_edge8_Node000000_Node000008"><a xlink:title=" ">
<path fill="none" stroke="#63b8ff" d="M80.82,-283.38C93.17,-283.38 105.79,-283.38 115.42,-283.38"/>
<polygon fill="#63b8ff" stroke="#63b8ff" points="81.16,-279.88 71.16,-283.38 81.16,-286.88 81.16,-279.88"/>
</a>
</g>
</g>
<!-- Node9 -->
<g id="Node000009" class="node">
<title>Node9</title>
<g id="a_Node000009"><a xlink:href="d5/d01/classPass.html" target="_top" xlink:title="Handler for IRC PASS.">
<polygon fill="white" stroke="#666666" points="152,-254.75 114.25,-254.75 114.25,-234 152,-234 152,-254.75"/>
<text xml:space="preserve" text-anchor="middle" x="133.12" y="-241.25" font-family="Helvetica,sans-Serif" font-size="10.00">Pass</text>
</a>
</g>
</g>
<!-- Node0&#45;&gt;Node9 -->
<g id="edge9_Node000000_Node000009" class="edge">
<title>Node0&#45;&gt;Node9</title>
<g id="a_edge9_Node000000_Node000009"><a xlink:title=" ">
<path fill="none" stroke="#63b8ff" d="M72.92,-268.3C86.99,-262.62 102.37,-256.4 113.93,-251.73"/>
<polygon fill="#63b8ff" stroke="#63b8ff" points="71.87,-264.95 63.91,-271.94 74.49,-271.44 71.87,-264.95"/>
</a>
</g>
</g>
<!-- Node10 -->
<g id="Node000010" class="node">
<title>Node10</title>
<g id="a_Node000010"><a xlink:href="d1/d7c/classPing.html" target="_top" xlink:title="Handler for IRC PING.">
<polygon fill="white" stroke="#666666" points="151.62,-215.75 114.62,-215.75 114.62,-195 151.62,-195 151.62,-215.75"/>
<text xml:space="preserve" text-anchor="middle" x="133.12" y="-202.25" font-family="Helvetica,sans-Serif" font-size="10.00">Ping</text>
</a>
</g>
</g>
<!-- Node0&#45;&gt;Node10 -->
<g id="edge10_Node000000_Node000010" class="edge">
<title>Node0&#45;&gt;Node10</title>
<g id="a_edge10_Node000000_Node000010"><a xlink:title=" ">
<path fill="none" stroke="#63b8ff" d="M56.69,-265.32C70.37,-253.71 88.68,-238.43 105.25,-225.38 109.09,-222.35 113.3,-219.16 117.23,-216.23"/>
<polygon fill="#63b8ff" stroke="#63b8ff" points="54.53,-262.56 49.19,-271.71 59.07,-267.89 54.53,-262.56"/>
</a>
</g>
</g>
<!-- Node11 -->
<g id="Node000011" class="node">
<title>Node11</title>
<g id="a_Node000011"><a xlink:href="d2/dbb/classPrivmsg.html" target="_top" xlink:title="Handler for IRC PRIVMSG.">
<polygon fill="white" stroke="#666666" points="161,-176.75 105.25,-176.75 105.25,-156 161,-156 161,-176.75"/>
<text xml:space="preserve" text-anchor="middle" x="133.12" y="-163.25" font-family="Helvetica,sans-Serif" font-size="10.00">Privmsg</text>
</a>
</g>
</g>
<!-- Node0&#45;&gt;Node11 -->
<g id="edge11_Node000000_Node000011" class="edge">
<title>Node0&#45;&gt;Node11</title>
<g id="a_edge11_Node000000_Node000011"><a xlink:title=" ">
<path fill="none" stroke="#63b8ff" d="M47.62,-263.03C60.36,-242.38 81.86,-210.17 105.25,-186.38 108.43,-183.14 112.17,-180.02 115.83,-177.24"/>
<polygon fill="#63b8ff" stroke="#63b8ff" points="44.76,-261 42.58,-271.37 50.75,-264.62 44.76,-261"/>
</a>
</g>
</g>
<!-- Node12 -->
<g id="Node000012" class="node">
<title>Node12</title>
<g id="a_Node000012"><a xlink:href="db/dd5/classQuit.html" target="_top" xlink:title="Handler for IRC QUIT.">
<polygon fill="white" stroke="#666666" points="151.25,-137.75 115,-137.75 115,-117 151.25,-117 151.25,-137.75"/>
<text xml:space="preserve" text-anchor="middle" x="133.12" y="-124.25" font-family="Helvetica,sans-Serif" font-size="10.00">Quit</text>
</a>
</g>
</g>
<!-- Node0&#45;&gt;Node12 -->
<g id="edge12_Node000000_Node000012" class="edge">
<title>Node0&#45;&gt;Node12</title>
<g id="a_edge12_Node000000_Node000012"><a xlink:title=" ">
<path fill="none" stroke="#63b8ff" d="M43.12,-261.79C53.74,-233.36 75.27,-182.82 105.25,-147.38 108.1,-144 111.63,-140.87 115.18,-138.13"/>
<polygon fill="#63b8ff" stroke="#63b8ff" points="39.87,-260.5 39.76,-271.09 46.45,-262.88 39.87,-260.5"/>
</a>
</g>
</g>
<!-- Node13 -->
<g id="Node000013" class="node">
<title>Node13</title>
<g id="a_Node000013"><a xlink:href="d8/d71/classTopic.html" target="_top" xlink:title="Handler for IRC TOPIC.">
<polygon fill="white" stroke="#666666" points="153.5,-98.75 112.75,-98.75 112.75,-78 153.5,-78 153.5,-98.75"/>
<text xml:space="preserve" text-anchor="middle" x="133.12" y="-85.25" font-family="Helvetica,sans-Serif" font-size="10.00">Topic</text>
</a>
</g>
</g>
<!-- Node0&#45;&gt;Node13 -->
<g id="edge13_Node000000_Node000013" class="edge">
<title>Node0&#45;&gt;Node13</title>
<g id="a_edge13_Node000000_Node000013"><a xlink:title=" ">
<path fill="none" stroke="#63b8ff" d="M40.08,-262.13C48.23,-227.18 68.2,-156.63 105.25,-108.38 107.87,-104.96 111.22,-101.85 114.66,-99.15"/>
<polygon fill="#63b8ff" stroke="#63b8ff" points="36.76,-260.92 38.01,-271.44 43.6,-262.43 36.76,-260.92"/>
</a>
</g>
</g>
<!-- Node14 -->
<g id="Node000014" class="node">
<title>Node14</title>
<g id="a_Node000014"><a xlink:href="d9/dc0/classUser.html" target="_top" xlink:title="Handler for IRC USER.">
<polygon fill="white" stroke="#666666" points="152.38,-59.75 113.88,-59.75 113.88,-39 152.38,-39 152.38,-59.75"/>
<text xml:space="preserve" text-anchor="middle" x="133.12" y="-46.25" font-family="Helvetica,sans-Serif" font-size="10.00">User</text>
</a>
</g>
</g>
<!-- Node0&#45;&gt;Node14 -->
<g id="edge14_Node000000_Node000014" class="edge">
<title>Node0&#45;&gt;Node14</title>
<g id="a_edge14_Node000000_Node000014"><a xlink:title=" ">
<path fill="none" stroke="#63b8ff" d="M38.33,-261.18C44.26,-219.94 61.56,-130.21 105.25,-69.38 107.69,-65.97 110.89,-62.9 114.22,-60.25"/>
<polygon fill="#63b8ff" stroke="#63b8ff" points="34.86,-260.67 37.01,-271.04 41.8,-261.6 34.86,-260.67"/>
</a>
</g>
</g>
<!-- Node15 -->
<g id="Node000015" class="node">
<title>Node15</title>
<g id="a_Node000015"><a xlink:href="dc/d08/classWho.html" target="_top" xlink:title="Handler for IRC WHO query.">
<polygon fill="white" stroke="#666666" points="152,-20.75 114.25,-20.75 114.25,0 152,0 152,-20.75"/>
<text xml:space="preserve" text-anchor="middle" x="133.12" y="-7.25" font-family="Helvetica,sans-Serif" font-size="10.00">Who</text>
</a>
</g>
</g>
<!-- Node0&#45;&gt;Node15 -->
<g id="edge15_Node000000_Node000015" class="edge">
<title>Node0&#45;&gt;Node15</title>
<g id="a_edge15_Node000000_Node000015"><a xlink:title=" ">
<path fill="none" stroke="#63b8ff" d="M36.92,-261.37C40.61,-214.83 54.48,-104.62 105.25,-30.38 107.61,-26.92 110.77,-23.82 114.1,-21.16"/>
<polygon fill="#63b8ff" stroke="#63b8ff" points="33.44,-260.99 36.23,-271.21 40.42,-261.48 33.44,-260.99"/>
</a>
</g>
</g>
</g>
</svg>
