<?xml version="1.0" encoding="UTF-8" standalone="no"?>
<!DOCTYPE svg PUBLIC "-//W3C//DTD SVG 1.1//EN"
 "http://www.w3.org/Graphics/SVG/1.1/DTD/svg11.dtd">
<!-- Generated by graphviz version 14.0.1 (0)
 -->
<!-- Title: Graphical Class Hierarchy Pages: 1 -->
<svg width="169pt" height="497pt"
 viewBox="0.00 0.00 169.00 497.00" xmlns="http://www.w3.org/2000/svg" xmlns:xlink="http://www.w3.org/1999/xlink">
<g id="graph0" class="graph" transform="scale(1 1) rotate(0) translate(4 492.75)">
<title>Graphical Class Hierarchy</title>
<!-- Node0 -->
<g id="Node000000" class="node">
<title>Node0</title>
<g id="a_Node000000"><a xlink:href="db/da2/classICommand.html" target="_top" xlink:title=" ">
<polygon fill="white" stroke="#666666" points="69.25,-254.75 0,-254.75 0,-234 69.25,-234 69.25,-254.75"/>
<text xml:space="preserve" text-anchor="middle" x="34.62" y="-241.25" font-family="Helvetica,sans-Serif" font-size="10.00">ICommand</text>
</a>
</g>
</g>
<!-- Node1 -->
<g id="Node000001" class="node">
<title>Node1</title>
<g id="a_Node000001"><a xlink:href="dc/db9/classInvite.html" target="_top" xlink:title=" ">
<polygon fill="white" stroke="#666666" points="155,-488.75 111.25,-488.75 111.25,-468 155,-468 155,-488.75"/>
<text xml:space="preserve" text-anchor="middle" x="133.12" y="-475.25" font-family="Helvetica,sans-Serif" font-size="10.00">Invite</text>
</a>
</g>
</g>
<!-- Node0&#45;&gt;Node1 -->
<g id="edge1_Node000000_Node000001" class="edge">
<title>Node0&#45;&gt;Node1</title>
<g id="a_edge1_Node000000_Node000001"><a xlink:title=" ">
<path fill="none" stroke="#63b8ff" d="M38.33,-266.57C44.26,-307.81 61.56,-397.54 105.25,-458.38 107.69,-461.78 110.89,-464.85 114.22,-467.5"/>
<polygon fill="#63b8ff" stroke="#63b8ff" points="41.8,-266.15 37.01,-256.71 34.86,-267.08 41.8,-266.15"/>
</a>
</g>
</g>
<!-- Node2 -->
<g id="Node000002" class="node">
<title>Node2</title>
<g id="a_Node000002"><a xlink:href="d4/dd2/classJoin.html" target="_top" xlink:title=" ">
<polygon fill="white" stroke="#666666" points="150.12,-449.75 116.12,-449.75 116.12,-429 150.12,-429 150.12,-449.75"/>
<text xml:space="preserve" text-anchor="middle" x="133.12" y="-436.25" font-family="Helvetica,sans-Serif" font-size="10.00">Join</text>
</a>
</g>
</g>
<!-- Node0&#45;&gt;Node2 -->
<g id="edge2_Node000000_Node000002" class="edge">
<title>Node0&#45;&gt;Node2</title>
<g id="a_edge2_Node000000_Node000002"><a xlink:title=" ">
<path fill="none" stroke="#63b8ff" d="M40.08,-265.62C48.23,-300.57 68.2,-371.12 105.25,-419.38 108.15,-423.16 111.96,-426.57 115.78,-429.46"/>
<polygon fill="#63b8ff" stroke="#63b8ff" points="43.6,-265.32 38.01,-256.31 36.76,-266.83 43.6,-265.32"/>
</a>
</g>
</g>
<!-- Node3 -->
<g id="Node000003" class="node">
<title>Node3</title>
<g id="a_Node000003"><a xlink:href="de/dcb/classKick.html" target="_top" xlink:title=" ">
<polygon fill="white" stroke="#666666" points="151.62,-410.75 114.62,-410.75 114.62,-390 151.62,-390 151.62,-410.75"/>
<text xml:space="preserve" text-anchor="middle" x="133.12" y="-397.25" font-family="Helvetica,sans-Serif" font-size="10.00">Kick</text>
</a>
</g>
</g>
<!-- Node0&#45;&gt;Node3 -->
<g id="edge3_Node000000_Node000003" class="edge">
<title>Node0&#45;&gt;Node3</title>
<g id="a_edge3_Node000000_Node000003"><a xlink:title=" ">
<path fill="none" stroke="#63b8ff" d="M43.12,-265.96C53.74,-294.39 75.27,-344.93 105.25,-380.38 108.1,-383.75 111.63,-386.88 115.18,-389.62"/>
<polygon fill="#63b8ff" stroke="#63b8ff" points="46.45,-264.87 39.76,-256.66 39.87,-267.25 46.45,-264.87"/>
</a>
</g>
</g>
<!-- Node4 -->
<g id="Node000004" class="node">
<title>Node4</title>
<g id="a_Node000004"><a xlink:href="d9/d03/classMode.html" target="_top" xlink:title=" ">
<polygon fill="white" stroke="#666666" points="154.62,-371.75 111.62,-371.75 111.62,-351 154.62,-351 154.62,-371.75"/>
<text xml:space="preserve" text-anchor="middle" x="133.12" y="-358.25" font-family="Helvetica,sans-Serif" font-size="10.00">Mode</text>
</a>
</g>
</g>
<!-- Node0&#45;&gt;Node4 -->
<g id="edge4_Node000000_Node000004" class="edge">
<title>Node0&#45;&gt;Node4</title>
<g id="a_edge4_Node000000_Node000004"><a xlink:title=" ">
<path fill="none" stroke="#63b8ff" d="M47.62,-264.72C60.36,-285.37 81.86,-317.58 105.25,-341.38 108.43,-344.61 112.17,-347.73 115.83,-350.51"/>
<polygon fill="#63b8ff" stroke="#63b8ff" points="50.75,-263.13 42.58,-256.38 44.76,-266.75 50.75,-263.13"/>
</a>
</g>
</g>
<!-- Node5 -->
<g id="Node000005" class="node">
<title>Node5</title>
<g id="a_Node000005"><a xlink:href="d1/d48/classMotd.html" target="_top" xlink:title=" ">
<polygon fill="white" stroke="#666666" points="153.5,-332.75 112.75,-332.75 112.75,-312 153.5,-312 153.5,-332.75"/>
<text xml:space="preserve" text-anchor="middle" x="133.12" y="-319.25" font-family="Helvetica,sans-Serif" font-size="10.00">Motd</text>
</a>
</g>
</g>
<!-- Node0&#45;&gt;Node5 -->
<g id="edge5_Node000000_Node000005" class="edge">
<title>Node0&#45;&gt;Node5</title>
<g id="a_edge5_Node000000_Node000005"><a xlink:title=" ">
<path fill="none" stroke="#63b8ff" d="M56.69,-262.43C70.37,-274.04 88.68,-289.32 105.25,-302.38 109.09,-305.4 113.3,-308.59 117.23,-311.52"/>
<polygon fill="#63b8ff" stroke="#63b8ff" points="59.07,-259.86 49.19,-256.04 54.53,-265.19 59.07,-259.86"/>
</a>
</g>
</g>
<!-- Node6 -->
<g id="Node000006" class="node">
<title>Node6</title>
<g id="a_Node000006"><a xlink:href="d1/d47/classNick.html" target="_top" xlink:title=" ">
<polygon fill="white" stroke="#666666" points="152,-293.75 114.25,-293.75 114.25,-273 152,-273 152,-293.75"/>
<text xml:space="preserve" text-anchor="middle" x="133.12" y="-280.25" font-family="Helvetica,sans-Serif" font-size="10.00">Nick</text>
</a>
</g>
</g>
<!-- Node0&#45;&gt;Node6 -->
<g id="edge6_Node000000_Node000006" class="edge">
<title>Node0&#45;&gt;Node6</title>
<g id="a_edge6_Node000000_Node000006"><a xlink:title=" ">
<path fill="none" stroke="#63b8ff" d="M72.92,-259.45C86.99,-265.13 102.37,-271.35 113.93,-276.02"/>
<polygon fill="#63b8ff" stroke="#63b8ff" points="74.49,-256.31 63.91,-255.81 71.87,-262.8 74.49,-256.31"/>
</a>
</g>
</g>
<!-- Node7 -->
<g id="Node000007" class="node">
<title>Node7</title>
<g id="a_Node000007"><a xlink:href="d5/d01/classPass.html" target="_top" xlink:title=" ">
<polygon fill="white" stroke="#666666" points="152,-254.75 114.25,-254.75 114.25,-234 152,-234 152,-254.75"/>
<text xml:space="preserve" text-anchor="middle" x="133.12" y="-241.25" font-family="Helvetica,sans-Serif" font-size="10.00">Pass</text>
</a>
</g>
</g>
<!-- Node0&#45;&gt;Node7 -->
<g id="edge7_Node000000_Node000007" class="edge">
<title>Node0&#45;&gt;Node7</title>
<g id="a_edge7_Node000000_Node000007"><a xlink:title=" ">
<path fill="none" stroke="#63b8ff" d="M81.07,-244.38C92.66,-244.38 104.48,-244.38 113.81,-244.38"/>
<polygon fill="#63b8ff" stroke="#63b8ff" points="81.16,-240.88 71.16,-244.38 81.16,-247.88 81.16,-240.88"/>
</a>
</g>
</g>
<!-- Node8 -->
<g id="Node000008" class="node">
<title>Node8</title>
<g id="a_Node000008"><a xlink:href="d1/d7c/classPing.html" target="_top" xlink:title=" ">
<polygon fill="white" stroke="#666666" points="151.62,-215.75 114.62,-215.75 114.62,-195 151.62,-195 151.62,-215.75"/>
<text xml:space="preserve" text-anchor="middle" x="133.12" y="-202.25" font-family="Helvetica,sans-Serif" font-size="10.00">Ping</text>
</a>
</g>
</g>
<!-- Node0&#45;&gt;Node8 -->
<g id="edge8_Node000000_Node000008" class="edge">
<title>Node0&#45;&gt;Node8</title>
<g id="a_edge8_Node000000_Node000008"><a xlink:title=" ">
<path fill="none" stroke="#63b8ff" d="M73,-229.27C87.16,-223.55 102.65,-217.29 114.22,-212.61"/>
<polygon fill="#63b8ff" stroke="#63b8ff" points="71.87,-225.95 63.91,-232.94 74.49,-232.44 71.87,-225.95"/>
</a>
</g>
</g>
<!-- Node9 -->
<g id="Node000009" class="node">
<title>Node9</title>
<g id="a_Node000009"><a xlink:href="d2/dbb/classPrivmsg.html" target="_top" xlink:title="Handler for IRC PRIVMSG.">
<polygon fill="white" stroke="#666666" points="161,-176.75 105.25,-176.75 105.25,-156 161,-156 161,-176.75"/>
<text xml:space="preserve" text-anchor="middle" x="133.12" y="-163.25" font-family="Helvetica,sans-Serif" font-size="10.00">Privmsg</text>
</a>
</g>
</g>
<!-- Node0&#45;&gt;Node9 -->
<g id="edge9_Node000000_Node000009" class="edge">
<title>Node0&#45;&gt;Node9</title>
<g id="a_edge9_Node000000_Node000009"><a xlink:title=" ">
<path fill="none" stroke="#63b8ff" d="M56.69,-226.32C70.37,-214.71 88.68,-199.43 105.25,-186.38 109.09,-183.35 113.3,-180.16 117.23,-177.23"/>
<polygon fill="#63b8ff" stroke="#63b8ff" points="54.53,-223.56 49.19,-232.71 59.07,-228.89 54.53,-223.56"/>
</a>
</g>
</g>
<!-- Node10 -->
<g id="Node000010" class="node">
<title>Node10</title>
<g id="a_Node000010"><a xlink:href="db/dd5/classQuit.html" target="_top" xlink:title=" ">
<polygon fill="white" stroke="#666666" points="151.25,-137.75 115,-137.75 115,-117 151.25,-117 151.25,-137.75"/>
<text xml:space="preserve" text-anchor="middle" x="133.12" y="-124.25" font-family="Helvetica,sans-Serif" font-size="10.00">Quit</text>
</a>
</g>
</g>
<!-- Node0&#45;&gt;Node10 -->
<g id="edge10_Node000000_Node000010" class="edge">
<title>Node0&#45;&gt;Node10</title>
<g id="a_edge10_Node000000_Node000010"><a xlink:title=" ">
<path fill="none" stroke="#63b8ff" d="M47.62,-224.03C60.36,-203.38 81.86,-171.17 105.25,-147.38 108.43,-144.14 112.17,-141.02 115.83,-138.24"/>
<polygon fill="#63b8ff" stroke="#63b8ff" points="44.76,-222 42.58,-232.37 50.75,-225.62 44.76,-222"/>
</a>
</g>
</g>
<!-- Node11 -->
<g id="Node000011" class="node">
<title>Node11</title>
<g id="a_Node000011"><a xlink:href="d8/d71/classTopic.html" target="_top" xlink:title="Handler for IRC TOPIC.">
<polygon fill="white" stroke="#666666" points="153.5,-98.75 112.75,-98.75 112.75,-78 153.5,-78 153.5,-98.75"/>
<text xml:space="preserve" text-anchor="middle" x="133.12" y="-85.25" font-family="Helvetica,sans-Serif" font-size="10.00">Topic</text>
</a>
</g>
</g>
<!-- Node0&#45;&gt;Node11 -->
<g id="edge11_Node000000_Node000011" class="edge">
<title>Node0&#45;&gt;Node11</title>
<g id="a_edge11_Node000000_Node000011"><a xlink:title=" ">
<path fill="none" stroke="#63b8ff" d="M43.12,-222.79C53.74,-194.36 75.27,-143.82 105.25,-108.38 108.1,-105 111.63,-101.87 115.18,-99.13"/>
<polygon fill="#63b8ff" stroke="#63b8ff" points="39.87,-221.5 39.76,-232.09 46.45,-223.88 39.87,-221.5"/>
</a>
</g>
</g>
<!-- Node12 -->
<g id="Node000012" class="node">
<title>Node12</title>
<g id="a_Node000012"><a xlink:href="d9/dc0/classUser.html" target="_top" xlink:title=" ">
<polygon fill="white" stroke="#666666" points="152.38,-59.75 113.88,-59.75 113.88,-39 152.38,-39 152.38,-59.75"/>
<text xml:space="preserve" text-anchor="middle" x="133.12" y="-46.25" font-family="Helvetica,sans-Serif" font-size="10.00">User</text>
</a>
</g>
</g>
<!-- Node0&#45;&gt;Node12 -->
<g id="edge12_Node000000_Node000012" class="edge">
<title>Node0&#45;&gt;Node12</title>
<g id="a_edge12_Node000000_Node000012"><a xlink:title=" ">
<path fill="none" stroke="#63b8ff" d="M40.08,-223.13C48.23,-188.18 68.2,-117.63 105.25,-69.38 107.87,-65.96 111.22,-62.85 114.66,-60.15"/>
<polygon fill="#63b8ff" stroke="#63b8ff" points="36.76,-221.92 38.01,-232.44 43.6,-223.43 36.76,-221.92"/>
</a>
</g>
</g>
<!-- Node13 -->
<g id="Node000013" class="node">
<title>Node13</title>
<g id="a_Node000013"><a xlink:href="dc/d08/classWho.html" target="_top" xlink:title=" ">
<polygon fill="white" stroke="#666666" points="152,-20.75 114.25,-20.75 114.25,0 152,0 152,-20.75"/>
<text xml:space="preserve" text-anchor="middle" x="133.12" y="-7.25" font-family="Helvetica,sans-Serif" font-size="10.00">Who</text>
</a>
</g>
</g>
<!-- Node0&#45;&gt;Node13 -->
<g id="edge13_Node000000_Node000013" class="edge">
<title>Node0&#45;&gt;Node13</title>
<g id="a_edge13_Node000000_Node000013"><a xlink:title=" ">
<path fill="none" stroke="#63b8ff" d="M38.33,-222.18C44.26,-180.94 61.56,-91.21 105.25,-30.38 107.69,-26.97 110.89,-23.9 114.22,-21.25"/>
<polygon fill="#63b8ff" stroke="#63b8ff" points="34.86,-221.67 37.01,-232.04 41.8,-222.6 34.86,-221.67"/>
</a>
</g>
</g>
</g>
</svg>
