<?xml version="1.0" encoding="UTF-8" standalone="no"?>
<!DOCTYPE svg PUBLIC "-//W3C//DTD SVG 1.1//EN"
 "http://www.w3.org/Graphics/SVG/1.1/DTD/svg11.dtd">
<!-- Generated by graphviz version 14.0.1 (0)
 -->
<!-- Title: Pass.hpp Pages: 1 -->
<svg width="778pt" height="426pt"
 viewBox="0.00 0.00 778.00 426.00" xmlns="http://www.w3.org/2000/svg" xmlns:xlink="http://www.w3.org/1999/xlink">
<g id="graph0" class="graph" transform="scale(1 1) rotate(0) translate(4 422)">
<title>Pass.hpp</title>
<!-- Node1 -->
<g id="Node000001" class="node">
<title>Node1</title>
<g id="a_Node000001"><a xlink:title=" ">
<polygon fill="#999999" stroke="#666666" points="162.38,-418 103.62,-418 103.62,-397.25 162.38,-397.25 162.38,-418"/>
<text xml:space="preserve" text-anchor="middle" x="133" y="-404.5" font-family="Helvetica,sans-Serif" font-size="10.00">Pass.hpp</text>
</a>
</g>
</g>
<!-- Node2 -->
<g id="Node000002" class="node">
<title>Node2</title>
<g id="a_Node000002"><a xlink:href="../../d7/d42/Channel_8hpp.html" target="_top" xlink:title=" ">
<polygon fill="white" stroke="#666666" points="228.38,-361.25 151.62,-361.25 151.62,-340.5 228.38,-340.5 228.38,-361.25"/>
<text xml:space="preserve" text-anchor="middle" x="190" y="-347.75" font-family="Helvetica,sans-Serif" font-size="10.00">Channel.hpp</text>
</a>
</g>
</g>
<!-- Node1&#45;&gt;Node2 -->
<g id="edge1_Node000001_Node000002" class="edge">
<title>Node1&#45;&gt;Node2</title>
<g id="a_edge1_Node000001_Node000002"><a xlink:title=" ">
<path fill="none" stroke="#63b8ff" d="M143.19,-396.84C151.13,-389.21 162.37,-378.42 171.84,-369.32"/>
<polygon fill="#63b8ff" stroke="#63b8ff" points="174.02,-372.08 178.81,-362.63 169.17,-367.03 174.02,-372.08"/>
</a>
</g>
</g>
<!-- Node8 -->
<g id="Node000008" class="node">
<title>Node8</title>
<g id="a_Node000008"><a xlink:title=" ">
<polygon fill="#e0e0e0" stroke="#999999" points="345.88,-20.75 302.12,-20.75 302.12,0 345.88,0 345.88,-20.75"/>
<text xml:space="preserve" text-anchor="middle" x="324" y="-7.25" font-family="Helvetica,sans-Serif" font-size="10.00">string</text>
</a>
</g>
</g>
<!-- Node1&#45;&gt;Node8 -->
<g id="edge30_Node000001_Node000008" class="edge">
<title>Node1&#45;&gt;Node8</title>
<g id="a_edge30_Node000001_Node000008"><a xlink:title=" ">
<path fill="none" stroke="#63b8ff" d="M103.48,-396.82C64.3,-381.71 0,-348.76 0,-295.12 0,-295.12 0,-295.12 0,-122.88 0,-76.06 39.48,-76.35 82,-56.75 151.6,-24.66 242.42,-15.26 290.59,-12.51"/>
<polygon fill="#63b8ff" stroke="#63b8ff" points="290.56,-16.02 300.37,-12.02 290.21,-9.03 290.56,-16.02"/>
</a>
</g>
</g>
<!-- Node11 -->
<g id="Node000011" class="node">
<title>Node11</title>
<g id="a_Node000011"><a xlink:href="../../d8/d9c/reply__codes_8hpp.html" target="_top" xlink:title=" ">
<polygon fill="white" stroke="#666666" points="280.75,-134.25 185.25,-134.25 185.25,-113.5 280.75,-113.5 280.75,-134.25"/>
<text xml:space="preserve" text-anchor="middle" x="233" y="-120.75" font-family="Helvetica,sans-Serif" font-size="10.00">reply_codes.hpp</text>
</a>
</g>
</g>
<!-- Node1&#45;&gt;Node11 -->
<g id="edge29_Node000001_Node000011" class="edge">
<title>Node1&#45;&gt;Node11</title>
<g id="a_edge29_Node000001_Node000011"><a xlink:title=" ">
<path fill="none" stroke="#63b8ff" d="M124.09,-397.03C108.06,-378.71 76,-336.87 76,-295.12 76,-295.12 76,-295.12 76,-236.38 76,-205.8 73.79,-192.28 95,-170.25 115.6,-148.85 146.45,-137.54 173.77,-131.56"/>
<polygon fill="#63b8ff" stroke="#63b8ff" points="174.2,-135.04 183.33,-129.67 172.85,-128.18 174.2,-135.04"/>
</a>
</g>
</g>
<!-- Node18 -->
<g id="Node000018" class="node">
<title>Node18</title>
<g id="a_Node000018"><a xlink:href="../../de/dd6/ICommand_8hpp.html" target="_top" xlink:title=" ">
<polygon fill="white" stroke="#666666" points="770.12,-247.75 679.88,-247.75 679.88,-227 770.12,-227 770.12,-247.75"/>
<text xml:space="preserve" text-anchor="middle" x="725" y="-234.25" font-family="Helvetica,sans-Serif" font-size="10.00">ICommand.hpp</text>
</a>
</g>
</g>
<!-- Node1&#45;&gt;Node18 -->
<g id="edge27_Node000001_Node000018" class="edge">
<title>Node1&#45;&gt;Node18</title>
<g id="a_edge27_Node000001_Node000018"><a xlink:title=" ">
<path fill="none" stroke="#63b8ff" d="M162.67,-407.38C247.26,-408.25 494.5,-401.74 666,-304.5 686.01,-293.16 702.77,-272.51 713.25,-257.3"/>
<polygon fill="#63b8ff" stroke="#63b8ff" points="716.08,-259.36 718.64,-249.08 710.23,-255.52 716.08,-259.36"/>
</a>
</g>
</g>
<!-- Node3 -->
<g id="Node000003" class="node">
<title>Node3</title>
<g id="a_Node000003"><a xlink:href="../../de/d1c/LogManager_8hpp.html" target="_top" xlink:title=" ">
<polygon fill="white" stroke="#666666" points="407.12,-304.5 310.88,-304.5 310.88,-283.75 407.12,-283.75 407.12,-304.5"/>
<text xml:space="preserve" text-anchor="middle" x="359" y="-291" font-family="Helvetica,sans-Serif" font-size="10.00">LogManager.hpp</text>
</a>
</g>
</g>
<!-- Node2&#45;&gt;Node3 -->
<g id="edge2_Node000002_Node000003" class="edge">
<title>Node2&#45;&gt;Node3</title>
<g id="a_edge2_Node000002_Node000003"><a xlink:title=" ">
<path fill="none" stroke="#63b8ff" d="M220.21,-340.09C247.53,-331.24 287.96,-318.14 318.15,-308.36"/>
<polygon fill="#63b8ff" stroke="#63b8ff" points="318.89,-311.8 327.32,-305.39 316.73,-305.14 318.89,-311.8"/>
</a>
</g>
</g>
<!-- Node2&#45;&gt;Node8 -->
<g id="edge25_Node000002_Node000008" class="edge">
<title>Node2&#45;&gt;Node8</title>
<g id="a_edge25_Node000002_Node000008"><a xlink:title=" ">
<path fill="none" stroke="#63b8ff" d="M152.04,-340.04C107.01,-325.83 38,-294.83 38,-238.38 38,-238.38 38,-238.38 38,-122.88 38,-69.13 215.56,-30.86 290.87,-17.04"/>
<polygon fill="#63b8ff" stroke="#63b8ff" points="291.32,-20.52 300.54,-15.3 290.08,-13.63 291.32,-20.52"/>
</a>
</g>
</g>
<!-- Node9 -->
<g id="Node000009" class="node">
<title>Node9</title>
<g id="a_Node000009"><a xlink:title=" ">
<polygon fill="#e0e0e0" stroke="#999999" points="656.38,-20.75 609.62,-20.75 609.62,0 656.38,0 656.38,-20.75"/>
<text xml:space="preserve" text-anchor="middle" x="633" y="-7.25" font-family="Helvetica,sans-Serif" font-size="10.00">vector</text>
</a>
</g>
</g>
<!-- Node2&#45;&gt;Node9 -->
<g id="edge26_Node000002_Node000009" class="edge">
<title>Node2&#45;&gt;Node9</title>
<g id="a_edge26_Node000002_Node000009"><a xlink:title=" ">
<path fill="none" stroke="#63b8ff" d="M228.6,-348.79C339.63,-344.63 652,-325.22 652,-238.38 652,-238.38 652,-238.38 652,-122.88 652,-90.88 644.3,-54.45 638.71,-32.18"/>
<polygon fill="#63b8ff" stroke="#63b8ff" points="642.11,-31.37 636.19,-22.59 635.34,-33.15 642.11,-31.37"/>
</a>
</g>
</g>
<!-- Node2&#45;&gt;Node11 -->
<g id="edge23_Node000002_Node000011" class="edge">
<title>Node2&#45;&gt;Node11</title>
<g id="a_edge23_Node000002_Node000011"><a xlink:title=" ">
<path fill="none" stroke="#63b8ff" d="M196.78,-340.3C202.67,-331.46 210.88,-317.73 215,-304.5 232.26,-249.04 233.96,-179.74 233.59,-145.71"/>
<polygon fill="#63b8ff" stroke="#63b8ff" points="237.09,-145.93 233.4,-136 230.09,-146.07 237.09,-145.93"/>
</a>
</g>
</g>
<!-- Node16 -->
<g id="Node000016" class="node">
<title>Node16</title>
<g id="a_Node000016"><a xlink:href="../../da/dcb/ReplyHandler_8hpp.html" target="_top" xlink:title=" ">
<polygon fill="white" stroke="#666666" points="206.12,-191 103.88,-191 103.88,-170.25 206.12,-170.25 206.12,-191"/>
<text xml:space="preserve" text-anchor="middle" x="155" y="-177.5" font-family="Helvetica,sans-Serif" font-size="10.00">ReplyHandler.hpp</text>
</a>
</g>
</g>
<!-- Node2&#45;&gt;Node16 -->
<g id="edge20_Node000002_Node000016" class="edge">
<title>Node2&#45;&gt;Node16</title>
<g id="a_edge20_Node000002_Node000016"><a xlink:title=" ">
<path fill="none" stroke="#63b8ff" d="M183.46,-340.27C177.79,-331.41 169.9,-317.66 166,-304.5 155.75,-269.87 154.23,-227.56 154.39,-202.7"/>
<polygon fill="#63b8ff" stroke="#63b8ff" points="157.88,-203 154.56,-192.94 150.88,-202.88 157.88,-203"/>
</a>
</g>
</g>
<!-- Node17 -->
<g id="Node000017" class="node">
<title>Node17</title>
<g id="a_Node000017"><a xlink:title=" ">
<polygon fill="#e0e0e0" stroke="#999999" points="205.5,-304.5 174.5,-304.5 174.5,-283.75 205.5,-283.75 205.5,-304.5"/>
<text xml:space="preserve" text-anchor="middle" x="190" y="-291" font-family="Helvetica,sans-Serif" font-size="10.00">set</text>
</a>
</g>
</g>
<!-- Node2&#45;&gt;Node17 -->
<g id="edge24_Node000002_Node000017" class="edge">
<title>Node2&#45;&gt;Node17</title>
<g id="a_edge24_Node000002_Node000017"><a xlink:title=" ">
<path fill="none" stroke="#63b8ff" d="M190,-340.09C190,-333.47 190,-324.47 190,-316.27"/>
<polygon fill="#63b8ff" stroke="#63b8ff" points="193.5,-316.34 190,-306.34 186.5,-316.34 193.5,-316.34"/>
</a>
</g>
</g>
<!-- Node4 -->
<g id="Node000004" class="node">
<title>Node4</title>
<g id="a_Node000004"><a xlink:href="../../d9/d11/Logger_8hpp.html" target="_top" xlink:title=" ">
<polygon fill="white" stroke="#666666" points="441.62,-247.75 372.38,-247.75 372.38,-227 441.62,-227 441.62,-247.75"/>
<text xml:space="preserve" text-anchor="middle" x="407" y="-234.25" font-family="Helvetica,sans-Serif" font-size="10.00">Logger.hpp</text>
</a>
</g>
</g>
<!-- Node3&#45;&gt;Node4 -->
<g id="edge3_Node000003_Node000004" class="edge">
<title>Node3&#45;&gt;Node4</title>
<g id="a_edge3_Node000003_Node000004"><a xlink:title=" ">
<path fill="none" stroke="#63b8ff" d="M367.58,-283.34C374.07,-275.94 383.15,-265.57 390.97,-256.66"/>
<polygon fill="#63b8ff" stroke="#63b8ff" points="393.53,-259.04 397.5,-249.22 388.27,-254.43 393.53,-259.04"/>
</a>
</g>
</g>
<!-- Node5 -->
<g id="Node000005" class="node">
<title>Node5</title>
<g id="a_Node000005"><a xlink:href="../../d3/d8e/Client_8hpp.html" target="_top" xlink:title=" ">
<polygon fill="white" stroke="#666666" points="439.75,-191 374.25,-191 374.25,-170.25 439.75,-170.25 439.75,-191"/>
<text xml:space="preserve" text-anchor="middle" x="407" y="-177.5" font-family="Helvetica,sans-Serif" font-size="10.00">Client.hpp</text>
</a>
</g>
</g>
<!-- Node4&#45;&gt;Node5 -->
<g id="edge4_Node000004_Node000005" class="edge">
<title>Node4&#45;&gt;Node5</title>
<g id="a_edge4_Node000004_Node000005"><a xlink:title=" ">
<path fill="none" stroke="#63b8ff" d="M407,-226.59C407,-219.97 407,-210.97 407,-202.77"/>
<polygon fill="#63b8ff" stroke="#63b8ff" points="410.5,-202.84 407,-192.84 403.5,-202.84 410.5,-202.84"/>
</a>
</g>
</g>
<!-- Node4&#45;&gt;Node8 -->
<g id="edge19_Node000004_Node000008" class="edge">
<title>Node4&#45;&gt;Node8</title>
<g id="a_edge19_Node000004_Node000008"><a xlink:title=" ">
<path fill="none" stroke="#63b8ff" d="M395.23,-226.8C385.64,-218.37 372.52,-205.24 365,-191 337.2,-138.32 328.15,-67.24 325.28,-32.4"/>
<polygon fill="#63b8ff" stroke="#63b8ff" points="328.77,-32.17 324.57,-22.45 321.79,-32.67 328.77,-32.17"/>
</a>
</g>
</g>
<!-- Node12 -->
<g id="Node000012" class="node">
<title>Node12</title>
<g id="a_Node000012"><a xlink:title=" ">
<polygon fill="#e0e0e0" stroke="#999999" points="592.88,-134.25 555.12,-134.25 555.12,-113.5 592.88,-113.5 592.88,-134.25"/>
<text xml:space="preserve" text-anchor="middle" x="574" y="-120.75" font-family="Helvetica,sans-Serif" font-size="10.00">map</text>
</a>
</g>
</g>
<!-- Node4&#45;&gt;Node12 -->
<g id="edge17_Node000004_Node000012" class="edge">
<title>Node4&#45;&gt;Node12</title>
<g id="a_edge17_Node000004_Node000012"><a xlink:title=" ">
<path fill="none" stroke="#63b8ff" d="M441.93,-233.03C490.96,-227.53 576.31,-214.74 595,-191 605.79,-177.29 597.65,-157.93 588.54,-143.7"/>
<polygon fill="#63b8ff" stroke="#63b8ff" points="591.49,-141.8 582.87,-135.63 585.76,-145.82 591.49,-141.8"/>
</a>
</g>
</g>
<!-- Node13 -->
<g id="Node000013" class="node">
<title>Node13</title>
<g id="a_Node000013"><a xlink:title=" ">
<polygon fill="#e0e0e0" stroke="#999999" points="512.12,-191 457.88,-191 457.88,-170.25 512.12,-170.25 512.12,-191"/>
<text xml:space="preserve" text-anchor="middle" x="485" y="-177.5" font-family="Helvetica,sans-Serif" font-size="10.00">fstream</text>
</a>
</g>
</g>
<!-- Node4&#45;&gt;Node13 -->
<g id="edge15_Node000004_Node000013" class="edge">
<title>Node4&#45;&gt;Node13</title>
<g id="a_edge15_Node000004_Node000013"><a xlink:title=" ">
<path fill="none" stroke="#63b8ff" d="M420.94,-226.59C432.37,-218.57 448.77,-207.06 462.11,-197.69"/>
<polygon fill="#63b8ff" stroke="#63b8ff" points="463.76,-200.81 469.94,-192.2 459.74,-195.08 463.76,-200.81"/>
</a>
</g>
</g>
<!-- Node14 -->
<g id="Node000014" class="node">
<title>Node14</title>
<g id="a_Node000014"><a xlink:title=" ">
<polygon fill="#e0e0e0" stroke="#999999" points="585.88,-191 530.12,-191 530.12,-170.25 585.88,-170.25 585.88,-191"/>
<text xml:space="preserve" text-anchor="middle" x="558" y="-177.5" font-family="Helvetica,sans-Serif" font-size="10.00">iomanip</text>
</a>
</g>
</g>
<!-- Node4&#45;&gt;Node14 -->
<g id="edge16_Node000004_Node000014" class="edge">
<title>Node4&#45;&gt;Node14</title>
<g id="a_edge16_Node000004_Node000014"><a xlink:title=" ">
<path fill="none" stroke="#63b8ff" d="M434,-226.59C458.08,-217.86 493.58,-204.98 520.43,-195.25"/>
<polygon fill="#63b8ff" stroke="#63b8ff" points="521.35,-198.64 529.56,-191.94 518.97,-192.05 521.35,-198.64"/>
</a>
</g>
</g>
<!-- Node15 -->
<g id="Node000015" class="node">
<title>Node15</title>
<g id="a_Node000015"><a xlink:title=" ">
<polygon fill="#e0e0e0" stroke="#999999" points="317.88,-191 262.12,-191 262.12,-170.25 317.88,-170.25 317.88,-191"/>
<text xml:space="preserve" text-anchor="middle" x="290" y="-177.5" font-family="Helvetica,sans-Serif" font-size="10.00">sstream</text>
</a>
</g>
</g>
<!-- Node4&#45;&gt;Node15 -->
<g id="edge18_Node000004_Node000015" class="edge">
<title>Node4&#45;&gt;Node15</title>
<g id="a_edge18_Node000004_Node000015"><a xlink:title=" ">
<path fill="none" stroke="#63b8ff" d="M386.08,-226.59C368.03,-218.14 341.7,-205.82 321.16,-196.21"/>
<polygon fill="#63b8ff" stroke="#63b8ff" points="322.65,-193.04 312.11,-191.97 319.68,-199.38 322.65,-193.04"/>
</a>
</g>
</g>
<!-- Node6 -->
<g id="Node000006" class="node">
<title>Node6</title>
<g id="a_Node000006"><a xlink:href="../../da/d81/TcpSocket_8hpp.html" target="_top" xlink:title=" ">
<polygon fill="white" stroke="#666666" points="506.5,-134.25 421.5,-134.25 421.5,-113.5 506.5,-113.5 506.5,-134.25"/>
<text xml:space="preserve" text-anchor="middle" x="464" y="-120.75" font-family="Helvetica,sans-Serif" font-size="10.00">TcpSocket.hpp</text>
</a>
</g>
</g>
<!-- Node5&#45;&gt;Node6 -->
<g id="edge5_Node000005_Node000006" class="edge">
<title>Node5&#45;&gt;Node6</title>
<g id="a_edge5_Node000005_Node000006"><a xlink:title=" ">
<path fill="none" stroke="#63b8ff" d="M417.19,-169.84C425.13,-162.21 436.37,-151.42 445.84,-142.32"/>
<polygon fill="#63b8ff" stroke="#63b8ff" points="448.02,-145.08 452.81,-135.63 443.17,-140.03 448.02,-145.08"/>
</a>
</g>
</g>
<!-- Node5&#45;&gt;Node8 -->
<g id="edge14_Node000005_Node000008" class="edge">
<title>Node5&#45;&gt;Node8</title>
<g id="a_edge14_Node000005_Node000008"><a xlink:title=" ">
<path fill="none" stroke="#63b8ff" d="M402.3,-170.1C389.12,-143.39 351.62,-67.37 333.73,-31.1"/>
<polygon fill="#63b8ff" stroke="#63b8ff" points="337.09,-29.99 329.53,-22.57 330.81,-33.09 337.09,-29.99"/>
</a>
</g>
</g>
<!-- Node5&#45;&gt;Node11 -->
<g id="edge12_Node000005_Node000011" class="edge">
<title>Node5&#45;&gt;Node11</title>
<g id="a_edge12_Node000005_Node000011"><a xlink:title=" ">
<path fill="none" stroke="#63b8ff" d="M375.89,-169.84C347.77,-160.99 306.14,-147.89 275.06,-138.11"/>
<polygon fill="#63b8ff" stroke="#63b8ff" points="276.16,-134.79 265.57,-135.12 274.06,-141.47 276.16,-134.79"/>
</a>
</g>
</g>
<!-- Node5&#45;&gt;Node12 -->
<g id="edge13_Node000005_Node000012" class="edge">
<title>Node5&#45;&gt;Node12</title>
<g id="a_edge13_Node000005_Node000012"><a xlink:title=" ">
<path fill="none" stroke="#63b8ff" d="M436.86,-169.84C467.14,-159.91 513.74,-144.63 544.06,-134.69"/>
<polygon fill="#63b8ff" stroke="#63b8ff" points="544.96,-138.08 553.37,-131.64 542.78,-131.43 544.96,-138.08"/>
</a>
</g>
</g>
<!-- Node7 -->
<g id="Node000007" class="node">
<title>Node7</title>
<g id="a_Node000007"><a xlink:href="../../df/dd7/consts_8hpp.html" target="_top" xlink:title=" ">
<polygon fill="white" stroke="#666666" points="586.25,-77.5 517.75,-77.5 517.75,-56.75 586.25,-56.75 586.25,-77.5"/>
<text xml:space="preserve" text-anchor="middle" x="552" y="-64" font-family="Helvetica,sans-Serif" font-size="10.00">consts.hpp</text>
</a>
</g>
</g>
<!-- Node6&#45;&gt;Node7 -->
<g id="edge6_Node000006_Node000007" class="edge">
<title>Node6&#45;&gt;Node7</title>
<g id="a_edge6_Node000006_Node000007"><a xlink:title=" ">
<path fill="none" stroke="#63b8ff" d="M479.73,-113.09C492.87,-104.91 511.84,-93.11 527.05,-83.65"/>
<polygon fill="#63b8ff" stroke="#63b8ff" points="528.48,-86.88 535.12,-78.63 524.78,-80.94 528.48,-86.88"/>
</a>
</g>
</g>
<!-- Node6&#45;&gt;Node8 -->
<g id="edge10_Node000006_Node000008" class="edge">
<title>Node6&#45;&gt;Node8</title>
<g id="a_edge10_Node000006_Node000008"><a xlink:title=" ">
<path fill="none" stroke="#63b8ff" d="M452.06,-113.37C428.32,-94.46 374.88,-51.89 345.08,-28.16"/>
<polygon fill="#63b8ff" stroke="#63b8ff" points="347.49,-25.61 337.49,-22.12 343.13,-31.09 347.49,-25.61"/>
</a>
</g>
</g>
<!-- Node6&#45;&gt;Node9 -->
<g id="edge11_Node000006_Node000009" class="edge">
<title>Node6&#45;&gt;Node9</title>
<g id="a_edge11_Node000006_Node000009"><a xlink:title=" ">
<path fill="none" stroke="#63b8ff" d="M506.74,-116.07C534.39,-109.87 569.78,-98.37 595,-77.5 609.65,-65.38 619.82,-46.05 625.93,-31.41"/>
<polygon fill="#63b8ff" stroke="#63b8ff" points="629.1,-32.91 629.42,-22.32 622.57,-30.4 629.1,-32.91"/>
</a>
</g>
</g>
<!-- Node10 -->
<g id="Node000010" class="node">
<title>Node10</title>
<g id="a_Node000010"><a xlink:title=" ">
<polygon fill="#e0e0e0" stroke="#999999" points="499.75,-77.5 428.25,-77.5 428.25,-56.75 499.75,-56.75 499.75,-77.5"/>
<text xml:space="preserve" text-anchor="middle" x="464" y="-64" font-family="Helvetica,sans-Serif" font-size="10.00">netinet/in.h</text>
</a>
</g>
</g>
<!-- Node6&#45;&gt;Node10 -->
<g id="edge9_Node000006_Node000010" class="edge">
<title>Node6&#45;&gt;Node10</title>
<g id="a_edge9_Node000006_Node000010"><a xlink:title=" ">
<path fill="none" stroke="#63b8ff" d="M464,-113.09C464,-106.47 464,-97.47 464,-89.27"/>
<polygon fill="#63b8ff" stroke="#63b8ff" points="467.5,-89.34 464,-79.34 460.5,-89.34 467.5,-89.34"/>
</a>
</g>
</g>
<!-- Node7&#45;&gt;Node8 -->
<g id="edge7_Node000007_Node000008" class="edge">
<title>Node7&#45;&gt;Node8</title>
<g id="a_edge7_Node000007_Node000008"><a xlink:title=" ">
<path fill="none" stroke="#63b8ff" d="M517.37,-57.81C473.99,-47.39 400.16,-29.66 357.37,-19.39"/>
<polygon fill="#63b8ff" stroke="#63b8ff" points="358.19,-15.99 347.65,-17.05 356.56,-22.79 358.19,-15.99"/>
</a>
</g>
</g>
<!-- Node7&#45;&gt;Node9 -->
<g id="edge8_Node000007_Node000009" class="edge">
<title>Node7&#45;&gt;Node9</title>
<g id="a_edge8_Node000007_Node000009"><a xlink:title=" ">
<path fill="none" stroke="#63b8ff" d="M566.48,-56.34C578.35,-48.32 595.37,-36.81 609.23,-27.44"/>
<polygon fill="#63b8ff" stroke="#63b8ff" points="611.07,-30.43 617.39,-21.93 607.15,-24.63 611.07,-30.43"/>
</a>
</g>
</g>
<!-- Node16&#45;&gt;Node8 -->
<g id="edge22_Node000016_Node000008" class="edge">
<title>Node16&#45;&gt;Node8</title>
<g id="a_edge22_Node000016_Node000008"><a xlink:title=" ">
<path fill="none" stroke="#63b8ff" d="M156.04,-170.21C157.96,-156.54 163.1,-130.93 176,-113.5 206.25,-72.63 257.91,-42.43 291.5,-25.86"/>
<polygon fill="#63b8ff" stroke="#63b8ff" points="292.85,-29.1 300.36,-21.62 289.83,-22.78 292.85,-29.1"/>
</a>
</g>
</g>
<!-- Node16&#45;&gt;Node11 -->
<g id="edge21_Node000016_Node000011" class="edge">
<title>Node16&#45;&gt;Node11</title>
<g id="a_edge21_Node000016_Node000011"><a xlink:title=" ">
<path fill="none" stroke="#63b8ff" d="M168.94,-169.84C180.37,-161.82 196.77,-150.31 210.11,-140.94"/>
<polygon fill="#63b8ff" stroke="#63b8ff" points="211.76,-144.06 217.94,-135.45 207.74,-138.33 211.76,-144.06"/>
</a>
</g>
</g>
<!-- Node18&#45;&gt;Node9 -->
<g id="edge28_Node000018_Node000009" class="edge">
<title>Node18&#45;&gt;Node9</title>
<g id="a_edge28_Node000018_Node000009"><a xlink:title=" ">
<path fill="none" stroke="#63b8ff" d="M722.92,-226.61C716.8,-198.9 697.26,-117.82 666,-56.75 661.26,-47.48 654.72,-38.05 648.72,-30.19"/>
<polygon fill="#63b8ff" stroke="#63b8ff" points="651.49,-28.05 642.52,-22.41 646.01,-32.42 651.49,-28.05"/>
</a>
</g>
</g>
</g>
</svg>
