<?xml version="1.0" encoding="UTF-8" standalone="no"?>
<!DOCTYPE svg PUBLIC "-//W3C//DTD SVG 1.1//EN"
 "http://www.w3.org/Graphics/SVG/1.1/DTD/svg11.dtd">
<!-- Generated by graphviz version 14.0.1 (0)
 -->
<!-- Title: Client.hpp Pages: 1 -->
<svg width="412pt" height="199pt"
 viewBox="0.00 0.00 412.00 199.00" xmlns="http://www.w3.org/2000/svg" xmlns:xlink="http://www.w3.org/1999/xlink">
<g id="graph0" class="graph" transform="scale(1 1) rotate(0) translate(4 195)">
<title>Client.hpp</title>
<!-- Node1 -->
<g id="Node000001" class="node">
<title>Node1</title>
<g id="a_Node000001"><a xlink:title="Client class.">
<polygon fill="#999999" stroke="#666666" points="295,-191 229.5,-191 229.5,-170.25 295,-170.25 295,-191"/>
<text xml:space="preserve" text-anchor="middle" x="262.25" y="-177.5" font-family="Helvetica,sans-Serif" font-size="10.00">Client.hpp</text>
</a>
</g>
</g>
<!-- Node2 -->
<g id="Node000002" class="node">
<title>Node2</title>
<g id="a_Node000002"><a xlink:href="../../da/d81/TcpSocket_8hpp.html" target="_top" xlink:title="TcpSocket class.">
<polygon fill="white" stroke="#666666" points="180.75,-134.25 95.75,-134.25 95.75,-113.5 180.75,-113.5 180.75,-134.25"/>
<text xml:space="preserve" text-anchor="middle" x="138.25" y="-120.75" font-family="Helvetica,sans-Serif" font-size="10.00">TcpSocket.hpp</text>
</a>
</g>
</g>
<!-- Node1&#45;&gt;Node2 -->
<g id="edge1_Node000001_Node000002" class="edge">
<title>Node1&#45;&gt;Node2</title>
<g id="a_edge1_Node000001_Node000002"><a xlink:title=" ">
<path fill="none" stroke="#63b8ff" d="M240.08,-169.84C220.77,-161.31 192.53,-148.84 170.68,-139.19"/>
<polygon fill="#63b8ff" stroke="#63b8ff" points="172.17,-136.03 161.61,-135.19 169.35,-142.43 172.17,-136.03"/>
</a>
</g>
</g>
<!-- Node4 -->
<g id="Node000004" class="node">
<title>Node4</title>
<g id="a_Node000004"><a xlink:title=" ">
<polygon fill="#e0e0e0" stroke="#999999" points="208.12,-20.75 164.38,-20.75 164.38,0 208.12,0 208.12,-20.75"/>
<text xml:space="preserve" text-anchor="middle" x="186.25" y="-7.25" font-family="Helvetica,sans-Serif" font-size="10.00">string</text>
</a>
</g>
</g>
<!-- Node1&#45;&gt;Node4 -->
<g id="edge9_Node000001_Node000004" class="edge">
<title>Node1&#45;&gt;Node4</title>
<g id="a_edge9_Node000001_Node000004"><a xlink:title=" ">
<path fill="none" stroke="#63b8ff" d="M257.95,-170.1C245.93,-143.5 211.84,-68.02 195.37,-31.57"/>
<polygon fill="#63b8ff" stroke="#63b8ff" points="198.63,-30.27 191.32,-22.6 192.25,-33.15 198.63,-30.27"/>
</a>
</g>
</g>
<!-- Node7 -->
<g id="Node000007" class="node">
<title>Node7</title>
<g id="a_Node000007"><a xlink:href="../../d8/d9c/reply__codes_8hpp.html" target="_top" xlink:title="Numerical reply codes.">
<polygon fill="white" stroke="#666666" points="348,-134.25 252.5,-134.25 252.5,-113.5 348,-113.5 348,-134.25"/>
<text xml:space="preserve" text-anchor="middle" x="300.25" y="-120.75" font-family="Helvetica,sans-Serif" font-size="10.00">reply_codes.hpp</text>
</a>
</g>
</g>
<!-- Node1&#45;&gt;Node7 -->
<g id="edge7_Node000001_Node000007" class="edge">
<title>Node1&#45;&gt;Node7</title>
<g id="a_edge7_Node000001_Node000007"><a xlink:title=" ">
<path fill="none" stroke="#63b8ff" d="M269.04,-169.84C274.02,-162.67 280.92,-152.73 286.97,-144.01"/>
<polygon fill="#63b8ff" stroke="#63b8ff" points="289.83,-146.03 292.65,-135.82 284.07,-142.04 289.83,-146.03"/>
</a>
</g>
</g>
<!-- Node8 -->
<g id="Node000008" class="node">
<title>Node8</title>
<g id="a_Node000008"><a xlink:title=" ">
<polygon fill="#e0e0e0" stroke="#999999" points="404.12,-134.25 366.38,-134.25 366.38,-113.5 404.12,-113.5 404.12,-134.25"/>
<text xml:space="preserve" text-anchor="middle" x="385.25" y="-120.75" font-family="Helvetica,sans-Serif" font-size="10.00">map</text>
</a>
</g>
</g>
<!-- Node1&#45;&gt;Node8 -->
<g id="edge8_Node000001_Node000008" class="edge">
<title>Node1&#45;&gt;Node8</title>
<g id="a_edge8_Node000001_Node000008"><a xlink:title=" ">
<path fill="none" stroke="#63b8ff" d="M284.24,-169.84C304.1,-161 333.5,-147.91 355.46,-138.13"/>
<polygon fill="#63b8ff" stroke="#63b8ff" points="356.78,-141.38 364.5,-134.11 353.94,-134.98 356.78,-141.38"/>
</a>
</g>
</g>
<!-- Node3 -->
<g id="Node000003" class="node">
<title>Node3</title>
<g id="a_Node000003"><a xlink:href="../../df/dd7/consts_8hpp.html" target="_top" xlink:title="constants used throughout IRC server program">
<polygon fill="white" stroke="#666666" points="68.5,-77.5 0,-77.5 0,-56.75 68.5,-56.75 68.5,-77.5"/>
<text xml:space="preserve" text-anchor="middle" x="34.25" y="-64" font-family="Helvetica,sans-Serif" font-size="10.00">consts.hpp</text>
</a>
</g>
</g>
<!-- Node2&#45;&gt;Node3 -->
<g id="edge2_Node000002_Node000003" class="edge">
<title>Node2&#45;&gt;Node3</title>
<g id="a_edge2_Node000002_Node000003"><a xlink:title=" ">
<path fill="none" stroke="#63b8ff" d="M119.66,-113.09C103.83,-104.76 80.85,-92.66 62.71,-83.11"/>
<polygon fill="#63b8ff" stroke="#63b8ff" points="64.5,-80.09 54.02,-78.53 61.24,-86.29 64.5,-80.09"/>
</a>
</g>
</g>
<!-- Node2&#45;&gt;Node4 -->
<g id="edge6_Node000002_Node000004" class="edge">
<title>Node2&#45;&gt;Node4</title>
<g id="a_edge6_Node000002_Node000004"><a xlink:title=" ">
<path fill="none" stroke="#63b8ff" d="M145.57,-113.25C152.03,-104.38 161.32,-90.62 167.25,-77.5 173.88,-62.83 178.79,-45.28 181.96,-31.95"/>
<polygon fill="#63b8ff" stroke="#63b8ff" points="185.29,-33.1 184.05,-22.58 178.46,-31.58 185.29,-33.1"/>
</a>
</g>
</g>
<!-- Node6 -->
<g id="Node000006" class="node">
<title>Node6</title>
<g id="a_Node000006"><a xlink:title=" ">
<polygon fill="#e0e0e0" stroke="#999999" points="158,-77.5 86.5,-77.5 86.5,-56.75 158,-56.75 158,-77.5"/>
<text xml:space="preserve" text-anchor="middle" x="122.25" y="-64" font-family="Helvetica,sans-Serif" font-size="10.00">netinet/in.h</text>
</a>
</g>
</g>
<!-- Node2&#45;&gt;Node6 -->
<g id="edge5_Node000002_Node000006" class="edge">
<title>Node2&#45;&gt;Node6</title>
<g id="a_edge5_Node000002_Node000006"><a xlink:title=" ">
<path fill="none" stroke="#63b8ff" d="M135.39,-113.09C133.41,-106.31 130.7,-97.05 128.26,-88.69"/>
<polygon fill="#63b8ff" stroke="#63b8ff" points="131.67,-87.9 125.51,-79.28 124.96,-89.86 131.67,-87.9"/>
</a>
</g>
</g>
<!-- Node3&#45;&gt;Node4 -->
<g id="edge3_Node000003_Node000004" class="edge">
<title>Node3&#45;&gt;Node4</title>
<g id="a_edge3_Node000003_Node000004"><a xlink:title=" ">
<path fill="none" stroke="#63b8ff" d="M61.42,-56.34C87.24,-47.04 126.1,-33.04 153.59,-23.14"/>
<polygon fill="#63b8ff" stroke="#63b8ff" points="154.59,-26.5 162.82,-19.82 152.22,-19.91 154.59,-26.5"/>
</a>
</g>
</g>
<!-- Node5 -->
<g id="Node000005" class="node">
<title>Node5</title>
<g id="a_Node000005"><a xlink:title=" ">
<polygon fill="#e0e0e0" stroke="#999999" points="57.62,-20.75 10.88,-20.75 10.88,0 57.62,0 57.62,-20.75"/>
<text xml:space="preserve" text-anchor="middle" x="34.25" y="-7.25" font-family="Helvetica,sans-Serif" font-size="10.00">vector</text>
</a>
</g>
</g>
<!-- Node3&#45;&gt;Node5 -->
<g id="edge4_Node000003_Node000005" class="edge">
<title>Node3&#45;&gt;Node5</title>
<g id="a_edge4_Node000003_Node000005"><a xlink:title=" ">
<path fill="none" stroke="#63b8ff" d="M34.25,-56.34C34.25,-49.72 34.25,-40.72 34.25,-32.52"/>
<polygon fill="#63b8ff" stroke="#63b8ff" points="37.75,-32.59 34.25,-22.59 30.75,-32.59 37.75,-32.59"/>
</a>
</g>
</g>
</g>
</svg>
