<?xml version="1.0" encoding="UTF-8" standalone="no"?>
<!DOCTYPE svg PUBLIC "-//W3C//DTD SVG 1.1//EN"
 "http://www.w3.org/Graphics/SVG/1.1/DTD/svg11.dtd">
<!-- Generated by graphviz version 14.0.1 (0)
 -->
<!-- Title: Client.hpp Pages: 1 -->
<svg width="432pt" height="199pt"
 viewBox="0.00 0.00 432.00 199.00" xmlns="http://www.w3.org/2000/svg" xmlns:xlink="http://www.w3.org/1999/xlink">
<g id="graph0" class="graph" transform="scale(1 1) rotate(0) translate(4 195)">
<title>Client.hpp</title>
<!-- Node1 -->
<g id="Node000001" class="node">
<title>Node1</title>
<g id="a_Node000001"><a xlink:title=" ">
<polygon fill="#999999" stroke="#666666" points="315.12,-191 249.62,-191 249.62,-170.25 315.12,-170.25 315.12,-191"/>
<text xml:space="preserve" text-anchor="middle" x="282.38" y="-177.5" font-family="Helvetica,sans-Serif" font-size="10.00">Client.hpp</text>
</a>
</g>
</g>
<!-- Node2 -->
<g id="Node000002" class="node">
<title>Node2</title>
<g id="a_Node000002"><a xlink:href="../../da/d81/TcpSocket_8hpp.html" target="_top" xlink:title=" ">
<polygon fill="white" stroke="#666666" points="184.88,-134.25 99.88,-134.25 99.88,-113.5 184.88,-113.5 184.88,-134.25"/>
<text xml:space="preserve" text-anchor="middle" x="142.38" y="-120.75" font-family="Helvetica,sans-Serif" font-size="10.00">TcpSocket.hpp</text>
</a>
</g>
</g>
<!-- Node1&#45;&gt;Node2 -->
<g id="edge1_Node000001_Node000002" class="edge">
<title>Node1&#45;&gt;Node2</title>
<g id="a_edge1_Node000001_Node000002"><a xlink:title=" ">
<path fill="none" stroke="#63b8ff" d="M257.35,-169.84C235.15,-161.16 202.49,-148.38 177.64,-138.67"/>
<polygon fill="#63b8ff" stroke="#63b8ff" points="179.19,-135.51 168.6,-135.13 176.64,-142.03 179.19,-135.51"/>
</a>
</g>
</g>
<!-- Node4 -->
<g id="Node000004" class="node">
<title>Node4</title>
<g id="a_Node000004"><a xlink:title=" ">
<polygon fill="#e0e0e0" stroke="#999999" points="228.25,-20.75 184.5,-20.75 184.5,0 228.25,0 228.25,-20.75"/>
<text xml:space="preserve" text-anchor="middle" x="206.38" y="-7.25" font-family="Helvetica,sans-Serif" font-size="10.00">string</text>
</a>
</g>
</g>
<!-- Node1&#45;&gt;Node4 -->
<g id="edge10_Node000001_Node000004" class="edge">
<title>Node1&#45;&gt;Node4</title>
<g id="a_edge10_Node000001_Node000004"><a xlink:title=" ">
<path fill="none" stroke="#63b8ff" d="M278.07,-170.1C266.06,-143.5 231.96,-68.02 215.5,-31.57"/>
<polygon fill="#63b8ff" stroke="#63b8ff" points="218.75,-30.27 211.44,-22.6 212.37,-33.15 218.75,-30.27"/>
</a>
</g>
</g>
<!-- Node7 -->
<g id="Node000007" class="node">
<title>Node7</title>
<g id="a_Node000007"><a xlink:href="../../d8/d9c/reply__codes_8hpp.html" target="_top" xlink:title=" ">
<polygon fill="white" stroke="#666666" points="368.12,-134.25 272.62,-134.25 272.62,-113.5 368.12,-113.5 368.12,-134.25"/>
<text xml:space="preserve" text-anchor="middle" x="320.38" y="-120.75" font-family="Helvetica,sans-Serif" font-size="10.00">reply_codes.hpp</text>
</a>
</g>
</g>
<!-- Node1&#45;&gt;Node7 -->
<g id="edge8_Node000001_Node000007" class="edge">
<title>Node1&#45;&gt;Node7</title>
<g id="a_edge8_Node000001_Node000007"><a xlink:title=" ">
<path fill="none" stroke="#63b8ff" d="M289.17,-169.84C294.14,-162.67 301.04,-152.73 307.1,-144.01"/>
<polygon fill="#63b8ff" stroke="#63b8ff" points="309.95,-146.03 312.78,-135.82 304.2,-142.04 309.95,-146.03"/>
</a>
</g>
</g>
<!-- Node8 -->
<g id="Node000008" class="node">
<title>Node8</title>
<g id="a_Node000008"><a xlink:title=" ">
<polygon fill="#e0e0e0" stroke="#999999" points="424.25,-134.25 386.5,-134.25 386.5,-113.5 424.25,-113.5 424.25,-134.25"/>
<text xml:space="preserve" text-anchor="middle" x="405.38" y="-120.75" font-family="Helvetica,sans-Serif" font-size="10.00">map</text>
</a>
</g>
</g>
<!-- Node1&#45;&gt;Node8 -->
<g id="edge9_Node000001_Node000008" class="edge">
<title>Node1&#45;&gt;Node8</title>
<g id="a_edge9_Node000001_Node000008"><a xlink:title=" ">
<path fill="none" stroke="#63b8ff" d="M304.36,-169.84C324.23,-161 353.62,-147.91 375.59,-138.13"/>
<polygon fill="#63b8ff" stroke="#63b8ff" points="376.91,-141.38 384.62,-134.11 374.06,-134.98 376.91,-141.38"/>
</a>
</g>
</g>
<!-- Node3 -->
<g id="Node000003" class="node">
<title>Node3</title>
<g id="a_Node000003"><a xlink:href="../../df/dd7/consts_8hpp.html" target="_top" xlink:title=" ">
<polygon fill="white" stroke="#666666" points="88.62,-77.5 20.12,-77.5 20.12,-56.75 88.62,-56.75 88.62,-77.5"/>
<text xml:space="preserve" text-anchor="middle" x="54.38" y="-64" font-family="Helvetica,sans-Serif" font-size="10.00">consts.hpp</text>
</a>
</g>
</g>
<!-- Node2&#45;&gt;Node3 -->
<g id="edge2_Node000002_Node000003" class="edge">
<title>Node2&#45;&gt;Node3</title>
<g id="a_edge2_Node000002_Node000003"><a xlink:title=" ">
<path fill="none" stroke="#63b8ff" d="M126.64,-113.09C113.5,-104.91 94.53,-93.11 79.32,-83.65"/>
<polygon fill="#63b8ff" stroke="#63b8ff" points="81.6,-80.94 71.26,-78.63 77.9,-86.88 81.6,-80.94"/>
</a>
</g>
</g>
<!-- Node2&#45;&gt;Node4 -->
<g id="edge6_Node000002_Node000004" class="edge">
<title>Node2&#45;&gt;Node4</title>
<g id="a_edge6_Node000002_Node000004"><a xlink:title=" ">
<path fill="none" stroke="#63b8ff" d="M155.21,-113.02C165.32,-104.62 179.07,-91.66 187.38,-77.5 195.61,-63.46 200.46,-45.63 203.2,-32.02"/>
<polygon fill="#63b8ff" stroke="#63b8ff" points="206.6,-32.89 204.89,-22.43 199.71,-31.67 206.6,-32.89"/>
</a>
</g>
</g>
<!-- Node5 -->
<g id="Node000005" class="node">
<title>Node5</title>
<g id="a_Node000005"><a xlink:title=" ">
<polygon fill="#e0e0e0" stroke="#999999" points="46.75,-20.75 0,-20.75 0,0 46.75,0 46.75,-20.75"/>
<text xml:space="preserve" text-anchor="middle" x="23.38" y="-7.25" font-family="Helvetica,sans-Serif" font-size="10.00">vector</text>
</a>
</g>
</g>
<!-- Node2&#45;&gt;Node5 -->
<g id="edge7_Node000002_Node000005" class="edge">
<title>Node2&#45;&gt;Node5</title>
<g id="a_edge7_Node000002_Node000005"><a xlink:title=" ">
<path fill="none" stroke="#63b8ff" d="M99.69,-120.5C69.6,-116.33 31.27,-105.44 11.38,-77.5 1.76,-64 6.51,-45.13 12.64,-31"/>
<polygon fill="#63b8ff" stroke="#63b8ff" points="15.68,-32.75 16.94,-22.23 9.4,-29.67 15.68,-32.75"/>
</a>
</g>
</g>
<!-- Node6 -->
<g id="Node000006" class="node">
<title>Node6</title>
<g id="a_Node000006"><a xlink:title=" ">
<polygon fill="#e0e0e0" stroke="#999999" points="178.12,-77.5 106.62,-77.5 106.62,-56.75 178.12,-56.75 178.12,-77.5"/>
<text xml:space="preserve" text-anchor="middle" x="142.38" y="-64" font-family="Helvetica,sans-Serif" font-size="10.00">netinet/in.h</text>
</a>
</g>
</g>
<!-- Node2&#45;&gt;Node6 -->
<g id="edge5_Node000002_Node000006" class="edge">
<title>Node2&#45;&gt;Node6</title>
<g id="a_edge5_Node000002_Node000006"><a xlink:title=" ">
<path fill="none" stroke="#63b8ff" d="M142.38,-113.09C142.38,-106.47 142.38,-97.47 142.38,-89.27"/>
<polygon fill="#63b8ff" stroke="#63b8ff" points="145.88,-89.34 142.38,-79.34 138.88,-89.34 145.88,-89.34"/>
</a>
</g>
</g>
<!-- Node3&#45;&gt;Node4 -->
<g id="edge3_Node000003_Node000004" class="edge">
<title>Node3&#45;&gt;Node4</title>
<g id="a_edge3_Node000003_Node000004"><a xlink:title=" ">
<path fill="none" stroke="#63b8ff" d="M81.55,-56.34C107.37,-47.04 146.22,-33.04 173.71,-23.14"/>
<polygon fill="#63b8ff" stroke="#63b8ff" points="174.72,-26.5 182.94,-19.82 172.35,-19.91 174.72,-26.5"/>
</a>
</g>
</g>
<!-- Node3&#45;&gt;Node5 -->
<g id="edge4_Node000003_Node000005" class="edge">
<title>Node3&#45;&gt;Node5</title>
<g id="a_edge4_Node000003_Node000005"><a xlink:title=" ">
<path fill="none" stroke="#63b8ff" d="M48.83,-56.34C44.87,-49.33 39.39,-39.66 34.53,-31.08"/>
<polygon fill="#63b8ff" stroke="#63b8ff" points="37.59,-29.37 29.61,-22.4 31.5,-32.82 37.59,-29.37"/>
</a>
</g>
</g>
</g>
</svg>
