<?xml version="1.0" encoding="UTF-8" standalone="no"?>
<!DOCTYPE svg PUBLIC "-//W3C//DTD SVG 1.1//EN"
 "http://www.w3.org/Graphics/SVG/1.1/DTD/svg11.dtd">
<!-- Generated by graphviz version 14.0.1 (0)
 -->
<!-- Title: ReplyHandler.hpp Pages: 1 -->
<svg width="478pt" height="142pt"
 viewBox="0.00 0.00 478.00 142.00" xmlns="http://www.w3.org/2000/svg" xmlns:xlink="http://www.w3.org/1999/xlink">
<g id="graph0" class="graph" transform="scale(1 1) rotate(0) translate(4 138.25)">
<title>ReplyHandler.hpp</title>
<!-- Node1 -->
<g id="Node000001" class="node">
<title>Node1</title>
<g id="a_Node000001"><a xlink:title="ReplyHandler class.">
<polygon fill="#999999" stroke="#666666" points="162.25,-134.25 60,-134.25 60,-113.5 162.25,-113.5 162.25,-134.25"/>
<text xml:space="preserve" text-anchor="middle" x="111.12" y="-120.75" font-family="Helvetica,sans-Serif" font-size="10.00">ReplyHandler.hpp</text>
</a>
</g>
</g>
<!-- Node2 -->
<g id="Node000002" class="node">
<title>Node2</title>
<g id="a_Node000002"><a xlink:href="../../d7/d42/Channel_8hpp.html" target="_top" xlink:title="Channel class.">
<polygon fill="white" stroke="#666666" points="226.5,-77.5 149.75,-77.5 149.75,-56.75 226.5,-56.75 226.5,-77.5"/>
<text xml:space="preserve" text-anchor="middle" x="188.12" y="-64" font-family="Helvetica,sans-Serif" font-size="10.00">Channel.hpp</text>
</a>
</g>
</g>
<!-- Node1&#45;&gt;Node2 -->
<g id="edge1_Node000001_Node000002" class="edge">
<title>Node1&#45;&gt;Node2</title>
<g id="a_edge1_Node000001_Node000002"><a xlink:title=" ">
<path fill="none" stroke="#63b8ff" d="M134.24,-106.44C147.37,-97.11 163.34,-85.75 174.48,-77.83"/>
<polygon fill="#63b8ff" stroke="#63b8ff" points="132.25,-103.56 126.12,-112.21 136.3,-109.27 132.25,-103.56"/>
</a>
</g>
</g>
<!-- Node5 -->
<g id="Node000005" class="node">
<title>Node5</title>
<g id="a_Node000005"><a xlink:href="../../d7/ddd/Parser_8hpp.html" target="_top" xlink:title="Parser class.">
<polygon fill="white" stroke="#666666" points="66.25,-20.75 0,-20.75 0,0 66.25,0 66.25,-20.75"/>
<text xml:space="preserve" text-anchor="middle" x="33.12" y="-7.25" font-family="Helvetica,sans-Serif" font-size="10.00">Parser.hpp</text>
</a>
</g>
</g>
<!-- Node1&#45;&gt;Node5 -->
<g id="edge8_Node000001_Node000005" class="edge">
<title>Node1&#45;&gt;Node5</title>
<g id="a_edge8_Node000001_Node000005"><a xlink:title=" ">
<path fill="none" stroke="#63b8ff" d="M97.88,-103.94C81.13,-79.99 52.92,-39.67 39.98,-21.18"/>
<polygon fill="#63b8ff" stroke="#63b8ff" points="95.01,-105.94 103.61,-112.13 100.74,-101.93 95.01,-105.94"/>
</a>
</g>
</g>
<!-- Node3 -->
<g id="Node000003" class="node">
<title>Node3</title>
<g id="a_Node000003"><a xlink:href="../../d8/d55/Bot_8hpp.html" target="_top" xlink:title="Implements BOT Command (non RFC)">
<polygon fill="white" stroke="#666666" points="137.88,-20.75 84.38,-20.75 84.38,0 137.88,0 137.88,-20.75"/>
<text xml:space="preserve" text-anchor="middle" x="111.12" y="-7.25" font-family="Helvetica,sans-Serif" font-size="10.00">Bot.hpp</text>
</a>
</g>
</g>
<!-- Node2&#45;&gt;Node3 -->
<g id="edge2_Node000002_Node000003" class="edge">
<title>Node2&#45;&gt;Node3</title>
<g id="a_edge2_Node000002_Node000003"><a xlink:title=" ">
<path fill="none" stroke="#63b8ff" d="M165.01,-49.69C151.88,-40.36 135.91,-29 124.77,-21.08"/>
<polygon fill="#63b8ff" stroke="#63b8ff" points="162.95,-52.52 173.13,-55.46 167,-46.81 162.95,-52.52"/>
</a>
</g>
</g>
<!-- Node4 -->
<g id="Node000004" class="node">
<title>Node4</title>
<g id="a_Node000004"><a xlink:href="../../d0/d9f/Invite_8hpp.html" target="_top" xlink:title="Implements IRC INVITE command.">
<polygon fill="white" stroke="#666666" points="220.5,-20.75 155.75,-20.75 155.75,0 220.5,0 220.5,-20.75"/>
<text xml:space="preserve" text-anchor="middle" x="188.12" y="-7.25" font-family="Helvetica,sans-Serif" font-size="10.00">Invite.hpp</text>
</a>
</g>
</g>
<!-- Node2&#45;&gt;Node4 -->
<g id="edge3_Node000002_Node000004" class="edge">
<title>Node2&#45;&gt;Node4</title>
<g id="a_edge3_Node000002_Node000004"><a xlink:title=" ">
<path fill="none" stroke="#63b8ff" d="M188.12,-44.88C188.12,-36.66 188.12,-27.68 188.12,-21.08"/>
<polygon fill="#63b8ff" stroke="#63b8ff" points="184.63,-44.82 188.13,-54.82 191.63,-44.82 184.63,-44.82"/>
</a>
</g>
</g>
<!-- Node2&#45;&gt;Node5 -->
<g id="edge4_Node000002_Node000005" class="edge">
<title>Node2&#45;&gt;Node5</title>
<g id="a_edge4_Node000002_Node000005"><a xlink:title=" ">
<path fill="none" stroke="#63b8ff" d="M149.58,-52.51C122.02,-42.78 85.58,-29.9 60.86,-21.17"/>
<polygon fill="#63b8ff" stroke="#63b8ff" points="148.39,-55.8 158.99,-55.83 150.72,-49.2 148.39,-55.8"/>
</a>
</g>
</g>
<!-- Node6 -->
<g id="Node000006" class="node">
<title>Node6</title>
<g id="a_Node000006"><a xlink:href="../../df/d5f/Pass_8hpp.html" target="_top" xlink:title="Implements IRC PASS command.">
<polygon fill="white" stroke="#666666" points="297.5,-20.75 238.75,-20.75 238.75,0 297.5,0 297.5,-20.75"/>
<text xml:space="preserve" text-anchor="middle" x="268.12" y="-7.25" font-family="Helvetica,sans-Serif" font-size="10.00">Pass.hpp</text>
</a>
</g>
</g>
<!-- Node2&#45;&gt;Node6 -->
<g id="edge5_Node000002_Node000006" class="edge">
<title>Node2&#45;&gt;Node6</title>
<g id="a_edge5_Node000002_Node000006"><a xlink:title=" ">
<path fill="none" stroke="#63b8ff" d="M211.74,-49.96C225.45,-40.58 242.27,-29.07 253.95,-21.08"/>
<polygon fill="#63b8ff" stroke="#63b8ff" points="209.95,-46.95 203.68,-55.48 213.91,-52.72 209.95,-46.95"/>
</a>
</g>
</g>
<!-- Node7 -->
<g id="Node000007" class="node">
<title>Node7</title>
<g id="a_Node000007"><a xlink:href="../../d6/df8/Privmsg_8hpp.html" target="_top" xlink:title="Implements IRC PRIVMSG command.">
<polygon fill="white" stroke="#666666" points="392.5,-20.75 315.75,-20.75 315.75,0 392.5,0 392.5,-20.75"/>
<text xml:space="preserve" text-anchor="middle" x="354.12" y="-7.25" font-family="Helvetica,sans-Serif" font-size="10.00">Privmsg.hpp</text>
</a>
</g>
</g>
<!-- Node2&#45;&gt;Node7 -->
<g id="edge6_Node000002_Node000007" class="edge">
<title>Node2&#45;&gt;Node7</title>
<g id="a_edge6_Node000002_Node000007"><a xlink:title=" ">
<path fill="none" stroke="#63b8ff" d="M228.62,-52.77C258.22,-43.01 297.71,-29.98 324.43,-21.17"/>
<polygon fill="#63b8ff" stroke="#63b8ff" points="227.64,-49.41 219.24,-55.86 229.83,-56.05 227.64,-49.41"/>
</a>
</g>
</g>
<!-- Node8 -->
<g id="Node000008" class="node">
<title>Node8</title>
<g id="a_Node000008"><a xlink:href="../../df/d93/Who_8hpp.html" target="_top" xlink:title="Implements IRC WHO command.">
<polygon fill="white" stroke="#666666" points="469.5,-20.75 410.75,-20.75 410.75,0 469.5,0 469.5,-20.75"/>
<text xml:space="preserve" text-anchor="middle" x="440.12" y="-7.25" font-family="Helvetica,sans-Serif" font-size="10.00">Who.hpp</text>
</a>
</g>
</g>
<!-- Node2&#45;&gt;Node8 -->
<g id="edge7_Node000002_Node000008" class="edge">
<title>Node2&#45;&gt;Node8</title>
<g id="a_edge7_Node000002_Node000008"><a xlink:title=" ">
<path fill="none" stroke="#63b8ff" d="M237.73,-55.94C280.95,-46.97 345.27,-33.41 401.12,-20.75 404.11,-20.07 407.23,-19.35 410.33,-18.62"/>
<polygon fill="#63b8ff" stroke="#63b8ff" points="237.23,-52.47 228.15,-57.92 238.65,-59.32 237.23,-52.47"/>
</a>
</g>
</g>
</g>
</svg>
