<?xml version="1.0" encoding="UTF-8" standalone="no"?>
<!DOCTYPE svg PUBLIC "-//W3C//DTD SVG 1.1//EN"
 "http://www.w3.org/Graphics/SVG/1.1/DTD/svg11.dtd">
<!-- Generated by graphviz version 14.0.1 (0)
 -->
<!-- Title: ICommand Pages: 1 -->
<svg width="745pt" height="86pt"
 viewBox="0.00 0.00 745.00 86.00" xmlns="http://www.w3.org/2000/svg" xmlns:xlink="http://www.w3.org/1999/xlink">
<g id="graph0" class="graph" transform="scale(1 1) rotate(0) translate(4 81.5)">
<title>ICommand</title>
<!-- Node1 -->
<g id="Node000001" class="node">
<title>Node1</title>
<g id="a_Node000001"><a xlink:title=" ">
<polygon fill="#999999" stroke="#666666" points="398.5,-77.5 329.25,-77.5 329.25,-56.75 398.5,-56.75 398.5,-77.5"/>
<text xml:space="preserve" text-anchor="middle" x="363.88" y="-64" font-family="Helvetica,sans-Serif" font-size="10.00">ICommand</text>
</a>
</g>
</g>
<!-- Node2 -->
<g id="Node000002" class="node">
<title>Node2</title>
<g id="a_Node000002"><a xlink:href="../../dc/db9/classInvite.html" target="_top" xlink:title=" ">
<polygon fill="white" stroke="#666666" points="43.75,-20.75 0,-20.75 0,0 43.75,0 43.75,-20.75"/>
<text xml:space="preserve" text-anchor="middle" x="21.88" y="-7.25" font-family="Helvetica,sans-Serif" font-size="10.00">Invite</text>
</a>
</g>
</g>
<!-- Node1&#45;&gt;Node2 -->
<g id="edge1_Node000001_Node000002" class="edge">
<title>Node1&#45;&gt;Node2</title>
<g id="a_edge1_Node000001_Node000002"><a xlink:title=" ">
<path fill="none" stroke="#63b8ff" d="M317.89,-61.58C256.85,-55.06 145.94,-41.49 52.88,-20.75 50.02,-20.11 47.05,-19.35 44.12,-18.54"/>
<polygon fill="#63b8ff" stroke="#63b8ff" points="317.24,-65.03 327.55,-62.6 317.97,-58.07 317.24,-65.03"/>
</a>
</g>
</g>
<!-- Node3 -->
<g id="Node000003" class="node">
<title>Node3</title>
<g id="a_Node000003"><a xlink:href="../../d4/dd2/classJoin.html" target="_top" xlink:title=" ">
<polygon fill="white" stroke="#666666" points="95.88,-20.75 61.88,-20.75 61.88,0 95.88,0 95.88,-20.75"/>
<text xml:space="preserve" text-anchor="middle" x="78.88" y="-7.25" font-family="Helvetica,sans-Serif" font-size="10.00">Join</text>
</a>
</g>
</g>
<!-- Node1&#45;&gt;Node3 -->
<g id="edge2_Node000001_Node000003" class="edge">
<title>Node1&#45;&gt;Node3</title>
<g id="a_edge2_Node000001_Node000003"><a xlink:title=" ">
<path fill="none" stroke="#63b8ff" d="M317.89,-60.51C265.71,-53.58 178.29,-40.26 104.88,-20.75 102.09,-20.01 99.19,-19.1 96.37,-18.15"/>
<polygon fill="#63b8ff" stroke="#63b8ff" points="317.24,-63.96 327.61,-61.78 318.15,-57.02 317.24,-63.96"/>
</a>
</g>
</g>
<!-- Node4 -->
<g id="Node000004" class="node">
<title>Node4</title>
<g id="a_Node000004"><a xlink:href="../../de/dcb/classKick.html" target="_top" xlink:title=" ">
<polygon fill="white" stroke="#666666" points="151.38,-20.75 114.38,-20.75 114.38,0 151.38,0 151.38,-20.75"/>
<text xml:space="preserve" text-anchor="middle" x="132.88" y="-7.25" font-family="Helvetica,sans-Serif" font-size="10.00">Kick</text>
</a>
</g>
</g>
<!-- Node1&#45;&gt;Node4 -->
<g id="edge3_Node000001_Node000004" class="edge">
<title>Node1&#45;&gt;Node4</title>
<g id="a_edge3_Node000001_Node000004"><a xlink:title=" ">
<path fill="none" stroke="#63b8ff" d="M317.77,-57.45C276.17,-49.25 213.47,-35.96 159.88,-20.75 157.2,-19.99 154.41,-19.12 151.67,-18.21"/>
<polygon fill="#63b8ff" stroke="#63b8ff" points="316.95,-60.86 327.43,-59.34 318.29,-53.99 316.95,-60.86"/>
</a>
</g>
</g>
<!-- Node5 -->
<g id="Node000005" class="node">
<title>Node5</title>
<g id="a_Node000005"><a xlink:href="../../d9/d03/classMode.html" target="_top" xlink:title=" ">
<polygon fill="white" stroke="#666666" points="212.38,-20.75 169.38,-20.75 169.38,0 212.38,0 212.38,-20.75"/>
<text xml:space="preserve" text-anchor="middle" x="190.88" y="-7.25" font-family="Helvetica,sans-Serif" font-size="10.00">Mode</text>
</a>
</g>
</g>
<!-- Node1&#45;&gt;Node5 -->
<g id="edge4_Node000001_Node000005" class="edge">
<title>Node1&#45;&gt;Node5</title>
<g id="a_edge4_Node000001_Node000005"><a xlink:title=" ">
<path fill="none" stroke="#63b8ff" d="M322.26,-52.96C287.81,-42.05 240.21,-26.99 212.77,-18.3"/>
<polygon fill="#63b8ff" stroke="#63b8ff" points="320.91,-56.2 331.5,-55.88 323.03,-49.53 320.91,-56.2"/>
</a>
</g>
</g>
<!-- Node6 -->
<g id="Node000006" class="node">
<title>Node6</title>
<g id="a_Node000006"><a xlink:href="../../d1/d48/classMotd.html" target="_top" xlink:title="Handler for IRC MOTD.">
<polygon fill="white" stroke="#666666" points="271.25,-20.75 230.5,-20.75 230.5,0 271.25,0 271.25,-20.75"/>
<text xml:space="preserve" text-anchor="middle" x="250.88" y="-7.25" font-family="Helvetica,sans-Serif" font-size="10.00">Motd</text>
</a>
</g>
</g>
<!-- Node1&#45;&gt;Node6 -->
<g id="edge5_Node000001_Node000006" class="edge">
<title>Node1&#45;&gt;Node6</title>
<g id="a_edge5_Node000001_Node000006"><a xlink:title=" ">
<path fill="none" stroke="#63b8ff" d="M333.58,-51.45C313.71,-41.82 288.28,-29.5 270.9,-21.08"/>
<polygon fill="#63b8ff" stroke="#63b8ff" points="331.79,-54.47 342.31,-55.68 334.84,-48.17 331.79,-54.47"/>
</a>
</g>
</g>
<!-- Node7 -->
<g id="Node000007" class="node">
<title>Node7</title>
<g id="a_Node000007"><a xlink:href="../../d1/d47/classNick.html" target="_top" xlink:title=" ">
<polygon fill="white" stroke="#666666" points="326.75,-20.75 289,-20.75 289,0 326.75,0 326.75,-20.75"/>
<text xml:space="preserve" text-anchor="middle" x="307.88" y="-7.25" font-family="Helvetica,sans-Serif" font-size="10.00">Nick</text>
</a>
</g>
</g>
<!-- Node1&#45;&gt;Node7 -->
<g id="edge6_Node000001_Node000007" class="edge">
<title>Node1&#45;&gt;Node7</title>
<g id="a_edge6_Node000001_Node000007"><a xlink:title=" ">
<path fill="none" stroke="#63b8ff" d="M345.64,-48.3C336.39,-39.25 325.5,-28.61 317.8,-21.08"/>
<polygon fill="#63b8ff" stroke="#63b8ff" points="343.18,-50.79 352.78,-55.28 348.08,-45.79 343.18,-50.79"/>
</a>
</g>
</g>
<!-- Node8 -->
<g id="Node000008" class="node">
<title>Node8</title>
<g id="a_Node000008"><a xlink:href="../../d5/d01/classPass.html" target="_top" xlink:title=" ">
<polygon fill="white" stroke="#666666" points="382.75,-20.75 345,-20.75 345,0 382.75,0 382.75,-20.75"/>
<text xml:space="preserve" text-anchor="middle" x="363.88" y="-7.25" font-family="Helvetica,sans-Serif" font-size="10.00">Pass</text>
</a>
</g>
</g>
<!-- Node1&#45;&gt;Node8 -->
<g id="edge7_Node000001_Node000008" class="edge">
<title>Node1&#45;&gt;Node8</title>
<g id="a_edge7_Node000001_Node000008"><a xlink:title=" ">
<path fill="none" stroke="#63b8ff" d="M363.88,-44.88C363.88,-36.66 363.88,-27.68 363.88,-21.08"/>
<polygon fill="#63b8ff" stroke="#63b8ff" points="360.38,-44.82 363.88,-54.82 367.38,-44.82 360.38,-44.82"/>
</a>
</g>
</g>
<!-- Node9 -->
<g id="Node000009" class="node">
<title>Node9</title>
<g id="a_Node000009"><a xlink:href="../../d1/d7c/classPing.html" target="_top" xlink:title=" ">
<polygon fill="white" stroke="#666666" points="437.38,-20.75 400.38,-20.75 400.38,0 437.38,0 437.38,-20.75"/>
<text xml:space="preserve" text-anchor="middle" x="418.88" y="-7.25" font-family="Helvetica,sans-Serif" font-size="10.00">Ping</text>
</a>
</g>
</g>
<!-- Node1&#45;&gt;Node9 -->
<g id="edge8_Node000001_Node000009" class="edge">
<title>Node1&#45;&gt;Node9</title>
<g id="a_edge8_Node000001_Node000009"><a xlink:title=" ">
<path fill="none" stroke="#63b8ff" d="M381.78,-48.3C390.87,-39.25 401.56,-28.61 409.13,-21.08"/>
<polygon fill="#63b8ff" stroke="#63b8ff" points="379.4,-45.73 374.78,-55.27 384.34,-50.69 379.4,-45.73"/>
</a>
</g>
</g>
<!-- Node10 -->
<g id="Node000010" class="node">
<title>Node10</title>
<g id="a_Node000010"><a xlink:href="../../d2/dbb/classPrivmsg.html" target="_top" xlink:title="Handler for IRC PRIVMSG.">
<polygon fill="white" stroke="#666666" points="510.75,-20.75 455,-20.75 455,0 510.75,0 510.75,-20.75"/>
<text xml:space="preserve" text-anchor="middle" x="482.88" y="-7.25" font-family="Helvetica,sans-Serif" font-size="10.00">Privmsg</text>
</a>
</g>
</g>
<!-- Node1&#45;&gt;Node10 -->
<g id="edge9_Node000001_Node000010" class="edge">
<title>Node1&#45;&gt;Node10</title>
<g id="a_edge9_Node000001_Node000010"><a xlink:title=" ">
<path fill="none" stroke="#63b8ff" d="M395.49,-51.58C416.46,-41.93 443.4,-29.54 461.78,-21.08"/>
<polygon fill="#63b8ff" stroke="#63b8ff" points="394.15,-48.34 386.52,-55.7 397.07,-54.7 394.15,-48.34"/>
</a>
</g>
</g>
<!-- Node11 -->
<g id="Node000011" class="node">
<title>Node11</title>
<g id="a_Node000011"><a xlink:href="../../db/dd5/classQuit.html" target="_top" xlink:title=" ">
<polygon fill="white" stroke="#666666" points="565,-20.75 528.75,-20.75 528.75,0 565,0 565,-20.75"/>
<text xml:space="preserve" text-anchor="middle" x="546.88" y="-7.25" font-family="Helvetica,sans-Serif" font-size="10.00">Quit</text>
</a>
</g>
</g>
<!-- Node1&#45;&gt;Node11 -->
<g id="edge10_Node000001_Node000011" class="edge">
<title>Node1&#45;&gt;Node11</title>
<g id="a_edge10_Node000001_Node000011"><a xlink:title=" ">
<path fill="none" stroke="#63b8ff" d="M409.69,-53.47C440.87,-44.69 483.02,-32.5 519.88,-20.75 522.62,-19.88 525.5,-18.92 528.33,-17.96"/>
<polygon fill="#63b8ff" stroke="#63b8ff" points="408.87,-50.06 400.18,-56.13 410.76,-56.8 408.87,-50.06"/>
</a>
</g>
</g>
<!-- Node12 -->
<g id="Node000012" class="node">
<title>Node12</title>
<g id="a_Node000012"><a xlink:href="../../d8/d71/classTopic.html" target="_top" xlink:title="Handler for IRC TOPIC.">
<polygon fill="white" stroke="#666666" points="624.25,-20.75 583.5,-20.75 583.5,0 624.25,0 624.25,-20.75"/>
<text xml:space="preserve" text-anchor="middle" x="603.88" y="-7.25" font-family="Helvetica,sans-Serif" font-size="10.00">Topic</text>
</a>
</g>
</g>
<!-- Node1&#45;&gt;Node12 -->
<g id="edge11_Node000001_Node000012" class="edge">
<title>Node1&#45;&gt;Node12</title>
<g id="a_edge11_Node000001_Node000012"><a xlink:title=" ">
<path fill="none" stroke="#63b8ff" d="M409.82,-57.44C452.56,-49.06 517.88,-35.52 573.88,-20.75 576.94,-19.94 580.15,-19.02 583.29,-18.08"/>
<polygon fill="#63b8ff" stroke="#63b8ff" points="409.3,-53.97 400.15,-59.32 410.63,-60.84 409.3,-53.97"/>
</a>
</g>
</g>
<!-- Node13 -->
<g id="Node000013" class="node">
<title>Node13</title>
<g id="a_Node000013"><a xlink:href="../../d9/dc0/classUser.html" target="_top" xlink:title=" ">
<polygon fill="white" stroke="#666666" points="681.12,-20.75 642.62,-20.75 642.62,0 681.12,0 681.12,-20.75"/>
<text xml:space="preserve" text-anchor="middle" x="661.88" y="-7.25" font-family="Helvetica,sans-Serif" font-size="10.00">User</text>
</a>
</g>
</g>
<!-- Node1&#45;&gt;Node13 -->
<g id="edge12_Node000001_Node000013" class="edge">
<title>Node1&#45;&gt;Node13</title>
<g id="a_edge12_Node000001_Node000013"><a xlink:title=" ">
<path fill="none" stroke="#63b8ff" d="M409.83,-60.45C463.71,-53.31 555.51,-39.67 632.88,-20.75 635.96,-20 639.19,-19.08 642.33,-18.12"/>
<polygon fill="#63b8ff" stroke="#63b8ff" points="409.56,-56.95 400.1,-61.72 410.47,-63.89 409.56,-56.95"/>
</a>
</g>
</g>
<!-- Node14 -->
<g id="Node000014" class="node">
<title>Node14</title>
<g id="a_Node000014"><a xlink:href="../../dc/d08/classWho.html" target="_top" xlink:title="Handler for IRC WHO query.">
<polygon fill="white" stroke="#666666" points="736.75,-20.75 699,-20.75 699,0 736.75,0 736.75,-20.75"/>
<text xml:space="preserve" text-anchor="middle" x="717.88" y="-7.25" font-family="Helvetica,sans-Serif" font-size="10.00">Who</text>
</a>
</g>
</g>
<!-- Node1&#45;&gt;Node14 -->
<g id="edge13_Node000001_Node000014" class="edge">
<title>Node1&#45;&gt;Node14</title>
<g id="a_edge13_Node000001_Node000014"><a xlink:title=" ">
<path fill="none" stroke="#63b8ff" d="M409.74,-62.43C473.28,-56.71 591.42,-43.87 689.88,-20.75 692.77,-20.07 695.79,-19.22 698.73,-18.3"/>
<polygon fill="#63b8ff" stroke="#63b8ff" points="409.69,-58.93 400.03,-63.29 410.3,-65.9 409.69,-58.93"/>
</a>
</g>
</g>
</g>
</svg>
