<?xml version="1.0" encoding="UTF-8" standalone="no"?>
<!DOCTYPE svg PUBLIC "-//W3C//DTD SVG 1.1//EN"
 "http://www.w3.org/Graphics/SVG/1.1/DTD/svg11.dtd">
<!-- Generated by graphviz version 14.0.1 (0)
 -->
<!-- Title: ICommand Pages: 1 -->
<svg width="1380pt" height="236pt"
 viewBox="0.00 0.00 1380.00 236.00" xmlns="http://www.w3.org/2000/svg" xmlns:xlink="http://www.w3.org/1999/xlink">
<g id="graph0" class="graph" transform="scale(1 1) rotate(0) translate(4 232.25)">
<title>ICommand</title>
<!-- Node1 -->
<g id="Node000001" class="node">
<title>Node1</title>
<g id="a_Node000001"><a xlink:title="Interface providing an execute behavior for all commands.">
<polygon fill="#999999" stroke="none" points="701.88,-228.25 612.62,-228.25 612.62,-140.5 701.88,-140.5 701.88,-228.25"/>
<text xml:space="preserve" text-anchor="start" x="630.62" y="-214.75" font-family="Helvetica,sans-Serif" font-size="10.00">ICommand</text>
<text xml:space="preserve" text-anchor="start" x="655.75" y="-198" font-family="Helvetica,sans-Serif" font-size="10.00"> </text>
<text xml:space="preserve" text-anchor="start" x="616.62" y="-181.25" font-family="Helvetica,sans-Serif" font-size="10.00">+</text>
<text xml:space="preserve" text-anchor="start" x="628.88" y="-181.25" font-family="Helvetica,sans-Serif" font-size="10.00">~ICommand()</text>
<text xml:space="preserve" text-anchor="start" x="616.62" y="-164.5" font-family="Helvetica,sans-Serif" font-size="10.00">+</text>
<text xml:space="preserve" text-anchor="start" x="628.88" y="-164.5" font-family="Helvetica,sans-Serif" font-size="10.00">execute()</text>
<text xml:space="preserve" text-anchor="start" x="616.62" y="-147.75" font-family="Helvetica,sans-Serif" font-size="10.00">#</text>
<text xml:space="preserve" text-anchor="start" x="628.88" y="-147.75" font-family="Helvetica,sans-Serif" font-size="10.00">ICommand()</text>
<polygon fill="#666666" stroke="#666666" points="612.62,-209.5 612.62,-209.5 701.88,-209.5 701.88,-209.5 612.62,-209.5"/>
<polygon fill="#666666" stroke="#666666" points="612.62,-192.75 612.62,-192.75 701.88,-192.75 701.88,-192.75 612.62,-192.75"/>
<polygon fill="none" stroke="#666666" points="612.62,-140.5 612.62,-228.25 701.88,-228.25 701.88,-140.5 612.62,-140.5"/>
</a>
</g>
</g>
<!-- Node2 -->
<g id="Node000002" class="node">
<title>Node2</title>
<g id="a_Node000002"><a xlink:href="../../db/d6d/classBot.html" target="_top" xlink:title="Implement non RFC Bot command.">
<polygon fill="white" stroke="none" points="70.5,-96.12 0,-96.12 0,-8.38 70.5,-8.38 70.5,-96.12"/>
<text xml:space="preserve" text-anchor="start" x="27" y="-82.62" font-family="Helvetica,sans-Serif" font-size="10.00">Bot</text>
<text xml:space="preserve" text-anchor="start" x="4" y="-65.88" font-family="Helvetica,sans-Serif" font-size="10.00">+</text>
<text xml:space="preserve" text-anchor="start" x="16.25" y="-65.88" font-family="Helvetica,sans-Serif" font-size="10.00">cmdName</text>
<text xml:space="preserve" text-anchor="start" x="4" y="-49.12" font-family="Helvetica,sans-Serif" font-size="10.00">+</text>
<text xml:space="preserve" text-anchor="start" x="16.25" y="-49.12" font-family="Helvetica,sans-Serif" font-size="10.00">Bot()</text>
<text xml:space="preserve" text-anchor="start" x="4" y="-32.38" font-family="Helvetica,sans-Serif" font-size="10.00">+</text>
<text xml:space="preserve" text-anchor="start" x="16.25" y="-32.38" font-family="Helvetica,sans-Serif" font-size="10.00">~Bot()</text>
<text xml:space="preserve" text-anchor="start" x="4" y="-15.62" font-family="Helvetica,sans-Serif" font-size="10.00">+</text>
<text xml:space="preserve" text-anchor="start" x="16.25" y="-15.62" font-family="Helvetica,sans-Serif" font-size="10.00">execute()</text>
<polygon fill="#666666" stroke="#666666" points="0,-77.38 0,-77.38 70.5,-77.38 70.5,-77.38 0,-77.38"/>
<polygon fill="#666666" stroke="#666666" points="0,-60.62 0,-60.62 14.25,-60.62 14.25,-60.62 0,-60.62"/>
<polygon fill="#666666" stroke="#666666" points="14.25,-60.62 14.25,-60.62 70.5,-60.62 70.5,-60.62 14.25,-60.62"/>
<polygon fill="none" stroke="#666666" points="0,-8.38 0,-96.12 70.5,-96.12 70.5,-8.38 0,-8.38"/>
</a>
</g>
</g>
<!-- Node1&#45;&gt;Node2 -->
<g id="edge1_Node000001_Node000002" class="edge">
<title>Node1&#45;&gt;Node2</title>
<g id="a_edge1_Node000001_Node000002"><a xlink:title=" ">
<path fill="none" stroke="#63b8ff" d="M601.47,-180.78C474.65,-174.08 168.74,-153.22 79.25,-104.5 75.03,-102.2 71.03,-99.32 67.29,-96.11"/>
<polygon fill="none" stroke="#63b8ff" points="601.13,-184.26 611.3,-181.29 601.49,-177.27 601.13,-184.26"/>
</a>
</g>
</g>
<!-- Node3 -->
<g id="Node000003" class="node">
<title>Node3</title>
<g id="a_Node000003"><a xlink:href="../../dc/db9/classInvite.html" target="_top" xlink:title="Handler for IRC INVITE.">
<polygon fill="white" stroke="none" points="154.25,-96.12 88.25,-96.12 88.25,-8.38 154.25,-8.38 154.25,-96.12"/>
<text xml:space="preserve" text-anchor="start" x="107.38" y="-82.62" font-family="Helvetica,sans-Serif" font-size="10.00">Invite</text>
<text xml:space="preserve" text-anchor="start" x="119.75" y="-65.88" font-family="Helvetica,sans-Serif" font-size="10.00"> </text>
<text xml:space="preserve" text-anchor="start" x="92.25" y="-49.12" font-family="Helvetica,sans-Serif" font-size="10.00">+</text>
<text xml:space="preserve" text-anchor="start" x="104.5" y="-49.12" font-family="Helvetica,sans-Serif" font-size="10.00">Invite()</text>
<text xml:space="preserve" text-anchor="start" x="92.25" y="-32.38" font-family="Helvetica,sans-Serif" font-size="10.00">+</text>
<text xml:space="preserve" text-anchor="start" x="104.5" y="-32.38" font-family="Helvetica,sans-Serif" font-size="10.00">~Invite()</text>
<text xml:space="preserve" text-anchor="start" x="92.25" y="-15.62" font-family="Helvetica,sans-Serif" font-size="10.00">+</text>
<text xml:space="preserve" text-anchor="start" x="104.5" y="-15.62" font-family="Helvetica,sans-Serif" font-size="10.00">execute()</text>
<polygon fill="#666666" stroke="#666666" points="88.25,-77.38 88.25,-77.38 154.25,-77.38 154.25,-77.38 88.25,-77.38"/>
<polygon fill="#666666" stroke="#666666" points="88.25,-60.62 88.25,-60.62 154.25,-60.62 154.25,-60.62 88.25,-60.62"/>
<polygon fill="none" stroke="#666666" points="88.25,-8.38 88.25,-96.12 154.25,-96.12 154.25,-8.38 88.25,-8.38"/>
</a>
</g>
</g>
<!-- Node1&#45;&gt;Node3 -->
<g id="edge2_Node000001_Node000003" class="edge">
<title>Node1&#45;&gt;Node3</title>
<g id="a_edge2_Node000001_Node000003"><a xlink:title=" ">
<path fill="none" stroke="#63b8ff" d="M601.25,-179.43C488.2,-170.68 237.17,-146.95 163.25,-104.5 159.16,-102.15 155.3,-99.24 151.71,-96.01"/>
<polygon fill="none" stroke="#63b8ff" points="600.97,-182.92 611.21,-180.19 601.5,-175.94 600.97,-182.92"/>
</a>
</g>
</g>
<!-- Node4 -->
<g id="Node000004" class="node">
<title>Node4</title>
<g id="a_Node000004"><a xlink:href="../../d4/dd2/classJoin.html" target="_top" xlink:title="Handler for IRC JOIN.">
<polygon fill="white" stroke="none" points="238.25,-96.12 172.25,-96.12 172.25,-8.38 238.25,-8.38 238.25,-96.12"/>
<text xml:space="preserve" text-anchor="start" x="196.25" y="-82.62" font-family="Helvetica,sans-Serif" font-size="10.00">Join</text>
<text xml:space="preserve" text-anchor="start" x="203.75" y="-65.88" font-family="Helvetica,sans-Serif" font-size="10.00"> </text>
<text xml:space="preserve" text-anchor="start" x="176.25" y="-49.12" font-family="Helvetica,sans-Serif" font-size="10.00">+</text>
<text xml:space="preserve" text-anchor="start" x="188.5" y="-49.12" font-family="Helvetica,sans-Serif" font-size="10.00">Join()</text>
<text xml:space="preserve" text-anchor="start" x="176.25" y="-32.38" font-family="Helvetica,sans-Serif" font-size="10.00">+</text>
<text xml:space="preserve" text-anchor="start" x="188.5" y="-32.38" font-family="Helvetica,sans-Serif" font-size="10.00">~Join()</text>
<text xml:space="preserve" text-anchor="start" x="176.25" y="-15.62" font-family="Helvetica,sans-Serif" font-size="10.00">+</text>
<text xml:space="preserve" text-anchor="start" x="188.5" y="-15.62" font-family="Helvetica,sans-Serif" font-size="10.00">execute()</text>
<polygon fill="#666666" stroke="#666666" points="172.25,-77.38 172.25,-77.38 238.25,-77.38 238.25,-77.38 172.25,-77.38"/>
<polygon fill="#666666" stroke="#666666" points="172.25,-60.62 172.25,-60.62 238.25,-60.62 238.25,-60.62 172.25,-60.62"/>
<polygon fill="none" stroke="#666666" points="172.25,-8.38 172.25,-96.12 238.25,-96.12 238.25,-8.38 172.25,-8.38"/>
</a>
</g>
</g>
<!-- Node1&#45;&gt;Node4 -->
<g id="edge3_Node000001_Node000004" class="edge">
<title>Node1&#45;&gt;Node4</title>
<g id="a_edge3_Node000001_Node000004"><a xlink:title=" ">
<path fill="none" stroke="#63b8ff" d="M601.38,-177.38C503.65,-166.12 306.42,-139.74 247.25,-104.5 243.3,-102.15 239.55,-99.28 236.05,-96.11"/>
<polygon fill="none" stroke="#63b8ff" points="600.96,-180.86 611.29,-178.51 601.75,-173.9 600.96,-180.86"/>
</a>
</g>
</g>
<!-- Node5 -->
<g id="Node000005" class="node">
<title>Node5</title>
<g id="a_Node000005"><a xlink:href="../../de/dcb/classKick.html" target="_top" xlink:title="Handler for IRC KICK.">
<polygon fill="white" stroke="none" points="322.25,-96.12 256.25,-96.12 256.25,-8.38 322.25,-8.38 322.25,-96.12"/>
<text xml:space="preserve" text-anchor="start" x="278.75" y="-82.62" font-family="Helvetica,sans-Serif" font-size="10.00">Kick</text>
<text xml:space="preserve" text-anchor="start" x="287.75" y="-65.88" font-family="Helvetica,sans-Serif" font-size="10.00"> </text>
<text xml:space="preserve" text-anchor="start" x="260.25" y="-49.12" font-family="Helvetica,sans-Serif" font-size="10.00">+</text>
<text xml:space="preserve" text-anchor="start" x="272.5" y="-49.12" font-family="Helvetica,sans-Serif" font-size="10.00">Kick()</text>
<text xml:space="preserve" text-anchor="start" x="260.25" y="-32.38" font-family="Helvetica,sans-Serif" font-size="10.00">+</text>
<text xml:space="preserve" text-anchor="start" x="272.5" y="-32.38" font-family="Helvetica,sans-Serif" font-size="10.00">~Kick()</text>
<text xml:space="preserve" text-anchor="start" x="260.25" y="-15.62" font-family="Helvetica,sans-Serif" font-size="10.00">+</text>
<text xml:space="preserve" text-anchor="start" x="272.5" y="-15.62" font-family="Helvetica,sans-Serif" font-size="10.00">execute()</text>
<polygon fill="#666666" stroke="#666666" points="256.25,-77.38 256.25,-77.38 322.25,-77.38 322.25,-77.38 256.25,-77.38"/>
<polygon fill="#666666" stroke="#666666" points="256.25,-60.62 256.25,-60.62 322.25,-60.62 322.25,-60.62 256.25,-60.62"/>
<polygon fill="none" stroke="#666666" points="256.25,-8.38 256.25,-96.12 322.25,-96.12 322.25,-8.38 256.25,-8.38"/>
</a>
</g>
</g>
<!-- Node1&#45;&gt;Node5 -->
<g id="edge4_Node000001_Node000005" class="edge">
<title>Node1&#45;&gt;Node5</title>
<g id="a_edge4_Node000001_Node000005"><a xlink:title=" ">
<path fill="none" stroke="#63b8ff" d="M601.31,-180.59C532.84,-174.88 415.62,-157.49 331.25,-104.5 327.35,-102.05 323.65,-99.12 320.17,-95.91"/>
<polygon fill="none" stroke="#63b8ff" points="600.94,-184.07 611.18,-181.35 601.47,-177.09 600.94,-184.07"/>
</a>
</g>
</g>
<!-- Node6 -->
<g id="Node000006" class="node">
<title>Node6</title>
<g id="a_Node000006"><a xlink:href="../../d9/d03/classMode.html" target="_top" xlink:title="Handler for IRC MODE.">
<polygon fill="white" stroke="none" points="422.5,-104.5 340,-104.5 340,0 422.5,0 422.5,-104.5"/>
<text xml:space="preserve" text-anchor="start" x="367.75" y="-91" font-family="Helvetica,sans-Serif" font-size="10.00">Mode</text>
<text xml:space="preserve" text-anchor="start" x="379.75" y="-74.25" font-family="Helvetica,sans-Serif" font-size="10.00"> </text>
<text xml:space="preserve" text-anchor="start" x="344" y="-57.5" font-family="Helvetica,sans-Serif" font-size="10.00">+</text>
<text xml:space="preserve" text-anchor="start" x="356.25" y="-57.5" font-family="Helvetica,sans-Serif" font-size="10.00">Mode()</text>
<text xml:space="preserve" text-anchor="start" x="344" y="-40.75" font-family="Helvetica,sans-Serif" font-size="10.00">+</text>
<text xml:space="preserve" text-anchor="start" x="356.25" y="-40.75" font-family="Helvetica,sans-Serif" font-size="10.00">~Mode()</text>
<text xml:space="preserve" text-anchor="start" x="344" y="-24" font-family="Helvetica,sans-Serif" font-size="10.00">+</text>
<text xml:space="preserve" text-anchor="start" x="356.25" y="-24" font-family="Helvetica,sans-Serif" font-size="10.00">execute()</text>
<text xml:space="preserve" text-anchor="start" x="344" y="-7.25" font-family="Helvetica,sans-Serif" font-size="10.00">+</text>
<text xml:space="preserve" text-anchor="start" x="356.25" y="-7.25" font-family="Helvetica,sans-Serif" font-size="10.00">check_args()</text>
<polygon fill="#666666" stroke="#666666" points="340,-85.75 340,-85.75 422.5,-85.75 422.5,-85.75 340,-85.75"/>
<polygon fill="#666666" stroke="#666666" points="340,-69 340,-69 422.5,-69 422.5,-69 340,-69"/>
<polygon fill="none" stroke="#666666" points="340,0 340,-104.5 422.5,-104.5 422.5,0 340,0"/>
</a>
</g>
</g>
<!-- Node1&#45;&gt;Node6 -->
<g id="edge5_Node000001_Node000006" class="edge">
<title>Node1&#45;&gt;Node6</title>
<g id="a_edge5_Node000001_Node000006"><a xlink:title=" ">
<path fill="none" stroke="#63b8ff" d="M601.88,-171.65C554.06,-159.81 484.48,-138.38 431.25,-104.5 428.21,-102.56 425.21,-100.41 422.3,-98.11"/>
<polygon fill="none" stroke="#63b8ff" points="600.93,-175.02 611.47,-173.96 602.57,-168.22 600.93,-175.02"/>
</a>
</g>
</g>
<!-- Node7 -->
<g id="Node000007" class="node">
<title>Node7</title>
<g id="a_Node000007"><a xlink:href="../../d1/d48/classMotd.html" target="_top" xlink:title="Handler for IRC MOTD.">
<polygon fill="white" stroke="none" points="506.25,-96.12 440.25,-96.12 440.25,-8.38 506.25,-8.38 506.25,-96.12"/>
<text xml:space="preserve" text-anchor="start" x="460.88" y="-82.62" font-family="Helvetica,sans-Serif" font-size="10.00">Motd</text>
<text xml:space="preserve" text-anchor="start" x="471.75" y="-65.88" font-family="Helvetica,sans-Serif" font-size="10.00"> </text>
<text xml:space="preserve" text-anchor="start" x="444.25" y="-49.12" font-family="Helvetica,sans-Serif" font-size="10.00">+</text>
<text xml:space="preserve" text-anchor="start" x="456.5" y="-49.12" font-family="Helvetica,sans-Serif" font-size="10.00">Motd()</text>
<text xml:space="preserve" text-anchor="start" x="444.25" y="-32.38" font-family="Helvetica,sans-Serif" font-size="10.00">+</text>
<text xml:space="preserve" text-anchor="start" x="456.5" y="-32.38" font-family="Helvetica,sans-Serif" font-size="10.00">~Motd()</text>
<text xml:space="preserve" text-anchor="start" x="444.25" y="-15.62" font-family="Helvetica,sans-Serif" font-size="10.00">+</text>
<text xml:space="preserve" text-anchor="start" x="456.5" y="-15.62" font-family="Helvetica,sans-Serif" font-size="10.00">execute()</text>
<polygon fill="#666666" stroke="#666666" points="440.25,-77.38 440.25,-77.38 506.25,-77.38 506.25,-77.38 440.25,-77.38"/>
<polygon fill="#666666" stroke="#666666" points="440.25,-60.62 440.25,-60.62 506.25,-60.62 506.25,-60.62 440.25,-60.62"/>
<polygon fill="none" stroke="#666666" points="440.25,-8.38 440.25,-96.12 506.25,-96.12 506.25,-8.38 440.25,-8.38"/>
</a>
</g>
</g>
<!-- Node1&#45;&gt;Node7 -->
<g id="edge6_Node000001_Node000007" class="edge">
<title>Node1&#45;&gt;Node7</title>
<g id="a_edge6_Node000001_Node000007"><a xlink:title=" ">
<path fill="none" stroke="#63b8ff" d="M602.31,-158.96C574.62,-145.2 541.45,-126.38 515.25,-104.5 512.16,-101.92 509.13,-99.09 506.2,-96.12"/>
<polygon fill="none" stroke="#63b8ff" points="600.74,-162.09 611.27,-163.32 603.81,-155.8 600.74,-162.09"/>
</a>
</g>
</g>
<!-- Node8 -->
<g id="Node000008" class="node">
<title>Node8</title>
<g id="a_Node000008"><a xlink:href="../../d1/d47/classNick.html" target="_top" xlink:title="Handler for IRC NICK.">
<polygon fill="white" stroke="none" points="606.5,-104.5 524,-104.5 524,0 606.5,0 606.5,-104.5"/>
<text xml:space="preserve" text-anchor="start" x="554.38" y="-91" font-family="Helvetica,sans-Serif" font-size="10.00">Nick</text>
<text xml:space="preserve" text-anchor="start" x="563.75" y="-74.25" font-family="Helvetica,sans-Serif" font-size="10.00"> </text>
<text xml:space="preserve" text-anchor="start" x="528" y="-57.5" font-family="Helvetica,sans-Serif" font-size="10.00">+</text>
<text xml:space="preserve" text-anchor="start" x="540.25" y="-57.5" font-family="Helvetica,sans-Serif" font-size="10.00">Nick()</text>
<text xml:space="preserve" text-anchor="start" x="528" y="-40.75" font-family="Helvetica,sans-Serif" font-size="10.00">+</text>
<text xml:space="preserve" text-anchor="start" x="540.25" y="-40.75" font-family="Helvetica,sans-Serif" font-size="10.00">~Nick()</text>
<text xml:space="preserve" text-anchor="start" x="528" y="-24" font-family="Helvetica,sans-Serif" font-size="10.00">+</text>
<text xml:space="preserve" text-anchor="start" x="540.25" y="-24" font-family="Helvetica,sans-Serif" font-size="10.00">execute()</text>
<text xml:space="preserve" text-anchor="start" x="528" y="-7.25" font-family="Helvetica,sans-Serif" font-size="10.00">+</text>
<text xml:space="preserve" text-anchor="start" x="540.25" y="-7.25" font-family="Helvetica,sans-Serif" font-size="10.00">check_args()</text>
<polygon fill="#666666" stroke="#666666" points="524,-85.75 524,-85.75 606.5,-85.75 606.5,-85.75 524,-85.75"/>
<polygon fill="#666666" stroke="#666666" points="524,-69 524,-69 606.5,-69 606.5,-69 524,-69"/>
<polygon fill="none" stroke="#666666" points="524,0 524,-104.5 606.5,-104.5 606.5,0 524,0"/>
</a>
</g>
</g>
<!-- Node1&#45;&gt;Node8 -->
<g id="edge7_Node000001_Node000008" class="edge">
<title>Node1&#45;&gt;Node8</title>
<g id="a_edge7_Node000001_Node000008"><a xlink:title=" ">
<path fill="none" stroke="#63b8ff" d="M620.59,-131.52C614.21,-122.49 607.57,-113.11 601.21,-104.11"/>
<polygon fill="none" stroke="#63b8ff" points="617.62,-133.39 626.25,-139.53 623.34,-129.35 617.62,-133.39"/>
</a>
</g>
</g>
<!-- Node9 -->
<g id="Node000009" class="node">
<title>Node9</title>
<g id="a_Node000009"><a xlink:href="../../d8/d2d/classPart.html" target="_top" xlink:title="Handler for IRC PART.">
<polygon fill="white" stroke="none" points="690.25,-96.12 624.25,-96.12 624.25,-8.38 690.25,-8.38 690.25,-96.12"/>
<text xml:space="preserve" text-anchor="start" x="647.88" y="-82.62" font-family="Helvetica,sans-Serif" font-size="10.00">Part</text>
<text xml:space="preserve" text-anchor="start" x="655.75" y="-65.88" font-family="Helvetica,sans-Serif" font-size="10.00"> </text>
<text xml:space="preserve" text-anchor="start" x="628.25" y="-49.12" font-family="Helvetica,sans-Serif" font-size="10.00">+</text>
<text xml:space="preserve" text-anchor="start" x="640.5" y="-49.12" font-family="Helvetica,sans-Serif" font-size="10.00">Part()</text>
<text xml:space="preserve" text-anchor="start" x="628.25" y="-32.38" font-family="Helvetica,sans-Serif" font-size="10.00">+</text>
<text xml:space="preserve" text-anchor="start" x="640.5" y="-32.38" font-family="Helvetica,sans-Serif" font-size="10.00">~Part()</text>
<text xml:space="preserve" text-anchor="start" x="628.25" y="-15.62" font-family="Helvetica,sans-Serif" font-size="10.00">+</text>
<text xml:space="preserve" text-anchor="start" x="640.5" y="-15.62" font-family="Helvetica,sans-Serif" font-size="10.00">execute()</text>
<polygon fill="#666666" stroke="#666666" points="624.25,-77.38 624.25,-77.38 690.25,-77.38 690.25,-77.38 624.25,-77.38"/>
<polygon fill="#666666" stroke="#666666" points="624.25,-60.62 624.25,-60.62 690.25,-60.62 690.25,-60.62 624.25,-60.62"/>
<polygon fill="none" stroke="#666666" points="624.25,-8.38 624.25,-96.12 690.25,-96.12 690.25,-8.38 624.25,-8.38"/>
</a>
</g>
</g>
<!-- Node1&#45;&gt;Node9 -->
<g id="edge8_Node000001_Node000009" class="edge">
<title>Node1&#45;&gt;Node9</title>
<g id="a_edge8_Node000001_Node000009"><a xlink:title=" ">
<path fill="none" stroke="#63b8ff" d="M657.25,-129.37C657.25,-118.22 657.25,-106.63 657.25,-95.95"/>
<polygon fill="none" stroke="#63b8ff" points="653.75,-129.25 657.25,-139.25 660.75,-129.25 653.75,-129.25"/>
</a>
</g>
</g>
<!-- Node10 -->
<g id="Node000010" class="node">
<title>Node10</title>
<g id="a_Node000010"><a xlink:href="../../d5/d01/classPass.html" target="_top" xlink:title="Handler for IRC PASS.">
<polygon fill="white" stroke="none" points="774.25,-104.5 708.25,-104.5 708.25,0 774.25,0 774.25,-104.5"/>
<text xml:space="preserve" text-anchor="start" x="730.38" y="-91" font-family="Helvetica,sans-Serif" font-size="10.00">Pass</text>
<text xml:space="preserve" text-anchor="start" x="739.75" y="-74.25" font-family="Helvetica,sans-Serif" font-size="10.00"> </text>
<text xml:space="preserve" text-anchor="start" x="712.25" y="-57.5" font-family="Helvetica,sans-Serif" font-size="10.00">+</text>
<text xml:space="preserve" text-anchor="start" x="724.5" y="-57.5" font-family="Helvetica,sans-Serif" font-size="10.00">Pass()</text>
<text xml:space="preserve" text-anchor="start" x="712.25" y="-40.75" font-family="Helvetica,sans-Serif" font-size="10.00">+</text>
<text xml:space="preserve" text-anchor="start" x="724.5" y="-40.75" font-family="Helvetica,sans-Serif" font-size="10.00">Pass()</text>
<text xml:space="preserve" text-anchor="start" x="712.25" y="-24" font-family="Helvetica,sans-Serif" font-size="10.00">+</text>
<text xml:space="preserve" text-anchor="start" x="724.5" y="-24" font-family="Helvetica,sans-Serif" font-size="10.00">~Pass()</text>
<text xml:space="preserve" text-anchor="start" x="712.25" y="-7.25" font-family="Helvetica,sans-Serif" font-size="10.00">+</text>
<text xml:space="preserve" text-anchor="start" x="724.5" y="-7.25" font-family="Helvetica,sans-Serif" font-size="10.00">execute()</text>
<polygon fill="#666666" stroke="#666666" points="708.25,-85.75 708.25,-85.75 774.25,-85.75 774.25,-85.75 708.25,-85.75"/>
<polygon fill="#666666" stroke="#666666" points="708.25,-69 708.25,-69 774.25,-69 774.25,-69 708.25,-69"/>
<polygon fill="none" stroke="#666666" points="708.25,0 708.25,-104.5 774.25,-104.5 774.25,0 708.25,0"/>
</a>
</g>
</g>
<!-- Node1&#45;&gt;Node10 -->
<g id="edge9_Node000001_Node000010" class="edge">
<title>Node1&#45;&gt;Node10</title>
<g id="a_edge9_Node000001_Node000010"><a xlink:title=" ">
<path fill="none" stroke="#63b8ff" d="M690.91,-131.23C696.68,-122.3 702.67,-113.02 708.42,-104.11"/>
<polygon fill="none" stroke="#63b8ff" points="688.06,-129.2 685.58,-139.5 693.94,-132.99 688.06,-129.2"/>
</a>
</g>
</g>
<!-- Node11 -->
<g id="Node000011" class="node">
<title>Node11</title>
<g id="a_Node000011"><a xlink:href="../../d1/d7c/classPing.html" target="_top" xlink:title="Handler for IRC PING.">
<polygon fill="white" stroke="none" points="874.5,-104.5 792,-104.5 792,0 874.5,0 874.5,-104.5"/>
<text xml:space="preserve" text-anchor="start" x="822.75" y="-91" font-family="Helvetica,sans-Serif" font-size="10.00">Ping</text>
<text xml:space="preserve" text-anchor="start" x="831.75" y="-74.25" font-family="Helvetica,sans-Serif" font-size="10.00"> </text>
<text xml:space="preserve" text-anchor="start" x="796" y="-57.5" font-family="Helvetica,sans-Serif" font-size="10.00">+</text>
<text xml:space="preserve" text-anchor="start" x="808.25" y="-57.5" font-family="Helvetica,sans-Serif" font-size="10.00">Ping()</text>
<text xml:space="preserve" text-anchor="start" x="796" y="-40.75" font-family="Helvetica,sans-Serif" font-size="10.00">+</text>
<text xml:space="preserve" text-anchor="start" x="808.25" y="-40.75" font-family="Helvetica,sans-Serif" font-size="10.00">~Ping()</text>
<text xml:space="preserve" text-anchor="start" x="796" y="-24" font-family="Helvetica,sans-Serif" font-size="10.00">+</text>
<text xml:space="preserve" text-anchor="start" x="808.25" y="-24" font-family="Helvetica,sans-Serif" font-size="10.00">execute()</text>
<text xml:space="preserve" text-anchor="start" x="796" y="-7.25" font-family="Helvetica,sans-Serif" font-size="10.00">+</text>
<text xml:space="preserve" text-anchor="start" x="808.25" y="-7.25" font-family="Helvetica,sans-Serif" font-size="10.00">check_args()</text>
<polygon fill="#666666" stroke="#666666" points="792,-85.75 792,-85.75 874.5,-85.75 874.5,-85.75 792,-85.75"/>
<polygon fill="#666666" stroke="#666666" points="792,-69 792,-69 874.5,-69 874.5,-69 792,-69"/>
<polygon fill="none" stroke="#666666" points="792,0 792,-104.5 874.5,-104.5 874.5,0 792,0"/>
</a>
</g>
</g>
<!-- Node1&#45;&gt;Node11 -->
<g id="edge10_Node000001_Node000011" class="edge">
<title>Node1&#45;&gt;Node11</title>
<g id="a_edge10_Node000001_Node000011"><a xlink:title=" ">
<path fill="none" stroke="#63b8ff" d="M711.77,-153.13C734.69,-139.45 761.11,-122.35 783.25,-104.5 786.25,-102.08 789.26,-99.5 792.22,-96.82"/>
<polygon fill="none" stroke="#63b8ff" points="709.99,-150.12 703.15,-158.21 713.54,-156.15 709.99,-150.12"/>
</a>
</g>
</g>
<!-- Node12 -->
<g id="Node000012" class="node">
<title>Node12</title>
<g id="a_Node000012"><a xlink:href="../../d2/dbb/classPrivmsg.html" target="_top" xlink:title="Handler for IRC PRIVMSG.">
<polygon fill="white" stroke="none" points="968.12,-96.12 892.38,-96.12 892.38,-8.38 968.12,-8.38 968.12,-96.12"/>
<text xml:space="preserve" text-anchor="start" x="910.38" y="-82.62" font-family="Helvetica,sans-Serif" font-size="10.00">Privmsg</text>
<text xml:space="preserve" text-anchor="start" x="928.75" y="-65.88" font-family="Helvetica,sans-Serif" font-size="10.00"> </text>
<text xml:space="preserve" text-anchor="start" x="896.38" y="-49.12" font-family="Helvetica,sans-Serif" font-size="10.00">+</text>
<text xml:space="preserve" text-anchor="start" x="908.62" y="-49.12" font-family="Helvetica,sans-Serif" font-size="10.00">Privmsg()</text>
<text xml:space="preserve" text-anchor="start" x="896.38" y="-32.38" font-family="Helvetica,sans-Serif" font-size="10.00">+</text>
<text xml:space="preserve" text-anchor="start" x="908.62" y="-32.38" font-family="Helvetica,sans-Serif" font-size="10.00">~Privmsg()</text>
<text xml:space="preserve" text-anchor="start" x="896.38" y="-15.62" font-family="Helvetica,sans-Serif" font-size="10.00">+</text>
<text xml:space="preserve" text-anchor="start" x="908.62" y="-15.62" font-family="Helvetica,sans-Serif" font-size="10.00">execute()</text>
<polygon fill="#666666" stroke="#666666" points="892.38,-77.38 892.38,-77.38 968.12,-77.38 968.12,-77.38 892.38,-77.38"/>
<polygon fill="#666666" stroke="#666666" points="892.38,-60.62 892.38,-60.62 968.12,-60.62 968.12,-60.62 892.38,-60.62"/>
<polygon fill="none" stroke="#666666" points="892.38,-8.38 892.38,-96.12 968.12,-96.12 968.12,-8.38 892.38,-8.38"/>
</a>
</g>
</g>
<!-- Node1&#45;&gt;Node12 -->
<g id="edge11_Node000001_Node000012" class="edge">
<title>Node1&#45;&gt;Node12</title>
<g id="a_edge11_Node000001_Node000012"><a xlink:title=" ">
<path fill="none" stroke="#63b8ff" d="M712.88,-172.06C760.87,-160.48 830.55,-139.19 883.25,-104.5 887.08,-101.98 890.81,-99.07 894.39,-95.96"/>
<polygon fill="none" stroke="#63b8ff" points="712.19,-168.62 703.25,-174.31 713.79,-175.44 712.19,-168.62"/>
</a>
</g>
</g>
<!-- Node13 -->
<g id="Node000013" class="node">
<title>Node13</title>
<g id="a_Node000013"><a xlink:href="../../db/dd5/classQuit.html" target="_top" xlink:title="Handler for IRC QUIT.">
<polygon fill="white" stroke="none" points="1068.5,-104.5 986,-104.5 986,0 1068.5,0 1068.5,-104.5"/>
<text xml:space="preserve" text-anchor="start" x="1017.12" y="-91" font-family="Helvetica,sans-Serif" font-size="10.00">Quit</text>
<text xml:space="preserve" text-anchor="start" x="1025.75" y="-74.25" font-family="Helvetica,sans-Serif" font-size="10.00"> </text>
<text xml:space="preserve" text-anchor="start" x="990" y="-57.5" font-family="Helvetica,sans-Serif" font-size="10.00">+</text>
<text xml:space="preserve" text-anchor="start" x="1002.25" y="-57.5" font-family="Helvetica,sans-Serif" font-size="10.00">Quit()</text>
<text xml:space="preserve" text-anchor="start" x="990" y="-40.75" font-family="Helvetica,sans-Serif" font-size="10.00">+</text>
<text xml:space="preserve" text-anchor="start" x="1002.25" y="-40.75" font-family="Helvetica,sans-Serif" font-size="10.00">~Quit()</text>
<text xml:space="preserve" text-anchor="start" x="990" y="-24" font-family="Helvetica,sans-Serif" font-size="10.00">+</text>
<text xml:space="preserve" text-anchor="start" x="1002.25" y="-24" font-family="Helvetica,sans-Serif" font-size="10.00">execute()</text>
<text xml:space="preserve" text-anchor="start" x="990" y="-7.25" font-family="Helvetica,sans-Serif" font-size="10.00">+</text>
<text xml:space="preserve" text-anchor="start" x="1002.25" y="-7.25" font-family="Helvetica,sans-Serif" font-size="10.00">check_args()</text>
<polygon fill="#666666" stroke="#666666" points="986,-85.75 986,-85.75 1068.5,-85.75 1068.5,-85.75 986,-85.75"/>
<polygon fill="#666666" stroke="#666666" points="986,-69 986,-69 1068.5,-69 1068.5,-69 986,-69"/>
<polygon fill="none" stroke="#666666" points="986,0 986,-104.5 1068.5,-104.5 1068.5,0 986,0"/>
</a>
</g>
</g>
<!-- Node1&#45;&gt;Node13 -->
<g id="edge12_Node000001_Node000013" class="edge">
<title>Node1&#45;&gt;Node13</title>
<g id="a_edge12_Node000001_Node000013"><a xlink:title=" ">
<path fill="none" stroke="#63b8ff" d="M712.84,-179C779.52,-171.72 892.86,-152.78 977.25,-104.5 980.27,-102.77 983.23,-100.81 986.1,-98.68"/>
<polygon fill="none" stroke="#63b8ff" points="712.84,-175.48 703.25,-179.99 713.56,-182.44 712.84,-175.48"/>
</a>
</g>
</g>
<!-- Node14 -->
<g id="Node000014" class="node">
<title>Node14</title>
<g id="a_Node000014"><a xlink:href="../../d8/d71/classTopic.html" target="_top" xlink:title="Handler for IRC TOPIC.">
<polygon fill="white" stroke="none" points="1169.5,-104.5 1087,-104.5 1087,0 1169.5,0 1169.5,-104.5"/>
<text xml:space="preserve" text-anchor="start" x="1115.88" y="-91" font-family="Helvetica,sans-Serif" font-size="10.00">Topic</text>
<text xml:space="preserve" text-anchor="start" x="1126.75" y="-74.25" font-family="Helvetica,sans-Serif" font-size="10.00"> </text>
<text xml:space="preserve" text-anchor="start" x="1091" y="-57.5" font-family="Helvetica,sans-Serif" font-size="10.00">+</text>
<text xml:space="preserve" text-anchor="start" x="1103.25" y="-57.5" font-family="Helvetica,sans-Serif" font-size="10.00">Topic()</text>
<text xml:space="preserve" text-anchor="start" x="1091" y="-40.75" font-family="Helvetica,sans-Serif" font-size="10.00">+</text>
<text xml:space="preserve" text-anchor="start" x="1103.25" y="-40.75" font-family="Helvetica,sans-Serif" font-size="10.00">~Topic()</text>
<text xml:space="preserve" text-anchor="start" x="1091" y="-24" font-family="Helvetica,sans-Serif" font-size="10.00">+</text>
<text xml:space="preserve" text-anchor="start" x="1103.25" y="-24" font-family="Helvetica,sans-Serif" font-size="10.00">execute()</text>
<text xml:space="preserve" text-anchor="start" x="1091" y="-7.25" font-family="Helvetica,sans-Serif" font-size="10.00">+</text>
<text xml:space="preserve" text-anchor="start" x="1103.25" y="-7.25" font-family="Helvetica,sans-Serif" font-size="10.00">check_args()</text>
<polygon fill="#666666" stroke="#666666" points="1087,-85.75 1087,-85.75 1169.5,-85.75 1169.5,-85.75 1087,-85.75"/>
<polygon fill="#666666" stroke="#666666" points="1087,-69 1087,-69 1169.5,-69 1169.5,-69 1087,-69"/>
<polygon fill="none" stroke="#666666" points="1087,0 1087,-104.5 1169.5,-104.5 1169.5,0 1087,0"/>
</a>
</g>
</g>
<!-- Node1&#45;&gt;Node14 -->
<g id="edge13_Node000001_Node000014" class="edge">
<title>Node1&#45;&gt;Node14</title>
<g id="a_edge13_Node000001_Node000014"><a xlink:title=" ">
<path fill="none" stroke="#63b8ff" d="M713.07,-183.22C796.92,-180.8 958.25,-167.47 1077.25,-104.5 1080.69,-102.68 1084.04,-100.55 1087.28,-98.21"/>
<polygon fill="none" stroke="#63b8ff" points="713.19,-179.72 703.27,-183.46 713.36,-186.72 713.19,-179.72"/>
</a>
</g>
</g>
<!-- Node15 -->
<g id="Node000015" class="node">
<title>Node15</title>
<g id="a_Node000015"><a xlink:href="../../d9/dc0/classUser.html" target="_top" xlink:title="Handler for IRC USER.">
<polygon fill="white" stroke="none" points="1270.5,-104.5 1188,-104.5 1188,0 1270.5,0 1270.5,-104.5"/>
<text xml:space="preserve" text-anchor="start" x="1218" y="-91" font-family="Helvetica,sans-Serif" font-size="10.00">User</text>
<text xml:space="preserve" text-anchor="start" x="1227.75" y="-74.25" font-family="Helvetica,sans-Serif" font-size="10.00"> </text>
<text xml:space="preserve" text-anchor="start" x="1192" y="-57.5" font-family="Helvetica,sans-Serif" font-size="10.00">+</text>
<text xml:space="preserve" text-anchor="start" x="1204.25" y="-57.5" font-family="Helvetica,sans-Serif" font-size="10.00">User()</text>
<text xml:space="preserve" text-anchor="start" x="1192" y="-40.75" font-family="Helvetica,sans-Serif" font-size="10.00">+</text>
<text xml:space="preserve" text-anchor="start" x="1204.25" y="-40.75" font-family="Helvetica,sans-Serif" font-size="10.00">~User()</text>
<text xml:space="preserve" text-anchor="start" x="1192" y="-24" font-family="Helvetica,sans-Serif" font-size="10.00">+</text>
<text xml:space="preserve" text-anchor="start" x="1204.25" y="-24" font-family="Helvetica,sans-Serif" font-size="10.00">execute()</text>
<text xml:space="preserve" text-anchor="start" x="1192" y="-7.25" font-family="Helvetica,sans-Serif" font-size="10.00">+</text>
<text xml:space="preserve" text-anchor="start" x="1204.25" y="-7.25" font-family="Helvetica,sans-Serif" font-size="10.00">check_args()</text>
<polygon fill="#666666" stroke="#666666" points="1188,-85.75 1188,-85.75 1270.5,-85.75 1270.5,-85.75 1188,-85.75"/>
<polygon fill="#666666" stroke="#666666" points="1188,-69 1188,-69 1270.5,-69 1270.5,-69 1188,-69"/>
<polygon fill="none" stroke="#666666" points="1188,0 1188,-104.5 1270.5,-104.5 1270.5,0 1188,0"/>
</a>
</g>
</g>
<!-- Node1&#45;&gt;Node15 -->
<g id="edge14_Node000001_Node000015" class="edge">
<title>Node1&#45;&gt;Node15</title>
<g id="a_edge14_Node000001_Node000015"><a xlink:title=" ">
<path fill="none" stroke="#63b8ff" d="M712.65,-179.39C829.57,-170.27 1097.4,-145.47 1178.25,-104.5 1181.61,-102.8 1184.88,-100.79 1188.04,-98.57"/>
<polygon fill="none" stroke="#63b8ff" points="712.7,-175.87 703,-180.13 713.24,-182.85 712.7,-175.87"/>
</a>
</g>
</g>
<!-- Node16 -->
<g id="Node000016" class="node">
<title>Node16</title>
<g id="a_Node000016"><a xlink:href="../../dc/d08/classWho.html" target="_top" xlink:title="Handler for IRC WHO query.">
<polygon fill="white" stroke="none" points="1371.5,-104.5 1289,-104.5 1289,0 1371.5,0 1371.5,-104.5"/>
<text xml:space="preserve" text-anchor="start" x="1319.38" y="-91" font-family="Helvetica,sans-Serif" font-size="10.00">Who</text>
<text xml:space="preserve" text-anchor="start" x="1328.75" y="-74.25" font-family="Helvetica,sans-Serif" font-size="10.00"> </text>
<text xml:space="preserve" text-anchor="start" x="1293" y="-57.5" font-family="Helvetica,sans-Serif" font-size="10.00">+</text>
<text xml:space="preserve" text-anchor="start" x="1305.25" y="-57.5" font-family="Helvetica,sans-Serif" font-size="10.00">Who()</text>
<text xml:space="preserve" text-anchor="start" x="1293" y="-40.75" font-family="Helvetica,sans-Serif" font-size="10.00">+</text>
<text xml:space="preserve" text-anchor="start" x="1305.25" y="-40.75" font-family="Helvetica,sans-Serif" font-size="10.00">~Who()</text>
<text xml:space="preserve" text-anchor="start" x="1293" y="-24" font-family="Helvetica,sans-Serif" font-size="10.00">+</text>
<text xml:space="preserve" text-anchor="start" x="1305.25" y="-24" font-family="Helvetica,sans-Serif" font-size="10.00">execute()</text>
<text xml:space="preserve" text-anchor="start" x="1293" y="-7.25" font-family="Helvetica,sans-Serif" font-size="10.00">+</text>
<text xml:space="preserve" text-anchor="start" x="1305.25" y="-7.25" font-family="Helvetica,sans-Serif" font-size="10.00">check_args()</text>
<polygon fill="#666666" stroke="#666666" points="1289,-85.75 1289,-85.75 1371.5,-85.75 1371.5,-85.75 1289,-85.75"/>
<polygon fill="#666666" stroke="#666666" points="1289,-69 1289,-69 1371.5,-69 1371.5,-69 1289,-69"/>
<polygon fill="none" stroke="#666666" points="1289,0 1289,-104.5 1371.5,-104.5 1371.5,0 1289,0"/>
</a>
</g>
</g>
<!-- Node1&#45;&gt;Node16 -->
<g id="edge15_Node000001_Node000016" class="edge">
<title>Node1&#45;&gt;Node16</title>
<g id="a_edge15_Node000001_Node000016"><a xlink:title=" ">
<path fill="none" stroke="#63b8ff" d="M712.8,-180.93C846.02,-174.35 1179.95,-153.33 1279.25,-104.5 1282.63,-102.84 1285.92,-100.86 1289.09,-98.67"/>
<polygon fill="none" stroke="#63b8ff" points="713.01,-177.42 703.19,-181.4 713.35,-184.41 713.01,-177.42"/>
</a>
</g>
</g>
</g>
</svg>
