<?xml version="1.0" encoding="UTF-8" standalone="no"?>
<!DOCTYPE svg PUBLIC "-//W3C//DTD SVG 1.1//EN"
 "http://www.w3.org/Graphics/SVG/1.1/DTD/svg11.dtd">
<!-- Generated by graphviz version 14.0.1 (0)
 -->
<!-- Title: reply_codes.hpp Pages: 1 -->
<svg width="1308pt" height="313pt"
 viewBox="0.00 0.00 1308.00 313.00" xmlns="http://www.w3.org/2000/svg" xmlns:xlink="http://www.w3.org/1999/xlink">
<g id="graph0" class="graph" transform="scale(1 1) rotate(0) translate(4 308.5)">
<title>reply_codes.hpp</title>
<!-- Node1 -->
<g id="Node000001" class="node">
<title>Node1</title>
<g id="a_Node000001"><a xlink:title=" ">
<polygon fill="#999999" stroke="#666666" points="709.75,-304.5 614.25,-304.5 614.25,-283.75 709.75,-283.75 709.75,-304.5"/>
<text xml:space="preserve" text-anchor="middle" x="662" y="-291" font-family="Helvetica,sans-Serif" font-size="10.00">reply_codes.hpp</text>
</a>
</g>
</g>
<!-- Node2 -->
<g id="Node000002" class="node">
<title>Node2</title>
<g id="a_Node000002"><a xlink:href="../../d7/d42/Channel_8hpp.html" target="_top" xlink:title=" ">
<polygon fill="white" stroke="#666666" points="504.38,-77.5 427.62,-77.5 427.62,-56.75 504.38,-56.75 504.38,-77.5"/>
<text xml:space="preserve" text-anchor="middle" x="466" y="-64" font-family="Helvetica,sans-Serif" font-size="10.00">Channel.hpp</text>
</a>
</g>
</g>
<!-- Node1&#45;&gt;Node2 -->
<g id="edge1_Node000001_Node000002" class="edge">
<title>Node1&#45;&gt;Node2</title>
<g id="a_edge1_Node000001_Node000002"><a xlink:title=" ">
<path fill="none" stroke="#63b8ff" d="M616.53,-279.5C575.29,-264.66 516.31,-236.72 485,-191 460.49,-155.2 462.75,-99.87 464.86,-77.75"/>
<polygon fill="#63b8ff" stroke="#63b8ff" points="615.37,-282.81 625.96,-282.77 617.66,-276.19 615.37,-282.81"/>
</a>
</g>
</g>
<!-- Node3 -->
<g id="Node000003" class="node">
<title>Node3</title>
<g id="a_Node000003"><a xlink:href="../../d0/d9f/Invite_8hpp.html" target="_top" xlink:title=" ">
<polygon fill="white" stroke="#666666" points="108.38,-20.75 43.62,-20.75 43.62,0 108.38,0 108.38,-20.75"/>
<text xml:space="preserve" text-anchor="middle" x="76" y="-7.25" font-family="Helvetica,sans-Serif" font-size="10.00">Invite.hpp</text>
</a>
</g>
</g>
<!-- Node1&#45;&gt;Node3 -->
<g id="edge20_Node000001_Node000003" class="edge">
<title>Node1&#45;&gt;Node3</title>
<g id="a_edge20_Node000001_Node000003"><a xlink:title=" ">
<path fill="none" stroke="#63b8ff" d="M603.03,-291.29C460.21,-286.49 103.93,-272.18 56,-247.75 21.69,-230.26 0,-220.14 0,-181.62 0,-181.62 0,-181.62 0,-122.88 0,-78.6 41.42,-38.92 63.11,-21.19"/>
<polygon fill="#63b8ff" stroke="#63b8ff" points="602.53,-294.78 612.64,-291.61 602.76,-287.78 602.53,-294.78"/>
</a>
</g>
</g>
<!-- Node4 -->
<g id="Node000004" class="node">
<title>Node4</title>
<g id="a_Node000004"><a xlink:href="../../df/d5f/Pass_8hpp.html" target="_top" xlink:title=" ">
<polygon fill="white" stroke="#666666" points="522.38,-20.75 463.62,-20.75 463.62,0 522.38,0 522.38,-20.75"/>
<text xml:space="preserve" text-anchor="middle" x="493" y="-7.25" font-family="Helvetica,sans-Serif" font-size="10.00">Pass.hpp</text>
</a>
</g>
</g>
<!-- Node1&#45;&gt;Node4 -->
<g id="edge26_Node000001_Node000004" class="edge">
<title>Node1&#45;&gt;Node4</title>
<g id="a_edge26_Node000001_Node000004"><a xlink:title=" ">
<path fill="none" stroke="#63b8ff" d="M650.88,-273.41C639.66,-251.65 624,-215.24 624,-181.62 624,-181.62 624,-181.62 624,-122.88 624,-69.56 560.31,-36.39 521.75,-21.19"/>
<polygon fill="#63b8ff" stroke="#63b8ff" points="647.69,-274.88 655.51,-282.03 653.86,-271.56 647.69,-274.88"/>
</a>
</g>
</g>
<!-- Node5 -->
<g id="Node000005" class="node">
<title>Node5</title>
<g id="a_Node000005"><a xlink:href="../../d6/df8/Privmsg_8hpp.html" target="_top" xlink:title="Implements IRC PRIVMSG command.">
<polygon fill="white" stroke="#666666" points="672.38,-20.75 595.62,-20.75 595.62,0 672.38,0 672.38,-20.75"/>
<text xml:space="preserve" text-anchor="middle" x="634" y="-7.25" font-family="Helvetica,sans-Serif" font-size="10.00">Privmsg.hpp</text>
</a>
</g>
</g>
<!-- Node1&#45;&gt;Node5 -->
<g id="edge28_Node000001_Node000005" class="edge">
<title>Node1&#45;&gt;Node5</title>
<g id="a_edge28_Node000001_Node000005"><a xlink:title=" ">
<path fill="none" stroke="#63b8ff" d="M662,-271.82C662,-249.38 662,-213.02 662,-181.62 662,-181.62 662,-181.62 662,-122.88 662,-84.16 645.92,-40.09 638.13,-21.01"/>
<polygon fill="#63b8ff" stroke="#63b8ff" points="658.5,-271.77 662,-281.77 665.5,-271.77 658.5,-271.77"/>
</a>
</g>
</g>
<!-- Node6 -->
<g id="Node000006" class="node">
<title>Node6</title>
<g id="a_Node000006"><a xlink:href="../../df/d93/Who_8hpp.html" target="_top" xlink:title=" ">
<polygon fill="white" stroke="#666666" points="333.38,-20.75 274.62,-20.75 274.62,0 333.38,0 333.38,-20.75"/>
<text xml:space="preserve" text-anchor="middle" x="304" y="-7.25" font-family="Helvetica,sans-Serif" font-size="10.00">Who.hpp</text>
</a>
</g>
</g>
<!-- Node1&#45;&gt;Node6 -->
<g id="edge34_Node000001_Node000006" class="edge">
<title>Node1&#45;&gt;Node6</title>
<g id="a_edge34_Node000001_Node000006"><a xlink:title=" ">
<path fill="none" stroke="#63b8ff" d="M602.68,-292.41C514.84,-290.19 345.51,-281.46 206,-247.75 128,-228.9 38,-261.87 38,-181.62 38,-181.62 38,-181.62 38,-122.88 38,-21.35 204.85,-10.7 274.26,-10.66"/>
<polygon fill="#63b8ff" stroke="#63b8ff" points="602.42,-295.9 612.5,-292.64 602.58,-288.91 602.42,-295.9"/>
</a>
</g>
</g>
<!-- Node7 -->
<g id="Node000007" class="node">
<title>Node7</title>
<g id="a_Node000007"><a xlink:href="../../d3/d8e/Client_8hpp.html" target="_top" xlink:title=" ">
<polygon fill="white" stroke="#666666" points="323.75,-247.75 258.25,-247.75 258.25,-227 323.75,-227 323.75,-247.75"/>
<text xml:space="preserve" text-anchor="middle" x="291" y="-234.25" font-family="Helvetica,sans-Serif" font-size="10.00">Client.hpp</text>
</a>
</g>
</g>
<!-- Node1&#45;&gt;Node7 -->
<g id="edge6_Node000001_Node000007" class="edge">
<title>Node1&#45;&gt;Node7</title>
<g id="a_edge6_Node000001_Node000007"><a xlink:title=" ">
<path fill="none" stroke="#63b8ff" d="M602.67,-284.37C523.78,-272.73 387.01,-252.54 324.24,-243.28"/>
<polygon fill="#63b8ff" stroke="#63b8ff" points="601.98,-287.81 612.38,-285.8 603,-280.88 601.98,-287.81"/>
</a>
</g>
</g>
<!-- Node8 -->
<g id="Node000008" class="node">
<title>Node8</title>
<g id="a_Node000008"><a xlink:href="../../da/dac/Join_8hpp.html" target="_top" xlink:title=" ">
<polygon fill="white" stroke="#666666" points="437.5,-191 382.5,-191 382.5,-170.25 437.5,-170.25 437.5,-191"/>
<text xml:space="preserve" text-anchor="middle" x="410" y="-177.5" font-family="Helvetica,sans-Serif" font-size="10.00">Join.hpp</text>
</a>
</g>
</g>
<!-- Node1&#45;&gt;Node8 -->
<g id="edge21_Node000001_Node000008" class="edge">
<title>Node1&#45;&gt;Node8</title>
<g id="a_edge21_Node000001_Node000008"><a xlink:title=" ">
<path fill="none" stroke="#63b8ff" d="M602.71,-292.37C557.75,-289.12 496.33,-278.66 452,-247.75 431.7,-233.59 419.03,-206.14 413.41,-191.46"/>
<polygon fill="#63b8ff" stroke="#63b8ff" points="602.35,-295.85 612.55,-292.97 602.78,-288.87 602.35,-295.85"/>
</a>
</g>
</g>
<!-- Node11 -->
<g id="Node000011" class="node">
<title>Node11</title>
<g id="a_Node000011"><a xlink:href="../../de/d3e/Motd_8hpp.html" target="_top" xlink:title=" ">
<polygon fill="white" stroke="#666666" points="259.88,-77.5 198.12,-77.5 198.12,-56.75 259.88,-56.75 259.88,-77.5"/>
<text xml:space="preserve" text-anchor="middle" x="229" y="-64" font-family="Helvetica,sans-Serif" font-size="10.00">Motd.hpp</text>
</a>
</g>
</g>
<!-- Node1&#45;&gt;Node11 -->
<g id="edge24_Node000001_Node000011" class="edge">
<title>Node1&#45;&gt;Node11</title>
<g id="a_edge24_Node000001_Node000011"><a xlink:title=" ">
<path fill="none" stroke="#63b8ff" d="M602.74,-291.35C503.91,-287.61 310.23,-276.72 249,-247.75 183.8,-216.9 160.97,-200.74 133,-134.25 119.86,-103 165.01,-84.34 197.8,-75.17"/>
<polygon fill="#63b8ff" stroke="#63b8ff" points="602.39,-294.84 612.51,-291.71 602.64,-287.84 602.39,-294.84"/>
</a>
</g>
</g>
<!-- Node13 -->
<g id="Node000013" class="node">
<title>Node13</title>
<g id="a_Node000013"><a xlink:href="../../df/db4/Config_8hpp.html" target="_top" xlink:title=" ">
<polygon fill="white" stroke="#666666" points="757.88,-247.75 690.12,-247.75 690.12,-227 757.88,-227 757.88,-247.75"/>
<text xml:space="preserve" text-anchor="middle" x="724" y="-234.25" font-family="Helvetica,sans-Serif" font-size="10.00">Config.hpp</text>
</a>
</g>
</g>
<!-- Node1&#45;&gt;Node13 -->
<g id="edge19_Node000001_Node000013" class="edge">
<title>Node1&#45;&gt;Node13</title>
<g id="a_edge19_Node000001_Node000013"><a xlink:title=" ">
<path fill="none" stroke="#63b8ff" d="M681.55,-275.86C691.93,-266.69 704.31,-255.76 713.01,-248.08"/>
<polygon fill="#63b8ff" stroke="#63b8ff" points="679.4,-273.09 674.22,-282.33 684.03,-278.34 679.4,-273.09"/>
</a>
</g>
</g>
<!-- Node14 -->
<g id="Node000014" class="node">
<title>Node14</title>
<g id="a_Node000014"><a xlink:href="../../dd/d85/Kick_8hpp.html" target="_top" xlink:title=" ">
<polygon fill="white" stroke="#666666" points="834,-247.75 776,-247.75 776,-227 834,-227 834,-247.75"/>
<text xml:space="preserve" text-anchor="middle" x="805" y="-234.25" font-family="Helvetica,sans-Serif" font-size="10.00">Kick.hpp</text>
</a>
</g>
</g>
<!-- Node1&#45;&gt;Node14 -->
<g id="edge22_Node000001_Node000014" class="edge">
<title>Node1&#45;&gt;Node14</title>
<g id="a_edge22_Node000001_Node000014"><a xlink:title=" ">
<path fill="none" stroke="#63b8ff" d="M698.27,-279.24C723.7,-269.5 757.05,-256.73 779.66,-248.08"/>
<polygon fill="#63b8ff" stroke="#63b8ff" points="697.07,-275.95 688.98,-282.8 699.57,-282.49 697.07,-275.95"/>
</a>
</g>
</g>
<!-- Node15 -->
<g id="Node000015" class="node">
<title>Node15</title>
<g id="a_Node000015"><a xlink:href="../../d5/d67/Mode_8hpp.html" target="_top" xlink:title=" ">
<polygon fill="white" stroke="#666666" points="916,-247.75 852,-247.75 852,-227 916,-227 916,-247.75"/>
<text xml:space="preserve" text-anchor="middle" x="884" y="-234.25" font-family="Helvetica,sans-Serif" font-size="10.00">Mode.hpp</text>
</a>
</g>
</g>
<!-- Node1&#45;&gt;Node15 -->
<g id="edge23_Node000001_Node000015" class="edge">
<title>Node1&#45;&gt;Node15</title>
<g id="a_edge23_Node000001_Node000015"><a xlink:title=" ">
<path fill="none" stroke="#63b8ff" d="M712.95,-280.56C755.6,-270.04 815.17,-255.35 851.58,-246.37"/>
<polygon fill="#63b8ff" stroke="#63b8ff" points="712.29,-277.12 703.42,-282.91 713.96,-283.91 712.29,-277.12"/>
</a>
</g>
</g>
<!-- Node16 -->
<g id="Node000016" class="node">
<title>Node16</title>
<g id="a_Node000016"><a xlink:href="../../d2/dad/Nick_8hpp.html" target="_top" xlink:title=" ">
<polygon fill="white" stroke="#666666" points="992.38,-247.75 933.62,-247.75 933.62,-227 992.38,-227 992.38,-247.75"/>
<text xml:space="preserve" text-anchor="middle" x="963" y="-234.25" font-family="Helvetica,sans-Serif" font-size="10.00">Nick.hpp</text>
</a>
</g>
</g>
<!-- Node1&#45;&gt;Node16 -->
<g id="edge25_Node000001_Node000016" class="edge">
<title>Node1&#45;&gt;Node16</title>
<g id="a_edge25_Node000001_Node000016"><a xlink:title=" ">
<path fill="none" stroke="#63b8ff" d="M721.5,-284.1C774.96,-275.69 855.5,-262.3 925,-247.75 927.66,-247.19 930.42,-246.58 933.18,-245.95"/>
<polygon fill="#63b8ff" stroke="#63b8ff" points="721.02,-280.63 711.68,-285.63 722.1,-287.54 721.02,-280.63"/>
</a>
</g>
</g>
<!-- Node17 -->
<g id="Node000017" class="node">
<title>Node17</title>
<g id="a_Node000017"><a xlink:href="../../d5/d58/Ping_8hpp.html" target="_top" xlink:title=" ">
<polygon fill="white" stroke="#666666" points="1068,-247.75 1010,-247.75 1010,-227 1068,-227 1068,-247.75"/>
<text xml:space="preserve" text-anchor="middle" x="1039" y="-234.25" font-family="Helvetica,sans-Serif" font-size="10.00">Ping.hpp</text>
</a>
</g>
</g>
<!-- Node1&#45;&gt;Node17 -->
<g id="edge27_Node000001_Node000017" class="edge">
<title>Node1&#45;&gt;Node17</title>
<g id="a_edge27_Node000001_Node000017"><a xlink:title=" ">
<path fill="none" stroke="#63b8ff" d="M721.29,-287.17C789.21,-279.88 903.66,-266.21 1001,-247.75 1003.8,-247.22 1006.71,-246.61 1009.61,-245.96"/>
<polygon fill="#63b8ff" stroke="#63b8ff" points="721.06,-283.67 711.49,-288.21 721.8,-290.63 721.06,-283.67"/>
</a>
</g>
</g>
<!-- Node18 -->
<g id="Node000018" class="node">
<title>Node18</title>
<g id="a_Node000018"><a xlink:href="../../df/d79/Quit_8hpp.html" target="_top" xlink:title=" ">
<polygon fill="white" stroke="#666666" points="1143.62,-247.75 1086.38,-247.75 1086.38,-227 1143.62,-227 1143.62,-247.75"/>
<text xml:space="preserve" text-anchor="middle" x="1115" y="-234.25" font-family="Helvetica,sans-Serif" font-size="10.00">Quit.hpp</text>
</a>
</g>
</g>
<!-- Node1&#45;&gt;Node18 -->
<g id="edge29_Node000001_Node000018" class="edge">
<title>Node1&#45;&gt;Node18</title>
<g id="a_edge29_Node000001_Node000018"><a xlink:title=" ">
<path fill="none" stroke="#63b8ff" d="M721.66,-289.11C802.6,-283.09 951.5,-269.99 1077,-247.75 1079.94,-247.23 1083,-246.61 1086.04,-245.94"/>
<polygon fill="#63b8ff" stroke="#63b8ff" points="721.45,-285.61 711.73,-289.83 721.96,-292.59 721.45,-285.61"/>
</a>
</g>
</g>
<!-- Node19 -->
<g id="Node000019" class="node">
<title>Node19</title>
<g id="a_Node000019"><a xlink:href="../../da/dcb/ReplyHandler_8hpp.html" target="_top" xlink:title=" ">
<polygon fill="white" stroke="#666666" points="596.12,-191 493.88,-191 493.88,-170.25 596.12,-170.25 596.12,-191"/>
<text xml:space="preserve" text-anchor="middle" x="545" y="-177.5" font-family="Helvetica,sans-Serif" font-size="10.00">ReplyHandler.hpp</text>
</a>
</g>
</g>
<!-- Node1&#45;&gt;Node19 -->
<g id="edge30_Node000001_Node000019" class="edge">
<title>Node1&#45;&gt;Node19</title>
<g id="a_edge30_Node000001_Node000019"><a xlink:title=" ">
<path fill="none" stroke="#63b8ff" d="M641.61,-275.96C631.88,-267.62 620.18,-257.34 610,-247.75 589.38,-228.32 566.39,-204.35 554.03,-191.27"/>
<polygon fill="#63b8ff" stroke="#63b8ff" points="639.17,-278.48 649.06,-282.3 643.71,-273.15 639.17,-278.48"/>
</a>
</g>
</g>
<!-- Node20 -->
<g id="Node000020" class="node">
<title>Node20</title>
<g id="a_Node000020"><a xlink:href="../../d8/d1b/Topic_8hpp.html" target="_top" xlink:title=" ">
<polygon fill="white" stroke="#666666" points="1223.88,-247.75 1162.12,-247.75 1162.12,-227 1223.88,-227 1223.88,-247.75"/>
<text xml:space="preserve" text-anchor="middle" x="1193" y="-234.25" font-family="Helvetica,sans-Serif" font-size="10.00">Topic.hpp</text>
</a>
</g>
</g>
<!-- Node1&#45;&gt;Node20 -->
<g id="edge32_Node000001_Node000020" class="edge">
<title>Node1&#45;&gt;Node20</title>
<g id="a_edge32_Node000001_Node000020"><a xlink:title=" ">
<path fill="none" stroke="#63b8ff" d="M721.4,-290.29C814.06,-285.27 998.43,-272.88 1153,-247.75 1155.82,-247.29 1158.73,-246.75 1161.64,-246.16"/>
<polygon fill="#63b8ff" stroke="#63b8ff" points="721.33,-286.79 711.53,-290.81 721.7,-293.78 721.33,-286.79"/>
</a>
</g>
</g>
<!-- Node21 -->
<g id="Node000021" class="node">
<title>Node21</title>
<g id="a_Node000021"><a xlink:href="../../de/dfd/User_8hpp.html" target="_top" xlink:title=" ">
<polygon fill="white" stroke="#666666" points="1300.38,-247.75 1241.62,-247.75 1241.62,-227 1300.38,-227 1300.38,-247.75"/>
<text xml:space="preserve" text-anchor="middle" x="1271" y="-234.25" font-family="Helvetica,sans-Serif" font-size="10.00">User.hpp</text>
</a>
</g>
</g>
<!-- Node1&#45;&gt;Node21 -->
<g id="edge33_Node000001_Node000021" class="edge">
<title>Node1&#45;&gt;Node21</title>
<g id="a_edge33_Node000001_Node000021"><a xlink:title=" ">
<path fill="none" stroke="#63b8ff" d="M721.27,-291.59C825.42,-288.18 1047.79,-277.75 1233,-247.75 1235.68,-247.32 1238.46,-246.79 1241.22,-246.21"/>
<polygon fill="#63b8ff" stroke="#63b8ff" points="721.46,-288.08 711.58,-291.89 721.68,-295.07 721.46,-288.08"/>
</a>
</g>
</g>
<!-- Node2&#45;&gt;Node3 -->
<g id="edge2_Node000002_Node000003" class="edge">
<title>Node2&#45;&gt;Node3</title>
<g id="a_edge2_Node000002_Node000003"><a xlink:title=" ">
<path fill="none" stroke="#63b8ff" d="M415.79,-59.08C334.68,-47.69 177.04,-25.56 108.8,-15.98"/>
<polygon fill="#63b8ff" stroke="#63b8ff" points="415.29,-62.54 425.68,-60.46 416.26,-55.61 415.29,-62.54"/>
</a>
</g>
</g>
<!-- Node2&#45;&gt;Node4 -->
<g id="edge3_Node000002_Node000004" class="edge">
<title>Node2&#45;&gt;Node4</title>
<g id="a_edge3_Node000002_Node000004"><a xlink:title=" ">
<path fill="none" stroke="#63b8ff" d="M475.91,-46.03C480.11,-37.52 484.81,-27.99 488.21,-21.08"/>
<polygon fill="#63b8ff" stroke="#63b8ff" points="472.78,-44.46 471.5,-54.98 479.06,-47.56 472.78,-44.46"/>
</a>
</g>
</g>
<!-- Node2&#45;&gt;Node5 -->
<g id="edge4_Node000002_Node000005" class="edge">
<title>Node2&#45;&gt;Node5</title>
<g id="a_edge4_Node000002_Node000005"><a xlink:title=" ">
<path fill="none" stroke="#63b8ff" d="M506.98,-52.77C536.94,-43.01 576.9,-29.98 603.94,-21.17"/>
<polygon fill="#63b8ff" stroke="#63b8ff" points="505.9,-49.44 497.47,-55.87 508.07,-56.1 505.9,-49.44"/>
</a>
</g>
</g>
<!-- Node2&#45;&gt;Node6 -->
<g id="edge5_Node000002_Node000006" class="edge">
<title>Node2&#45;&gt;Node6</title>
<g id="a_edge5_Node000002_Node000006"><a xlink:title=" ">
<path fill="none" stroke="#63b8ff" d="M426.48,-52.77C397.59,-43.01 359.06,-29.98 332.98,-21.17"/>
<polygon fill="#63b8ff" stroke="#63b8ff" points="425.01,-55.97 435.6,-55.85 427.25,-49.33 425.01,-55.97"/>
</a>
</g>
</g>
<!-- Node7&#45;&gt;Node3 -->
<g id="edge7_Node000007_Node000003" class="edge">
<title>Node7&#45;&gt;Node3</title>
<g id="a_edge7_Node000007_Node000003"><a xlink:title=" ">
<path fill="none" stroke="#63b8ff" d="M253.36,-222.32C234.46,-214.45 211.68,-203.66 193,-191 162.61,-170.41 154.44,-164.04 133,-134.25 105.53,-96.08 86.19,-42.55 79.05,-20.96"/>
<polygon fill="#63b8ff" stroke="#63b8ff" points="251.99,-225.54 262.57,-226.05 254.61,-219.06 251.99,-225.54"/>
</a>
</g>
</g>
<!-- Node7&#45;&gt;Node6 -->
<g id="edge15_Node000007_Node000006" class="edge">
<title>Node7&#45;&gt;Node6</title>
<g id="a_edge15_Node000007_Node000006"><a xlink:title=" ">
<path fill="none" stroke="#63b8ff" d="M310.6,-219C318.84,-211.03 328.09,-201.11 335,-191 350.66,-168.1 355.09,-161.36 361,-134.25 370.82,-89.22 332.19,-41.11 313.54,-21.04"/>
<polygon fill="#63b8ff" stroke="#63b8ff" points="308.26,-216.4 303.33,-225.78 313.03,-221.52 308.26,-216.4"/>
</a>
</g>
</g>
<!-- Node7&#45;&gt;Node8 -->
<g id="edge8_Node000007_Node000008" class="edge">
<title>Node7&#45;&gt;Node8</title>
<g id="a_edge8_Node000007_Node000008"><a xlink:title=" ">
<path fill="none" stroke="#63b8ff" d="M322.62,-221.83C343.59,-212.18 370.52,-199.79 388.91,-191.33"/>
<polygon fill="#63b8ff" stroke="#63b8ff" points="321.27,-218.59 313.65,-225.95 324.2,-224.95 321.27,-218.59"/>
</a>
</g>
</g>
<!-- Node9 -->
<g id="Node000009" class="node">
<title>Node9</title>
<g id="a_Node000009"><a xlink:href="../../d9/d11/Logger_8hpp.html" target="_top" xlink:title=" ">
<polygon fill="white" stroke="#666666" points="325.62,-191 256.38,-191 256.38,-170.25 325.62,-170.25 325.62,-191"/>
<text xml:space="preserve" text-anchor="middle" x="291" y="-177.5" font-family="Helvetica,sans-Serif" font-size="10.00">Logger.hpp</text>
</a>
</g>
</g>
<!-- Node7&#45;&gt;Node9 -->
<g id="edge9_Node000007_Node000009" class="edge">
<title>Node7&#45;&gt;Node9</title>
<g id="a_edge9_Node000007_Node000009"><a xlink:title=" ">
<path fill="none" stroke="#63b8ff" d="M291,-215.13C291,-206.91 291,-197.93 291,-191.33"/>
<polygon fill="#63b8ff" stroke="#63b8ff" points="287.5,-215.07 291,-225.07 294.5,-215.07 287.5,-215.07"/>
</a>
</g>
</g>
<!-- Node7&#45;&gt;Node11 -->
<g id="edge14_Node000007_Node000011" class="edge">
<title>Node7&#45;&gt;Node11</title>
<g id="a_edge14_Node000007_Node000011"><a xlink:title=" ">
<path fill="none" stroke="#63b8ff" d="M269.29,-219.22C261,-211.49 252.27,-201.7 247,-191 228.04,-152.51 227.68,-99.61 228.46,-77.96"/>
<polygon fill="#63b8ff" stroke="#63b8ff" points="266.96,-221.83 276.8,-225.75 271.55,-216.55 266.96,-221.83"/>
</a>
</g>
</g>
<!-- Node12 -->
<g id="Node000012" class="node">
<title>Node12</title>
<g id="a_Node000012"><a xlink:href="../../df/d93/utils_8hpp.html" target="_top" xlink:title=" ">
<polygon fill="white" stroke="#666666" points="200,-134.25 142,-134.25 142,-113.5 200,-113.5 200,-134.25"/>
<text xml:space="preserve" text-anchor="middle" x="171" y="-120.75" font-family="Helvetica,sans-Serif" font-size="10.00">utils.hpp</text>
</a>
</g>
</g>
<!-- Node7&#45;&gt;Node12 -->
<g id="edge16_Node000007_Node000012" class="edge">
<title>Node7&#45;&gt;Node12</title>
<g id="a_edge16_Node000007_Node000012"><a xlink:title=" ">
<path fill="none" stroke="#63b8ff" d="M258.42,-221.48C243.76,-213.76 226.9,-203.34 214,-191 196.19,-173.96 182.17,-148.19 175.41,-134.39"/>
<polygon fill="#63b8ff" stroke="#63b8ff" points="256.75,-224.57 267.26,-225.94 259.9,-218.31 256.75,-224.57"/>
</a>
</g>
</g>
<!-- Node10 -->
<g id="Node000010" class="node">
<title>Node10</title>
<g id="a_Node000010"><a xlink:href="../../de/d1c/LogManager_8hpp.html" target="_top" xlink:title=" ">
<polygon fill="white" stroke="#666666" points="352.12,-134.25 255.88,-134.25 255.88,-113.5 352.12,-113.5 352.12,-134.25"/>
<text xml:space="preserve" text-anchor="middle" x="304" y="-120.75" font-family="Helvetica,sans-Serif" font-size="10.00">LogManager.hpp</text>
</a>
</g>
</g>
<!-- Node9&#45;&gt;Node10 -->
<g id="edge10_Node000009_Node000010" class="edge">
<title>Node9&#45;&gt;Node10</title>
<g id="a_edge10_Node000009_Node000010"><a xlink:title=" ">
<path fill="none" stroke="#63b8ff" d="M295.98,-158.67C297.94,-150.38 300.11,-141.25 301.7,-134.58"/>
<polygon fill="#63b8ff" stroke="#63b8ff" points="292.58,-157.83 293.67,-168.36 299.39,-159.44 292.58,-157.83"/>
</a>
</g>
</g>
<!-- Node10&#45;&gt;Node2 -->
<g id="edge11_Node000010_Node000002" class="edge">
<title>Node10&#45;&gt;Node2</title>
<g id="a_edge11_Node000010_Node000002"><a xlink:title=" ">
<path fill="none" stroke="#63b8ff" d="M343.52,-109.52C372.41,-99.76 410.94,-86.73 437.02,-77.92"/>
<polygon fill="#63b8ff" stroke="#63b8ff" points="342.75,-106.08 334.4,-112.6 344.99,-112.72 342.75,-106.08"/>
</a>
</g>
</g>
<!-- Node10&#45;&gt;Node6 -->
<g id="edge13_Node000010_Node000006" class="edge">
<title>Node10&#45;&gt;Node6</title>
<g id="a_edge13_Node000010_Node000006"><a xlink:title=" ">
<path fill="none" stroke="#63b8ff" d="M304,-101.97C304,-77.84 304,-39.17 304,-21.18"/>
<polygon fill="#63b8ff" stroke="#63b8ff" points="300.5,-101.85 304,-111.86 307.5,-101.86 300.5,-101.85"/>
</a>
</g>
</g>
<!-- Node10&#45;&gt;Node11 -->
<g id="edge12_Node000010_Node000011" class="edge">
<title>Node10&#45;&gt;Node11</title>
<g id="a_edge12_Node000010_Node000011"><a xlink:title=" ">
<path fill="none" stroke="#63b8ff" d="M281.48,-106.44C268.7,-97.11 253.14,-85.75 242.29,-77.83"/>
<polygon fill="#63b8ff" stroke="#63b8ff" points="279.23,-109.13 289.37,-112.19 283.36,-103.47 279.23,-109.13"/>
</a>
</g>
</g>
<!-- Node12&#45;&gt;Node6 -->
<g id="edge18_Node000012_Node000006" class="edge">
<title>Node12&#45;&gt;Node6</title>
<g id="a_edge18_Node000012_Node000006"><a xlink:title=" ">
<path fill="none" stroke="#63b8ff" d="M171.92,-101.85C173.59,-87.56 177.95,-69.09 189,-56.75 211.05,-32.13 248.19,-20.71 274.28,-15.52"/>
<polygon fill="#63b8ff" stroke="#63b8ff" points="168.45,-101.32 171.16,-111.56 175.43,-101.87 168.45,-101.32"/>
</a>
</g>
</g>
<!-- Node12&#45;&gt;Node11 -->
<g id="edge17_Node000012_Node000011" class="edge">
<title>Node12&#45;&gt;Node11</title>
<g id="a_edge17_Node000012_Node000011"><a xlink:title=" ">
<path fill="none" stroke="#63b8ff" d="M189.59,-105.33C199.24,-96.22 210.66,-85.43 218.72,-77.83"/>
<polygon fill="#63b8ff" stroke="#63b8ff" points="187.34,-102.64 182.47,-112.05 192.14,-107.73 187.34,-102.64"/>
</a>
</g>
</g>
<!-- Node19&#45;&gt;Node2 -->
<g id="edge31_Node000019_Node000002" class="edge">
<title>Node19&#45;&gt;Node2</title>
<g id="a_edge31_Node000019_Node000002"><a xlink:title=" ">
<path fill="none" stroke="#63b8ff" d="M531.81,-161.01C514.88,-137.11 486.1,-96.5 472.94,-77.93"/>
<polygon fill="#63b8ff" stroke="#63b8ff" points="528.75,-162.75 537.39,-168.88 534.46,-158.7 528.75,-162.75"/>
</a>
</g>
</g>
</g>
</svg>
