<?xml version="1.0" encoding="UTF-8" standalone="no"?>
<!DOCTYPE svg PUBLIC "-//W3C//DTD SVG 1.1//EN"
 "http://www.w3.org/Graphics/SVG/1.1/DTD/svg11.dtd">
<!-- Generated by graphviz version 14.0.1 (0)
 -->
<!-- Title: reply_codes.hpp Pages: 1 -->
<svg width="1288pt" height="313pt"
 viewBox="0.00 0.00 1288.00 313.00" xmlns="http://www.w3.org/2000/svg" xmlns:xlink="http://www.w3.org/1999/xlink">
<g id="graph0" class="graph" transform="scale(1 1) rotate(0) translate(4 308.5)">
<title>reply_codes.hpp</title>
<!-- Node1 -->
<g id="Node000001" class="node">
<title>Node1</title>
<g id="a_Node000001"><a xlink:title="Numerical reply codes.">
<polygon fill="#999999" stroke="#666666" points="827.25,-304.5 731.75,-304.5 731.75,-283.75 827.25,-283.75 827.25,-304.5"/>
<text xml:space="preserve" text-anchor="middle" x="779.5" y="-291" font-family="Helvetica,sans-Serif" font-size="10.00">reply_codes.hpp</text>
</a>
</g>
</g>
<!-- Node2 -->
<g id="Node000002" class="node">
<title>Node2</title>
<g id="a_Node000002"><a xlink:href="../../d7/d42/Channel_8hpp.html" target="_top" xlink:title="Channel class.">
<polygon fill="white" stroke="#666666" points="546.88,-191 470.12,-191 470.12,-170.25 546.88,-170.25 546.88,-191"/>
<text xml:space="preserve" text-anchor="middle" x="508.5" y="-177.5" font-family="Helvetica,sans-Serif" font-size="10.00">Channel.hpp</text>
</a>
</g>
</g>
<!-- Node1&#45;&gt;Node2 -->
<g id="edge1_Node000001_Node000002" class="edge">
<title>Node1&#45;&gt;Node2</title>
<g id="a_edge1_Node000001_Node000002"><a xlink:title=" ">
<path fill="none" stroke="#63b8ff" d="M720.31,-287.98C658.91,-281.59 568.07,-268.88 540.5,-247.75 522.08,-233.63 513.67,-206.17 510.36,-191.47"/>
<polygon fill="#63b8ff" stroke="#63b8ff" points="719.6,-291.42 729.9,-288.95 720.3,-284.46 719.6,-291.42"/>
</a>
</g>
</g>
<!-- Node5 -->
<g id="Node000005" class="node">
<title>Node5</title>
<g id="a_Node000005"><a xlink:href="../../d7/ddd/Parser_8hpp.html" target="_top" xlink:title="Parser class.">
<polygon fill="white" stroke="#666666" points="706.62,-134.25 640.38,-134.25 640.38,-113.5 706.62,-113.5 706.62,-134.25"/>
<text xml:space="preserve" text-anchor="middle" x="673.5" y="-120.75" font-family="Helvetica,sans-Serif" font-size="10.00">Parser.hpp</text>
</a>
</g>
</g>
<!-- Node1&#45;&gt;Node5 -->
<g id="edge23_Node000001_Node000005" class="edge">
<title>Node1&#45;&gt;Node5</title>
<g id="a_edge23_Node000001_Node000005"><a xlink:title=" ">
<path fill="none" stroke="#63b8ff" d="M742.48,-278.52C728.38,-271.23 713.34,-261.08 703.5,-247.75 677.28,-212.24 673.74,-156.74 673.43,-134.54"/>
<polygon fill="#63b8ff" stroke="#63b8ff" points="740.61,-281.5 751.14,-282.66 743.63,-275.19 740.61,-281.5"/>
</a>
</g>
</g>
<!-- Node8 -->
<g id="Node000008" class="node">
<title>Node8</title>
<g id="a_Node000008"><a xlink:href="../../df/d93/Who_8hpp.html" target="_top" xlink:title="Implements IRC WHO command.">
<polygon fill="white" stroke="#666666" points="449.88,-134.25 391.12,-134.25 391.12,-113.5 449.88,-113.5 449.88,-134.25"/>
<text xml:space="preserve" text-anchor="middle" x="420.5" y="-120.75" font-family="Helvetica,sans-Serif" font-size="10.00">Who.hpp</text>
</a>
</g>
</g>
<!-- Node1&#45;&gt;Node8 -->
<g id="edge31_Node000001_Node000008" class="edge">
<title>Node1&#45;&gt;Node8</title>
<g id="a_edge31_Node000001_Node000008"><a xlink:title=" ">
<path fill="none" stroke="#63b8ff" d="M720.3,-292.49C665.7,-289.71 583.78,-279.87 520.5,-247.75 470.22,-222.23 436.34,-158.79 424.84,-134.52"/>
<polygon fill="#63b8ff" stroke="#63b8ff" points="719.86,-295.97 730,-292.91 720.17,-288.98 719.86,-295.97"/>
</a>
</g>
</g>
<!-- Node9 -->
<g id="Node000009" class="node">
<title>Node9</title>
<g id="a_Node000009"><a xlink:href="../../d3/d8e/Client_8hpp.html" target="_top" xlink:title="Client class.">
<polygon fill="white" stroke="#666666" points="272.25,-191 206.75,-191 206.75,-170.25 272.25,-170.25 272.25,-191"/>
<text xml:space="preserve" text-anchor="middle" x="239.5" y="-177.5" font-family="Helvetica,sans-Serif" font-size="10.00">Client.hpp</text>
</a>
</g>
</g>
<!-- Node1&#45;&gt;Node9 -->
<g id="edge8_Node000001_Node000009" class="edge">
<title>Node1&#45;&gt;Node9</title>
<g id="a_edge8_Node000001_Node000009"><a xlink:title=" ">
<path fill="none" stroke="#63b8ff" d="M720.12,-289.96C647.59,-285.12 521.59,-273.57 416.5,-247.75 358.52,-233.5 293.52,-206.09 260.79,-191.44"/>
<polygon fill="#63b8ff" stroke="#63b8ff" points="719.57,-293.43 729.78,-290.58 720.02,-286.45 719.57,-293.43"/>
</a>
</g>
</g>
<!-- Node13 -->
<g id="Node000013" class="node">
<title>Node13</title>
<g id="a_Node000013"><a xlink:href="../../de/d3e/Motd_8hpp.html" target="_top" xlink:title="Implements IRC MOTD command.">
<polygon fill="white" stroke="#666666" points="237.38,-20.75 175.62,-20.75 175.62,0 237.38,0 237.38,-20.75"/>
<text xml:space="preserve" text-anchor="middle" x="206.5" y="-7.25" font-family="Helvetica,sans-Serif" font-size="10.00">Motd.hpp</text>
</a>
</g>
</g>
<!-- Node1&#45;&gt;Node13 -->
<g id="edge21_Node000001_Node000013" class="edge">
<title>Node1&#45;&gt;Node13</title>
<g id="a_edge21_Node000001_Node000013"><a xlink:title=" ">
<path fill="none" stroke="#63b8ff" d="M758.34,-275.86C750.24,-268.11 741.7,-258.34 736.5,-247.75 709.86,-193.55 757.28,-157.11 715.5,-113.5 648.78,-43.86 337.92,-19.29 237.72,-13.1"/>
<polygon fill="#63b8ff" stroke="#63b8ff" points="755.87,-278.34 765.65,-282.4 760.53,-273.12 755.87,-278.34"/>
</a>
</g>
</g>
<!-- Node15 -->
<g id="Node000015" class="node">
<title>Node15</title>
<g id="a_Node000015"><a xlink:href="../../df/db4/Config_8hpp.html" target="_top" xlink:title="Config class.">
<polygon fill="white" stroke="#666666" points="813.38,-247.75 745.62,-247.75 745.62,-227 813.38,-227 813.38,-247.75"/>
<text xml:space="preserve" text-anchor="middle" x="779.5" y="-234.25" font-family="Helvetica,sans-Serif" font-size="10.00">Config.hpp</text>
</a>
</g>
</g>
<!-- Node1&#45;&gt;Node15 -->
<g id="edge19_Node000001_Node000015" class="edge">
<title>Node1&#45;&gt;Node15</title>
<g id="a_edge19_Node000001_Node000015"><a xlink:title=" ">
<path fill="none" stroke="#63b8ff" d="M779.5,-271.88C779.5,-263.66 779.5,-254.68 779.5,-248.08"/>
<polygon fill="#63b8ff" stroke="#63b8ff" points="776,-271.82 779.5,-281.82 783,-271.82 776,-271.82"/>
</a>
</g>
</g>
<!-- Node16 -->
<g id="Node000016" class="node">
<title>Node16</title>
<g id="a_Node000016"><a xlink:href="../../d5/d67/Mode_8hpp.html" target="_top" xlink:title="Implements IRC MODE command.">
<polygon fill="white" stroke="#666666" points="895.5,-247.75 831.5,-247.75 831.5,-227 895.5,-227 895.5,-247.75"/>
<text xml:space="preserve" text-anchor="middle" x="863.5" y="-234.25" font-family="Helvetica,sans-Serif" font-size="10.00">Mode.hpp</text>
</a>
</g>
</g>
<!-- Node1&#45;&gt;Node16 -->
<g id="edge20_Node000001_Node000016" class="edge">
<title>Node1&#45;&gt;Node16</title>
<g id="a_edge20_Node000001_Node000016"><a xlink:title=" ">
<path fill="none" stroke="#63b8ff" d="M803.88,-277.23C818.35,-267.8 836.23,-256.15 848.61,-248.08"/>
<polygon fill="#63b8ff" stroke="#63b8ff" points="802.25,-274.12 795.79,-282.51 806.07,-279.98 802.25,-274.12"/>
</a>
</g>
</g>
<!-- Node17 -->
<g id="Node000017" class="node">
<title>Node17</title>
<g id="a_Node000017"><a xlink:href="../../d2/dad/Nick_8hpp.html" target="_top" xlink:title="Implements IRC NICK command.">
<polygon fill="white" stroke="#666666" points="971.88,-247.75 913.12,-247.75 913.12,-227 971.88,-227 971.88,-247.75"/>
<text xml:space="preserve" text-anchor="middle" x="942.5" y="-234.25" font-family="Helvetica,sans-Serif" font-size="10.00">Nick.hpp</text>
</a>
</g>
</g>
<!-- Node1&#45;&gt;Node17 -->
<g id="edge22_Node000001_Node000017" class="edge">
<title>Node1&#45;&gt;Node17</title>
<g id="a_edge22_Node000001_Node000017"><a xlink:title=" ">
<path fill="none" stroke="#63b8ff" d="M819.26,-279.77C848.33,-270.01 887.1,-256.98 913.34,-248.17"/>
<polygon fill="#63b8ff" stroke="#63b8ff" points="818.44,-276.35 810.08,-282.85 820.67,-282.99 818.44,-276.35"/>
</a>
</g>
</g>
<!-- Node18 -->
<g id="Node000018" class="node">
<title>Node18</title>
<g id="a_Node000018"><a xlink:href="../../d5/d58/Ping_8hpp.html" target="_top" xlink:title="Implements IRC PING command.">
<polygon fill="white" stroke="#666666" points="1047.5,-247.75 989.5,-247.75 989.5,-227 1047.5,-227 1047.5,-247.75"/>
<text xml:space="preserve" text-anchor="middle" x="1018.5" y="-234.25" font-family="Helvetica,sans-Serif" font-size="10.00">Ping.hpp</text>
</a>
</g>
</g>
<!-- Node1&#45;&gt;Node18 -->
<g id="edge24_Node000001_Node000018" class="edge">
<title>Node1&#45;&gt;Node18</title>
<g id="a_edge24_Node000001_Node000018"><a xlink:title=" ">
<path fill="none" stroke="#63b8ff" d="M835.48,-280.8C875.84,-271.84 931.6,-259.3 980.5,-247.75 983.28,-247.09 986.17,-246.4 989.06,-245.7"/>
<polygon fill="#63b8ff" stroke="#63b8ff" points="834.75,-277.38 825.74,-282.96 836.26,-284.21 834.75,-277.38"/>
</a>
</g>
</g>
<!-- Node19 -->
<g id="Node000019" class="node">
<title>Node19</title>
<g id="a_Node000019"><a xlink:href="../../df/d79/Quit_8hpp.html" target="_top" xlink:title="Implements IRC QUIT command.">
<polygon fill="white" stroke="#666666" points="1123.12,-247.75 1065.88,-247.75 1065.88,-227 1123.12,-227 1123.12,-247.75"/>
<text xml:space="preserve" text-anchor="middle" x="1094.5" y="-234.25" font-family="Helvetica,sans-Serif" font-size="10.00">Quit.hpp</text>
</a>
</g>
</g>
<!-- Node1&#45;&gt;Node19 -->
<g id="edge25_Node000001_Node000019" class="edge">
<title>Node1&#45;&gt;Node19</title>
<g id="a_edge25_Node000001_Node000019"><a xlink:title=" ">
<path fill="none" stroke="#63b8ff" d="M838.43,-284.86C894.68,-276.64 981.69,-263.08 1056.5,-247.75 1059.43,-247.15 1062.47,-246.48 1065.51,-245.78"/>
<polygon fill="#63b8ff" stroke="#63b8ff" points="838.15,-281.36 828.75,-286.26 839.15,-288.29 838.15,-281.36"/>
</a>
</g>
</g>
<!-- Node20 -->
<g id="Node000020" class="node">
<title>Node20</title>
<g id="a_Node000020"><a xlink:href="../../da/dcb/ReplyHandler_8hpp.html" target="_top" xlink:title="ReplyHandler class.">
<polygon fill="white" stroke="#666666" points="651.62,-247.75 549.38,-247.75 549.38,-227 651.62,-227 651.62,-247.75"/>
<text xml:space="preserve" text-anchor="middle" x="600.5" y="-234.25" font-family="Helvetica,sans-Serif" font-size="10.00">ReplyHandler.hpp</text>
</a>
</g>
</g>
<!-- Node1&#45;&gt;Node20 -->
<g id="edge26_Node000001_Node000020" class="edge">
<title>Node1&#45;&gt;Node20</title>
<g id="a_edge26_Node000001_Node000020"><a xlink:title=" ">
<path fill="none" stroke="#63b8ff" d="M736.68,-280.03C704.66,-270.24 661.59,-257.06 632.53,-248.17"/>
<polygon fill="#63b8ff" stroke="#63b8ff" points="735.46,-283.32 746.05,-282.89 737.51,-276.62 735.46,-283.32"/>
</a>
</g>
</g>
<!-- Node21 -->
<g id="Node000021" class="node">
<title>Node21</title>
<g id="a_Node000021"><a xlink:href="../../d8/d1b/Topic_8hpp.html" target="_top" xlink:title="Implements IRC TOPIC command.">
<polygon fill="white" stroke="#666666" points="1203.38,-247.75 1141.62,-247.75 1141.62,-227 1203.38,-227 1203.38,-247.75"/>
<text xml:space="preserve" text-anchor="middle" x="1172.5" y="-234.25" font-family="Helvetica,sans-Serif" font-size="10.00">Topic.hpp</text>
</a>
</g>
</g>
<!-- Node1&#45;&gt;Node21 -->
<g id="edge29_Node000001_Node000021" class="edge">
<title>Node1&#45;&gt;Node21</title>
<g id="a_edge29_Node000001_Node000021"><a xlink:title=" ">
<path fill="none" stroke="#63b8ff" d="M838.98,-287.36C909.37,-280.1 1029.98,-266.3 1132.5,-247.75 1135.45,-247.22 1138.51,-246.61 1141.56,-245.96"/>
<polygon fill="#63b8ff" stroke="#63b8ff" points="838.8,-283.86 829.21,-288.36 839.51,-290.82 838.8,-283.86"/>
</a>
</g>
</g>
<!-- Node22 -->
<g id="Node000022" class="node">
<title>Node22</title>
<g id="a_Node000022"><a xlink:href="../../de/dfd/User_8hpp.html" target="_top" xlink:title="Implements IRC USER command.">
<polygon fill="white" stroke="#666666" points="1279.88,-247.75 1221.12,-247.75 1221.12,-227 1279.88,-227 1279.88,-247.75"/>
<text xml:space="preserve" text-anchor="middle" x="1250.5" y="-234.25" font-family="Helvetica,sans-Serif" font-size="10.00">User.hpp</text>
</a>
</g>
</g>
<!-- Node1&#45;&gt;Node22 -->
<g id="edge30_Node000001_Node000022" class="edge">
<title>Node1&#45;&gt;Node22</title>
<g id="a_edge30_Node000001_Node000022"><a xlink:title=" ">
<path fill="none" stroke="#63b8ff" d="M838.85,-289.5C922.61,-283.79 1080.06,-270.91 1212.5,-247.75 1215.18,-247.28 1217.95,-246.73 1220.71,-246.13"/>
<polygon fill="#63b8ff" stroke="#63b8ff" points="838.79,-286 829.04,-290.16 839.25,-292.98 838.79,-286"/>
</a>
</g>
</g>
<!-- Node3 -->
<g id="Node000003" class="node">
<title>Node3</title>
<g id="a_Node000003"><a xlink:href="../../d8/d55/Bot_8hpp.html" target="_top" xlink:title="Implements BOT Command (non RFC)">
<polygon fill="white" stroke="#666666" points="373.25,-134.25 319.75,-134.25 319.75,-113.5 373.25,-113.5 373.25,-134.25"/>
<text xml:space="preserve" text-anchor="middle" x="346.5" y="-120.75" font-family="Helvetica,sans-Serif" font-size="10.00">Bot.hpp</text>
</a>
</g>
</g>
<!-- Node2&#45;&gt;Node3 -->
<g id="edge2_Node000002_Node000003" class="edge">
<title>Node2&#45;&gt;Node3</title>
<g id="a_edge2_Node000002_Node000003"><a xlink:title=" ">
<path fill="none" stroke="#63b8ff" d="M468.74,-166.19C439.17,-156.19 399.6,-142.82 373.6,-134.03"/>
<polygon fill="#63b8ff" stroke="#63b8ff" points="467.51,-169.47 478.1,-169.35 469.75,-162.83 467.51,-169.47"/>
</a>
</g>
</g>
<!-- Node4 -->
<g id="Node000004" class="node">
<title>Node4</title>
<g id="a_Node000004"><a xlink:href="../../d0/d9f/Invite_8hpp.html" target="_top" xlink:title="Implements IRC INVITE command.">
<polygon fill="white" stroke="#666666" points="301.88,-134.25 237.12,-134.25 237.12,-113.5 301.88,-113.5 301.88,-134.25"/>
<text xml:space="preserve" text-anchor="middle" x="269.5" y="-120.75" font-family="Helvetica,sans-Serif" font-size="10.00">Invite.hpp</text>
</a>
</g>
</g>
<!-- Node2&#45;&gt;Node4 -->
<g id="edge3_Node000002_Node000004" class="edge">
<title>Node2&#45;&gt;Node4</title>
<g id="a_edge3_Node000002_Node000004"><a xlink:title=" ">
<path fill="none" stroke="#63b8ff" d="M458.7,-168.22C411.76,-157.46 342.75,-141.65 302.34,-132.4"/>
<polygon fill="#63b8ff" stroke="#63b8ff" points="457.83,-171.61 468.36,-170.43 459.39,-164.78 457.83,-171.61"/>
</a>
</g>
</g>
<!-- Node2&#45;&gt;Node5 -->
<g id="edge4_Node000002_Node000005" class="edge">
<title>Node2&#45;&gt;Node5</title>
<g id="a_edge4_Node000002_Node000005"><a xlink:title=" ">
<path fill="none" stroke="#63b8ff" d="M548.75,-166.27C578.17,-156.51 617.42,-143.48 643.98,-134.67"/>
<polygon fill="#63b8ff" stroke="#63b8ff" points="547.82,-162.89 539.44,-169.36 550.03,-169.53 547.82,-162.89"/>
</a>
</g>
</g>
<!-- Node6 -->
<g id="Node000006" class="node">
<title>Node6</title>
<g id="a_Node000006"><a xlink:href="../../df/d5f/Pass_8hpp.html" target="_top" xlink:title="Implements IRC PASS command.">
<polygon fill="white" stroke="#666666" points="621.88,-134.25 563.12,-134.25 563.12,-113.5 621.88,-113.5 621.88,-134.25"/>
<text xml:space="preserve" text-anchor="middle" x="592.5" y="-120.75" font-family="Helvetica,sans-Serif" font-size="10.00">Pass.hpp</text>
</a>
</g>
</g>
<!-- Node2&#45;&gt;Node6 -->
<g id="edge5_Node000002_Node000006" class="edge">
<title>Node2&#45;&gt;Node6</title>
<g id="a_edge5_Node000002_Node000006"><a xlink:title=" ">
<path fill="none" stroke="#63b8ff" d="M532.88,-163.73C547.35,-154.3 565.23,-142.65 577.61,-134.58"/>
<polygon fill="#63b8ff" stroke="#63b8ff" points="531.25,-160.62 524.79,-169.01 535.07,-166.48 531.25,-160.62"/>
</a>
</g>
</g>
<!-- Node7 -->
<g id="Node000007" class="node">
<title>Node7</title>
<g id="a_Node000007"><a xlink:href="../../d6/df8/Privmsg_8hpp.html" target="_top" xlink:title="Implements IRC PRIVMSG command.">
<polygon fill="white" stroke="#666666" points="544.88,-134.25 468.12,-134.25 468.12,-113.5 544.88,-113.5 544.88,-134.25"/>
<text xml:space="preserve" text-anchor="middle" x="506.5" y="-120.75" font-family="Helvetica,sans-Serif" font-size="10.00">Privmsg.hpp</text>
</a>
</g>
</g>
<!-- Node2&#45;&gt;Node7 -->
<g id="edge6_Node000002_Node000007" class="edge">
<title>Node2&#45;&gt;Node7</title>
<g id="a_edge6_Node000002_Node000007"><a xlink:title=" ">
<path fill="none" stroke="#63b8ff" d="M507.72,-158.38C507.42,-150.16 507.1,-141.18 506.85,-134.58"/>
<polygon fill="#63b8ff" stroke="#63b8ff" points="504.22,-158.46 508.09,-168.32 511.22,-158.2 504.22,-158.46"/>
</a>
</g>
</g>
<!-- Node2&#45;&gt;Node8 -->
<g id="edge7_Node000002_Node000008" class="edge">
<title>Node2&#45;&gt;Node8</title>
<g id="a_edge7_Node000002_Node000008"><a xlink:title=" ">
<path fill="none" stroke="#63b8ff" d="M483.39,-164.01C468.16,-154.53 449.2,-142.73 436.1,-134.58"/>
<polygon fill="#63b8ff" stroke="#63b8ff" points="481.14,-166.73 491.48,-169.04 484.84,-160.78 481.14,-166.73"/>
</a>
</g>
</g>
<!-- Node9&#45;&gt;Node3 -->
<g id="edge9_Node000009_Node000003" class="edge">
<title>Node9&#45;&gt;Node3</title>
<g id="a_edge9_Node000009_Node000003"><a xlink:title=" ">
<path fill="none" stroke="#63b8ff" d="M268.71,-164.68C287.45,-155.09 311.23,-142.92 327.54,-134.58"/>
<polygon fill="#63b8ff" stroke="#63b8ff" points="267.28,-161.48 259.98,-169.15 270.47,-167.71 267.28,-161.48"/>
</a>
</g>
</g>
<!-- Node9&#45;&gt;Node4 -->
<g id="edge10_Node000009_Node000004" class="edge">
<title>Node9&#45;&gt;Node4</title>
<g id="a_edge10_Node000009_Node000004"><a xlink:title=" ">
<path fill="none" stroke="#63b8ff" d="M250.35,-159.82C255.06,-151.23 260.36,-141.56 264.18,-134.58"/>
<polygon fill="#63b8ff" stroke="#63b8ff" points="247.33,-158.06 245.59,-168.51 253.47,-161.42 247.33,-158.06"/>
</a>
</g>
</g>
<!-- Node9&#45;&gt;Node8 -->
<g id="edge16_Node000009_Node000008" class="edge">
<title>Node9&#45;&gt;Node8</title>
<g id="a_edge16_Node000009_Node000008"><a xlink:title=" ">
<path fill="none" stroke="#63b8ff" d="M282.68,-166.56C316.07,-156.46 361.42,-142.75 390.82,-133.85"/>
<polygon fill="#63b8ff" stroke="#63b8ff" points="281.87,-163.15 273.31,-169.4 283.89,-169.85 281.87,-163.15"/>
</a>
</g>
</g>
<!-- Node10 -->
<g id="Node000010" class="node">
<title>Node10</title>
<g id="a_Node000010"><a xlink:href="../../da/dac/Join_8hpp.html" target="_top" xlink:title="Implement IRC JOIN Command.">
<polygon fill="white" stroke="#666666" points="55,-134.25 0,-134.25 0,-113.5 55,-113.5 55,-134.25"/>
<text xml:space="preserve" text-anchor="middle" x="27.5" y="-120.75" font-family="Helvetica,sans-Serif" font-size="10.00">Join.hpp</text>
</a>
</g>
</g>
<!-- Node9&#45;&gt;Node10 -->
<g id="edge11_Node000009_Node000010" class="edge">
<title>Node9&#45;&gt;Node10</title>
<g id="a_edge11_Node000009_Node000010"><a xlink:title=" ">
<path fill="none" stroke="#63b8ff" d="M195.32,-168.22C153.17,-157.33 90.97,-141.27 55.32,-132.06"/>
<polygon fill="#63b8ff" stroke="#63b8ff" points="194.35,-171.58 204.91,-170.69 196.1,-164.8 194.35,-171.58"/>
</a>
</g>
</g>
<!-- Node11 -->
<g id="Node000011" class="node">
<title>Node11</title>
<g id="a_Node000011"><a xlink:href="../../d9/d11/Logger_8hpp.html" target="_top" xlink:title="Logger class.">
<polygon fill="white" stroke="#666666" points="181.12,-134.25 111.88,-134.25 111.88,-113.5 181.12,-113.5 181.12,-134.25"/>
<text xml:space="preserve" text-anchor="middle" x="146.5" y="-120.75" font-family="Helvetica,sans-Serif" font-size="10.00">Logger.hpp</text>
</a>
</g>
</g>
<!-- Node9&#45;&gt;Node11 -->
<g id="edge12_Node000009_Node000011" class="edge">
<title>Node9&#45;&gt;Node11</title>
<g id="a_edge12_Node000009_Node000011"><a xlink:title=" ">
<path fill="none" stroke="#63b8ff" d="M212.97,-164.01C196.87,-154.53 176.83,-142.73 162.98,-134.58"/>
<polygon fill="#63b8ff" stroke="#63b8ff" points="211.18,-167.01 221.57,-169.07 214.73,-160.98 211.18,-167.01"/>
</a>
</g>
</g>
<!-- Node9&#45;&gt;Node13 -->
<g id="edge15_Node000009_Node000013" class="edge">
<title>Node9&#45;&gt;Node13</title>
<g id="a_edge15_Node000009_Node000013"><a xlink:title=" ">
<path fill="none" stroke="#63b8ff" d="M195.21,-177.88C163.74,-174.04 123.47,-163.28 102.5,-134.25 82.33,-106.33 83.63,-85.57 102.5,-56.75 118.58,-32.19 151.17,-20.85 175.61,-15.66"/>
<polygon fill="#63b8ff" stroke="#63b8ff" points="194.55,-181.33 204.85,-178.85 195.25,-174.37 194.55,-181.33"/>
</a>
</g>
</g>
<!-- Node14 -->
<g id="Node000014" class="node">
<title>Node14</title>
<g id="a_Node000014"><a xlink:href="../../df/d93/utils_8hpp.html" target="_top" xlink:title="utils class">
<polygon fill="white" stroke="#666666" points="283.5,-77.5 225.5,-77.5 225.5,-56.75 283.5,-56.75 283.5,-77.5"/>
<text xml:space="preserve" text-anchor="middle" x="254.5" y="-64" font-family="Helvetica,sans-Serif" font-size="10.00">utils.hpp</text>
</a>
</g>
</g>
<!-- Node9&#45;&gt;Node14 -->
<g id="edge17_Node000009_Node000014" class="edge">
<title>Node9&#45;&gt;Node14</title>
<g id="a_edge17_Node000009_Node000014"><a xlink:title=" ">
<path fill="none" stroke="#63b8ff" d="M231.72,-159.37C227.73,-146.18 224.47,-128.65 228.5,-113.5 232.05,-100.16 240.55,-86.67 246.87,-77.9"/>
<polygon fill="#63b8ff" stroke="#63b8ff" points="228.35,-160.34 234.91,-168.66 234.97,-158.06 228.35,-160.34"/>
</a>
</g>
</g>
<!-- Node12 -->
<g id="Node000012" class="node">
<title>Node12</title>
<g id="a_Node000012"><a xlink:href="../../de/d1c/LogManager_8hpp.html" target="_top" xlink:title="LogManager class.">
<polygon fill="white" stroke="#666666" points="207.62,-77.5 111.38,-77.5 111.38,-56.75 207.62,-56.75 207.62,-77.5"/>
<text xml:space="preserve" text-anchor="middle" x="159.5" y="-64" font-family="Helvetica,sans-Serif" font-size="10.00">LogManager.hpp</text>
</a>
</g>
</g>
<!-- Node11&#45;&gt;Node12 -->
<g id="edge13_Node000011_Node000012" class="edge">
<title>Node11&#45;&gt;Node12</title>
<g id="a_edge13_Node000011_Node000012"><a xlink:title=" ">
<path fill="none" stroke="#63b8ff" d="M151.48,-101.92C153.44,-93.63 155.61,-84.5 157.2,-77.83"/>
<polygon fill="#63b8ff" stroke="#63b8ff" points="148.08,-101.08 149.17,-111.61 154.89,-102.69 148.08,-101.08"/>
</a>
</g>
</g>
<!-- Node12&#45;&gt;Node13 -->
<g id="edge14_Node000012_Node000013" class="edge">
<title>Node12&#45;&gt;Node13</title>
<g id="a_edge14_Node000012_Node000013"><a xlink:title=" ">
<path fill="none" stroke="#63b8ff" d="M175.28,-47.74C182.95,-38.81 191.84,-28.45 198.17,-21.08"/>
<polygon fill="#63b8ff" stroke="#63b8ff" points="172.75,-45.32 168.89,-55.19 178.06,-49.88 172.75,-45.32"/>
</a>
</g>
</g>
<!-- Node14&#45;&gt;Node13 -->
<g id="edge18_Node000014_Node000013" class="edge">
<title>Node14&#45;&gt;Node13</title>
<g id="a_edge18_Node000014_Node000013"><a xlink:title=" ">
<path fill="none" stroke="#63b8ff" d="M238.38,-47.74C230.56,-38.81 221.47,-28.45 215.01,-21.08"/>
<polygon fill="#63b8ff" stroke="#63b8ff" points="235.7,-49.99 244.92,-55.2 240.96,-45.37 235.7,-49.99"/>
</a>
</g>
</g>
<!-- Node20&#45;&gt;Node2 -->
<g id="edge27_Node000020_Node000002" class="edge">
<title>Node20&#45;&gt;Node2</title>
<g id="a_edge27_Node000020_Node000002"><a xlink:title=" ">
<path fill="none" stroke="#63b8ff" d="M574.25,-220.76C558.33,-211.28 538.5,-199.48 524.81,-191.33"/>
<polygon fill="#63b8ff" stroke="#63b8ff" points="572.37,-223.71 582.75,-225.81 575.95,-217.69 572.37,-223.71"/>
</a>
</g>
</g>
<!-- Node20&#45;&gt;Node5 -->
<g id="edge28_Node000020_Node000005" class="edge">
<title>Node20&#45;&gt;Node5</title>
<g id="a_edge28_Node000020_Node000005"><a xlink:title=" ">
<path fill="none" stroke="#63b8ff" d="M612.9,-217.44C628.57,-193.49 654.98,-153.17 667.08,-134.68"/>
<polygon fill="#63b8ff" stroke="#63b8ff" points="610.1,-215.32 607.55,-225.6 615.96,-219.15 610.1,-215.32"/>
</a>
</g>
</g>
</g>
</svg>
