<?xml version="1.0" encoding="UTF-8" standalone="no"?>
<!DOCTYPE svg PUBLIC "-//W3C//DTD SVG 1.1//EN"
 "http://www.w3.org/Graphics/SVG/1.1/DTD/svg11.dtd">
<!-- Generated by graphviz version 14.0.1 (0)
 -->
<!-- Title: Invite.hpp Pages: 1 -->
<svg width="685pt" height="256pt"
 viewBox="0.00 0.00 685.00 256.00" xmlns="http://www.w3.org/2000/svg" xmlns:xlink="http://www.w3.org/1999/xlink">
<g id="graph0" class="graph" transform="scale(1 1) rotate(0) translate(4 251.75)">
<title>Invite.hpp</title>
<!-- Node1 -->
<g id="Node000001" class="node">
<title>Node1</title>
<g id="a_Node000001"><a xlink:title="Implements IRC INVITE command.">
<polygon fill="#999999" stroke="#666666" points="446.12,-247.75 381.38,-247.75 381.38,-227 446.12,-227 446.12,-247.75"/>
<text xml:space="preserve" text-anchor="middle" x="413.75" y="-234.25" font-family="Helvetica,sans-Serif" font-size="10.00">Invite.hpp</text>
</a>
</g>
</g>
<!-- Node2 -->
<g id="Node000002" class="node">
<title>Node2</title>
<g id="a_Node000002"><a xlink:href="../../d7/d42/Channel_8hpp.html" target="_top" xlink:title="Channel class.">
<polygon fill="white" stroke="#666666" points="240.12,-134.25 163.38,-134.25 163.38,-113.5 240.12,-113.5 240.12,-134.25"/>
<text xml:space="preserve" text-anchor="middle" x="201.75" y="-120.75" font-family="Helvetica,sans-Serif" font-size="10.00">Channel.hpp</text>
</a>
</g>
</g>
<!-- Node1&#45;&gt;Node2 -->
<g id="edge1_Node000001_Node000002" class="edge">
<title>Node1&#45;&gt;Node2</title>
<g id="a_edge1_Node000001_Node000002"><a xlink:title=" ">
<path fill="none" stroke="#63b8ff" d="M395.31,-226.68C358.27,-207.19 274.61,-163.19 230.39,-139.94"/>
<polygon fill="#63b8ff" stroke="#63b8ff" points="232.12,-136.89 221.64,-135.34 228.86,-143.09 232.12,-136.89"/>
</a>
</g>
</g>
<!-- Node8 -->
<g id="Node000008" class="node">
<title>Node8</title>
<g id="a_Node000008"><a xlink:href="../../d3/d8e/Client_8hpp.html" target="_top" xlink:title="Client class.">
<polygon fill="white" stroke="#666666" points="404.5,-191 339,-191 339,-170.25 404.5,-170.25 404.5,-191"/>
<text xml:space="preserve" text-anchor="middle" x="371.75" y="-177.5" font-family="Helvetica,sans-Serif" font-size="10.00">Client.hpp</text>
</a>
</g>
</g>
<!-- Node1&#45;&gt;Node8 -->
<g id="edge9_Node000001_Node000008" class="edge">
<title>Node1&#45;&gt;Node8</title>
<g id="a_edge9_Node000001_Node000008"><a xlink:title=" ">
<path fill="none" stroke="#63b8ff" d="M406.24,-226.59C400.63,-219.27 392.78,-209.04 385.99,-200.19"/>
<polygon fill="#63b8ff" stroke="#63b8ff" points="388.98,-198.33 380.11,-192.53 383.42,-202.59 388.98,-198.33"/>
</a>
</g>
</g>
<!-- Node13 -->
<g id="Node000013" class="node">
<title>Node13</title>
<g id="a_Node000013"><a xlink:href="../../de/dd6/ICommand_8hpp.html" target="_top" xlink:title="command interface">
<polygon fill="white" stroke="#666666" points="676.88,-191 586.62,-191 586.62,-170.25 676.88,-170.25 676.88,-191"/>
<text xml:space="preserve" text-anchor="middle" x="631.75" y="-177.5" font-family="Helvetica,sans-Serif" font-size="10.00">ICommand.hpp</text>
</a>
</g>
</g>
<!-- Node1&#45;&gt;Node13 -->
<g id="edge19_Node000001_Node000013" class="edge">
<title>Node1&#45;&gt;Node13</title>
<g id="a_edge19_Node000001_Node000013"><a xlink:title=" ">
<path fill="none" stroke="#63b8ff" d="M446.39,-228.18C482.18,-219.19 540.06,-204.65 581.62,-194.21"/>
<polygon fill="#63b8ff" stroke="#63b8ff" points="582.3,-197.65 591.15,-191.82 580.59,-190.86 582.3,-197.65"/>
</a>
</g>
</g>
<!-- Node14 -->
<g id="Node000014" class="node">
<title>Node14</title>
<g id="a_Node000014"><a xlink:href="../../de/d3d/Server_8hpp.html" target="_top" xlink:title="Server class.">
<polygon fill="white" stroke="#666666" points="510.62,-191 442.88,-191 442.88,-170.25 510.62,-170.25 510.62,-191"/>
<text xml:space="preserve" text-anchor="middle" x="476.75" y="-177.5" font-family="Helvetica,sans-Serif" font-size="10.00">Server.hpp</text>
</a>
</g>
</g>
<!-- Node1&#45;&gt;Node14 -->
<g id="edge21_Node000001_Node000014" class="edge">
<title>Node1&#45;&gt;Node14</title>
<g id="a_edge21_Node000001_Node000014"><a xlink:title=" ">
<path fill="none" stroke="#63b8ff" d="M425.01,-226.59C433.88,-218.88 446.46,-207.95 457,-198.79"/>
<polygon fill="#63b8ff" stroke="#63b8ff" points="459.19,-201.52 464.44,-192.32 454.6,-196.24 459.19,-201.52"/>
</a>
</g>
</g>
<!-- Node3 -->
<g id="Node000003" class="node">
<title>Node3</title>
<g id="a_Node000003"><a xlink:href="../../da/dcb/ReplyHandler_8hpp.html" target="_top" xlink:title="ReplyHandler class.">
<polygon fill="white" stroke="#666666" points="227.88,-77.5 125.62,-77.5 125.62,-56.75 227.88,-56.75 227.88,-77.5"/>
<text xml:space="preserve" text-anchor="middle" x="176.75" y="-64" font-family="Helvetica,sans-Serif" font-size="10.00">ReplyHandler.hpp</text>
</a>
</g>
</g>
<!-- Node2&#45;&gt;Node3 -->
<g id="edge2_Node000002_Node000003" class="edge">
<title>Node2&#45;&gt;Node3</title>
<g id="a_edge2_Node000002_Node000003"><a xlink:title=" ">
<path fill="none" stroke="#63b8ff" d="M197.28,-113.09C194.12,-106.16 189.76,-96.62 185.88,-88.11"/>
<polygon fill="#63b8ff" stroke="#63b8ff" points="189.15,-86.85 181.81,-79.21 182.78,-89.76 189.15,-86.85"/>
</a>
</g>
</g>
<!-- Node4 -->
<g id="Node000004" class="node">
<title>Node4</title>
<g id="a_Node000004"><a xlink:href="../../d8/d9c/reply__codes_8hpp.html" target="_top" xlink:title="Numerical reply codes.">
<polygon fill="white" stroke="#666666" points="95.5,-20.75 0,-20.75 0,0 95.5,0 95.5,-20.75"/>
<text xml:space="preserve" text-anchor="middle" x="47.75" y="-7.25" font-family="Helvetica,sans-Serif" font-size="10.00">reply_codes.hpp</text>
</a>
</g>
</g>
<!-- Node2&#45;&gt;Node4 -->
<g id="edge5_Node000002_Node000004" class="edge">
<title>Node2&#45;&gt;Node4</title>
<g id="a_edge5_Node000002_Node000004"><a xlink:title=" ">
<path fill="none" stroke="#63b8ff" d="M163.14,-119.53C132.94,-114.9 91.96,-103.86 66.75,-77.5 55.13,-65.35 50.54,-46.57 48.77,-32.12"/>
<polygon fill="#63b8ff" stroke="#63b8ff" points="52.27,-32 47.95,-22.33 45.3,-32.58 52.27,-32"/>
</a>
</g>
</g>
<!-- Node5 -->
<g id="Node000005" class="node">
<title>Node5</title>
<g id="a_Node000005"><a xlink:title=" ">
<polygon fill="#e0e0e0" stroke="#999999" points="334.62,-20.75 290.88,-20.75 290.88,0 334.62,0 334.62,-20.75"/>
<text xml:space="preserve" text-anchor="middle" x="312.75" y="-7.25" font-family="Helvetica,sans-Serif" font-size="10.00">string</text>
</a>
</g>
</g>
<!-- Node2&#45;&gt;Node5 -->
<g id="edge7_Node000002_Node000005" class="edge">
<title>Node2&#45;&gt;Node5</title>
<g id="a_edge7_Node000002_Node000005"><a xlink:title=" ">
<path fill="none" stroke="#63b8ff" d="M211.21,-113.37C229.8,-94.7 271.32,-52.99 295.11,-29.1"/>
<polygon fill="#63b8ff" stroke="#63b8ff" points="297.35,-31.8 301.93,-22.25 292.39,-26.87 297.35,-31.8"/>
</a>
</g>
</g>
<!-- Node6 -->
<g id="Node000006" class="node">
<title>Node6</title>
<g id="a_Node000006"><a xlink:title=" ">
<polygon fill="#e0e0e0" stroke="#999999" points="107.25,-77.5 76.25,-77.5 76.25,-56.75 107.25,-56.75 107.25,-77.5"/>
<text xml:space="preserve" text-anchor="middle" x="91.75" y="-64" font-family="Helvetica,sans-Serif" font-size="10.00">set</text>
</a>
</g>
</g>
<!-- Node2&#45;&gt;Node6 -->
<g id="edge6_Node000002_Node000006" class="edge">
<title>Node2&#45;&gt;Node6</title>
<g id="a_edge6_Node000002_Node000006"><a xlink:title=" ">
<path fill="none" stroke="#63b8ff" d="M182.08,-113.09C164.15,-104.16 137.52,-90.9 117.81,-81.1"/>
<polygon fill="#63b8ff" stroke="#63b8ff" points="119.55,-78.05 109.03,-76.73 116.43,-84.32 119.55,-78.05"/>
</a>
</g>
</g>
<!-- Node7 -->
<g id="Node000007" class="node">
<title>Node7</title>
<g id="a_Node000007"><a xlink:title=" ">
<polygon fill="#e0e0e0" stroke="#999999" points="614.12,-20.75 567.38,-20.75 567.38,0 614.12,0 614.12,-20.75"/>
<text xml:space="preserve" text-anchor="middle" x="590.75" y="-7.25" font-family="Helvetica,sans-Serif" font-size="10.00">vector</text>
</a>
</g>
</g>
<!-- Node2&#45;&gt;Node7 -->
<g id="edge8_Node000002_Node000007" class="edge">
<title>Node2&#45;&gt;Node7</title>
<g id="a_edge8_Node000002_Node000007"><a xlink:title=" ">
<path fill="none" stroke="#63b8ff" d="M226.55,-113.04C262.07,-99.2 329.68,-73.76 388.75,-56.75 446.59,-40.09 515.2,-25.81 555.74,-17.92"/>
<polygon fill="#63b8ff" stroke="#63b8ff" points="556.24,-21.39 565.4,-16.07 554.92,-14.52 556.24,-21.39"/>
</a>
</g>
</g>
<!-- Node3&#45;&gt;Node4 -->
<g id="edge3_Node000003_Node000004" class="edge">
<title>Node3&#45;&gt;Node4</title>
<g id="a_edge3_Node000003_Node000004"><a xlink:title=" ">
<path fill="none" stroke="#63b8ff" d="M153.69,-56.34C133.51,-47.77 103.95,-35.23 81.18,-25.56"/>
<polygon fill="#63b8ff" stroke="#63b8ff" points="82.58,-22.35 72.01,-21.67 79.84,-28.8 82.58,-22.35"/>
</a>
</g>
</g>
<!-- Node3&#45;&gt;Node5 -->
<g id="edge4_Node000003_Node000005" class="edge">
<title>Node3&#45;&gt;Node5</title>
<g id="a_edge4_Node000003_Node000005"><a xlink:title=" ">
<path fill="none" stroke="#63b8ff" d="M201.06,-56.34C223.06,-47.48 255.63,-34.37 279.93,-24.59"/>
<polygon fill="#63b8ff" stroke="#63b8ff" points="281.08,-27.9 289.05,-20.92 278.46,-21.41 281.08,-27.9"/>
</a>
</g>
</g>
<!-- Node8&#45;&gt;Node4 -->
<g id="edge16_Node000008_Node000004" class="edge">
<title>Node8&#45;&gt;Node4</title>
<g id="a_edge16_Node000008_Node000004"><a xlink:title=" ">
<path fill="none" stroke="#63b8ff" d="M338.56,-175.76C295.26,-170.04 217.59,-157.39 154.75,-134.25 105.34,-116.05 78.64,-122.16 50.75,-77.5 42.45,-64.22 42.14,-46.34 43.66,-32.52"/>
<polygon fill="#63b8ff" stroke="#63b8ff" points="47.11,-33.13 45.17,-22.71 40.19,-32.07 47.11,-33.13"/>
</a>
</g>
</g>
<!-- Node8&#45;&gt;Node5 -->
<g id="edge18_Node000008_Node000005" class="edge">
<title>Node8&#45;&gt;Node5</title>
<g id="a_edge18_Node000008_Node000005"><a xlink:title=" ">
<path fill="none" stroke="#63b8ff" d="M355.06,-169.81C343.23,-161.85 328.19,-149.48 320.75,-134.25 304.7,-101.39 306.53,-57.56 309.51,-32.11"/>
<polygon fill="#63b8ff" stroke="#63b8ff" points="312.95,-32.81 310.83,-22.43 306.01,-31.86 312.95,-32.81"/>
</a>
</g>
</g>
<!-- Node9 -->
<g id="Node000009" class="node">
<title>Node9</title>
<g id="a_Node000009"><a xlink:href="../../da/d81/TcpSocket_8hpp.html" target="_top" xlink:title="TcpSocket class.">
<polygon fill="white" stroke="#666666" points="414.25,-134.25 329.25,-134.25 329.25,-113.5 414.25,-113.5 414.25,-134.25"/>
<text xml:space="preserve" text-anchor="middle" x="371.75" y="-120.75" font-family="Helvetica,sans-Serif" font-size="10.00">TcpSocket.hpp</text>
</a>
</g>
</g>
<!-- Node8&#45;&gt;Node9 -->
<g id="edge10_Node000008_Node000009" class="edge">
<title>Node8&#45;&gt;Node9</title>
<g id="a_edge10_Node000008_Node000009"><a xlink:title=" ">
<path fill="none" stroke="#63b8ff" d="M371.75,-169.84C371.75,-163.22 371.75,-154.22 371.75,-146.02"/>
<polygon fill="#63b8ff" stroke="#63b8ff" points="375.25,-146.09 371.75,-136.09 368.25,-146.09 375.25,-146.09"/>
</a>
</g>
</g>
<!-- Node12 -->
<g id="Node000012" class="node">
<title>Node12</title>
<g id="a_Node000012"><a xlink:title=" ">
<polygon fill="#e0e0e0" stroke="#999999" points="469.62,-134.25 431.88,-134.25 431.88,-113.5 469.62,-113.5 469.62,-134.25"/>
<text xml:space="preserve" text-anchor="middle" x="450.75" y="-120.75" font-family="Helvetica,sans-Serif" font-size="10.00">map</text>
</a>
</g>
</g>
<!-- Node8&#45;&gt;Node12 -->
<g id="edge17_Node000008_Node000012" class="edge">
<title>Node8&#45;&gt;Node12</title>
<g id="a_edge17_Node000008_Node000012"><a xlink:title=" ">
<path fill="none" stroke="#63b8ff" d="M385.87,-169.84C397.44,-161.82 414.05,-150.31 427.57,-140.94"/>
<polygon fill="#63b8ff" stroke="#63b8ff" points="429.28,-144.01 435.5,-135.44 425.29,-138.26 429.28,-144.01"/>
</a>
</g>
</g>
<!-- Node9&#45;&gt;Node5 -->
<g id="edge15_Node000009_Node000005" class="edge">
<title>Node9&#45;&gt;Node5</title>
<g id="a_edge15_Node000009_Node000005"><a xlink:title=" ">
<path fill="none" stroke="#63b8ff" d="M366.72,-113.37C357.15,-95.27 336.12,-55.53 323.32,-31.35"/>
<polygon fill="#63b8ff" stroke="#63b8ff" points="326.41,-29.71 318.64,-22.51 320.23,-32.99 326.41,-29.71"/>
</a>
</g>
</g>
<!-- Node10 -->
<g id="Node000010" class="node">
<title>Node10</title>
<g id="a_Node000010"><a xlink:href="../../df/dd7/consts_8hpp.html" target="_top" xlink:title="constants used throughout IRC server program">
<polygon fill="white" stroke="#666666" points="594,-77.5 525.5,-77.5 525.5,-56.75 594,-56.75 594,-77.5"/>
<text xml:space="preserve" text-anchor="middle" x="559.75" y="-64" font-family="Helvetica,sans-Serif" font-size="10.00">consts.hpp</text>
</a>
</g>
</g>
<!-- Node9&#45;&gt;Node10 -->
<g id="edge11_Node000009_Node000010" class="edge">
<title>Node9&#45;&gt;Node10</title>
<g id="a_edge11_Node000009_Node000010"><a xlink:title=" ">
<path fill="none" stroke="#63b8ff" d="M405.36,-113.09C436.01,-104.16 481.51,-90.91 515.19,-81.1"/>
<polygon fill="#63b8ff" stroke="#63b8ff" points="516.04,-84.5 524.66,-78.34 514.08,-77.78 516.04,-84.5"/>
</a>
</g>
</g>
<!-- Node11 -->
<g id="Node000011" class="node">
<title>Node11</title>
<g id="a_Node000011"><a xlink:title=" ">
<polygon fill="#e0e0e0" stroke="#999999" points="469.5,-77.5 398,-77.5 398,-56.75 469.5,-56.75 469.5,-77.5"/>
<text xml:space="preserve" text-anchor="middle" x="433.75" y="-64" font-family="Helvetica,sans-Serif" font-size="10.00">netinet/in.h</text>
</a>
</g>
</g>
<!-- Node9&#45;&gt;Node11 -->
<g id="edge14_Node000009_Node000011" class="edge">
<title>Node9&#45;&gt;Node11</title>
<g id="a_edge14_Node000009_Node000011"><a xlink:title=" ">
<path fill="none" stroke="#63b8ff" d="M382.83,-113.09C391.56,-105.38 403.94,-94.45 414.31,-85.29"/>
<polygon fill="#63b8ff" stroke="#63b8ff" points="416.45,-88.07 421.63,-78.83 411.81,-82.83 416.45,-88.07"/>
</a>
</g>
</g>
<!-- Node10&#45;&gt;Node5 -->
<g id="edge12_Node000010_Node000005" class="edge">
<title>Node10&#45;&gt;Node5</title>
<g id="a_edge12_Node000010_Node000005"><a xlink:title=" ">
<path fill="none" stroke="#63b8ff" d="M525.15,-58.45C477.66,-47.93 392.86,-29.13 346.06,-18.76"/>
<polygon fill="#63b8ff" stroke="#63b8ff" points="347.02,-15.39 336.5,-16.64 345.51,-22.22 347.02,-15.39"/>
</a>
</g>
</g>
<!-- Node10&#45;&gt;Node7 -->
<g id="edge13_Node000010_Node000007" class="edge">
<title>Node10&#45;&gt;Node7</title>
<g id="a_edge13_Node000010_Node000007"><a xlink:title=" ">
<path fill="none" stroke="#63b8ff" d="M565.29,-56.34C569.26,-49.33 574.74,-39.66 579.59,-31.08"/>
<polygon fill="#63b8ff" stroke="#63b8ff" points="582.63,-32.82 584.51,-22.4 576.54,-29.37 582.63,-32.82"/>
</a>
</g>
</g>
<!-- Node13&#45;&gt;Node7 -->
<g id="edge20_Node000013_Node000007" class="edge">
<title>Node13&#45;&gt;Node7</title>
<g id="a_edge20_Node000013_Node000007"><a xlink:title=" ">
<path fill="none" stroke="#63b8ff" d="M644.17,-169.97C653.75,-161.68 666.26,-148.79 671.75,-134.25 675.01,-125.62 674.32,-122.36 671.75,-113.5 661.57,-78.45 632.06,-47.02 611.62,-28.57"/>
<polygon fill="#63b8ff" stroke="#63b8ff" points="613.96,-25.96 604.11,-22.03 609.36,-31.24 613.96,-25.96"/>
</a>
</g>
</g>
<!-- Node14&#45;&gt;Node5 -->
<g id="edge25_Node000014_Node000005" class="edge">
<title>Node14&#45;&gt;Node5</title>
<g id="a_edge25_Node000014_Node000005"><a xlink:title=" ">
<path fill="none" stroke="#63b8ff" d="M480.59,-169.77C488.7,-147.15 504.77,-90.84 478.75,-56.75 462.77,-35.81 390.04,-22.19 346.33,-15.74"/>
<polygon fill="#63b8ff" stroke="#63b8ff" points="346.99,-12.3 336.6,-14.36 346.01,-19.23 346.99,-12.3"/>
</a>
</g>
</g>
<!-- Node14&#45;&gt;Node7 -->
<g id="edge26_Node000014_Node000007" class="edge">
<title>Node14&#45;&gt;Node7</title>
<g id="a_edge26_Node000014_Node000007"><a xlink:title=" ">
<path fill="none" stroke="#63b8ff" d="M498.2,-169.81C528.1,-154.8 581.06,-123 602.75,-77.5 609.73,-62.85 605.59,-44.61 600.34,-30.99"/>
<polygon fill="#63b8ff" stroke="#63b8ff" points="603.72,-29.98 596.51,-22.22 597.31,-32.78 603.72,-29.98"/>
</a>
</g>
</g>
<!-- Node14&#45;&gt;Node9 -->
<g id="edge22_Node000014_Node000009" class="edge">
<title>Node14&#45;&gt;Node9</title>
<g id="a_edge22_Node000014_Node000009"><a xlink:title=" ">
<path fill="none" stroke="#63b8ff" d="M457.98,-169.84C442,-161.51 418.8,-149.41 400.49,-139.86"/>
<polygon fill="#63b8ff" stroke="#63b8ff" points="402.19,-136.8 391.7,-135.28 398.95,-143.01 402.19,-136.8"/>
</a>
</g>
</g>
<!-- Node14&#45;&gt;Node12 -->
<g id="edge23_Node000014_Node000012" class="edge">
<title>Node14&#45;&gt;Node12</title>
<g id="a_edge23_Node000014_Node000012"><a xlink:title=" ">
<path fill="none" stroke="#63b8ff" d="M472.1,-169.84C468.81,-162.91 464.28,-153.37 460.24,-144.86"/>
<polygon fill="#63b8ff" stroke="#63b8ff" points="463.46,-143.48 456.01,-135.95 457.14,-146.48 463.46,-143.48"/>
</a>
</g>
</g>
<!-- Node15 -->
<g id="Node000015" class="node">
<title>Node15</title>
<g id="a_Node000015"><a xlink:title=" ">
<polygon fill="#e0e0e0" stroke="#999999" points="662.25,-134.25 619.25,-134.25 619.25,-113.5 662.25,-113.5 662.25,-134.25"/>
<text xml:space="preserve" text-anchor="middle" x="640.75" y="-120.75" font-family="Helvetica,sans-Serif" font-size="10.00">poll.h</text>
</a>
</g>
</g>
<!-- Node14&#45;&gt;Node15 -->
<g id="edge24_Node000014_Node000015" class="edge">
<title>Node14&#45;&gt;Node15</title>
<g id="a_edge24_Node000014_Node000015"><a xlink:title=" ">
<path fill="none" stroke="#63b8ff" d="M506.07,-169.84C534.75,-160.26 578.33,-145.71 608.09,-135.78"/>
<polygon fill="#63b8ff" stroke="#63b8ff" points="608.95,-139.18 617.33,-132.69 606.74,-132.54 608.95,-139.18"/>
</a>
</g>
</g>
</g>
</svg>
