<?xml version="1.0" encoding="UTF-8" standalone="no"?>
<!DOCTYPE svg PUBLIC "-//W3C//DTD SVG 1.1//EN"
 "http://www.w3.org/Graphics/SVG/1.1/DTD/svg11.dtd">
<!-- Generated by graphviz version 14.0.1 (0)
 -->
<!-- Title: Invite.hpp Pages: 1 -->
<svg width="1000pt" height="426pt"
 viewBox="0.00 0.00 1000.00 426.00" xmlns="http://www.w3.org/2000/svg" xmlns:xlink="http://www.w3.org/1999/xlink">
<g id="graph0" class="graph" transform="scale(1 1) rotate(0) translate(4 422)">
<title>Invite.hpp</title>
<!-- Node1 -->
<g id="Node000001" class="node">
<title>Node1</title>
<g id="a_Node000001"><a xlink:title="Implements IRC INVITE command.">
<polygon fill="#999999" stroke="#666666" points="411.5,-418 346.75,-418 346.75,-397.25 411.5,-397.25 411.5,-418"/>
<text xml:space="preserve" text-anchor="middle" x="379.12" y="-404.5" font-family="Helvetica,sans-Serif" font-size="10.00">Invite.hpp</text>
</a>
</g>
</g>
<!-- Node2 -->
<g id="Node000002" class="node">
<title>Node2</title>
<g id="a_Node000002"><a xlink:href="../../d7/d42/Channel_8hpp.html" target="_top" xlink:title=" ">
<polygon fill="white" stroke="#666666" points="812.5,-361.25 735.75,-361.25 735.75,-340.5 812.5,-340.5 812.5,-361.25"/>
<text xml:space="preserve" text-anchor="middle" x="774.12" y="-347.75" font-family="Helvetica,sans-Serif" font-size="10.00">Channel.hpp</text>
</a>
</g>
</g>
<!-- Node1&#45;&gt;Node2 -->
<g id="edge1_Node000001_Node000002" class="edge">
<title>Node1&#45;&gt;Node2</title>
<g id="a_edge1_Node000001_Node000002"><a xlink:title=" ">
<path fill="none" stroke="#63b8ff" d="M411.79,-402.1C480.83,-392.53 641.98,-370.19 724.1,-358.81"/>
<polygon fill="#63b8ff" stroke="#63b8ff" points="724.46,-362.29 733.89,-357.45 723.5,-355.36 724.46,-362.29"/>
</a>
</g>
</g>
<!-- Node5 -->
<g id="Node000005" class="node">
<title>Node5</title>
<g id="a_Node000005"><a xlink:href="../../d3/d8e/Client_8hpp.html" target="_top" xlink:title=" ">
<polygon fill="white" stroke="#666666" points="411.88,-191 346.38,-191 346.38,-170.25 411.88,-170.25 411.88,-191"/>
<text xml:space="preserve" text-anchor="middle" x="379.12" y="-177.5" font-family="Helvetica,sans-Serif" font-size="10.00">Client.hpp</text>
</a>
</g>
</g>
<!-- Node1&#45;&gt;Node5 -->
<g id="edge27_Node000001_Node000005" class="edge">
<title>Node1&#45;&gt;Node5</title>
<g id="a_edge27_Node000001_Node000005"><a xlink:title=" ">
<path fill="none" stroke="#63b8ff" d="M379.12,-396.96C379.12,-363.2 379.12,-250.09 379.12,-202.75"/>
<polygon fill="#63b8ff" stroke="#63b8ff" points="382.63,-202.77 379.13,-192.77 375.63,-202.77 382.63,-202.77"/>
</a>
</g>
</g>
<!-- Node11 -->
<g id="Node000011" class="node">
<title>Node11</title>
<g id="a_Node000011"><a xlink:href="../../d8/d9c/reply__codes_8hpp.html" target="_top" xlink:title=" ">
<polygon fill="white" stroke="#666666" points="793.88,-134.25 698.38,-134.25 698.38,-113.5 793.88,-113.5 793.88,-134.25"/>
<text xml:space="preserve" text-anchor="middle" x="746.12" y="-120.75" font-family="Helvetica,sans-Serif" font-size="10.00">reply_codes.hpp</text>
</a>
</g>
</g>
<!-- Node1&#45;&gt;Node11 -->
<g id="edge36_Node000001_Node000011" class="edge">
<title>Node1&#45;&gt;Node11</title>
<g id="a_edge36_Node000001_Node000011"><a xlink:title=" ">
<path fill="none" stroke="#63b8ff" d="M403.87,-396.9C464.97,-371.74 624.77,-298.86 717.12,-191 728.48,-177.74 736.06,-159.35 740.61,-145.33"/>
<polygon fill="#63b8ff" stroke="#63b8ff" points="743.94,-146.4 743.43,-135.82 737.23,-144.41 743.94,-146.4"/>
</a>
</g>
</g>
<!-- Node18 -->
<g id="Node000018" class="node">
<title>Node18</title>
<g id="a_Node000018"><a xlink:href="../../de/dd6/ICommand_8hpp.html" target="_top" xlink:title="command interface">
<polygon fill="white" stroke="#666666" points="90.25,-247.75 0,-247.75 0,-227 90.25,-227 90.25,-247.75"/>
<text xml:space="preserve" text-anchor="middle" x="45.12" y="-234.25" font-family="Helvetica,sans-Serif" font-size="10.00">ICommand.hpp</text>
</a>
</g>
</g>
<!-- Node1&#45;&gt;Node18 -->
<g id="edge28_Node000001_Node000018" class="edge">
<title>Node1&#45;&gt;Node18</title>
<g id="a_edge28_Node000001_Node000018"><a xlink:title=" ">
<path fill="none" stroke="#63b8ff" d="M346.65,-404.97C282.39,-401.12 141.97,-389.62 104.12,-361.25 70.63,-336.14 55.25,-287.06 48.95,-259.12"/>
<polygon fill="#63b8ff" stroke="#63b8ff" points="52.4,-258.52 46.96,-249.42 45.54,-259.92 52.4,-258.52"/>
</a>
</g>
</g>
<!-- Node19 -->
<g id="Node000019" class="node">
<title>Node19</title>
<g id="a_Node000019"><a xlink:href="../../de/d3d/Server_8hpp.html" target="_top" xlink:title="Server class.">
<polygon fill="white" stroke="#666666" points="260,-191 192.25,-191 192.25,-170.25 260,-170.25 260,-191"/>
<text xml:space="preserve" text-anchor="middle" x="226.12" y="-177.5" font-family="Helvetica,sans-Serif" font-size="10.00">Server.hpp</text>
</a>
</g>
</g>
<!-- Node1&#45;&gt;Node19 -->
<g id="edge30_Node000001_Node000019" class="edge">
<title>Node1&#45;&gt;Node19</title>
<g id="a_edge30_Node000001_Node000019"><a xlink:title=" ">
<path fill="none" stroke="#63b8ff" d="M372.55,-396.96C349.26,-362.7 270.37,-246.69 239.07,-200.67"/>
<polygon fill="#63b8ff" stroke="#63b8ff" points="242.04,-198.81 233.53,-192.51 236.25,-202.75 242.04,-198.81"/>
</a>
</g>
</g>
<!-- Node3 -->
<g id="Node000003" class="node">
<title>Node3</title>
<g id="a_Node000003"><a xlink:href="../../de/d1c/LogManager_8hpp.html" target="_top" xlink:title=" ">
<polygon fill="white" stroke="#666666" points="746.25,-304.5 650,-304.5 650,-283.75 746.25,-283.75 746.25,-304.5"/>
<text xml:space="preserve" text-anchor="middle" x="698.12" y="-291" font-family="Helvetica,sans-Serif" font-size="10.00">LogManager.hpp</text>
</a>
</g>
</g>
<!-- Node2&#45;&gt;Node3 -->
<g id="edge2_Node000002_Node000003" class="edge">
<title>Node2&#45;&gt;Node3</title>
<g id="a_edge2_Node000002_Node000003"><a xlink:title=" ">
<path fill="none" stroke="#63b8ff" d="M760.54,-340.09C749.51,-332.15 733.74,-320.78 720.8,-311.46"/>
<polygon fill="#63b8ff" stroke="#63b8ff" points="722.98,-308.72 712.82,-305.71 718.89,-314.4 722.98,-308.72"/>
</a>
</g>
</g>
<!-- Node8 -->
<g id="Node000008" class="node">
<title>Node8</title>
<g id="a_Node000008"><a xlink:title=" ">
<polygon fill="#e0e0e0" stroke="#999999" points="471,-20.75 427.25,-20.75 427.25,0 471,0 471,-20.75"/>
<text xml:space="preserve" text-anchor="middle" x="449.12" y="-7.25" font-family="Helvetica,sans-Serif" font-size="10.00">string</text>
</a>
</g>
</g>
<!-- Node2&#45;&gt;Node8 -->
<g id="edge25_Node000002_Node000008" class="edge">
<title>Node2&#45;&gt;Node8</title>
<g id="a_edge25_Node000002_Node000008"><a xlink:title=" ">
<path fill="none" stroke="#63b8ff" d="M812.78,-340.75C859.55,-327.13 932.12,-296.62 932.12,-238.38 932.12,-238.38 932.12,-238.38 932.12,-122.88 932.12,-30.49 592.39,-14.64 482.78,-11.93"/>
<polygon fill="#63b8ff" stroke="#63b8ff" points="483.04,-8.44 472.97,-11.71 482.89,-15.43 483.04,-8.44"/>
</a>
</g>
</g>
<!-- Node9 -->
<g id="Node000009" class="node">
<title>Node9</title>
<g id="a_Node000009"><a xlink:title=" ">
<polygon fill="#e0e0e0" stroke="#999999" points="144.5,-20.75 97.75,-20.75 97.75,0 144.5,0 144.5,-20.75"/>
<text xml:space="preserve" text-anchor="middle" x="121.12" y="-7.25" font-family="Helvetica,sans-Serif" font-size="10.00">vector</text>
</a>
</g>
</g>
<!-- Node2&#45;&gt;Node9 -->
<g id="edge26_Node000002_Node000009" class="edge">
<title>Node2&#45;&gt;Node9</title>
<g id="a_edge26_Node000002_Node000009"><a xlink:title=" ">
<path fill="none" stroke="#63b8ff" d="M735.54,-344.28C638.83,-329.26 379.75,-282.82 183.12,-191 143.3,-172.4 122.42,-173.24 102.12,-134.25 84.84,-101.04 99.7,-56.43 111.08,-31.11"/>
<polygon fill="#63b8ff" stroke="#63b8ff" points="114.13,-32.84 115.28,-22.31 107.81,-29.82 114.13,-32.84"/>
</a>
</g>
</g>
<!-- Node2&#45;&gt;Node11 -->
<g id="edge23_Node000002_Node000011" class="edge">
<title>Node2&#45;&gt;Node11</title>
<g id="a_edge23_Node000002_Node000011"><a xlink:title=" ">
<path fill="none" stroke="#63b8ff" d="M772.92,-340.21C768.71,-306.38 754.59,-192.86 748.72,-145.69"/>
<polygon fill="#63b8ff" stroke="#63b8ff" points="752.22,-145.5 747.51,-136.01 745.27,-146.36 752.22,-145.5"/>
</a>
</g>
</g>
<!-- Node16 -->
<g id="Node000016" class="node">
<title>Node16</title>
<g id="a_Node000016"><a xlink:href="../../da/dcb/ReplyHandler_8hpp.html" target="_top" xlink:title=" ">
<polygon fill="white" stroke="#666666" points="904.25,-191 802,-191 802,-170.25 904.25,-170.25 904.25,-191"/>
<text xml:space="preserve" text-anchor="middle" x="853.12" y="-177.5" font-family="Helvetica,sans-Serif" font-size="10.00">ReplyHandler.hpp</text>
</a>
</g>
</g>
<!-- Node2&#45;&gt;Node16 -->
<g id="edge20_Node000002_Node000016" class="edge">
<title>Node2&#45;&gt;Node16</title>
<g id="a_edge20_Node000002_Node000016"><a xlink:title=" ">
<path fill="none" stroke="#63b8ff" d="M778.6,-340.35C791.09,-313.75 826.53,-238.27 843.64,-201.82"/>
<polygon fill="#63b8ff" stroke="#63b8ff" points="846.78,-203.38 847.86,-192.84 840.44,-200.4 846.78,-203.38"/>
</a>
</g>
</g>
<!-- Node17 -->
<g id="Node000017" class="node">
<title>Node17</title>
<g id="a_Node000017"><a xlink:title=" ">
<polygon fill="#e0e0e0" stroke="#999999" points="991.62,-304.5 960.62,-304.5 960.62,-283.75 991.62,-283.75 991.62,-304.5"/>
<text xml:space="preserve" text-anchor="middle" x="976.12" y="-291" font-family="Helvetica,sans-Serif" font-size="10.00">set</text>
</a>
</g>
</g>
<!-- Node2&#45;&gt;Node17 -->
<g id="edge24_Node000002_Node000017" class="edge">
<title>Node2&#45;&gt;Node17</title>
<g id="a_edge24_Node000002_Node000017"><a xlink:title=" ">
<path fill="none" stroke="#63b8ff" d="M812.86,-340.19C847.81,-331.32 900.57,-317.62 946.12,-304.5 947.28,-304.17 948.46,-303.82 949.64,-303.47"/>
<polygon fill="#63b8ff" stroke="#63b8ff" points="950.3,-306.93 958.84,-300.66 948.25,-300.24 950.3,-306.93"/>
</a>
</g>
</g>
<!-- Node4 -->
<g id="Node000004" class="node">
<title>Node4</title>
<g id="a_Node000004"><a xlink:href="../../d9/d11/Logger_8hpp.html" target="_top" xlink:title=" ">
<polygon fill="white" stroke="#666666" points="568.75,-247.75 499.5,-247.75 499.5,-227 568.75,-227 568.75,-247.75"/>
<text xml:space="preserve" text-anchor="middle" x="534.12" y="-234.25" font-family="Helvetica,sans-Serif" font-size="10.00">Logger.hpp</text>
</a>
</g>
</g>
<!-- Node3&#45;&gt;Node4 -->
<g id="edge3_Node000003_Node000004" class="edge">
<title>Node3&#45;&gt;Node4</title>
<g id="a_edge3_Node000003_Node000004"><a xlink:title=" ">
<path fill="none" stroke="#63b8ff" d="M668.81,-283.34C642.42,-274.53 603.41,-261.5 574.15,-251.74"/>
<polygon fill="#63b8ff" stroke="#63b8ff" points="575.5,-248.5 564.9,-248.65 573.28,-255.14 575.5,-248.5"/>
</a>
</g>
</g>
<!-- Node4&#45;&gt;Node5 -->
<g id="edge4_Node000004_Node000005" class="edge">
<title>Node4&#45;&gt;Node5</title>
<g id="a_edge4_Node000004_Node000005"><a xlink:title=" ">
<path fill="none" stroke="#63b8ff" d="M506.41,-226.59C481.69,-217.86 445.25,-204.98 417.69,-195.25"/>
<polygon fill="#63b8ff" stroke="#63b8ff" points="418.88,-191.96 408.28,-191.92 416.55,-198.56 418.88,-191.96"/>
</a>
</g>
</g>
<!-- Node4&#45;&gt;Node8 -->
<g id="edge19_Node000004_Node000008" class="edge">
<title>Node4&#45;&gt;Node8</title>
<g id="a_edge19_Node000004_Node000008"><a xlink:title=" ">
<path fill="none" stroke="#63b8ff" d="M524.25,-226.8C515.88,-218.17 504.16,-204.76 497.12,-191 469.77,-137.5 456.82,-66.84 451.79,-32.25"/>
<polygon fill="#63b8ff" stroke="#63b8ff" points="455.31,-32.17 450.48,-22.74 448.37,-33.12 455.31,-32.17"/>
</a>
</g>
</g>
<!-- Node12 -->
<g id="Node000012" class="node">
<title>Node12</title>
<g id="a_Node000012"><a xlink:title=" ">
<polygon fill="#e0e0e0" stroke="#999999" points="459,-134.25 421.25,-134.25 421.25,-113.5 459,-113.5 459,-134.25"/>
<text xml:space="preserve" text-anchor="middle" x="440.12" y="-120.75" font-family="Helvetica,sans-Serif" font-size="10.00">map</text>
</a>
</g>
</g>
<!-- Node4&#45;&gt;Node12 -->
<g id="edge17_Node000004_Node000012" class="edge">
<title>Node4&#45;&gt;Node12</title>
<g id="a_edge17_Node000004_Node000012"><a xlink:title=" ">
<path fill="none" stroke="#63b8ff" d="M511.81,-226.64C496.5,-218.95 476.75,-206.87 464.12,-191 453.54,-177.69 447.37,-159.3 443.94,-145.29"/>
<polygon fill="#63b8ff" stroke="#63b8ff" points="447.43,-144.87 441.91,-135.83 440.59,-146.34 447.43,-144.87"/>
</a>
</g>
</g>
<!-- Node13 -->
<g id="Node000013" class="node">
<title>Node13</title>
<g id="a_Node000013"><a xlink:title=" ">
<polygon fill="#e0e0e0" stroke="#999999" points="634.25,-191 580,-191 580,-170.25 634.25,-170.25 634.25,-191"/>
<text xml:space="preserve" text-anchor="middle" x="607.12" y="-177.5" font-family="Helvetica,sans-Serif" font-size="10.00">fstream</text>
</a>
</g>
</g>
<!-- Node4&#45;&gt;Node13 -->
<g id="edge15_Node000004_Node000013" class="edge">
<title>Node4&#45;&gt;Node13</title>
<g id="a_edge15_Node000004_Node000013"><a xlink:title=" ">
<path fill="none" stroke="#63b8ff" d="M547.18,-226.59C557.76,-218.65 572.92,-207.28 585.34,-197.96"/>
<polygon fill="#63b8ff" stroke="#63b8ff" points="587.08,-201.04 592.98,-192.24 582.88,-195.44 587.08,-201.04"/>
</a>
</g>
</g>
<!-- Node14 -->
<g id="Node000014" class="node">
<title>Node14</title>
<g id="a_Node000014"><a xlink:title=" ">
<polygon fill="#e0e0e0" stroke="#999999" points="708,-191 652.25,-191 652.25,-170.25 708,-170.25 708,-191"/>
<text xml:space="preserve" text-anchor="middle" x="680.12" y="-177.5" font-family="Helvetica,sans-Serif" font-size="10.00">iomanip</text>
</a>
</g>
</g>
<!-- Node4&#45;&gt;Node14 -->
<g id="edge16_Node000004_Node000014" class="edge">
<title>Node4&#45;&gt;Node14</title>
<g id="a_edge16_Node000004_Node000014"><a xlink:title=" ">
<path fill="none" stroke="#63b8ff" d="M560.23,-226.59C583.48,-217.87 617.74,-205.02 643.69,-195.29"/>
<polygon fill="#63b8ff" stroke="#63b8ff" points="644.7,-198.65 652.83,-191.86 642.24,-192.09 644.7,-198.65"/>
</a>
</g>
</g>
<!-- Node15 -->
<g id="Node000015" class="node">
<title>Node15</title>
<g id="a_Node000015"><a xlink:title=" ">
<polygon fill="#e0e0e0" stroke="#999999" points="562,-191 506.25,-191 506.25,-170.25 562,-170.25 562,-191"/>
<text xml:space="preserve" text-anchor="middle" x="534.12" y="-177.5" font-family="Helvetica,sans-Serif" font-size="10.00">sstream</text>
</a>
</g>
</g>
<!-- Node4&#45;&gt;Node15 -->
<g id="edge18_Node000004_Node000015" class="edge">
<title>Node4&#45;&gt;Node15</title>
<g id="a_edge18_Node000004_Node000015"><a xlink:title=" ">
<path fill="none" stroke="#63b8ff" d="M534.12,-226.59C534.12,-219.97 534.12,-210.97 534.12,-202.77"/>
<polygon fill="#63b8ff" stroke="#63b8ff" points="537.63,-202.84 534.13,-192.84 530.63,-202.84 537.63,-202.84"/>
</a>
</g>
</g>
<!-- Node6 -->
<g id="Node000006" class="node">
<title>Node6</title>
<g id="a_Node000006"><a xlink:href="../../da/d81/TcpSocket_8hpp.html" target="_top" xlink:title=" ">
<polygon fill="white" stroke="#666666" points="311.62,-134.25 226.62,-134.25 226.62,-113.5 311.62,-113.5 311.62,-134.25"/>
<text xml:space="preserve" text-anchor="middle" x="269.12" y="-120.75" font-family="Helvetica,sans-Serif" font-size="10.00">TcpSocket.hpp</text>
</a>
</g>
</g>
<!-- Node5&#45;&gt;Node6 -->
<g id="edge5_Node000005_Node000006" class="edge">
<title>Node5&#45;&gt;Node6</title>
<g id="a_edge5_Node000005_Node000006"><a xlink:title=" ">
<path fill="none" stroke="#63b8ff" d="M359.46,-169.84C342.57,-161.43 317.96,-149.18 298.69,-139.59"/>
<polygon fill="#63b8ff" stroke="#63b8ff" points="300.49,-136.58 289.98,-135.25 297.37,-142.84 300.49,-136.58"/>
</a>
</g>
</g>
<!-- Node5&#45;&gt;Node8 -->
<g id="edge14_Node000005_Node000008" class="edge">
<title>Node5&#45;&gt;Node8</title>
<g id="a_edge14_Node000005_Node000008"><a xlink:title=" ">
<path fill="none" stroke="#63b8ff" d="M383.81,-169.87C392.42,-151.82 411.15,-111.91 425.12,-77.5 431.32,-62.25 437.64,-44.74 442.24,-31.56"/>
<polygon fill="#63b8ff" stroke="#63b8ff" points="445.48,-32.9 445.43,-22.31 438.86,-30.62 445.48,-32.9"/>
</a>
</g>
</g>
<!-- Node5&#45;&gt;Node11 -->
<g id="edge12_Node000005_Node000011" class="edge">
<title>Node5&#45;&gt;Node11</title>
<g id="a_edge12_Node000005_Node000011"><a xlink:title=" ">
<path fill="none" stroke="#63b8ff" d="M412.34,-174.67C474.48,-165.4 609.06,-145.32 687.02,-133.69"/>
<polygon fill="#63b8ff" stroke="#63b8ff" points="687.23,-137.2 696.6,-132.26 686.2,-130.28 687.23,-137.2"/>
</a>
</g>
</g>
<!-- Node5&#45;&gt;Node12 -->
<g id="edge13_Node000005_Node000012" class="edge">
<title>Node5&#45;&gt;Node12</title>
<g id="a_edge13_Node000005_Node000012"><a xlink:title=" ">
<path fill="none" stroke="#63b8ff" d="M390.03,-169.84C398.62,-162.13 410.8,-151.2 421,-142.04"/>
<polygon fill="#63b8ff" stroke="#63b8ff" points="423.08,-144.87 428.19,-135.59 418.41,-139.66 423.08,-144.87"/>
</a>
</g>
</g>
<!-- Node7 -->
<g id="Node000007" class="node">
<title>Node7</title>
<g id="a_Node000007"><a xlink:href="../../df/dd7/consts_8hpp.html" target="_top" xlink:title=" ">
<polygon fill="white" stroke="#666666" points="255.38,-77.5 186.88,-77.5 186.88,-56.75 255.38,-56.75 255.38,-77.5"/>
<text xml:space="preserve" text-anchor="middle" x="221.12" y="-64" font-family="Helvetica,sans-Serif" font-size="10.00">consts.hpp</text>
</a>
</g>
</g>
<!-- Node6&#45;&gt;Node7 -->
<g id="edge6_Node000006_Node000007" class="edge">
<title>Node6&#45;&gt;Node7</title>
<g id="a_edge6_Node000006_Node000007"><a xlink:title=" ">
<path fill="none" stroke="#63b8ff" d="M260.54,-113.09C254.06,-105.69 244.97,-95.32 237.15,-86.41"/>
<polygon fill="#63b8ff" stroke="#63b8ff" points="239.85,-84.18 230.63,-78.97 234.59,-88.79 239.85,-84.18"/>
</a>
</g>
</g>
<!-- Node6&#45;&gt;Node8 -->
<g id="edge10_Node000006_Node000008" class="edge">
<title>Node6&#45;&gt;Node8</title>
<g id="a_edge10_Node000006_Node000008"><a xlink:title=" ">
<path fill="none" stroke="#63b8ff" d="M289.07,-113.07C306.54,-104.28 332.44,-90.77 354.12,-77.5 379.84,-61.76 408.04,-41.76 426.99,-27.89"/>
<polygon fill="#63b8ff" stroke="#63b8ff" points="429.05,-30.73 435.02,-21.97 424.89,-25.09 429.05,-30.73"/>
</a>
</g>
</g>
<!-- Node6&#45;&gt;Node9 -->
<g id="edge11_Node000006_Node000009" class="edge">
<title>Node6&#45;&gt;Node9</title>
<g id="a_edge11_Node000006_Node000009"><a xlink:title=" ">
<path fill="none" stroke="#63b8ff" d="M242.83,-113.05C223.75,-105.17 197.91,-92.89 178.12,-77.5 160.63,-63.89 144.52,-44.25 133.92,-29.91"/>
<polygon fill="#63b8ff" stroke="#63b8ff" points="137.07,-28.29 128.4,-22.2 131.38,-32.37 137.07,-28.29"/>
</a>
</g>
</g>
<!-- Node10 -->
<g id="Node000010" class="node">
<title>Node10</title>
<g id="a_Node000010"><a xlink:title=" ">
<polygon fill="#e0e0e0" stroke="#999999" points="344.88,-77.5 273.38,-77.5 273.38,-56.75 344.88,-56.75 344.88,-77.5"/>
<text xml:space="preserve" text-anchor="middle" x="309.12" y="-64" font-family="Helvetica,sans-Serif" font-size="10.00">netinet/in.h</text>
</a>
</g>
</g>
<!-- Node6&#45;&gt;Node10 -->
<g id="edge9_Node000006_Node000010" class="edge">
<title>Node6&#45;&gt;Node10</title>
<g id="a_edge9_Node000006_Node000010"><a xlink:title=" ">
<path fill="none" stroke="#63b8ff" d="M276.28,-113.09C281.57,-105.85 288.94,-95.76 295.35,-86.97"/>
<polygon fill="#63b8ff" stroke="#63b8ff" points="298.07,-89.19 301.14,-79.05 292.42,-85.06 298.07,-89.19"/>
</a>
</g>
</g>
<!-- Node7&#45;&gt;Node8 -->
<g id="edge7_Node000007_Node000008" class="edge">
<title>Node7&#45;&gt;Node8</title>
<g id="a_edge7_Node000007_Node000008"><a xlink:title=" ">
<path fill="none" stroke="#63b8ff" d="M255.75,-57.81C299.14,-47.39 372.97,-29.66 415.75,-19.39"/>
<polygon fill="#63b8ff" stroke="#63b8ff" points="416.57,-22.79 425.48,-17.05 414.93,-15.99 416.57,-22.79"/>
</a>
</g>
</g>
<!-- Node7&#45;&gt;Node9 -->
<g id="edge8_Node000007_Node000009" class="edge">
<title>Node7&#45;&gt;Node9</title>
<g id="a_edge8_Node000007_Node000009"><a xlink:title=" ">
<path fill="none" stroke="#63b8ff" d="M203.25,-56.34C188.03,-48.01 165.93,-35.91 148.49,-26.36"/>
<polygon fill="#63b8ff" stroke="#63b8ff" points="150.63,-23.54 140.18,-21.81 147.27,-29.68 150.63,-23.54"/>
</a>
</g>
</g>
<!-- Node16&#45;&gt;Node8 -->
<g id="edge22_Node000016_Node000008" class="edge">
<title>Node16&#45;&gt;Node8</title>
<g id="a_edge22_Node000016_Node000008"><a xlink:title=" ">
<path fill="none" stroke="#63b8ff" d="M848.42,-169.96C840.88,-155.5 824.71,-128.34 803.12,-113.5 700.4,-42.9 548.94,-20.61 482.47,-13.99"/>
<polygon fill="#63b8ff" stroke="#63b8ff" points="482.86,-10.51 472.58,-13.07 482.21,-17.48 482.86,-10.51"/>
</a>
</g>
</g>
<!-- Node16&#45;&gt;Node11 -->
<g id="edge21_Node000016_Node000011" class="edge">
<title>Node16&#45;&gt;Node11</title>
<g id="a_edge21_Node000016_Node000011"><a xlink:title=" ">
<path fill="none" stroke="#63b8ff" d="M834,-169.84C817.64,-161.47 793.85,-149.29 775.15,-139.72"/>
<polygon fill="#63b8ff" stroke="#63b8ff" points="776.93,-136.71 766.44,-135.27 773.74,-142.94 776.93,-136.71"/>
</a>
</g>
</g>
<!-- Node18&#45;&gt;Node9 -->
<g id="edge29_Node000018_Node000009" class="edge">
<title>Node18&#45;&gt;Node9</title>
<g id="a_edge29_Node000018_Node000009"><a xlink:title=" ">
<path fill="none" stroke="#63b8ff" d="M44.14,-226.7C41.74,-198.54 37.85,-114.95 69.12,-56.75 75.31,-45.23 85.68,-35.29 95.53,-27.67"/>
<polygon fill="#63b8ff" stroke="#63b8ff" points="97.36,-30.67 103.44,-21.99 93.27,-24.98 97.36,-30.67"/>
</a>
</g>
</g>
<!-- Node19&#45;&gt;Node6 -->
<g id="edge31_Node000019_Node000006" class="edge">
<title>Node19&#45;&gt;Node6</title>
<g id="a_edge31_Node000019_Node000006"><a xlink:title=" ">
<path fill="none" stroke="#63b8ff" d="M233.81,-169.84C239.56,-162.52 247.59,-152.29 254.54,-143.44"/>
<polygon fill="#63b8ff" stroke="#63b8ff" points="257.15,-145.8 260.57,-135.77 251.64,-141.47 257.15,-145.8"/>
</a>
</g>
</g>
<!-- Node19&#45;&gt;Node8 -->
<g id="edge34_Node000019_Node000008" class="edge">
<title>Node19&#45;&gt;Node8</title>
<g id="a_edge34_Node000019_Node000008"><a xlink:title=" ">
<path fill="none" stroke="#63b8ff" d="M251.83,-169.79C271.59,-161.66 299.15,-149.07 321.12,-134.25 366.84,-103.41 411.21,-55.62 433.76,-29.66"/>
<polygon fill="#63b8ff" stroke="#63b8ff" points="436.22,-32.18 440.06,-22.31 430.9,-27.63 436.22,-32.18"/>
</a>
</g>
</g>
<!-- Node19&#45;&gt;Node9 -->
<g id="edge35_Node000019_Node000009" class="edge">
<title>Node19&#45;&gt;Node9</title>
<g id="a_edge35_Node000019_Node000009"><a xlink:title=" ">
<path fill="none" stroke="#63b8ff" d="M218.28,-169.86C204.23,-152.12 174.26,-113.11 153.12,-77.5 144.26,-62.57 135.78,-44.82 129.77,-31.47"/>
<polygon fill="#63b8ff" stroke="#63b8ff" points="133.03,-30.18 125.8,-22.44 126.62,-33 133.03,-30.18"/>
</a>
</g>
</g>
<!-- Node19&#45;&gt;Node12 -->
<g id="edge32_Node000019_Node000012" class="edge">
<title>Node19&#45;&gt;Node12</title>
<g id="a_edge32_Node000019_Node000012"><a xlink:title=" ">
<path fill="none" stroke="#63b8ff" d="M260.03,-170.95C301.24,-160.41 370.16,-142.78 409.72,-132.65"/>
<polygon fill="#63b8ff" stroke="#63b8ff" points="410.47,-136.08 419.29,-130.21 408.73,-129.29 410.47,-136.08"/>
</a>
</g>
</g>
<!-- Node20 -->
<g id="Node000020" class="node">
<title>Node20</title>
<g id="a_Node000020"><a xlink:title=" ">
<polygon fill="#e0e0e0" stroke="#999999" points="154.62,-134.25 111.62,-134.25 111.62,-113.5 154.62,-113.5 154.62,-134.25"/>
<text xml:space="preserve" text-anchor="middle" x="133.12" y="-120.75" font-family="Helvetica,sans-Serif" font-size="10.00">poll.h</text>
</a>
</g>
</g>
<!-- Node19&#45;&gt;Node20 -->
<g id="edge33_Node000019_Node000020" class="edge">
<title>Node19&#45;&gt;Node20</title>
<g id="a_edge33_Node000019_Node000020"><a xlink:title=" ">
<path fill="none" stroke="#63b8ff" d="M209.5,-169.84C195.61,-161.66 175.56,-149.86 159.49,-140.4"/>
<polygon fill="#63b8ff" stroke="#63b8ff" points="161.31,-137.4 150.91,-135.35 157.75,-143.44 161.31,-137.4"/>
</a>
</g>
</g>
</g>
</svg>
