<?xml version="1.0" encoding="UTF-8" standalone="no"?>
<!DOCTYPE svg PUBLIC "-//W3C//DTD SVG 1.1//EN"
 "http://www.w3.org/Graphics/SVG/1.1/DTD/svg11.dtd">
<!-- Generated by graphviz version 14.0.1 (0)
 -->
<!-- Title: Privmsg.hpp Pages: 1 -->
<svg width="337pt" height="199pt"
 viewBox="0.00 0.00 337.00 199.00" xmlns="http://www.w3.org/2000/svg" xmlns:xlink="http://www.w3.org/1999/xlink">
<g id="graph0" class="graph" transform="scale(1 1) rotate(0) translate(4 195)">
<title>Privmsg.hpp</title>
<!-- Node1 -->
<g id="Node000001" class="node">
<title>Node1</title>
<g id="a_Node000001"><a xlink:title="Implements IRC PRIVMSG command.">
<polygon fill="#999999" stroke="#666666" points="310.12,-191 233.38,-191 233.38,-170.25 310.12,-170.25 310.12,-191"/>
<text xml:space="preserve" text-anchor="middle" x="271.75" y="-177.5" font-family="Helvetica,sans-Serif" font-size="10.00">Privmsg.hpp</text>
</a>
</g>
</g>
<!-- Node2 -->
<g id="Node000002" class="node">
<title>Node2</title>
<g id="a_Node000002"><a xlink:href="../../d7/d42/Channel_8hpp.html" target="_top" xlink:title="Channel class.">
<polygon fill="white" stroke="#666666" points="208.12,-134.25 131.38,-134.25 131.38,-113.5 208.12,-113.5 208.12,-134.25"/>
<text xml:space="preserve" text-anchor="middle" x="169.75" y="-120.75" font-family="Helvetica,sans-Serif" font-size="10.00">Channel.hpp</text>
</a>
</g>
</g>
<!-- Node1&#45;&gt;Node2 -->
<g id="edge1_Node000001_Node000002" class="edge">
<title>Node1&#45;&gt;Node2</title>
<g id="a_edge1_Node000001_Node000002"><a xlink:title=" ">
<path fill="none" stroke="#63b8ff" d="M253.51,-169.84C238.07,-161.55 215.66,-149.52 197.91,-139.99"/>
<polygon fill="#63b8ff" stroke="#63b8ff" points="199.63,-136.94 189.16,-135.29 196.32,-143.11 199.63,-136.94"/>
</a>
</g>
</g>
<!-- Node5 -->
<g id="Node000005" class="node">
<title>Node5</title>
<g id="a_Node000005"><a xlink:title=" ">
<polygon fill="#e0e0e0" stroke="#999999" points="192.62,-20.75 148.88,-20.75 148.88,0 192.62,0 192.62,-20.75"/>
<text xml:space="preserve" text-anchor="middle" x="170.75" y="-7.25" font-family="Helvetica,sans-Serif" font-size="10.00">string</text>
</a>
</g>
</g>
<!-- Node1&#45;&gt;Node5 -->
<g id="edge11_Node000001_Node000005" class="edge">
<title>Node1&#45;&gt;Node5</title>
<g id="a_edge11_Node000001_Node000005"><a xlink:title=" ">
<path fill="none" stroke="#63b8ff" d="M290.24,-169.86C302.82,-162.08 318.46,-149.9 325.75,-134.25 337.56,-108.9 305.72,-58.64 303.75,-56.75 276.56,-30.65 233.75,-19.53 204.07,-14.81"/>
<polygon fill="#63b8ff" stroke="#63b8ff" points="204.91,-11.39 194.52,-13.46 203.93,-18.32 204.91,-11.39"/>
</a>
</g>
</g>
<!-- Node8 -->
<g id="Node000008" class="node">
<title>Node8</title>
<g id="a_Node000008"><a xlink:href="../../de/dd6/ICommand_8hpp.html" target="_top" xlink:title="command interface">
<polygon fill="white" stroke="#666666" points="316.88,-134.25 226.62,-134.25 226.62,-113.5 316.88,-113.5 316.88,-134.25"/>
<text xml:space="preserve" text-anchor="middle" x="271.75" y="-120.75" font-family="Helvetica,sans-Serif" font-size="10.00">ICommand.hpp</text>
</a>
</g>
</g>
<!-- Node1&#45;&gt;Node8 -->
<g id="edge9_Node000001_Node000008" class="edge">
<title>Node1&#45;&gt;Node8</title>
<g id="a_edge9_Node000001_Node000008"><a xlink:title=" ">
<path fill="none" stroke="#63b8ff" d="M271.75,-169.84C271.75,-163.22 271.75,-154.22 271.75,-146.02"/>
<polygon fill="#63b8ff" stroke="#63b8ff" points="275.25,-146.09 271.75,-136.09 268.25,-146.09 275.25,-146.09"/>
</a>
</g>
</g>
<!-- Node3 -->
<g id="Node000003" class="node">
<title>Node3</title>
<g id="a_Node000003"><a xlink:href="../../da/dcb/ReplyHandler_8hpp.html" target="_top" xlink:title="ReplyHandler class.">
<polygon fill="white" stroke="#666666" points="142.88,-77.5 40.63,-77.5 40.63,-56.75 142.88,-56.75 142.88,-77.5"/>
<text xml:space="preserve" text-anchor="middle" x="91.75" y="-64" font-family="Helvetica,sans-Serif" font-size="10.00">ReplyHandler.hpp</text>
</a>
</g>
</g>
<!-- Node2&#45;&gt;Node3 -->
<g id="edge2_Node000002_Node000003" class="edge">
<title>Node2&#45;&gt;Node3</title>
<g id="a_edge2_Node000002_Node000003"><a xlink:title=" ">
<path fill="none" stroke="#63b8ff" d="M155.81,-113.09C144.38,-105.07 127.98,-93.56 114.64,-84.19"/>
<polygon fill="#63b8ff" stroke="#63b8ff" points="117.01,-81.58 106.81,-78.7 112.99,-87.31 117.01,-81.58"/>
</a>
</g>
</g>
<!-- Node4 -->
<g id="Node000004" class="node">
<title>Node4</title>
<g id="a_Node000004"><a xlink:href="../../d8/d9c/reply__codes_8hpp.html" target="_top" xlink:title="Numerical reply codes.">
<polygon fill="white" stroke="#666666" points="95.5,-20.75 0,-20.75 0,0 95.5,0 95.5,-20.75"/>
<text xml:space="preserve" text-anchor="middle" x="47.75" y="-7.25" font-family="Helvetica,sans-Serif" font-size="10.00">reply_codes.hpp</text>
</a>
</g>
</g>
<!-- Node2&#45;&gt;Node4 -->
<g id="edge5_Node000002_Node000004" class="edge">
<title>Node2&#45;&gt;Node4</title>
<g id="a_edge5_Node000002_Node000004"><a xlink:title=" ">
<path fill="none" stroke="#63b8ff" d="M131.06,-121.87C98.66,-118.73 54.23,-108.55 31.75,-77.5 21.82,-63.78 28.04,-44.67 35.43,-30.53"/>
<polygon fill="#63b8ff" stroke="#63b8ff" points="38.3,-32.56 40.3,-22.15 32.25,-29.04 38.3,-32.56"/>
</a>
</g>
</g>
<!-- Node2&#45;&gt;Node5 -->
<g id="edge7_Node000002_Node000005" class="edge">
<title>Node2&#45;&gt;Node5</title>
<g id="a_edge7_Node000002_Node000005"><a xlink:title=" ">
<path fill="none" stroke="#63b8ff" d="M169.84,-113.37C169.99,-95.6 170.34,-56.97 170.56,-32.68"/>
<polygon fill="#63b8ff" stroke="#63b8ff" points="174.06,-32.72 170.65,-22.69 167.06,-32.66 174.06,-32.72"/>
</a>
</g>
</g>
<!-- Node6 -->
<g id="Node000006" class="node">
<title>Node6</title>
<g id="a_Node000006"><a xlink:title=" ">
<polygon fill="#e0e0e0" stroke="#999999" points="230.25,-77.5 199.25,-77.5 199.25,-56.75 230.25,-56.75 230.25,-77.5"/>
<text xml:space="preserve" text-anchor="middle" x="214.75" y="-64" font-family="Helvetica,sans-Serif" font-size="10.00">set</text>
</a>
</g>
</g>
<!-- Node2&#45;&gt;Node6 -->
<g id="edge6_Node000002_Node000006" class="edge">
<title>Node2&#45;&gt;Node6</title>
<g id="a_edge6_Node000002_Node000006"><a xlink:title=" ">
<path fill="none" stroke="#63b8ff" d="M177.8,-113.09C183.81,-105.77 192.22,-95.54 199.49,-86.69"/>
<polygon fill="#63b8ff" stroke="#63b8ff" points="202.17,-88.95 205.81,-79 196.76,-84.5 202.17,-88.95"/>
</a>
</g>
</g>
<!-- Node7 -->
<g id="Node000007" class="node">
<title>Node7</title>
<g id="a_Node000007"><a xlink:title=" ">
<polygon fill="#e0e0e0" stroke="#999999" points="295.12,-77.5 248.38,-77.5 248.38,-56.75 295.12,-56.75 295.12,-77.5"/>
<text xml:space="preserve" text-anchor="middle" x="271.75" y="-64" font-family="Helvetica,sans-Serif" font-size="10.00">vector</text>
</a>
</g>
</g>
<!-- Node2&#45;&gt;Node7 -->
<g id="edge8_Node000002_Node000007" class="edge">
<title>Node2&#45;&gt;Node7</title>
<g id="a_edge8_Node000002_Node000007"><a xlink:title=" ">
<path fill="none" stroke="#63b8ff" d="M187.99,-113.09C203.43,-104.8 225.84,-92.77 243.59,-83.24"/>
<polygon fill="#63b8ff" stroke="#63b8ff" points="245.18,-86.36 252.34,-78.54 241.87,-80.19 245.18,-86.36"/>
</a>
</g>
</g>
<!-- Node3&#45;&gt;Node4 -->
<g id="edge3_Node000003_Node000004" class="edge">
<title>Node3&#45;&gt;Node4</title>
<g id="a_edge3_Node000003_Node000004"><a xlink:title=" ">
<path fill="none" stroke="#63b8ff" d="M83.88,-56.34C78,-49.02 69.78,-38.79 62.67,-29.94"/>
<polygon fill="#63b8ff" stroke="#63b8ff" points="65.49,-27.86 56.5,-22.26 60.03,-32.25 65.49,-27.86"/>
</a>
</g>
</g>
<!-- Node3&#45;&gt;Node5 -->
<g id="edge4_Node000003_Node000005" class="edge">
<title>Node3&#45;&gt;Node5</title>
<g id="a_edge4_Node000003_Node000005"><a xlink:title=" ">
<path fill="none" stroke="#63b8ff" d="M105.87,-56.34C117.44,-48.32 134.05,-36.81 147.57,-27.44"/>
<polygon fill="#63b8ff" stroke="#63b8ff" points="149.28,-30.51 155.5,-21.94 145.29,-24.76 149.28,-30.51"/>
</a>
</g>
</g>
<!-- Node8&#45;&gt;Node7 -->
<g id="edge10_Node000008_Node000007" class="edge">
<title>Node8&#45;&gt;Node7</title>
<g id="a_edge10_Node000008_Node000007"><a xlink:title=" ">
<path fill="none" stroke="#63b8ff" d="M271.75,-113.09C271.75,-106.47 271.75,-97.47 271.75,-89.27"/>
<polygon fill="#63b8ff" stroke="#63b8ff" points="275.25,-89.34 271.75,-79.34 268.25,-89.34 275.25,-89.34"/>
</a>
</g>
</g>
</g>
</svg>
