<?xml version="1.0" encoding="UTF-8" standalone="no"?>
<!DOCTYPE svg PUBLIC "-//W3C//DTD SVG 1.1//EN"
 "http://www.w3.org/Graphics/SVG/1.1/DTD/svg11.dtd">
<!-- Generated by graphviz version 14.0.1 (0)
 -->
<!-- Title: Parser.hpp Pages: 1 -->
<svg width="531pt" height="199pt"
 viewBox="0.00 0.00 531.00 199.00" xmlns="http://www.w3.org/2000/svg" xmlns:xlink="http://www.w3.org/1999/xlink">
<g id="graph0" class="graph" transform="scale(1 1) rotate(0) translate(4 195)">
<title>Parser.hpp</title>
<!-- Node1 -->
<g id="Node000001" class="node">
<title>Node1</title>
<g id="a_Node000001"><a xlink:title="Parser class.">
<polygon fill="#999999" stroke="#666666" points="290.47,-191 224.22,-191 224.22,-170.25 290.47,-170.25 290.47,-191"/>
<text xml:space="preserve" text-anchor="middle" x="257.34" y="-177.5" font-family="Helvetica,sans-Serif" font-size="10.00">Parser.hpp</text>
</a>
</g>
</g>
<!-- Node2 -->
<g id="Node000002" class="node">
<title>Node2</title>
<g id="a_Node000002"><a xlink:href="../../d7/d42/Channel_8hpp.html" target="_top" xlink:title="Channel class.">
<polygon fill="white" stroke="#666666" points="199.72,-134.25 122.97,-134.25 122.97,-113.5 199.72,-113.5 199.72,-134.25"/>
<text xml:space="preserve" text-anchor="middle" x="161.34" y="-120.75" font-family="Helvetica,sans-Serif" font-size="10.00">Channel.hpp</text>
</a>
</g>
</g>
<!-- Node1&#45;&gt;Node2 -->
<g id="edge1_Node000001_Node000002" class="edge">
<title>Node1&#45;&gt;Node2</title>
<g id="a_edge1_Node000001_Node000002"><a xlink:title=" ">
<path fill="none" stroke="#63b8ff" d="M240.18,-169.84C225.71,-161.58 204.75,-149.63 188.08,-140.13"/>
<polygon fill="#63b8ff" stroke="#63b8ff" points="190.09,-137.24 179.67,-135.33 186.62,-143.32 190.09,-137.24"/>
</a>
</g>
</g>
<!-- Node3 -->
<g id="Node000003" class="node">
<title>Node3</title>
<g id="a_Node000003"><a xlink:href="../../da/dcb/ReplyHandler_8hpp.html" target="_top" xlink:title="ReplyHandler class.">
<polygon fill="white" stroke="#666666" points="114.47,-77.5 12.22,-77.5 12.22,-56.75 114.47,-56.75 114.47,-77.5"/>
<text xml:space="preserve" text-anchor="middle" x="63.34" y="-64" font-family="Helvetica,sans-Serif" font-size="10.00">ReplyHandler.hpp</text>
</a>
</g>
</g>
<!-- Node1&#45;&gt;Node3 -->
<g id="edge9_Node000001_Node000003" class="edge">
<title>Node1&#45;&gt;Node3</title>
<g id="a_edge9_Node000001_Node000003"><a xlink:title=" ">
<path fill="none" stroke="#63b8ff" d="M223.87,-174.87C193.16,-169.22 147.53,-157.47 114.34,-134.25 96.95,-122.08 82.76,-102.19 73.81,-87.4"/>
<polygon fill="#63b8ff" stroke="#63b8ff" points="77.01,-85.95 69,-79.03 70.95,-89.44 77.01,-85.95"/>
</a>
</g>
</g>
<!-- Node4 -->
<g id="Node000004" class="node">
<title>Node4</title>
<g id="a_Node000004"><a xlink:href="../../d8/d9c/reply__codes_8hpp.html" target="_top" xlink:title="Numerical reply codes.">
<polygon fill="white" stroke="#666666" points="111.09,-20.75 15.59,-20.75 15.59,0 111.09,0 111.09,-20.75"/>
<text xml:space="preserve" text-anchor="middle" x="63.34" y="-7.25" font-family="Helvetica,sans-Serif" font-size="10.00">reply_codes.hpp</text>
</a>
</g>
</g>
<!-- Node1&#45;&gt;Node4 -->
<g id="edge10_Node000001_Node000004" class="edge">
<title>Node1&#45;&gt;Node4</title>
<g id="a_edge10_Node000001_Node000004"><a xlink:title=" ">
<path fill="none" stroke="#63b8ff" d="M223.89,-178.64C165.21,-174.82 45.93,-157.13 3.34,-77.5 -7.23,-57.74 13.28,-39.21 33.13,-26.82"/>
<polygon fill="#63b8ff" stroke="#63b8ff" points="34.79,-29.9 41.67,-21.85 31.27,-23.85 34.79,-29.9"/>
</a>
</g>
</g>
<!-- Node7 -->
<g id="Node000007" class="node">
<title>Node7</title>
<g id="a_Node000007"><a xlink:title=" ">
<polygon fill="#e0e0e0" stroke="#999999" points="304.72,-77.5 257.97,-77.5 257.97,-56.75 304.72,-56.75 304.72,-77.5"/>
<text xml:space="preserve" text-anchor="middle" x="281.34" y="-64" font-family="Helvetica,sans-Serif" font-size="10.00">vector</text>
</a>
</g>
</g>
<!-- Node1&#45;&gt;Node7 -->
<g id="edge15_Node000001_Node000007" class="edge">
<title>Node1&#45;&gt;Node7</title>
<g id="a_edge15_Node000001_Node000007"><a xlink:title=" ">
<path fill="none" stroke="#63b8ff" d="M252.85,-169.97C247.41,-156.87 239.73,-132.89 246.34,-113.5 249.77,-103.46 256.41,-93.91 263,-86.18"/>
<polygon fill="#63b8ff" stroke="#63b8ff" points="265.54,-88.59 269.76,-78.87 260.4,-83.84 265.54,-88.59"/>
</a>
</g>
</g>
<!-- Node8 -->
<g id="Node000008" class="node">
<title>Node8</title>
<g id="a_Node000008"><a xlink:title=" ">
<polygon fill="#e0e0e0" stroke="#999999" points="318.97,-134.25 255.72,-134.25 255.72,-113.5 318.97,-113.5 318.97,-134.25"/>
<text xml:space="preserve" text-anchor="middle" x="287.34" y="-120.75" font-family="Helvetica,sans-Serif" font-size="10.00">algorithm</text>
</a>
</g>
</g>
<!-- Node1&#45;&gt;Node8 -->
<g id="edge11_Node000001_Node000008" class="edge">
<title>Node1&#45;&gt;Node8</title>
<g id="a_edge11_Node000001_Node000008"><a xlink:title=" ">
<path fill="none" stroke="#63b8ff" d="M262.71,-169.84C266.54,-162.83 271.85,-153.16 276.55,-144.58"/>
<polygon fill="#63b8ff" stroke="#63b8ff" points="279.56,-146.36 281.3,-135.91 273.42,-142.99 279.56,-146.36"/>
</a>
</g>
</g>
<!-- Node9 -->
<g id="Node000009" class="node">
<title>Node9</title>
<g id="a_Node000009"><a xlink:title=" ">
<polygon fill="#e0e0e0" stroke="#999999" points="389.34,-134.25 337.34,-134.25 337.34,-113.5 389.34,-113.5 389.34,-134.25"/>
<text xml:space="preserve" text-anchor="middle" x="363.34" y="-120.75" font-family="Helvetica,sans-Serif" font-size="10.00">cstddef</text>
</a>
</g>
</g>
<!-- Node1&#45;&gt;Node9 -->
<g id="edge12_Node000001_Node000009" class="edge">
<title>Node1&#45;&gt;Node9</title>
<g id="a_edge12_Node000001_Node000009"><a xlink:title=" ">
<path fill="none" stroke="#63b8ff" d="M276.29,-169.84C292.42,-161.51 315.85,-149.41 334.33,-139.86"/>
<polygon fill="#63b8ff" stroke="#63b8ff" points="335.93,-142.97 343.21,-135.27 332.72,-136.75 335.93,-142.97"/>
</a>
</g>
</g>
<!-- Node10 -->
<g id="Node000010" class="node">
<title>Node10</title>
<g id="a_Node000010"><a xlink:title=" ">
<polygon fill="#e0e0e0" stroke="#999999" points="467.09,-134.25 407.59,-134.25 407.59,-113.5 467.09,-113.5 467.09,-134.25"/>
<text xml:space="preserve" text-anchor="middle" x="437.34" y="-120.75" font-family="Helvetica,sans-Serif" font-size="10.00">iostream</text>
</a>
</g>
</g>
<!-- Node1&#45;&gt;Node10 -->
<g id="edge13_Node000001_Node000010" class="edge">
<title>Node1&#45;&gt;Node10</title>
<g id="a_edge13_Node000001_Node000010"><a xlink:title=" ">
<path fill="none" stroke="#63b8ff" d="M289.52,-169.84C319.37,-160.76 363.94,-147.2 396.33,-137.35"/>
<polygon fill="#63b8ff" stroke="#63b8ff" points="397.24,-140.73 405.79,-134.47 395.2,-134.03 397.24,-140.73"/>
</a>
</g>
</g>
<!-- Node11 -->
<g id="Node000011" class="node">
<title>Node11</title>
<g id="a_Node000011"><a xlink:title=" ">
<polygon fill="#e0e0e0" stroke="#999999" points="523.22,-134.25 485.47,-134.25 485.47,-113.5 523.22,-113.5 523.22,-134.25"/>
<text xml:space="preserve" text-anchor="middle" x="504.34" y="-120.75" font-family="Helvetica,sans-Serif" font-size="10.00">map</text>
</a>
</g>
</g>
<!-- Node1&#45;&gt;Node11 -->
<g id="edge14_Node000001_Node000011" class="edge">
<title>Node1&#45;&gt;Node11</title>
<g id="a_edge14_Node000001_Node000011"><a xlink:title=" ">
<path fill="none" stroke="#63b8ff" d="M290.65,-174C331.72,-166.78 403.82,-153.22 474.31,-134.55"/>
<polygon fill="#63b8ff" stroke="#63b8ff" points="474.94,-138 483.69,-132.03 473.13,-131.24 474.94,-138"/>
</a>
</g>
</g>
<!-- Node2&#45;&gt;Node3 -->
<g id="edge2_Node000002_Node000003" class="edge">
<title>Node2&#45;&gt;Node3</title>
<g id="a_edge2_Node000002_Node000003"><a xlink:title=" ">
<path fill="none" stroke="#63b8ff" d="M143.82,-113.09C129.05,-104.83 107.66,-92.88 90.64,-83.38"/>
<polygon fill="#63b8ff" stroke="#63b8ff" points="92.47,-80.39 82.03,-78.57 89.06,-86.5 92.47,-80.39"/>
</a>
</g>
</g>
<!-- Node2&#45;&gt;Node4 -->
<g id="edge5_Node000002_Node000004" class="edge">
<title>Node2&#45;&gt;Node4</title>
<g id="a_edge5_Node000002_Node000004"><a xlink:title=" ">
<path fill="none" stroke="#63b8ff" d="M157.25,-113.12C151.21,-99.49 138.93,-74.43 123.34,-56.75 113.52,-45.61 100.59,-35.42 89.25,-27.52"/>
<polygon fill="#63b8ff" stroke="#63b8ff" points="91.33,-24.7 81.07,-22.06 87.44,-30.52 91.33,-24.7"/>
</a>
</g>
</g>
<!-- Node5 -->
<g id="Node000005" class="node">
<title>Node5</title>
<g id="a_Node000005"><a xlink:title=" ">
<polygon fill="#e0e0e0" stroke="#999999" points="187.22,-20.75 143.47,-20.75 143.47,0 187.22,0 187.22,-20.75"/>
<text xml:space="preserve" text-anchor="middle" x="165.34" y="-7.25" font-family="Helvetica,sans-Serif" font-size="10.00">string</text>
</a>
</g>
</g>
<!-- Node2&#45;&gt;Node5 -->
<g id="edge7_Node000002_Node000005" class="edge">
<title>Node2&#45;&gt;Node5</title>
<g id="a_edge7_Node000002_Node000005"><a xlink:title=" ">
<path fill="none" stroke="#63b8ff" d="M161.68,-113.37C162.32,-95.6 163.71,-56.97 164.58,-32.68"/>
<polygon fill="#63b8ff" stroke="#63b8ff" points="168.08,-32.81 164.94,-22.69 161.08,-32.56 168.08,-32.81"/>
</a>
</g>
</g>
<!-- Node6 -->
<g id="Node000006" class="node">
<title>Node6</title>
<g id="a_Node000006"><a xlink:title=" ">
<polygon fill="#e0e0e0" stroke="#999999" points="239.84,-77.5 208.84,-77.5 208.84,-56.75 239.84,-56.75 239.84,-77.5"/>
<text xml:space="preserve" text-anchor="middle" x="224.34" y="-64" font-family="Helvetica,sans-Serif" font-size="10.00">set</text>
</a>
</g>
</g>
<!-- Node2&#45;&gt;Node6 -->
<g id="edge6_Node000002_Node000006" class="edge">
<title>Node2&#45;&gt;Node6</title>
<g id="a_edge6_Node000002_Node000006"><a xlink:title=" ">
<path fill="none" stroke="#63b8ff" d="M172.61,-113.09C181.47,-105.38 194.06,-94.45 204.59,-85.29"/>
<polygon fill="#63b8ff" stroke="#63b8ff" points="206.78,-88.02 212.03,-78.82 202.19,-82.74 206.78,-88.02"/>
</a>
</g>
</g>
<!-- Node2&#45;&gt;Node7 -->
<g id="edge8_Node000002_Node000007" class="edge">
<title>Node2&#45;&gt;Node7</title>
<g id="a_edge8_Node000002_Node000007"><a xlink:title=" ">
<path fill="none" stroke="#63b8ff" d="M182.8,-113.09C201.4,-104.6 228.57,-92.2 249.67,-82.58"/>
<polygon fill="#63b8ff" stroke="#63b8ff" points="251.05,-85.79 258.7,-78.46 248.15,-79.42 251.05,-85.79"/>
</a>
</g>
</g>
<!-- Node3&#45;&gt;Node4 -->
<g id="edge3_Node000003_Node000004" class="edge">
<title>Node3&#45;&gt;Node4</title>
<g id="a_edge3_Node000003_Node000004"><a xlink:title=" ">
<path fill="none" stroke="#63b8ff" d="M63.34,-56.34C63.34,-49.72 63.34,-40.72 63.34,-32.52"/>
<polygon fill="#63b8ff" stroke="#63b8ff" points="66.84,-32.59 63.34,-22.59 59.84,-32.59 66.84,-32.59"/>
</a>
</g>
</g>
<!-- Node3&#45;&gt;Node5 -->
<g id="edge4_Node000003_Node000005" class="edge">
<title>Node3&#45;&gt;Node5</title>
<g id="a_edge4_Node000003_Node000005"><a xlink:title=" ">
<path fill="none" stroke="#63b8ff" d="M81.58,-56.34C97.03,-48.05 119.43,-36.02 137.18,-26.49"/>
<polygon fill="#63b8ff" stroke="#63b8ff" points="138.78,-29.61 145.93,-21.79 135.46,-23.44 138.78,-29.61"/>
</a>
</g>
</g>
</g>
</svg>
