<?xml version="1.0" encoding="UTF-8" standalone="no"?>
<!DOCTYPE svg PUBLIC "-//W3C//DTD SVG 1.1//EN"
 "http://www.w3.org/Graphics/SVG/1.1/DTD/svg11.dtd">
<!-- Generated by graphviz version 14.0.1 (0)
 -->
<!-- Title: Logger.hpp Pages: 1 -->
<svg width="372pt" height="199pt"
 viewBox="0.00 0.00 372.00 199.00" xmlns="http://www.w3.org/2000/svg" xmlns:xlink="http://www.w3.org/1999/xlink">
<g id="graph0" class="graph" transform="scale(1 1) rotate(0) translate(4 195)">
<title>Logger.hpp</title>
<!-- Node1 -->
<g id="Node000001" class="node">
<title>Node1</title>
<g id="a_Node000001"><a xlink:title=" ">
<polygon fill="#999999" stroke="#666666" points="309,-191 239.75,-191 239.75,-170.25 309,-170.25 309,-191"/>
<text xml:space="preserve" text-anchor="middle" x="274.38" y="-177.5" font-family="Helvetica,sans-Serif" font-size="10.00">Logger.hpp</text>
</a>
</g>
</g>
<!-- Node2 -->
<g id="Node000002" class="node">
<title>Node2</title>
<g id="a_Node000002"><a xlink:href="../../de/d1c/LogManager_8hpp.html" target="_top" xlink:title=" ">
<polygon fill="white" stroke="#666666" points="322.5,-134.25 226.25,-134.25 226.25,-113.5 322.5,-113.5 322.5,-134.25"/>
<text xml:space="preserve" text-anchor="middle" x="274.38" y="-120.75" font-family="Helvetica,sans-Serif" font-size="10.00">LogManager.hpp</text>
</a>
</g>
</g>
<!-- Node1&#45;&gt;Node2 -->
<g id="edge1_Node000001_Node000002" class="edge">
<title>Node1&#45;&gt;Node2</title>
<g id="a_edge1_Node000001_Node000002"><a xlink:title=" ">
<path fill="none" stroke="#63b8ff" d="M274.38,-158.38C274.38,-150.16 274.38,-141.18 274.38,-134.58"/>
<polygon fill="#63b8ff" stroke="#63b8ff" points="270.88,-158.32 274.38,-168.32 277.88,-158.32 270.88,-158.32"/>
</a>
</g>
</g>
<!-- Node3 -->
<g id="Node000003" class="node">
<title>Node3</title>
<g id="a_Node000003"><a xlink:href="../../d7/d42/Channel_8hpp.html" target="_top" xlink:title=" ">
<polygon fill="white" stroke="#666666" points="236.75,-77.5 160,-77.5 160,-56.75 236.75,-56.75 236.75,-77.5"/>
<text xml:space="preserve" text-anchor="middle" x="198.38" y="-64" font-family="Helvetica,sans-Serif" font-size="10.00">Channel.hpp</text>
</a>
</g>
</g>
<!-- Node2&#45;&gt;Node3 -->
<g id="edge2_Node000002_Node000003" class="edge">
<title>Node2&#45;&gt;Node3</title>
<g id="a_edge2_Node000002_Node000003"><a xlink:title=" ">
<path fill="none" stroke="#63b8ff" d="M251.56,-106.44C238.6,-97.11 222.83,-85.75 211.84,-77.83"/>
<polygon fill="#63b8ff" stroke="#63b8ff" points="249.4,-109.2 259.56,-112.2 253.49,-103.52 249.4,-109.2"/>
</a>
</g>
</g>
<!-- Node7 -->
<g id="Node000007" class="node">
<title>Node7</title>
<g id="a_Node000007"><a xlink:href="../../df/d93/Who_8hpp.html" target="_top" xlink:title=" ">
<polygon fill="white" stroke="#666666" points="313.75,-20.75 255,-20.75 255,0 313.75,0 313.75,-20.75"/>
<text xml:space="preserve" text-anchor="middle" x="284.38" y="-7.25" font-family="Helvetica,sans-Serif" font-size="10.00">Who.hpp</text>
</a>
</g>
</g>
<!-- Node2&#45;&gt;Node7 -->
<g id="edge8_Node000002_Node000007" class="edge">
<title>Node2&#45;&gt;Node7</title>
<g id="a_edge8_Node000002_Node000007"><a xlink:title=" ">
<path fill="none" stroke="#63b8ff" d="M276.25,-101.97C278.41,-77.84 281.88,-39.17 283.5,-21.18"/>
<polygon fill="#63b8ff" stroke="#63b8ff" points="272.77,-101.59 275.36,-111.86 279.74,-102.21 272.77,-101.59"/>
</a>
</g>
</g>
<!-- Node8 -->
<g id="Node000008" class="node">
<title>Node8</title>
<g id="a_Node000008"><a xlink:href="../../de/d3e/Motd_8hpp.html" target="_top" xlink:title=" ">
<polygon fill="white" stroke="#666666" points="364.25,-77.5 302.5,-77.5 302.5,-56.75 364.25,-56.75 364.25,-77.5"/>
<text xml:space="preserve" text-anchor="middle" x="333.38" y="-64" font-family="Helvetica,sans-Serif" font-size="10.00">Motd.hpp</text>
</a>
</g>
</g>
<!-- Node2&#45;&gt;Node8 -->
<g id="edge7_Node000002_Node000008" class="edge">
<title>Node2&#45;&gt;Node8</title>
<g id="a_edge7_Node000002_Node000008"><a xlink:title=" ">
<path fill="none" stroke="#63b8ff" d="M293.28,-105.33C303.1,-96.22 314.72,-85.43 322.92,-77.83"/>
<polygon fill="#63b8ff" stroke="#63b8ff" points="290.98,-102.69 286.03,-112.06 295.74,-107.82 290.98,-102.69"/>
</a>
</g>
</g>
<!-- Node4 -->
<g id="Node000004" class="node">
<title>Node4</title>
<g id="a_Node000004"><a xlink:href="../../d0/d9f/Invite_8hpp.html" target="_top" xlink:title=" ">
<polygon fill="white" stroke="#666666" points="64.75,-20.75 0,-20.75 0,0 64.75,0 64.75,-20.75"/>
<text xml:space="preserve" text-anchor="middle" x="32.38" y="-7.25" font-family="Helvetica,sans-Serif" font-size="10.00">Invite.hpp</text>
</a>
</g>
</g>
<!-- Node3&#45;&gt;Node4 -->
<g id="edge3_Node000003_Node000004" class="edge">
<title>Node3&#45;&gt;Node4</title>
<g id="a_edge3_Node000003_Node000004"><a xlink:title=" ">
<path fill="none" stroke="#63b8ff" d="M157.88,-52.77C128.28,-43.01 88.79,-29.98 62.07,-21.17"/>
<polygon fill="#63b8ff" stroke="#63b8ff" points="156.67,-56.05 167.26,-55.86 158.86,-49.41 156.67,-56.05"/>
</a>
</g>
</g>
<!-- Node5 -->
<g id="Node000005" class="node">
<title>Node5</title>
<g id="a_Node000005"><a xlink:href="../../df/d5f/Pass_8hpp.html" target="_top" xlink:title=" ">
<polygon fill="white" stroke="#666666" points="141.75,-20.75 83,-20.75 83,0 141.75,0 141.75,-20.75"/>
<text xml:space="preserve" text-anchor="middle" x="112.38" y="-7.25" font-family="Helvetica,sans-Serif" font-size="10.00">Pass.hpp</text>
</a>
</g>
</g>
<!-- Node3&#45;&gt;Node5 -->
<g id="edge4_Node000003_Node000005" class="edge">
<title>Node3&#45;&gt;Node5</title>
<g id="a_edge4_Node000003_Node000005"><a xlink:title=" ">
<path fill="none" stroke="#63b8ff" d="M173.41,-50.23C158.6,-40.8 140.3,-29.15 127.62,-21.08"/>
<polygon fill="#63b8ff" stroke="#63b8ff" points="171.41,-53.11 181.72,-55.52 175.17,-47.2 171.41,-53.11"/>
</a>
</g>
</g>
<!-- Node6 -->
<g id="Node000006" class="node">
<title>Node6</title>
<g id="a_Node000006"><a xlink:href="../../d6/df8/Privmsg_8hpp.html" target="_top" xlink:title="Implements IRC PRIVMSG command.">
<polygon fill="white" stroke="#666666" points="236.75,-20.75 160,-20.75 160,0 236.75,0 236.75,-20.75"/>
<text xml:space="preserve" text-anchor="middle" x="198.38" y="-7.25" font-family="Helvetica,sans-Serif" font-size="10.00">Privmsg.hpp</text>
</a>
</g>
</g>
<!-- Node3&#45;&gt;Node6 -->
<g id="edge5_Node000003_Node000006" class="edge">
<title>Node3&#45;&gt;Node6</title>
<g id="a_edge5_Node000003_Node000006"><a xlink:title=" ">
<path fill="none" stroke="#63b8ff" d="M198.38,-44.88C198.38,-36.66 198.38,-27.68 198.38,-21.08"/>
<polygon fill="#63b8ff" stroke="#63b8ff" points="194.88,-44.82 198.38,-54.82 201.88,-44.82 194.88,-44.82"/>
</a>
</g>
</g>
<!-- Node3&#45;&gt;Node7 -->
<g id="edge6_Node000003_Node000007" class="edge">
<title>Node3&#45;&gt;Node7</title>
<g id="a_edge6_Node000003_Node000007"><a xlink:title=" ">
<path fill="none" stroke="#63b8ff" d="M223.34,-50.23C238.15,-40.8 256.45,-29.15 269.13,-21.08"/>
<polygon fill="#63b8ff" stroke="#63b8ff" points="221.58,-47.2 215.03,-55.52 225.34,-53.11 221.58,-47.2"/>
</a>
</g>
</g>
</g>
</svg>
