<?xml version="1.0" encoding="UTF-8" standalone="no"?>
<!DOCTYPE svg PUBLIC "-//W3C//DTD SVG 1.1//EN"
 "http://www.w3.org/Graphics/SVG/1.1/DTD/svg11.dtd">
<!-- Generated by graphviz version 14.0.1 (0)
 -->
<!-- Title: Logger.hpp Pages: 1 -->
<svg width="104pt" height="142pt"
 viewBox="0.00 0.00 104.00 142.00" xmlns="http://www.w3.org/2000/svg" xmlns:xlink="http://www.w3.org/1999/xlink">
<g id="graph0" class="graph" transform="scale(1 1) rotate(0) translate(4 138.25)">
<title>Logger.hpp</title>
<!-- Node1 -->
<g id="Node000001" class="node">
<title>Node1</title>
<g id="a_Node000001"><a xlink:title="Logger class.">
<polygon fill="#999999" stroke="#666666" points="82.75,-134.25 13.5,-134.25 13.5,-113.5 82.75,-113.5 82.75,-134.25"/>
<text xml:space="preserve" text-anchor="middle" x="48.12" y="-120.75" font-family="Helvetica,sans-Serif" font-size="10.00">Logger.hpp</text>
</a>
</g>
</g>
<!-- Node2 -->
<g id="Node000002" class="node">
<title>Node2</title>
<g id="a_Node000002"><a xlink:href="../../de/d1c/LogManager_8hpp.html" target="_top" xlink:title="LogManager class.">
<polygon fill="white" stroke="#666666" points="96.25,-77.5 0,-77.5 0,-56.75 96.25,-56.75 96.25,-77.5"/>
<text xml:space="preserve" text-anchor="middle" x="48.12" y="-64" font-family="Helvetica,sans-Serif" font-size="10.00">LogManager.hpp</text>
</a>
</g>
</g>
<!-- Node1&#45;&gt;Node2 -->
<g id="edge1_Node000001_Node000002" class="edge">
<title>Node1&#45;&gt;Node2</title>
<g id="a_edge1_Node000001_Node000002"><a xlink:title=" ">
<path fill="none" stroke="#63b8ff" d="M48.12,-101.63C48.12,-93.41 48.12,-84.43 48.12,-77.83"/>
<polygon fill="#63b8ff" stroke="#63b8ff" points="44.63,-101.57 48.13,-111.57 51.63,-101.57 44.63,-101.57"/>
</a>
</g>
</g>
<!-- Node3 -->
<g id="Node000003" class="node">
<title>Node3</title>
<g id="a_Node000003"><a xlink:href="../../de/d3e/Motd_8hpp.html" target="_top" xlink:title="Implements IRC MOTD command.">
<polygon fill="white" stroke="#666666" points="79,-20.75 17.25,-20.75 17.25,0 79,0 79,-20.75"/>
<text xml:space="preserve" text-anchor="middle" x="48.12" y="-7.25" font-family="Helvetica,sans-Serif" font-size="10.00">Motd.hpp</text>
</a>
</g>
</g>
<!-- Node2&#45;&gt;Node3 -->
<g id="edge2_Node000002_Node000003" class="edge">
<title>Node2&#45;&gt;Node3</title>
<g id="a_edge2_Node000002_Node000003"><a xlink:title=" ">
<path fill="none" stroke="#63b8ff" d="M48.12,-44.88C48.12,-36.66 48.12,-27.68 48.12,-21.08"/>
<polygon fill="#63b8ff" stroke="#63b8ff" points="44.63,-44.82 48.13,-54.82 51.63,-44.82 44.63,-44.82"/>
</a>
</g>
</g>
</g>
</svg>
