<?xml version="1.0" encoding="UTF-8" standalone="no"?>
<!DOCTYPE svg PUBLIC "-//W3C//DTD SVG 1.1//EN"
 "http://www.w3.org/Graphics/SVG/1.1/DTD/svg11.dtd">
<!-- Generated by graphviz version 14.0.1 (0)
 -->
<!-- Title: Mode.hpp Pages: 1 -->
<svg width="425pt" height="142pt"
 viewBox="0.00 0.00 425.00 142.00" xmlns="http://www.w3.org/2000/svg" xmlns:xlink="http://www.w3.org/1999/xlink">
<g id="graph0" class="graph" transform="scale(1 1) rotate(0) translate(4 138.25)">
<title>Mode.hpp</title>
<!-- Node1 -->
<g id="Node000001" class="node">
<title>Node1</title>
<g id="a_Node000001"><a xlink:title="Implements IRC MODE command.">
<polygon fill="#999999" stroke="#666666" points="270.12,-134.25 206.12,-134.25 206.12,-113.5 270.12,-113.5 270.12,-134.25"/>
<text xml:space="preserve" text-anchor="middle" x="238.12" y="-120.75" font-family="Helvetica,sans-Serif" font-size="10.00">Mode.hpp</text>
</a>
</g>
</g>
<!-- Node2 -->
<g id="Node000002" class="node">
<title>Node2</title>
<g id="a_Node000002"><a xlink:href="../../de/dd6/ICommand_8hpp.html" target="_top" xlink:title="command interface">
<polygon fill="white" stroke="#666666" points="90.25,-77.5 0,-77.5 0,-56.75 90.25,-56.75 90.25,-77.5"/>
<text xml:space="preserve" text-anchor="middle" x="45.12" y="-64" font-family="Helvetica,sans-Serif" font-size="10.00">ICommand.hpp</text>
</a>
</g>
</g>
<!-- Node1&#45;&gt;Node2 -->
<g id="edge1_Node000001_Node000002" class="edge">
<title>Node1&#45;&gt;Node2</title>
<g id="a_edge1_Node000001_Node000002"><a xlink:title=" ">
<path fill="none" stroke="#63b8ff" d="M205.82,-113.71C174.35,-104.78 126.21,-91.13 90.82,-81.09"/>
<polygon fill="#63b8ff" stroke="#63b8ff" points="91.85,-77.74 81.27,-78.38 89.94,-84.48 91.85,-77.74"/>
</a>
</g>
</g>
<!-- Node3 -->
<g id="Node000003" class="node">
<title>Node3</title>
<g id="a_Node000003"><a xlink:title=" ">
<polygon fill="#e0e0e0" stroke="#999999" points="104.5,-20.75 57.75,-20.75 57.75,0 104.5,0 104.5,-20.75"/>
<text xml:space="preserve" text-anchor="middle" x="81.12" y="-7.25" font-family="Helvetica,sans-Serif" font-size="10.00">vector</text>
</a>
</g>
</g>
<!-- Node1&#45;&gt;Node3 -->
<g id="edge7_Node000001_Node000003" class="edge">
<title>Node1&#45;&gt;Node3</title>
<g id="a_edge7_Node000001_Node000003"><a xlink:title=" ">
<path fill="none" stroke="#63b8ff" d="M207.04,-113.01C186.01,-105.39 158.32,-93.45 137.12,-77.5 119.72,-64.4 104.08,-44.95 93.78,-30.54"/>
<polygon fill="#63b8ff" stroke="#63b8ff" points="96.69,-28.59 88.14,-22.34 90.93,-32.56 96.69,-28.59"/>
</a>
</g>
</g>
<!-- Node4 -->
<g id="Node000004" class="node">
<title>Node4</title>
<g id="a_Node000004"><a xlink:href="../../d8/d9c/reply__codes_8hpp.html" target="_top" xlink:title="Numerical reply codes.">
<polygon fill="white" stroke="#666666" points="241.88,-77.5 146.38,-77.5 146.38,-56.75 241.88,-56.75 241.88,-77.5"/>
<text xml:space="preserve" text-anchor="middle" x="194.12" y="-64" font-family="Helvetica,sans-Serif" font-size="10.00">reply_codes.hpp</text>
</a>
</g>
</g>
<!-- Node1&#45;&gt;Node4 -->
<g id="edge3_Node000001_Node000004" class="edge">
<title>Node1&#45;&gt;Node4</title>
<g id="a_edge3_Node000001_Node000004"><a xlink:title=" ">
<path fill="none" stroke="#63b8ff" d="M230.26,-113.09C224.38,-105.77 216.16,-95.54 209.05,-86.69"/>
<polygon fill="#63b8ff" stroke="#63b8ff" points="211.86,-84.61 202.87,-79.01 206.41,-89 211.86,-84.61"/>
</a>
</g>
</g>
<!-- Node5 -->
<g id="Node000005" class="node">
<title>Node5</title>
<g id="a_Node000005"><a xlink:title=" ">
<polygon fill="#e0e0e0" stroke="#999999" points="306.12,-77.5 260.12,-77.5 260.12,-56.75 306.12,-56.75 306.12,-77.5"/>
<text xml:space="preserve" text-anchor="middle" x="283.12" y="-64" font-family="Helvetica,sans-Serif" font-size="10.00">queue</text>
</a>
</g>
</g>
<!-- Node1&#45;&gt;Node5 -->
<g id="edge4_Node000001_Node000005" class="edge">
<title>Node1&#45;&gt;Node5</title>
<g id="a_edge4_Node000001_Node000005"><a xlink:title=" ">
<path fill="none" stroke="#63b8ff" d="M246.17,-113.09C252.19,-105.77 260.59,-95.54 267.87,-86.69"/>
<polygon fill="#63b8ff" stroke="#63b8ff" points="270.54,-88.95 274.19,-79 265.13,-84.5 270.54,-88.95"/>
</a>
</g>
</g>
<!-- Node6 -->
<g id="Node000006" class="node">
<title>Node6</title>
<g id="a_Node000006"><a xlink:title=" ">
<polygon fill="#e0e0e0" stroke="#999999" points="355.62,-77.5 324.62,-77.5 324.62,-56.75 355.62,-56.75 355.62,-77.5"/>
<text xml:space="preserve" text-anchor="middle" x="340.12" y="-64" font-family="Helvetica,sans-Serif" font-size="10.00">set</text>
</a>
</g>
</g>
<!-- Node1&#45;&gt;Node6 -->
<g id="edge5_Node000001_Node000006" class="edge">
<title>Node1&#45;&gt;Node6</title>
<g id="a_edge5_Node000001_Node000006"><a xlink:title=" ">
<path fill="none" stroke="#63b8ff" d="M256.36,-113.09C272.55,-104.4 296.38,-91.6 314.49,-81.89"/>
<polygon fill="#63b8ff" stroke="#63b8ff" points="315.9,-85.1 323.05,-77.29 312.59,-78.93 315.9,-85.1"/>
</a>
</g>
</g>
<!-- Node7 -->
<g id="Node000007" class="node">
<title>Node7</title>
<g id="a_Node000007"><a xlink:title=" ">
<polygon fill="#e0e0e0" stroke="#999999" points="417,-77.5 373.25,-77.5 373.25,-56.75 417,-56.75 417,-77.5"/>
<text xml:space="preserve" text-anchor="middle" x="395.12" y="-64" font-family="Helvetica,sans-Serif" font-size="10.00">string</text>
</a>
</g>
</g>
<!-- Node1&#45;&gt;Node7 -->
<g id="edge6_Node000001_Node000007" class="edge">
<title>Node1&#45;&gt;Node7</title>
<g id="a_edge6_Node000001_Node000007"><a xlink:title=" ">
<path fill="none" stroke="#63b8ff" d="M266.19,-113.09C293.13,-103.69 333.82,-89.5 362.26,-79.59"/>
<polygon fill="#63b8ff" stroke="#63b8ff" points="363.16,-82.98 371.45,-76.38 360.85,-76.37 363.16,-82.98"/>
</a>
</g>
</g>
<!-- Node2&#45;&gt;Node3 -->
<g id="edge2_Node000002_Node000003" class="edge">
<title>Node2&#45;&gt;Node3</title>
<g id="a_edge2_Node000002_Node000003"><a xlink:title=" ">
<path fill="none" stroke="#63b8ff" d="M51.56,-56.34C56.27,-49.17 62.81,-39.23 68.54,-30.51"/>
<polygon fill="#63b8ff" stroke="#63b8ff" points="71.34,-32.62 73.91,-22.34 65.49,-28.78 71.34,-32.62"/>
</a>
</g>
</g>
</g>
</svg>
