<?xml version="1.0" encoding="UTF-8" standalone="no"?>
<!DOCTYPE svg PUBLIC "-//W3C//DTD SVG 1.1//EN"
 "http://www.w3.org/Graphics/SVG/1.1/DTD/svg11.dtd">
<!-- Generated by graphviz version 14.0.1 (0)
 -->
<!-- Title: Mode.hpp Pages: 1 -->
<svg width="360pt" height="142pt"
 viewBox="0.00 0.00 360.00 142.00" xmlns="http://www.w3.org/2000/svg" xmlns:xlink="http://www.w3.org/1999/xlink">
<g id="graph0" class="graph" transform="scale(1 1) rotate(0) translate(4 138.25)">
<title>Mode.hpp</title>
<!-- Node1 -->
<g id="Node000001" class="node">
<title>Node1</title>
<g id="a_Node000001"><a xlink:title="Implements IRC MODE command.">
<polygon fill="#999999" stroke="#666666" points="226.12,-134.25 162.12,-134.25 162.12,-113.5 226.12,-113.5 226.12,-134.25"/>
<text xml:space="preserve" text-anchor="middle" x="194.12" y="-120.75" font-family="Helvetica,sans-Serif" font-size="10.00">Mode.hpp</text>
</a>
</g>
</g>
<!-- Node2 -->
<g id="Node000002" class="node">
<title>Node2</title>
<g id="a_Node000002"><a xlink:href="../../de/dd6/ICommand_8hpp.html" target="_top" xlink:title="command interface">
<polygon fill="white" stroke="#666666" points="90.25,-77.5 0,-77.5 0,-56.75 90.25,-56.75 90.25,-77.5"/>
<text xml:space="preserve" text-anchor="middle" x="45.12" y="-64" font-family="Helvetica,sans-Serif" font-size="10.00">ICommand.hpp</text>
</a>
</g>
</g>
<!-- Node1&#45;&gt;Node2 -->
<g id="edge1_Node000001_Node000002" class="edge">
<title>Node1&#45;&gt;Node2</title>
<g id="a_edge1_Node000001_Node000002"><a xlink:title=" ">
<path fill="none" stroke="#63b8ff" d="M167.49,-113.09C143.83,-104.39 109.01,-91.6 82.55,-81.88"/>
<polygon fill="#63b8ff" stroke="#63b8ff" points="83.8,-78.61 73.2,-78.44 81.38,-85.18 83.8,-78.61"/>
</a>
</g>
</g>
<!-- Node3 -->
<g id="Node000003" class="node">
<title>Node3</title>
<g id="a_Node000003"><a xlink:title=" ">
<polygon fill="#e0e0e0" stroke="#999999" points="104.5,-20.75 57.75,-20.75 57.75,0 104.5,0 104.5,-20.75"/>
<text xml:space="preserve" text-anchor="middle" x="81.12" y="-7.25" font-family="Helvetica,sans-Serif" font-size="10.00">vector</text>
</a>
</g>
</g>
<!-- Node1&#45;&gt;Node3 -->
<g id="edge6_Node000001_Node000003" class="edge">
<title>Node1&#45;&gt;Node3</title>
<g id="a_edge6_Node000001_Node000003"><a xlink:title=" ">
<path fill="none" stroke="#63b8ff" d="M180.38,-113.12C168.43,-104.37 150.92,-90.89 137.12,-77.5 121.66,-62.5 105.97,-43.58 95.15,-29.83"/>
<polygon fill="#63b8ff" stroke="#63b8ff" points="98.02,-27.82 89.13,-22.05 92.48,-32.1 98.02,-27.82"/>
</a>
</g>
</g>
<!-- Node4 -->
<g id="Node000004" class="node">
<title>Node4</title>
<g id="a_Node000004"><a xlink:href="../../d8/d9c/reply__codes_8hpp.html" target="_top" xlink:title=" ">
<polygon fill="white" stroke="#666666" points="241.88,-77.5 146.38,-77.5 146.38,-56.75 241.88,-56.75 241.88,-77.5"/>
<text xml:space="preserve" text-anchor="middle" x="194.12" y="-64" font-family="Helvetica,sans-Serif" font-size="10.00">reply_codes.hpp</text>
</a>
</g>
</g>
<!-- Node1&#45;&gt;Node4 -->
<g id="edge3_Node000001_Node000004" class="edge">
<title>Node1&#45;&gt;Node4</title>
<g id="a_edge3_Node000001_Node000004"><a xlink:title=" ">
<path fill="none" stroke="#63b8ff" d="M194.12,-113.09C194.12,-106.47 194.12,-97.47 194.12,-89.27"/>
<polygon fill="#63b8ff" stroke="#63b8ff" points="197.63,-89.34 194.13,-79.34 190.63,-89.34 197.63,-89.34"/>
</a>
</g>
</g>
<!-- Node5 -->
<g id="Node000005" class="node">
<title>Node5</title>
<g id="a_Node000005"><a xlink:title=" ">
<polygon fill="#e0e0e0" stroke="#999999" points="290.62,-77.5 259.62,-77.5 259.62,-56.75 290.62,-56.75 290.62,-77.5"/>
<text xml:space="preserve" text-anchor="middle" x="275.12" y="-64" font-family="Helvetica,sans-Serif" font-size="10.00">set</text>
</a>
</g>
</g>
<!-- Node1&#45;&gt;Node5 -->
<g id="edge4_Node000001_Node000005" class="edge">
<title>Node1&#45;&gt;Node5</title>
<g id="a_edge4_Node000001_Node000005"><a xlink:title=" ">
<path fill="none" stroke="#63b8ff" d="M208.61,-113.09C220.47,-105.07 237.5,-93.56 251.36,-84.19"/>
<polygon fill="#63b8ff" stroke="#63b8ff" points="253.19,-87.18 259.52,-78.68 249.27,-81.38 253.19,-87.18"/>
</a>
</g>
</g>
<!-- Node6 -->
<g id="Node000006" class="node">
<title>Node6</title>
<g id="a_Node000006"><a xlink:title=" ">
<polygon fill="#e0e0e0" stroke="#999999" points="352,-77.5 308.25,-77.5 308.25,-56.75 352,-56.75 352,-77.5"/>
<text xml:space="preserve" text-anchor="middle" x="330.12" y="-64" font-family="Helvetica,sans-Serif" font-size="10.00">string</text>
</a>
</g>
</g>
<!-- Node1&#45;&gt;Node6 -->
<g id="edge5_Node000001_Node000006" class="edge">
<title>Node1&#45;&gt;Node6</title>
<g id="a_edge5_Node000001_Node000006"><a xlink:title=" ">
<path fill="none" stroke="#63b8ff" d="M218.44,-113.09C240.44,-104.23 273.01,-91.12 297.31,-81.34"/>
<polygon fill="#63b8ff" stroke="#63b8ff" points="298.45,-84.65 306.42,-77.67 295.84,-78.16 298.45,-84.65"/>
</a>
</g>
</g>
<!-- Node2&#45;&gt;Node3 -->
<g id="edge2_Node000002_Node000003" class="edge">
<title>Node2&#45;&gt;Node3</title>
<g id="a_edge2_Node000002_Node000003"><a xlink:title=" ">
<path fill="none" stroke="#63b8ff" d="M51.56,-56.34C56.27,-49.17 62.81,-39.23 68.54,-30.51"/>
<polygon fill="#63b8ff" stroke="#63b8ff" points="71.34,-32.62 73.91,-22.34 65.49,-28.78 71.34,-32.62"/>
</a>
</g>
</g>
</g>
</svg>
