<?xml version="1.0" encoding="UTF-8" standalone="no"?>
<!DOCTYPE svg PUBLIC "-//W3C//DTD SVG 1.1//EN"
 "http://www.w3.org/Graphics/SVG/1.1/DTD/svg11.dtd">
<!-- Generated by graphviz version 14.0.1 (0)
 -->
<!-- Title: Ping.hpp Pages: 1 -->
<svg width="274pt" height="142pt"
 viewBox="0.00 0.00 274.00 142.00" xmlns="http://www.w3.org/2000/svg" xmlns:xlink="http://www.w3.org/1999/xlink">
<g id="graph0" class="graph" transform="scale(1 1) rotate(0) translate(4 138.25)">
<title>Ping.hpp</title>
<!-- Node1 -->
<g id="Node000001" class="node">
<title>Node1</title>
<g id="a_Node000001"><a xlink:title=" ">
<polygon fill="#999999" stroke="#666666" points="185.12,-134.25 127.12,-134.25 127.12,-113.5 185.12,-113.5 185.12,-134.25"/>
<text xml:space="preserve" text-anchor="middle" x="156.12" y="-120.75" font-family="Helvetica,sans-Serif" font-size="10.00">Ping.hpp</text>
</a>
</g>
</g>
<!-- Node2 -->
<g id="Node000002" class="node">
<title>Node2</title>
<g id="a_Node000002"><a xlink:href="../../de/dd6/ICommand_8hpp.html" target="_top" xlink:title=" ">
<polygon fill="white" stroke="#666666" points="90.25,-77.5 0,-77.5 0,-56.75 90.25,-56.75 90.25,-77.5"/>
<text xml:space="preserve" text-anchor="middle" x="45.12" y="-64" font-family="Helvetica,sans-Serif" font-size="10.00">ICommand.hpp</text>
</a>
</g>
</g>
<!-- Node1&#45;&gt;Node2 -->
<g id="edge1_Node000001_Node000002" class="edge">
<title>Node1&#45;&gt;Node2</title>
<g id="a_edge1_Node000001_Node000002"><a xlink:title=" ">
<path fill="none" stroke="#63b8ff" d="M136.28,-113.09C119.23,-104.68 94.4,-92.43 74.96,-82.84"/>
<polygon fill="#63b8ff" stroke="#63b8ff" points="76.67,-79.78 66.16,-78.5 73.58,-86.06 76.67,-79.78"/>
</a>
</g>
</g>
<!-- Node4 -->
<g id="Node000004" class="node">
<title>Node4</title>
<g id="a_Node000004"><a xlink:href="../../d8/d9c/reply__codes_8hpp.html" target="_top" xlink:title=" ">
<polygon fill="white" stroke="#666666" points="203.88,-77.5 108.38,-77.5 108.38,-56.75 203.88,-56.75 203.88,-77.5"/>
<text xml:space="preserve" text-anchor="middle" x="156.12" y="-64" font-family="Helvetica,sans-Serif" font-size="10.00">reply_codes.hpp</text>
</a>
</g>
</g>
<!-- Node1&#45;&gt;Node4 -->
<g id="edge3_Node000001_Node000004" class="edge">
<title>Node1&#45;&gt;Node4</title>
<g id="a_edge3_Node000001_Node000004"><a xlink:title=" ">
<path fill="none" stroke="#63b8ff" d="M156.12,-113.09C156.12,-106.47 156.12,-97.47 156.12,-89.27"/>
<polygon fill="#63b8ff" stroke="#63b8ff" points="159.63,-89.34 156.13,-79.34 152.63,-89.34 159.63,-89.34"/>
</a>
</g>
</g>
<!-- Node5 -->
<g id="Node000005" class="node">
<title>Node5</title>
<g id="a_Node000005"><a xlink:title=" ">
<polygon fill="#e0e0e0" stroke="#999999" points="266,-77.5 222.25,-77.5 222.25,-56.75 266,-56.75 266,-77.5"/>
<text xml:space="preserve" text-anchor="middle" x="244.12" y="-64" font-family="Helvetica,sans-Serif" font-size="10.00">string</text>
</a>
</g>
</g>
<!-- Node1&#45;&gt;Node5 -->
<g id="edge4_Node000001_Node000005" class="edge">
<title>Node1&#45;&gt;Node5</title>
<g id="a_edge4_Node000001_Node000005"><a xlink:title=" ">
<path fill="none" stroke="#63b8ff" d="M171.86,-113.09C185,-104.91 203.97,-93.11 219.18,-83.65"/>
<polygon fill="#63b8ff" stroke="#63b8ff" points="220.6,-86.88 227.24,-78.63 216.9,-80.94 220.6,-86.88"/>
</a>
</g>
</g>
<!-- Node3 -->
<g id="Node000003" class="node">
<title>Node3</title>
<g id="a_Node000003"><a xlink:title=" ">
<polygon fill="#e0e0e0" stroke="#999999" points="68.5,-20.75 21.75,-20.75 21.75,0 68.5,0 68.5,-20.75"/>
<text xml:space="preserve" text-anchor="middle" x="45.12" y="-7.25" font-family="Helvetica,sans-Serif" font-size="10.00">vector</text>
</a>
</g>
</g>
<!-- Node2&#45;&gt;Node3 -->
<g id="edge2_Node000002_Node000003" class="edge">
<title>Node2&#45;&gt;Node3</title>
<g id="a_edge2_Node000002_Node000003"><a xlink:title=" ">
<path fill="none" stroke="#63b8ff" d="M45.12,-56.34C45.12,-49.72 45.12,-40.72 45.12,-32.52"/>
<polygon fill="#63b8ff" stroke="#63b8ff" points="48.63,-32.59 45.13,-22.59 41.63,-32.59 48.63,-32.59"/>
</a>
</g>
</g>
</g>
</svg>
