<?xml version="1.0" encoding="UTF-8" standalone="no"?>
<!DOCTYPE svg PUBLIC "-//W3C//DTD SVG 1.1//EN"
 "http://www.w3.org/Graphics/SVG/1.1/DTD/svg11.dtd">
<!-- Generated by graphviz version 14.0.1 (0)
 -->
<!-- Title: Kick.hpp Pages: 1 -->
<svg width="312pt" height="142pt"
 viewBox="0.00 0.00 312.00 142.00" xmlns="http://www.w3.org/2000/svg" xmlns:xlink="http://www.w3.org/1999/xlink">
<g id="graph0" class="graph" transform="scale(1 1) rotate(0) translate(4 138.25)">
<title>Kick.hpp</title>
<!-- Node1 -->
<g id="Node000001" class="node">
<title>Node1</title>
<g id="a_Node000001"><a xlink:title=" ">
<polygon fill="#999999" stroke="#666666" points="185.12,-134.25 127.12,-134.25 127.12,-113.5 185.12,-113.5 185.12,-134.25"/>
<text xml:space="preserve" text-anchor="middle" x="156.12" y="-120.75" font-family="Helvetica,sans-Serif" font-size="10.00">Kick.hpp</text>
</a>
</g>
</g>
<!-- Node2 -->
<g id="Node000002" class="node">
<title>Node2</title>
<g id="a_Node000002"><a xlink:href="../../de/dd6/ICommand_8hpp.html" target="_top" xlink:title=" ">
<polygon fill="white" stroke="#666666" points="90.25,-77.5 0,-77.5 0,-56.75 90.25,-56.75 90.25,-77.5"/>
<text xml:space="preserve" text-anchor="middle" x="45.12" y="-64" font-family="Helvetica,sans-Serif" font-size="10.00">ICommand.hpp</text>
</a>
</g>
</g>
<!-- Node1&#45;&gt;Node2 -->
<g id="edge1_Node000001_Node000002" class="edge">
<title>Node1&#45;&gt;Node2</title>
<g id="a_edge1_Node000001_Node000002"><a xlink:title=" ">
<path fill="none" stroke="#63b8ff" d="M136.28,-113.09C119.23,-104.68 94.4,-92.43 74.96,-82.84"/>
<polygon fill="#63b8ff" stroke="#63b8ff" points="76.67,-79.78 66.16,-78.5 73.58,-86.06 76.67,-79.78"/>
</a>
</g>
</g>
<!-- Node3 -->
<g id="Node000003" class="node">
<title>Node3</title>
<g id="a_Node000003"><a xlink:title=" ">
<polygon fill="#e0e0e0" stroke="#999999" points="104.5,-20.75 57.75,-20.75 57.75,0 104.5,0 104.5,-20.75"/>
<text xml:space="preserve" text-anchor="middle" x="81.12" y="-7.25" font-family="Helvetica,sans-Serif" font-size="10.00">vector</text>
</a>
</g>
</g>
<!-- Node1&#45;&gt;Node3 -->
<g id="edge5_Node000001_Node000003" class="edge">
<title>Node1&#45;&gt;Node3</title>
<g id="a_edge5_Node000001_Node000003"><a xlink:title=" ">
<path fill="none" stroke="#63b8ff" d="M149.73,-113.37C137.45,-95.11 110.34,-54.81 94.12,-30.7"/>
<polygon fill="#63b8ff" stroke="#63b8ff" points="97.05,-28.78 88.56,-22.43 91.24,-32.68 97.05,-28.78"/>
</a>
</g>
</g>
<!-- Node4 -->
<g id="Node000004" class="node">
<title>Node4</title>
<g id="a_Node000004"><a xlink:href="../../d8/d9c/reply__codes_8hpp.html" target="_top" xlink:title=" ">
<polygon fill="white" stroke="#666666" points="241.88,-77.5 146.38,-77.5 146.38,-56.75 241.88,-56.75 241.88,-77.5"/>
<text xml:space="preserve" text-anchor="middle" x="194.12" y="-64" font-family="Helvetica,sans-Serif" font-size="10.00">reply_codes.hpp</text>
</a>
</g>
</g>
<!-- Node1&#45;&gt;Node4 -->
<g id="edge3_Node000001_Node000004" class="edge">
<title>Node1&#45;&gt;Node4</title>
<g id="a_edge3_Node000001_Node000004"><a xlink:title=" ">
<path fill="none" stroke="#63b8ff" d="M162.92,-113.09C167.89,-105.92 174.79,-95.98 180.85,-87.26"/>
<polygon fill="#63b8ff" stroke="#63b8ff" points="183.7,-89.28 186.53,-79.07 177.95,-85.29 183.7,-89.28"/>
</a>
</g>
</g>
<!-- Node5 -->
<g id="Node000005" class="node">
<title>Node5</title>
<g id="a_Node000005"><a xlink:title=" ">
<polygon fill="#e0e0e0" stroke="#999999" points="304,-77.5 260.25,-77.5 260.25,-56.75 304,-56.75 304,-77.5"/>
<text xml:space="preserve" text-anchor="middle" x="282.12" y="-64" font-family="Helvetica,sans-Serif" font-size="10.00">string</text>
</a>
</g>
</g>
<!-- Node1&#45;&gt;Node5 -->
<g id="edge4_Node000001_Node000005" class="edge">
<title>Node1&#45;&gt;Node5</title>
<g id="a_edge4_Node000001_Node000005"><a xlink:title=" ">
<path fill="none" stroke="#63b8ff" d="M178.65,-113.09C198.36,-104.52 227.23,-91.98 249.48,-82.31"/>
<polygon fill="#63b8ff" stroke="#63b8ff" points="250.63,-85.63 258.41,-78.43 247.84,-79.21 250.63,-85.63"/>
</a>
</g>
</g>
<!-- Node2&#45;&gt;Node3 -->
<g id="edge2_Node000002_Node000003" class="edge">
<title>Node2&#45;&gt;Node3</title>
<g id="a_edge2_Node000002_Node000003"><a xlink:title=" ">
<path fill="none" stroke="#63b8ff" d="M51.56,-56.34C56.27,-49.17 62.81,-39.23 68.54,-30.51"/>
<polygon fill="#63b8ff" stroke="#63b8ff" points="71.34,-32.62 73.91,-22.34 65.49,-28.78 71.34,-32.62"/>
</a>
</g>
</g>
</g>
</svg>
