<?xml version="1.0" encoding="UTF-8" standalone="no"?>
<!DOCTYPE svg PUBLIC "-//W3C//DTD SVG 1.1//EN"
 "http://www.w3.org/Graphics/SVG/1.1/DTD/svg11.dtd">
<!-- Generated by graphviz version 14.0.1 (0)
 -->
<!-- Title: Kick.hpp Pages: 1 -->
<svg width="198pt" height="142pt"
 viewBox="0.00 0.00 198.00 142.00" xmlns="http://www.w3.org/2000/svg" xmlns:xlink="http://www.w3.org/1999/xlink">
<g id="graph0" class="graph" transform="scale(1 1) rotate(0) translate(4 138.25)">
<title>Kick.hpp</title>
<!-- Node1 -->
<g id="Node000001" class="node">
<title>Node1</title>
<g id="a_Node000001"><a xlink:title="Implements IRC KICK command.">
<polygon fill="#999999" stroke="#666666" points="147.12,-134.25 89.12,-134.25 89.12,-113.5 147.12,-113.5 147.12,-134.25"/>
<text xml:space="preserve" text-anchor="middle" x="118.12" y="-120.75" font-family="Helvetica,sans-Serif" font-size="10.00">Kick.hpp</text>
</a>
</g>
</g>
<!-- Node2 -->
<g id="Node000002" class="node">
<title>Node2</title>
<g id="a_Node000002"><a xlink:href="../../de/dd6/ICommand_8hpp.html" target="_top" xlink:title="command interface">
<polygon fill="white" stroke="#666666" points="90.25,-77.5 0,-77.5 0,-56.75 90.25,-56.75 90.25,-77.5"/>
<text xml:space="preserve" text-anchor="middle" x="45.12" y="-64" font-family="Helvetica,sans-Serif" font-size="10.00">ICommand.hpp</text>
</a>
</g>
</g>
<!-- Node1&#45;&gt;Node2 -->
<g id="edge1_Node000001_Node000002" class="edge">
<title>Node1&#45;&gt;Node2</title>
<g id="a_edge1_Node000001_Node000002"><a xlink:title=" ">
<path fill="none" stroke="#63b8ff" d="M105.07,-113.09C94.49,-105.15 79.33,-93.78 66.91,-84.46"/>
<polygon fill="#63b8ff" stroke="#63b8ff" points="69.37,-81.94 59.27,-78.74 65.17,-87.54 69.37,-81.94"/>
</a>
</g>
</g>
<!-- Node3 -->
<g id="Node000003" class="node">
<title>Node3</title>
<g id="a_Node000003"><a xlink:title=" ">
<polygon fill="#e0e0e0" stroke="#999999" points="104.5,-20.75 57.75,-20.75 57.75,0 104.5,0 104.5,-20.75"/>
<text xml:space="preserve" text-anchor="middle" x="81.12" y="-7.25" font-family="Helvetica,sans-Serif" font-size="10.00">vector</text>
</a>
</g>
</g>
<!-- Node1&#45;&gt;Node3 -->
<g id="edge4_Node000001_Node000003" class="edge">
<title>Node1&#45;&gt;Node3</title>
<g id="a_edge4_Node000001_Node000003"><a xlink:title=" ">
<path fill="none" stroke="#63b8ff" d="M115.71,-113.37C112.35,-100.44 105.91,-76.65 99.12,-56.75 96.29,-48.44 92.8,-39.43 89.65,-31.64"/>
<polygon fill="#63b8ff" stroke="#63b8ff" points="92.89,-30.31 85.84,-22.41 86.42,-32.99 92.89,-30.31"/>
</a>
</g>
</g>
<!-- Node4 -->
<g id="Node000004" class="node">
<title>Node4</title>
<g id="a_Node000004"><a xlink:title=" ">
<polygon fill="#e0e0e0" stroke="#999999" points="190,-77.5 146.25,-77.5 146.25,-56.75 190,-56.75 190,-77.5"/>
<text xml:space="preserve" text-anchor="middle" x="168.12" y="-64" font-family="Helvetica,sans-Serif" font-size="10.00">string</text>
</a>
</g>
</g>
<!-- Node1&#45;&gt;Node4 -->
<g id="edge3_Node000001_Node000004" class="edge">
<title>Node1&#45;&gt;Node4</title>
<g id="a_edge3_Node000001_Node000004"><a xlink:title=" ">
<path fill="none" stroke="#63b8ff" d="M127.06,-113.09C133.89,-105.61 143.49,-95.11 151.68,-86.13"/>
<polygon fill="#63b8ff" stroke="#63b8ff" points="154.08,-88.69 158.24,-78.95 148.91,-83.97 154.08,-88.69"/>
</a>
</g>
</g>
<!-- Node2&#45;&gt;Node3 -->
<g id="edge2_Node000002_Node000003" class="edge">
<title>Node2&#45;&gt;Node3</title>
<g id="a_edge2_Node000002_Node000003"><a xlink:title=" ">
<path fill="none" stroke="#63b8ff" d="M51.56,-56.34C56.27,-49.17 62.81,-39.23 68.54,-30.51"/>
<polygon fill="#63b8ff" stroke="#63b8ff" points="71.34,-32.62 73.91,-22.34 65.49,-28.78 71.34,-32.62"/>
</a>
</g>
</g>
</g>
</svg>
