<?xml version="1.0" encoding="UTF-8" standalone="no"?>
<!DOCTYPE svg PUBLIC "-//W3C//DTD SVG 1.1//EN"
 "http://www.w3.org/Graphics/SVG/1.1/DTD/svg11.dtd">
<!-- Generated by graphviz version 14.0.1 (0)
 -->
<!-- Title: Bot.hpp Pages: 1 -->
<svg width="720pt" height="256pt"
 viewBox="0.00 0.00 720.00 256.00" xmlns="http://www.w3.org/2000/svg" xmlns:xlink="http://www.w3.org/1999/xlink">
<g id="graph0" class="graph" transform="scale(1 1) rotate(0) translate(4 251.75)">
<title>Bot.hpp</title>
<!-- Node1 -->
<g id="Node000001" class="node">
<title>Node1</title>
<g id="a_Node000001"><a xlink:title="Implements BOT Command (non RFC)">
<polygon fill="#999999" stroke="#666666" points="423.5,-247.75 370,-247.75 370,-227 423.5,-227 423.5,-247.75"/>
<text xml:space="preserve" text-anchor="middle" x="396.75" y="-234.25" font-family="Helvetica,sans-Serif" font-size="10.00">Bot.hpp</text>
</a>
</g>
</g>
<!-- Node2 -->
<g id="Node000002" class="node">
<title>Node2</title>
<g id="a_Node000002"><a xlink:href="../../d7/d42/Channel_8hpp.html" target="_top" xlink:title="Channel class.">
<polygon fill="white" stroke="#666666" points="235.12,-134.25 158.38,-134.25 158.38,-113.5 235.12,-113.5 235.12,-134.25"/>
<text xml:space="preserve" text-anchor="middle" x="196.75" y="-120.75" font-family="Helvetica,sans-Serif" font-size="10.00">Channel.hpp</text>
</a>
</g>
</g>
<!-- Node1&#45;&gt;Node2 -->
<g id="edge1_Node000001_Node000002" class="edge">
<title>Node1&#45;&gt;Node2</title>
<g id="a_edge1_Node000001_Node000002"><a xlink:title=" ">
<path fill="none" stroke="#63b8ff" d="M369.69,-228.46C345.27,-220.74 308.84,-207.71 279.75,-191 255.71,-177.19 231.26,-156.77 215.18,-142.28"/>
<polygon fill="#63b8ff" stroke="#63b8ff" points="217.59,-139.75 207.86,-135.56 212.86,-144.9 217.59,-139.75"/>
</a>
</g>
</g>
<!-- Node5 -->
<g id="Node000005" class="node">
<title>Node5</title>
<g id="a_Node000005"><a xlink:title=" ">
<polygon fill="#e0e0e0" stroke="#999999" points="353.62,-20.75 309.88,-20.75 309.88,0 353.62,0 353.62,-20.75"/>
<text xml:space="preserve" text-anchor="middle" x="331.75" y="-7.25" font-family="Helvetica,sans-Serif" font-size="10.00">string</text>
</a>
</g>
</g>
<!-- Node1&#45;&gt;Node5 -->
<g id="edge28_Node000001_Node000005" class="edge">
<title>Node1&#45;&gt;Node5</title>
<g id="a_edge28_Node000001_Node000005"><a xlink:title=" ">
<path fill="none" stroke="#63b8ff" d="M369.6,-229.69C350.03,-223.29 324.98,-211.5 312.75,-191 282.44,-140.19 307.13,-66.7 322.21,-31.57"/>
<polygon fill="#63b8ff" stroke="#63b8ff" points="325.34,-33.15 326.24,-22.59 318.95,-30.28 325.34,-33.15"/>
</a>
</g>
</g>
<!-- Node8 -->
<g id="Node000008" class="node">
<title>Node8</title>
<g id="a_Node000008"><a xlink:href="../../d3/d8e/Client_8hpp.html" target="_top" xlink:title="Client class.">
<polygon fill="white" stroke="#666666" points="387.5,-191 322,-191 322,-170.25 387.5,-170.25 387.5,-191"/>
<text xml:space="preserve" text-anchor="middle" x="354.75" y="-177.5" font-family="Helvetica,sans-Serif" font-size="10.00">Client.hpp</text>
</a>
</g>
</g>
<!-- Node1&#45;&gt;Node8 -->
<g id="edge9_Node000001_Node000008" class="edge">
<title>Node1&#45;&gt;Node8</title>
<g id="a_edge9_Node000001_Node000008"><a xlink:title=" ">
<path fill="none" stroke="#63b8ff" d="M389.24,-226.59C383.63,-219.27 375.78,-209.04 368.99,-200.19"/>
<polygon fill="#63b8ff" stroke="#63b8ff" points="371.98,-198.33 363.11,-192.53 366.42,-202.59 371.98,-198.33"/>
</a>
</g>
</g>
<!-- Node9 -->
<g id="Node000009" class="node">
<title>Node9</title>
<g id="a_Node000009"><a xlink:href="../../da/d81/TcpSocket_8hpp.html" target="_top" xlink:title="TcpSocket class.">
<polygon fill="white" stroke="#666666" points="542.25,-134.25 457.25,-134.25 457.25,-113.5 542.25,-113.5 542.25,-134.25"/>
<text xml:space="preserve" text-anchor="middle" x="499.75" y="-120.75" font-family="Helvetica,sans-Serif" font-size="10.00">TcpSocket.hpp</text>
</a>
</g>
</g>
<!-- Node1&#45;&gt;Node9 -->
<g id="edge27_Node000001_Node000009" class="edge">
<title>Node1&#45;&gt;Node9</title>
<g id="a_edge27_Node000001_Node000009"><a xlink:title=" ">
<path fill="none" stroke="#63b8ff" d="M423.88,-228.59C443.06,-221.72 467.89,-209.81 482.75,-191 492.87,-178.18 497.02,-160 498.7,-145.95"/>
<polygon fill="#63b8ff" stroke="#63b8ff" points="502.19,-146.23 499.52,-135.98 495.21,-145.66 502.19,-146.23"/>
</a>
</g>
</g>
<!-- Node13 -->
<g id="Node000013" class="node">
<title>Node13</title>
<g id="a_Node000013"><a xlink:href="../../de/dd6/ICommand_8hpp.html" target="_top" xlink:title="command interface">
<polygon fill="white" stroke="#666666" points="696.88,-191 606.62,-191 606.62,-170.25 696.88,-170.25 696.88,-191"/>
<text xml:space="preserve" text-anchor="middle" x="651.75" y="-177.5" font-family="Helvetica,sans-Serif" font-size="10.00">ICommand.hpp</text>
</a>
</g>
</g>
<!-- Node1&#45;&gt;Node13 -->
<g id="edge19_Node000001_Node000013" class="edge">
<title>Node1&#45;&gt;Node13</title>
<g id="a_edge19_Node000001_Node000013"><a xlink:title=" ">
<path fill="none" stroke="#63b8ff" d="M423.56,-230.62C464.15,-221.9 542.12,-205.16 595.51,-193.7"/>
<polygon fill="#63b8ff" stroke="#63b8ff" points="595.99,-197.18 605.03,-191.66 594.52,-190.33 595.99,-197.18"/>
</a>
</g>
</g>
<!-- Node14 -->
<g id="Node000014" class="node">
<title>Node14</title>
<g id="a_Node000014"><a xlink:href="../../de/d3d/Server_8hpp.html" target="_top" xlink:title="Server class.">
<polygon fill="white" stroke="#666666" points="473.62,-191 405.88,-191 405.88,-170.25 473.62,-170.25 473.62,-191"/>
<text xml:space="preserve" text-anchor="middle" x="439.75" y="-177.5" font-family="Helvetica,sans-Serif" font-size="10.00">Server.hpp</text>
</a>
</g>
</g>
<!-- Node1&#45;&gt;Node14 -->
<g id="edge21_Node000001_Node000014" class="edge">
<title>Node1&#45;&gt;Node14</title>
<g id="a_edge21_Node000001_Node000014"><a xlink:title=" ">
<path fill="none" stroke="#63b8ff" d="M404.44,-226.59C410.19,-219.27 418.22,-209.04 425.17,-200.19"/>
<polygon fill="#63b8ff" stroke="#63b8ff" points="427.77,-202.55 431.19,-192.52 422.26,-198.22 427.77,-202.55"/>
</a>
</g>
</g>
<!-- Node3 -->
<g id="Node000003" class="node">
<title>Node3</title>
<g id="a_Node000003"><a xlink:href="../../da/dcb/ReplyHandler_8hpp.html" target="_top" xlink:title="ReplyHandler class.">
<polygon fill="white" stroke="#666666" points="227.88,-77.5 125.62,-77.5 125.62,-56.75 227.88,-56.75 227.88,-77.5"/>
<text xml:space="preserve" text-anchor="middle" x="176.75" y="-64" font-family="Helvetica,sans-Serif" font-size="10.00">ReplyHandler.hpp</text>
</a>
</g>
</g>
<!-- Node2&#45;&gt;Node3 -->
<g id="edge2_Node000002_Node000003" class="edge">
<title>Node2&#45;&gt;Node3</title>
<g id="a_edge2_Node000002_Node000003"><a xlink:title=" ">
<path fill="none" stroke="#63b8ff" d="M193.17,-113.09C190.67,-106.24 187.24,-96.84 184.16,-88.4"/>
<polygon fill="#63b8ff" stroke="#63b8ff" points="187.53,-87.44 180.81,-79.25 180.96,-89.84 187.53,-87.44"/>
</a>
</g>
</g>
<!-- Node4 -->
<g id="Node000004" class="node">
<title>Node4</title>
<g id="a_Node000004"><a xlink:href="../../d8/d9c/reply__codes_8hpp.html" target="_top" xlink:title="Numerical reply codes.">
<polygon fill="white" stroke="#666666" points="95.5,-20.75 0,-20.75 0,0 95.5,0 95.5,-20.75"/>
<text xml:space="preserve" text-anchor="middle" x="47.75" y="-7.25" font-family="Helvetica,sans-Serif" font-size="10.00">reply_codes.hpp</text>
</a>
</g>
</g>
<!-- Node2&#45;&gt;Node4 -->
<g id="edge5_Node000002_Node000004" class="edge">
<title>Node2&#45;&gt;Node4</title>
<g id="a_edge5_Node000002_Node000004"><a xlink:title=" ">
<path fill="none" stroke="#63b8ff" d="M158.05,-118.89C129.11,-113.9 90.56,-102.69 66.75,-77.5 55.2,-65.28 50.61,-46.51 48.81,-32.08"/>
<polygon fill="#63b8ff" stroke="#63b8ff" points="52.32,-31.97 47.98,-22.3 45.34,-32.57 52.32,-31.97"/>
</a>
</g>
</g>
<!-- Node2&#45;&gt;Node5 -->
<g id="edge7_Node000002_Node000005" class="edge">
<title>Node2&#45;&gt;Node5</title>
<g id="a_edge7_Node000002_Node000005"><a xlink:title=" ">
<path fill="none" stroke="#63b8ff" d="M208.26,-113.37C231.06,-94.54 282.25,-52.26 311.05,-28.47"/>
<polygon fill="#63b8ff" stroke="#63b8ff" points="313.24,-31.21 318.72,-22.14 308.78,-25.81 313.24,-31.21"/>
</a>
</g>
</g>
<!-- Node6 -->
<g id="Node000006" class="node">
<title>Node6</title>
<g id="a_Node000006"><a xlink:title=" ">
<polygon fill="#e0e0e0" stroke="#999999" points="107.25,-77.5 76.25,-77.5 76.25,-56.75 107.25,-56.75 107.25,-77.5"/>
<text xml:space="preserve" text-anchor="middle" x="91.75" y="-64" font-family="Helvetica,sans-Serif" font-size="10.00">set</text>
</a>
</g>
</g>
<!-- Node2&#45;&gt;Node6 -->
<g id="edge6_Node000002_Node000006" class="edge">
<title>Node2&#45;&gt;Node6</title>
<g id="a_edge6_Node000002_Node000006"><a xlink:title=" ">
<path fill="none" stroke="#63b8ff" d="M177.98,-113.09C161.21,-104.34 136.49,-91.45 117.81,-81.71"/>
<polygon fill="#63b8ff" stroke="#63b8ff" points="119.44,-78.62 108.96,-77.1 116.21,-84.82 119.44,-78.62"/>
</a>
</g>
</g>
<!-- Node7 -->
<g id="Node000007" class="node">
<title>Node7</title>
<g id="a_Node000007"><a xlink:title=" ">
<polygon fill="#e0e0e0" stroke="#999999" points="652.12,-20.75 605.38,-20.75 605.38,0 652.12,0 652.12,-20.75"/>
<text xml:space="preserve" text-anchor="middle" x="628.75" y="-7.25" font-family="Helvetica,sans-Serif" font-size="10.00">vector</text>
</a>
</g>
</g>
<!-- Node2&#45;&gt;Node7 -->
<g id="edge8_Node000002_Node000007" class="edge">
<title>Node2&#45;&gt;Node7</title>
<g id="a_edge8_Node000002_Node000007"><a xlink:title=" ">
<path fill="none" stroke="#63b8ff" d="M234.71,-113.08C317.72,-91.65 514.33,-40.91 594.16,-20.3"/>
<polygon fill="#63b8ff" stroke="#63b8ff" points="594.79,-23.75 603.6,-17.87 593.04,-16.98 594.79,-23.75"/>
</a>
</g>
</g>
<!-- Node3&#45;&gt;Node4 -->
<g id="edge3_Node000003_Node000004" class="edge">
<title>Node3&#45;&gt;Node4</title>
<g id="a_edge3_Node000003_Node000004"><a xlink:title=" ">
<path fill="none" stroke="#63b8ff" d="M153.69,-56.34C133.51,-47.77 103.95,-35.23 81.18,-25.56"/>
<polygon fill="#63b8ff" stroke="#63b8ff" points="82.58,-22.35 72.01,-21.67 79.84,-28.8 82.58,-22.35"/>
</a>
</g>
</g>
<!-- Node3&#45;&gt;Node5 -->
<g id="edge4_Node000003_Node000005" class="edge">
<title>Node3&#45;&gt;Node5</title>
<g id="a_edge4_Node000003_Node000005"><a xlink:title=" ">
<path fill="none" stroke="#63b8ff" d="M204.46,-56.34C230.94,-46.98 270.87,-32.88 298.93,-22.97"/>
<polygon fill="#63b8ff" stroke="#63b8ff" points="300.1,-26.27 308.36,-19.64 297.76,-19.67 300.1,-26.27"/>
</a>
</g>
</g>
<!-- Node8&#45;&gt;Node4 -->
<g id="edge16_Node000008_Node000004" class="edge">
<title>Node8&#45;&gt;Node4</title>
<g id="a_edge16_Node000008_Node000004"><a xlink:title=" ">
<path fill="none" stroke="#63b8ff" d="M321.55,-175.43C280.24,-169.51 208.05,-156.81 149.75,-134.25 102.45,-115.95 77.16,-120.79 50.75,-77.5 42.59,-64.13 42.27,-46.26 43.75,-32.46"/>
<polygon fill="#63b8ff" stroke="#63b8ff" points="47.2,-33.09 45.22,-22.68 40.28,-32.05 47.2,-33.09"/>
</a>
</g>
</g>
<!-- Node8&#45;&gt;Node5 -->
<g id="edge18_Node000008_Node000005" class="edge">
<title>Node8&#45;&gt;Node5</title>
<g id="a_edge18_Node000008_Node000005"><a xlink:title=" ">
<path fill="none" stroke="#63b8ff" d="M353.45,-170.1C349.84,-143.73 339.67,-69.33 334.64,-32.53"/>
<polygon fill="#63b8ff" stroke="#63b8ff" points="338.12,-32.15 333.3,-22.72 331.19,-33.1 338.12,-32.15"/>
</a>
</g>
</g>
<!-- Node8&#45;&gt;Node9 -->
<g id="edge10_Node000008_Node000009" class="edge">
<title>Node8&#45;&gt;Node9</title>
<g id="a_edge10_Node000008_Node000009"><a xlink:title=" ">
<path fill="none" stroke="#63b8ff" d="M380.67,-169.84C403.77,-161.12 437.79,-148.27 463.57,-138.54"/>
<polygon fill="#63b8ff" stroke="#63b8ff" points="464.52,-141.92 472.64,-135.11 462.04,-135.37 464.52,-141.92"/>
</a>
</g>
</g>
<!-- Node12 -->
<g id="Node000012" class="node">
<title>Node12</title>
<g id="a_Node000012"><a xlink:title=" ">
<polygon fill="#e0e0e0" stroke="#999999" points="397.62,-134.25 359.88,-134.25 359.88,-113.5 397.62,-113.5 397.62,-134.25"/>
<text xml:space="preserve" text-anchor="middle" x="378.75" y="-120.75" font-family="Helvetica,sans-Serif" font-size="10.00">map</text>
</a>
</g>
</g>
<!-- Node8&#45;&gt;Node12 -->
<g id="edge17_Node000008_Node000012" class="edge">
<title>Node8&#45;&gt;Node12</title>
<g id="a_edge17_Node000008_Node000012"><a xlink:title=" ">
<path fill="none" stroke="#63b8ff" d="M359.04,-169.84C362.08,-162.91 366.26,-153.37 369.99,-144.86"/>
<polygon fill="#63b8ff" stroke="#63b8ff" points="373.08,-146.53 373.89,-135.96 366.67,-143.72 373.08,-146.53"/>
</a>
</g>
</g>
<!-- Node9&#45;&gt;Node5 -->
<g id="edge15_Node000009_Node000005" class="edge">
<title>Node9&#45;&gt;Node5</title>
<g id="a_edge15_Node000009_Node000005"><a xlink:title=" ">
<path fill="none" stroke="#63b8ff" d="M485.13,-113.18C456.22,-93.98 391.44,-50.99 356.02,-27.48"/>
<polygon fill="#63b8ff" stroke="#63b8ff" points="357.98,-24.58 347.71,-21.97 354.11,-30.41 357.98,-24.58"/>
</a>
</g>
</g>
<!-- Node10 -->
<g id="Node000010" class="node">
<title>Node10</title>
<g id="a_Node000010"><a xlink:href="../../df/dd7/consts_8hpp.html" target="_top" xlink:title="constants used throughout IRC server program">
<polygon fill="white" stroke="#666666" points="632,-77.5 563.5,-77.5 563.5,-56.75 632,-56.75 632,-77.5"/>
<text xml:space="preserve" text-anchor="middle" x="597.75" y="-64" font-family="Helvetica,sans-Serif" font-size="10.00">consts.hpp</text>
</a>
</g>
</g>
<!-- Node9&#45;&gt;Node10 -->
<g id="edge11_Node000009_Node000010" class="edge">
<title>Node9&#45;&gt;Node10</title>
<g id="a_edge11_Node000009_Node000010"><a xlink:title=" ">
<path fill="none" stroke="#63b8ff" d="M517.27,-113.09C532.04,-104.83 553.43,-92.88 570.45,-83.38"/>
<polygon fill="#63b8ff" stroke="#63b8ff" points="572.04,-86.5 579.06,-78.57 568.62,-80.39 572.04,-86.5"/>
</a>
</g>
</g>
<!-- Node11 -->
<g id="Node000011" class="node">
<title>Node11</title>
<g id="a_Node000011"><a xlink:title=" ">
<polygon fill="#e0e0e0" stroke="#999999" points="545.5,-77.5 474,-77.5 474,-56.75 545.5,-56.75 545.5,-77.5"/>
<text xml:space="preserve" text-anchor="middle" x="509.75" y="-64" font-family="Helvetica,sans-Serif" font-size="10.00">netinet/in.h</text>
</a>
</g>
</g>
<!-- Node9&#45;&gt;Node11 -->
<g id="edge14_Node000009_Node000011" class="edge">
<title>Node9&#45;&gt;Node11</title>
<g id="a_edge14_Node000009_Node000011"><a xlink:title=" ">
<path fill="none" stroke="#63b8ff" d="M501.54,-113.09C502.76,-106.39 504.43,-97.26 505.94,-88.98"/>
<polygon fill="#63b8ff" stroke="#63b8ff" points="509.35,-89.78 507.71,-79.32 502.47,-88.53 509.35,-89.78"/>
</a>
</g>
</g>
<!-- Node10&#45;&gt;Node5 -->
<g id="edge12_Node000010_Node000005" class="edge">
<title>Node10&#45;&gt;Node5</title>
<g id="a_edge12_Node000010_Node000005"><a xlink:title=" ">
<path fill="none" stroke="#63b8ff" d="M563.03,-58.51C560.23,-57.91 557.44,-57.32 554.75,-56.75 487.47,-42.57 408.6,-26.7 364.99,-17.99"/>
<polygon fill="#63b8ff" stroke="#63b8ff" points="365.9,-14.6 355.41,-16.08 364.53,-21.47 365.9,-14.6"/>
</a>
</g>
</g>
<!-- Node10&#45;&gt;Node7 -->
<g id="edge13_Node000010_Node000007" class="edge">
<title>Node10&#45;&gt;Node7</title>
<g id="a_edge13_Node000010_Node000007"><a xlink:title=" ">
<path fill="none" stroke="#63b8ff" d="M603.29,-56.34C607.26,-49.33 612.74,-39.66 617.59,-31.08"/>
<polygon fill="#63b8ff" stroke="#63b8ff" points="620.63,-32.82 622.51,-22.4 614.54,-29.37 620.63,-32.82"/>
</a>
</g>
</g>
<!-- Node13&#45;&gt;Node7 -->
<g id="edge20_Node000013_Node000007" class="edge">
<title>Node13&#45;&gt;Node7</title>
<g id="a_edge20_Node000013_Node000007"><a xlink:title=" ">
<path fill="none" stroke="#63b8ff" d="M672.14,-169.87C685.53,-162.23 701.96,-150.22 709.75,-134.25 713.79,-125.96 712.32,-122.36 709.75,-113.5 699.57,-78.45 670.06,-47.02 649.62,-28.57"/>
<polygon fill="#63b8ff" stroke="#63b8ff" points="651.96,-25.96 642.11,-22.03 647.36,-31.24 651.96,-25.96"/>
</a>
</g>
</g>
<!-- Node14&#45;&gt;Node5 -->
<g id="edge25_Node000014_Node000005" class="edge">
<title>Node14&#45;&gt;Node5</title>
<g id="a_edge25_Node000014_Node000005"><a xlink:title=" ">
<path fill="none" stroke="#63b8ff" d="M435.54,-169.93C429.7,-156.8 418.52,-132.77 406.75,-113.5 388.12,-82.98 362.91,-50.05 346.99,-30.07"/>
<polygon fill="#63b8ff" stroke="#63b8ff" points="349.74,-27.9 340.74,-22.3 344.28,-32.29 349.74,-27.9"/>
</a>
</g>
</g>
<!-- Node14&#45;&gt;Node7 -->
<g id="edge26_Node000014_Node000007" class="edge">
<title>Node14&#45;&gt;Node7</title>
<g id="a_edge26_Node000014_Node000007"><a xlink:title=" ">
<path fill="none" stroke="#63b8ff" d="M473.82,-174.22C521.74,-164.53 606.97,-139.11 640.75,-77.5 648.55,-63.27 644.34,-44.99 638.86,-31.26"/>
<polygon fill="#63b8ff" stroke="#63b8ff" points="642.14,-30.02 634.82,-22.36 635.76,-32.91 642.14,-30.02"/>
</a>
</g>
</g>
<!-- Node14&#45;&gt;Node9 -->
<g id="edge22_Node000014_Node000009" class="edge">
<title>Node14&#45;&gt;Node9</title>
<g id="a_edge22_Node000014_Node000009"><a xlink:title=" ">
<path fill="none" stroke="#63b8ff" d="M450.48,-169.84C458.84,-162.21 470.66,-151.42 480.63,-142.32"/>
<polygon fill="#63b8ff" stroke="#63b8ff" points="482.97,-144.92 488,-135.6 478.25,-139.75 482.97,-144.92"/>
</a>
</g>
</g>
<!-- Node14&#45;&gt;Node12 -->
<g id="edge23_Node000014_Node000012" class="edge">
<title>Node14&#45;&gt;Node12</title>
<g id="a_edge23_Node000014_Node000012"><a xlink:title=" ">
<path fill="none" stroke="#63b8ff" d="M428.84,-169.84C420.26,-162.13 408.08,-151.2 397.87,-142.04"/>
<polygon fill="#63b8ff" stroke="#63b8ff" points="400.47,-139.66 390.69,-135.59 395.79,-144.87 400.47,-139.66"/>
</a>
</g>
</g>
<!-- Node15 -->
<g id="Node000015" class="node">
<title>Node15</title>
<g id="a_Node000015"><a xlink:title=" ">
<polygon fill="#e0e0e0" stroke="#999999" points="700.25,-134.25 657.25,-134.25 657.25,-113.5 700.25,-113.5 700.25,-134.25"/>
<text xml:space="preserve" text-anchor="middle" x="678.75" y="-120.75" font-family="Helvetica,sans-Serif" font-size="10.00">poll.h</text>
</a>
</g>
</g>
<!-- Node14&#45;&gt;Node15 -->
<g id="edge24_Node000014_Node000015" class="edge">
<title>Node14&#45;&gt;Node15</title>
<g id="a_edge24_Node000014_Node000015"><a xlink:title=" ">
<path fill="none" stroke="#63b8ff" d="M473.96,-172.36C514.37,-163.69 583.61,-148.56 642.75,-134.25 643.91,-133.97 645.09,-133.68 646.29,-133.38"/>
<polygon fill="#63b8ff" stroke="#63b8ff" points="646.78,-136.87 655.61,-131.02 645.06,-130.09 646.78,-136.87"/>
</a>
</g>
</g>
</g>
</svg>
