<?xml version="1.0" encoding="UTF-8" standalone="no"?>
<!DOCTYPE svg PUBLIC "-//W3C//DTD SVG 1.1//EN"
 "http://www.w3.org/Graphics/SVG/1.1/DTD/svg11.dtd">
<!-- Generated by graphviz version 14.0.1 (0)
 -->
<!-- Title: ICommand.hpp Pages: 1 -->
<svg width="1161pt" height="86pt"
 viewBox="0.00 0.00 1161.00 86.00" xmlns="http://www.w3.org/2000/svg" xmlns:xlink="http://www.w3.org/1999/xlink">
<g id="graph0" class="graph" transform="scale(1 1) rotate(0) translate(4 81.5)">
<title>ICommand.hpp</title>
<!-- Node1 -->
<g id="Node000001" class="node">
<title>Node1</title>
<g id="a_Node000001"><a xlink:title="command interface">
<polygon fill="#999999" stroke="#666666" points="614.88,-77.5 524.62,-77.5 524.62,-56.75 614.88,-56.75 614.88,-77.5"/>
<text xml:space="preserve" text-anchor="middle" x="569.75" y="-64" font-family="Helvetica,sans-Serif" font-size="10.00">ICommand.hpp</text>
</a>
</g>
</g>
<!-- Node2 -->
<g id="Node000002" class="node">
<title>Node2</title>
<g id="a_Node000002"><a xlink:href="../../d8/d55/Bot_8hpp.html" target="_top" xlink:title="Implements BOT Command (non RFC)">
<polygon fill="white" stroke="#666666" points="53.5,-20.75 0,-20.75 0,0 53.5,0 53.5,-20.75"/>
<text xml:space="preserve" text-anchor="middle" x="26.75" y="-7.25" font-family="Helvetica,sans-Serif" font-size="10.00">Bot.hpp</text>
</a>
</g>
</g>
<!-- Node1&#45;&gt;Node2 -->
<g id="edge1_Node000001_Node000002" class="edge">
<title>Node1&#45;&gt;Node2</title>
<g id="a_edge1_Node000001_Node000002"><a xlink:title=" ">
<path fill="none" stroke="#63b8ff" d="M513.07,-64.11C418.94,-60.09 224.69,-48.88 62.75,-20.75 59.82,-20.24 56.79,-19.61 53.77,-18.92"/>
<polygon fill="#63b8ff" stroke="#63b8ff" points="512.67,-67.6 522.81,-64.52 512.96,-60.6 512.67,-67.6"/>
</a>
</g>
</g>
<!-- Node3 -->
<g id="Node000003" class="node">
<title>Node3</title>
<g id="a_Node000003"><a xlink:href="../../d0/d9f/Invite_8hpp.html" target="_top" xlink:title="Implements IRC INVITE command.">
<polygon fill="white" stroke="#666666" points="136.12,-20.75 71.38,-20.75 71.38,0 136.12,0 136.12,-20.75"/>
<text xml:space="preserve" text-anchor="middle" x="103.75" y="-7.25" font-family="Helvetica,sans-Serif" font-size="10.00">Invite.hpp</text>
</a>
</g>
</g>
<!-- Node1&#45;&gt;Node3 -->
<g id="edge2_Node000001_Node000003" class="edge">
<title>Node1&#45;&gt;Node3</title>
<g id="a_edge2_Node000001_Node000003"><a xlink:title=" ">
<path fill="none" stroke="#63b8ff" d="M512.94,-62.21C431.16,-56.09 275.68,-42.63 144.75,-20.75 142.01,-20.29 139.19,-19.76 136.35,-19.2"/>
<polygon fill="#63b8ff" stroke="#63b8ff" points="512.48,-65.69 522.71,-62.93 513,-58.7 512.48,-65.69"/>
</a>
</g>
</g>
<!-- Node4 -->
<g id="Node000004" class="node">
<title>Node4</title>
<g id="a_Node000004"><a xlink:href="../../da/dac/Join_8hpp.html" target="_top" xlink:title="Implement IRC JOIN Command.">
<polygon fill="white" stroke="#666666" points="209.25,-20.75 154.25,-20.75 154.25,0 209.25,0 209.25,-20.75"/>
<text xml:space="preserve" text-anchor="middle" x="181.75" y="-7.25" font-family="Helvetica,sans-Serif" font-size="10.00">Join.hpp</text>
</a>
</g>
</g>
<!-- Node1&#45;&gt;Node4 -->
<g id="edge3_Node000001_Node000004" class="edge">
<title>Node1&#45;&gt;Node4</title>
<g id="a_edge3_Node000001_Node000004"><a xlink:title=" ">
<path fill="none" stroke="#63b8ff" d="M513.18,-60.92C443.53,-54.02 321.81,-40.39 218.75,-20.75 215.76,-20.18 212.64,-19.51 209.55,-18.8"/>
<polygon fill="#63b8ff" stroke="#63b8ff" points="512.52,-64.37 522.81,-61.86 513.2,-57.4 512.52,-64.37"/>
</a>
</g>
</g>
<!-- Node5 -->
<g id="Node000005" class="node">
<title>Node5</title>
<g id="a_Node000005"><a xlink:href="../../dd/d85/Kick_8hpp.html" target="_top" xlink:title="Implements IRC KICK command.">
<polygon fill="white" stroke="#666666" points="285.75,-20.75 227.75,-20.75 227.75,0 285.75,0 285.75,-20.75"/>
<text xml:space="preserve" text-anchor="middle" x="256.75" y="-7.25" font-family="Helvetica,sans-Serif" font-size="10.00">Kick.hpp</text>
</a>
</g>
</g>
<!-- Node1&#45;&gt;Node5 -->
<g id="edge4_Node000001_Node000005" class="edge">
<title>Node1&#45;&gt;Node5</title>
<g id="a_edge4_Node000001_Node000005"><a xlink:title=" ">
<path fill="none" stroke="#63b8ff" d="M513.24,-58.12C457.47,-49.92 369.91,-36.2 294.75,-20.75 291.95,-20.18 289.05,-19.54 286.16,-18.87"/>
<polygon fill="#63b8ff" stroke="#63b8ff" points="512.4,-61.54 522.8,-59.52 513.41,-54.61 512.4,-61.54"/>
</a>
</g>
</g>
<!-- Node6 -->
<g id="Node000006" class="node">
<title>Node6</title>
<g id="a_Node000006"><a xlink:href="../../d5/d67/Mode_8hpp.html" target="_top" xlink:title="Implements IRC MODE command.">
<polygon fill="white" stroke="#666666" points="367.75,-20.75 303.75,-20.75 303.75,0 367.75,0 367.75,-20.75"/>
<text xml:space="preserve" text-anchor="middle" x="335.75" y="-7.25" font-family="Helvetica,sans-Serif" font-size="10.00">Mode.hpp</text>
</a>
</g>
</g>
<!-- Node1&#45;&gt;Node6 -->
<g id="edge5_Node000001_Node000006" class="edge">
<title>Node1&#45;&gt;Node6</title>
<g id="a_edge5_Node000001_Node000006"><a xlink:title=" ">
<path fill="none" stroke="#63b8ff" d="M516.46,-53.66C470.76,-42.96 406.41,-27.91 368.11,-18.95"/>
<polygon fill="#63b8ff" stroke="#63b8ff" points="515.64,-57.06 526.17,-55.93 517.23,-50.24 515.64,-57.06"/>
</a>
</g>
</g>
<!-- Node7 -->
<g id="Node000007" class="node">
<title>Node7</title>
<g id="a_Node000007"><a xlink:href="../../de/d3e/Motd_8hpp.html" target="_top" xlink:title="Implements IRC MOTD command.">
<polygon fill="white" stroke="#666666" points="447.62,-20.75 385.88,-20.75 385.88,0 447.62,0 447.62,-20.75"/>
<text xml:space="preserve" text-anchor="middle" x="416.75" y="-7.25" font-family="Helvetica,sans-Serif" font-size="10.00">Motd.hpp</text>
</a>
</g>
</g>
<!-- Node1&#45;&gt;Node7 -->
<g id="edge6_Node000001_Node000007" class="edge">
<title>Node1&#45;&gt;Node7</title>
<g id="a_edge6_Node000001_Node000007"><a xlink:title=" ">
<path fill="none" stroke="#63b8ff" d="M531.71,-52.51C504.5,-42.78 468.53,-29.9 444.12,-21.17"/>
<polygon fill="#63b8ff" stroke="#63b8ff" points="530.38,-55.75 540.97,-55.83 532.74,-49.16 530.38,-55.75"/>
</a>
</g>
</g>
<!-- Node8 -->
<g id="Node000008" class="node">
<title>Node8</title>
<g id="a_Node000008"><a xlink:href="../../d2/dad/Nick_8hpp.html" target="_top" xlink:title="Implements IRC NICK command.">
<polygon fill="white" stroke="#666666" points="524.12,-20.75 465.38,-20.75 465.38,0 524.12,0 524.12,-20.75"/>
<text xml:space="preserve" text-anchor="middle" x="494.75" y="-7.25" font-family="Helvetica,sans-Serif" font-size="10.00">Nick.hpp</text>
</a>
</g>
</g>
<!-- Node1&#45;&gt;Node8 -->
<g id="edge7_Node000001_Node000008" class="edge">
<title>Node1&#45;&gt;Node8</title>
<g id="a_edge7_Node000001_Node000008"><a xlink:title=" ">
<path fill="none" stroke="#63b8ff" d="M547.23,-49.69C534.45,-40.36 518.89,-29 508.04,-21.08"/>
<polygon fill="#63b8ff" stroke="#63b8ff" points="544.98,-52.38 555.12,-55.44 549.11,-46.72 544.98,-52.38"/>
</a>
</g>
</g>
<!-- Node9 -->
<g id="Node000009" class="node">
<title>Node9</title>
<g id="a_Node000009"><a xlink:href="../../df/dfc/Part_8hpp.html" target="_top" xlink:title="Implements IRC PART command.">
<polygon fill="white" stroke="#666666" points="597.62,-20.75 541.88,-20.75 541.88,0 597.62,0 597.62,-20.75"/>
<text xml:space="preserve" text-anchor="middle" x="569.75" y="-7.25" font-family="Helvetica,sans-Serif" font-size="10.00">Part.hpp</text>
</a>
</g>
</g>
<!-- Node1&#45;&gt;Node9 -->
<g id="edge8_Node000001_Node000009" class="edge">
<title>Node1&#45;&gt;Node9</title>
<g id="a_edge8_Node000001_Node000009"><a xlink:title=" ">
<path fill="none" stroke="#63b8ff" d="M569.75,-44.88C569.75,-36.66 569.75,-27.68 569.75,-21.08"/>
<polygon fill="#63b8ff" stroke="#63b8ff" points="566.25,-44.82 569.75,-54.82 573.25,-44.82 566.25,-44.82"/>
</a>
</g>
</g>
<!-- Node10 -->
<g id="Node000010" class="node">
<title>Node10</title>
<g id="a_Node000010"><a xlink:href="../../df/d5f/Pass_8hpp.html" target="_top" xlink:title="Implements IRC PASS command.">
<polygon fill="white" stroke="#666666" points="674.12,-20.75 615.38,-20.75 615.38,0 674.12,0 674.12,-20.75"/>
<text xml:space="preserve" text-anchor="middle" x="644.75" y="-7.25" font-family="Helvetica,sans-Serif" font-size="10.00">Pass.hpp</text>
</a>
</g>
</g>
<!-- Node1&#45;&gt;Node10 -->
<g id="edge9_Node000001_Node000010" class="edge">
<title>Node1&#45;&gt;Node10</title>
<g id="a_edge9_Node000001_Node000010"><a xlink:title=" ">
<path fill="none" stroke="#63b8ff" d="M592.27,-49.69C605.05,-40.36 620.61,-29 631.46,-21.08"/>
<polygon fill="#63b8ff" stroke="#63b8ff" points="590.39,-46.72 584.38,-55.44 594.52,-52.38 590.39,-46.72"/>
</a>
</g>
</g>
<!-- Node11 -->
<g id="Node000011" class="node">
<title>Node11</title>
<g id="a_Node000011"><a xlink:href="../../d5/d58/Ping_8hpp.html" target="_top" xlink:title="Implements IRC PING command.">
<polygon fill="white" stroke="#666666" points="749.75,-20.75 691.75,-20.75 691.75,0 749.75,0 749.75,-20.75"/>
<text xml:space="preserve" text-anchor="middle" x="720.75" y="-7.25" font-family="Helvetica,sans-Serif" font-size="10.00">Ping.hpp</text>
</a>
</g>
</g>
<!-- Node1&#45;&gt;Node11 -->
<g id="edge10_Node000001_Node000011" class="edge">
<title>Node1&#45;&gt;Node11</title>
<g id="a_edge10_Node000001_Node000011"><a xlink:title=" ">
<path fill="none" stroke="#63b8ff" d="M607.3,-52.51C634.14,-42.78 669.65,-29.9 693.73,-21.17"/>
<polygon fill="#63b8ff" stroke="#63b8ff" points="606.38,-49.12 598.17,-55.82 608.76,-55.7 606.38,-49.12"/>
</a>
</g>
</g>
<!-- Node12 -->
<g id="Node000012" class="node">
<title>Node12</title>
<g id="a_Node000012"><a xlink:href="../../d6/df8/Privmsg_8hpp.html" target="_top" xlink:title="Implements IRC PRIVMSG command.">
<polygon fill="white" stroke="#666666" points="844.12,-20.75 767.38,-20.75 767.38,0 844.12,0 844.12,-20.75"/>
<text xml:space="preserve" text-anchor="middle" x="805.75" y="-7.25" font-family="Helvetica,sans-Serif" font-size="10.00">Privmsg.hpp</text>
</a>
</g>
</g>
<!-- Node1&#45;&gt;Node12 -->
<g id="edge11_Node000001_Node000012" class="edge">
<title>Node1&#45;&gt;Node12</title>
<g id="a_edge11_Node000001_Node000012"><a xlink:title=" ">
<path fill="none" stroke="#63b8ff" d="M623.24,-53.72C667.05,-43.55 727.98,-29.42 767.14,-20.33"/>
<polygon fill="#63b8ff" stroke="#63b8ff" points="622.64,-50.26 613.69,-55.93 624.22,-57.08 622.64,-50.26"/>
</a>
</g>
</g>
<!-- Node13 -->
<g id="Node000013" class="node">
<title>Node13</title>
<g id="a_Node000013"><a xlink:href="../../df/d79/Quit_8hpp.html" target="_top" xlink:title="Implements IRC QUIT command.">
<polygon fill="white" stroke="#666666" points="919.38,-20.75 862.12,-20.75 862.12,0 919.38,0 919.38,-20.75"/>
<text xml:space="preserve" text-anchor="middle" x="890.75" y="-7.25" font-family="Helvetica,sans-Serif" font-size="10.00">Quit.hpp</text>
</a>
</g>
</g>
<!-- Node1&#45;&gt;Node13 -->
<g id="edge12_Node000001_Node000013" class="edge">
<title>Node1&#45;&gt;Node13</title>
<g id="a_edge12_Node000001_Node000013"><a xlink:title=" ">
<path fill="none" stroke="#63b8ff" d="M626.4,-58.45C683.71,-50.36 774.74,-36.6 852.75,-20.75 855.68,-20.15 858.73,-19.49 861.76,-18.79"/>
<polygon fill="#63b8ff" stroke="#63b8ff" points="625.97,-54.98 616.55,-59.83 626.94,-61.91 625.97,-54.98"/>
</a>
</g>
</g>
<!-- Node14 -->
<g id="Node000014" class="node">
<title>Node14</title>
<g id="a_Node000014"><a xlink:href="../../d8/d1b/Topic_8hpp.html" target="_top" xlink:title="Implements IRC TOPIC command.">
<polygon fill="white" stroke="#666666" points="999.62,-20.75 937.88,-20.75 937.88,0 999.62,0 999.62,-20.75"/>
<text xml:space="preserve" text-anchor="middle" x="968.75" y="-7.25" font-family="Helvetica,sans-Serif" font-size="10.00">Topic.hpp</text>
</a>
</g>
</g>
<!-- Node1&#45;&gt;Node14 -->
<g id="edge13_Node000001_Node000014" class="edge">
<title>Node1&#45;&gt;Node14</title>
<g id="a_edge13_Node000001_Node000014"><a xlink:title=" ">
<path fill="none" stroke="#63b8ff" d="M626.67,-60.79C697.7,-53.7 822.74,-39.82 928.75,-20.75 931.7,-20.22 934.76,-19.61 937.81,-18.96"/>
<polygon fill="#63b8ff" stroke="#63b8ff" points="626.43,-57.29 616.82,-61.76 627.12,-64.26 626.43,-57.29"/>
</a>
</g>
</g>
<!-- Node15 -->
<g id="Node000015" class="node">
<title>Node15</title>
<g id="a_Node000015"><a xlink:href="../../de/dfd/User_8hpp.html" target="_top" xlink:title="Implements IRC USER command.">
<polygon fill="white" stroke="#666666" points="1076.12,-20.75 1017.38,-20.75 1017.38,0 1076.12,0 1076.12,-20.75"/>
<text xml:space="preserve" text-anchor="middle" x="1046.75" y="-7.25" font-family="Helvetica,sans-Serif" font-size="10.00">User.hpp</text>
</a>
</g>
</g>
<!-- Node1&#45;&gt;Node15 -->
<g id="edge14_Node000001_Node000015" class="edge">
<title>Node1&#45;&gt;Node15</title>
<g id="a_edge14_Node000001_Node000015"><a xlink:title=" ">
<path fill="none" stroke="#63b8ff" d="M626.55,-62.78C710.55,-57.27 872.67,-44.45 1008.75,-20.75 1011.43,-20.28 1014.2,-19.73 1016.96,-19.14"/>
<polygon fill="#63b8ff" stroke="#63b8ff" points="626.49,-59.28 616.73,-63.42 626.94,-66.27 626.49,-59.28"/>
</a>
</g>
</g>
<!-- Node16 -->
<g id="Node000016" class="node">
<title>Node16</title>
<g id="a_Node000016"><a xlink:href="../../df/d93/Who_8hpp.html" target="_top" xlink:title="Implements IRC WHO command.">
<polygon fill="white" stroke="#666666" points="1153.12,-20.75 1094.38,-20.75 1094.38,0 1153.12,0 1153.12,-20.75"/>
<text xml:space="preserve" text-anchor="middle" x="1123.75" y="-7.25" font-family="Helvetica,sans-Serif" font-size="10.00">Who.hpp</text>
</a>
</g>
</g>
<!-- Node1&#45;&gt;Node16 -->
<g id="edge15_Node000001_Node000016" class="edge">
<title>Node1&#45;&gt;Node16</title>
<g id="a_edge15_Node000001_Node000016"><a xlink:title=" ">
<path fill="none" stroke="#63b8ff" d="M626.53,-63.87C721.78,-59.48 919.57,-47.73 1084.75,-20.75 1087.77,-20.26 1090.91,-19.66 1094.03,-19"/>
<polygon fill="#63b8ff" stroke="#63b8ff" points="626.5,-60.37 616.66,-64.32 626.81,-67.36 626.5,-60.37"/>
</a>
</g>
</g>
</g>
</svg>
