<?xml version="1.0" encoding="UTF-8" standalone="no"?>
<!DOCTYPE svg PUBLIC "-//W3C//DTD SVG 1.1//EN"
 "http://www.w3.org/Graphics/SVG/1.1/DTD/svg11.dtd">
<!-- Generated by graphviz version 14.0.1 (0)
 -->
<!-- Title: ICommand.hpp Pages: 1 -->
<svg width="1017pt" height="86pt"
 viewBox="0.00 0.00 1017.00 86.00" xmlns="http://www.w3.org/2000/svg" xmlns:xlink="http://www.w3.org/1999/xlink">
<g id="graph0" class="graph" transform="scale(1 1) rotate(0) translate(4 81.5)">
<title>ICommand.hpp</title>
<!-- Node1 -->
<g id="Node000001" class="node">
<title>Node1</title>
<g id="a_Node000001"><a xlink:title=" ">
<polygon fill="#999999" stroke="#666666" points="545.5,-77.5 455.25,-77.5 455.25,-56.75 545.5,-56.75 545.5,-77.5"/>
<text xml:space="preserve" text-anchor="middle" x="500.38" y="-64" font-family="Helvetica,sans-Serif" font-size="10.00">ICommand.hpp</text>
</a>
</g>
</g>
<!-- Node2 -->
<g id="Node000002" class="node">
<title>Node2</title>
<g id="a_Node000002"><a xlink:href="../../d0/d9f/Invite_8hpp.html" target="_top" xlink:title=" ">
<polygon fill="white" stroke="#666666" points="64.75,-20.75 0,-20.75 0,0 64.75,0 64.75,-20.75"/>
<text xml:space="preserve" text-anchor="middle" x="32.38" y="-7.25" font-family="Helvetica,sans-Serif" font-size="10.00">Invite.hpp</text>
</a>
</g>
</g>
<!-- Node1&#45;&gt;Node2 -->
<g id="edge1_Node000001_Node000002" class="edge">
<title>Node1&#45;&gt;Node2</title>
<g id="a_edge1_Node000001_Node000002"><a xlink:title=" ">
<path fill="none" stroke="#63b8ff" d="M443.63,-62.25C361.55,-56.17 205.1,-42.73 73.38,-20.75 70.64,-20.29 67.81,-19.77 64.98,-19.2"/>
<polygon fill="#63b8ff" stroke="#63b8ff" points="443.21,-65.73 453.44,-62.97 443.72,-58.75 443.21,-65.73"/>
</a>
</g>
</g>
<!-- Node3 -->
<g id="Node000003" class="node">
<title>Node3</title>
<g id="a_Node000003"><a xlink:href="../../da/dac/Join_8hpp.html" target="_top" xlink:title=" ">
<polygon fill="white" stroke="#666666" points="137.88,-20.75 82.88,-20.75 82.88,0 137.88,0 137.88,-20.75"/>
<text xml:space="preserve" text-anchor="middle" x="110.38" y="-7.25" font-family="Helvetica,sans-Serif" font-size="10.00">Join.hpp</text>
</a>
</g>
</g>
<!-- Node1&#45;&gt;Node3 -->
<g id="edge2_Node000001_Node000003" class="edge">
<title>Node1&#45;&gt;Node3</title>
<g id="a_edge2_Node000001_Node000003"><a xlink:title=" ">
<path fill="none" stroke="#63b8ff" d="M443.78,-60.97C373.78,-54.11 251.16,-40.49 147.38,-20.75 144.38,-20.18 141.27,-19.51 138.18,-18.8"/>
<polygon fill="#63b8ff" stroke="#63b8ff" points="443.17,-64.43 453.46,-61.91 443.84,-57.46 443.17,-64.43"/>
</a>
</g>
</g>
<!-- Node4 -->
<g id="Node000004" class="node">
<title>Node4</title>
<g id="a_Node000004"><a xlink:href="../../dd/d85/Kick_8hpp.html" target="_top" xlink:title=" ">
<polygon fill="white" stroke="#666666" points="214.38,-20.75 156.38,-20.75 156.38,0 214.38,0 214.38,-20.75"/>
<text xml:space="preserve" text-anchor="middle" x="185.38" y="-7.25" font-family="Helvetica,sans-Serif" font-size="10.00">Kick.hpp</text>
</a>
</g>
</g>
<!-- Node1&#45;&gt;Node4 -->
<g id="edge3_Node000001_Node000004" class="edge">
<title>Node1&#45;&gt;Node4</title>
<g id="a_edge3_Node000001_Node000004"><a xlink:title=" ">
<path fill="none" stroke="#63b8ff" d="M443.94,-58.22C387.8,-50.05 299.3,-36.31 223.38,-20.75 220.58,-20.18 217.68,-19.54 214.78,-18.87"/>
<polygon fill="#63b8ff" stroke="#63b8ff" points="443.18,-61.65 453.58,-59.62 444.18,-54.72 443.18,-61.65"/>
</a>
</g>
</g>
<!-- Node5 -->
<g id="Node000005" class="node">
<title>Node5</title>
<g id="a_Node000005"><a xlink:href="../../d5/d67/Mode_8hpp.html" target="_top" xlink:title=" ">
<polygon fill="white" stroke="#666666" points="296.38,-20.75 232.38,-20.75 232.38,0 296.38,0 296.38,-20.75"/>
<text xml:space="preserve" text-anchor="middle" x="264.38" y="-7.25" font-family="Helvetica,sans-Serif" font-size="10.00">Mode.hpp</text>
</a>
</g>
</g>
<!-- Node1&#45;&gt;Node5 -->
<g id="edge4_Node000001_Node000005" class="edge">
<title>Node1&#45;&gt;Node5</title>
<g id="a_edge4_Node000001_Node000005"><a xlink:title=" ">
<path fill="none" stroke="#63b8ff" d="M446.89,-53.72C400.64,-42.99 335.31,-27.83 296.65,-18.86"/>
<polygon fill="#63b8ff" stroke="#63b8ff" points="445.9,-57.08 456.44,-55.93 447.49,-50.26 445.9,-57.08"/>
</a>
</g>
</g>
<!-- Node6 -->
<g id="Node000006" class="node">
<title>Node6</title>
<g id="a_Node000006"><a xlink:href="../../de/d3e/Motd_8hpp.html" target="_top" xlink:title=" ">
<polygon fill="white" stroke="#666666" points="376.25,-20.75 314.5,-20.75 314.5,0 376.25,0 376.25,-20.75"/>
<text xml:space="preserve" text-anchor="middle" x="345.38" y="-7.25" font-family="Helvetica,sans-Serif" font-size="10.00">Motd.hpp</text>
</a>
</g>
</g>
<!-- Node1&#45;&gt;Node6 -->
<g id="edge5_Node000001_Node000006" class="edge">
<title>Node1&#45;&gt;Node6</title>
<g id="a_edge5_Node000001_Node000006"><a xlink:title=" ">
<path fill="none" stroke="#63b8ff" d="M461.83,-52.51C434.27,-42.78 397.83,-29.9 373.11,-21.17"/>
<polygon fill="#63b8ff" stroke="#63b8ff" points="460.64,-55.8 471.24,-55.83 462.97,-49.2 460.64,-55.8"/>
</a>
</g>
</g>
<!-- Node7 -->
<g id="Node000007" class="node">
<title>Node7</title>
<g id="a_Node000007"><a xlink:href="../../d2/dad/Nick_8hpp.html" target="_top" xlink:title=" ">
<polygon fill="white" stroke="#666666" points="452.75,-20.75 394,-20.75 394,0 452.75,0 452.75,-20.75"/>
<text xml:space="preserve" text-anchor="middle" x="423.38" y="-7.25" font-family="Helvetica,sans-Serif" font-size="10.00">Nick.hpp</text>
</a>
</g>
</g>
<!-- Node1&#45;&gt;Node7 -->
<g id="edge6_Node000001_Node000007" class="edge">
<title>Node1&#45;&gt;Node7</title>
<g id="a_edge6_Node000001_Node000007"><a xlink:title=" ">
<path fill="none" stroke="#63b8ff" d="M477.26,-49.69C464.13,-40.36 448.16,-29 437.02,-21.08"/>
<polygon fill="#63b8ff" stroke="#63b8ff" points="475.2,-52.52 485.38,-55.46 479.25,-46.81 475.2,-52.52"/>
</a>
</g>
</g>
<!-- Node8 -->
<g id="Node000008" class="node">
<title>Node8</title>
<g id="a_Node000008"><a xlink:href="../../df/d5f/Pass_8hpp.html" target="_top" xlink:title=" ">
<polygon fill="white" stroke="#666666" points="529.75,-20.75 471,-20.75 471,0 529.75,0 529.75,-20.75"/>
<text xml:space="preserve" text-anchor="middle" x="500.38" y="-7.25" font-family="Helvetica,sans-Serif" font-size="10.00">Pass.hpp</text>
</a>
</g>
</g>
<!-- Node1&#45;&gt;Node8 -->
<g id="edge7_Node000001_Node000008" class="edge">
<title>Node1&#45;&gt;Node8</title>
<g id="a_edge7_Node000001_Node000008"><a xlink:title=" ">
<path fill="none" stroke="#63b8ff" d="M500.38,-44.88C500.38,-36.66 500.38,-27.68 500.38,-21.08"/>
<polygon fill="#63b8ff" stroke="#63b8ff" points="496.88,-44.82 500.38,-54.82 503.88,-44.82 496.88,-44.82"/>
</a>
</g>
</g>
<!-- Node9 -->
<g id="Node000009" class="node">
<title>Node9</title>
<g id="a_Node000009"><a xlink:href="../../d5/d58/Ping_8hpp.html" target="_top" xlink:title=" ">
<polygon fill="white" stroke="#666666" points="605.38,-20.75 547.38,-20.75 547.38,0 605.38,0 605.38,-20.75"/>
<text xml:space="preserve" text-anchor="middle" x="576.38" y="-7.25" font-family="Helvetica,sans-Serif" font-size="10.00">Ping.hpp</text>
</a>
</g>
</g>
<!-- Node1&#45;&gt;Node9 -->
<g id="edge8_Node000001_Node000009" class="edge">
<title>Node1&#45;&gt;Node9</title>
<g id="a_edge8_Node000001_Node000009"><a xlink:title=" ">
<path fill="none" stroke="#63b8ff" d="M523.19,-49.69C536.15,-40.36 551.92,-29 562.91,-21.08"/>
<polygon fill="#63b8ff" stroke="#63b8ff" points="521.26,-46.77 515.19,-55.45 525.35,-52.45 521.26,-46.77"/>
</a>
</g>
</g>
<!-- Node10 -->
<g id="Node000010" class="node">
<title>Node10</title>
<g id="a_Node000010"><a xlink:href="../../d6/df8/Privmsg_8hpp.html" target="_top" xlink:title="Implements IRC PRIVMSG command.">
<polygon fill="white" stroke="#666666" points="699.75,-20.75 623,-20.75 623,0 699.75,0 699.75,-20.75"/>
<text xml:space="preserve" text-anchor="middle" x="661.38" y="-7.25" font-family="Helvetica,sans-Serif" font-size="10.00">Privmsg.hpp</text>
</a>
</g>
</g>
<!-- Node1&#45;&gt;Node10 -->
<g id="edge9_Node000001_Node000010" class="edge">
<title>Node1&#45;&gt;Node10</title>
<g id="a_edge9_Node000001_Node000010"><a xlink:title=" ">
<path fill="none" stroke="#63b8ff" d="M540.03,-52.64C568.7,-42.89 606.77,-29.94 632.57,-21.17"/>
<polygon fill="#63b8ff" stroke="#63b8ff" points="538.93,-49.32 530.59,-55.85 541.19,-55.94 538.93,-49.32"/>
</a>
</g>
</g>
<!-- Node11 -->
<g id="Node000011" class="node">
<title>Node11</title>
<g id="a_Node000011"><a xlink:href="../../df/d79/Quit_8hpp.html" target="_top" xlink:title=" ">
<polygon fill="white" stroke="#666666" points="775,-20.75 717.75,-20.75 717.75,0 775,0 775,-20.75"/>
<text xml:space="preserve" text-anchor="middle" x="746.38" y="-7.25" font-family="Helvetica,sans-Serif" font-size="10.00">Quit.hpp</text>
</a>
</g>
</g>
<!-- Node1&#45;&gt;Node11 -->
<g id="edge10_Node000001_Node000011" class="edge">
<title>Node1&#45;&gt;Node11</title>
<g id="a_edge10_Node000001_Node000011"><a xlink:title=" ">
<path fill="none" stroke="#63b8ff" d="M556.98,-54.21C598.86,-45.29 657.26,-32.63 708.38,-20.75 711.29,-20.07 714.32,-19.35 717.35,-18.62"/>
<polygon fill="#63b8ff" stroke="#63b8ff" points="556.43,-50.75 547.38,-56.25 557.89,-57.59 556.43,-50.75"/>
</a>
</g>
</g>
<!-- Node12 -->
<g id="Node000012" class="node">
<title>Node12</title>
<g id="a_Node000012"><a xlink:href="../../d8/d1b/Topic_8hpp.html" target="_top" xlink:title=" ">
<polygon fill="white" stroke="#666666" points="855.25,-20.75 793.5,-20.75 793.5,0 855.25,0 855.25,-20.75"/>
<text xml:space="preserve" text-anchor="middle" x="824.38" y="-7.25" font-family="Helvetica,sans-Serif" font-size="10.00">Topic.hpp</text>
</a>
</g>
</g>
<!-- Node1&#45;&gt;Node12 -->
<g id="edge11_Node000001_Node000012" class="edge">
<title>Node1&#45;&gt;Node12</title>
<g id="a_edge11_Node000001_Node000012"><a xlink:title=" ">
<path fill="none" stroke="#63b8ff" d="M557.19,-58.27C614.67,-50.04 706,-36.17 784.38,-20.75 787.31,-20.17 790.37,-19.53 793.41,-18.86"/>
<polygon fill="#63b8ff" stroke="#63b8ff" points="556.71,-54.81 547.3,-59.68 557.7,-61.74 556.71,-54.81"/>
</a>
</g>
</g>
<!-- Node13 -->
<g id="Node000013" class="node">
<title>Node13</title>
<g id="a_Node000013"><a xlink:href="../../de/dfd/User_8hpp.html" target="_top" xlink:title=" ">
<polygon fill="white" stroke="#666666" points="931.75,-20.75 873,-20.75 873,0 931.75,0 931.75,-20.75"/>
<text xml:space="preserve" text-anchor="middle" x="902.38" y="-7.25" font-family="Helvetica,sans-Serif" font-size="10.00">User.hpp</text>
</a>
</g>
</g>
<!-- Node1&#45;&gt;Node13 -->
<g id="edge12_Node000001_Node000013" class="edge">
<title>Node1&#45;&gt;Node13</title>
<g id="a_edge12_Node000001_Node000013"><a xlink:title=" ">
<path fill="none" stroke="#63b8ff" d="M556.79,-61.17C628.61,-54.39 756.34,-40.74 864.38,-20.75 867.05,-20.26 869.81,-19.69 872.58,-19.08"/>
<polygon fill="#63b8ff" stroke="#63b8ff" points="556.89,-57.65 547.26,-62.06 557.54,-64.62 556.89,-57.65"/>
</a>
</g>
</g>
<!-- Node14 -->
<g id="Node000014" class="node">
<title>Node14</title>
<g id="a_Node000014"><a xlink:href="../../df/d93/Who_8hpp.html" target="_top" xlink:title=" ">
<polygon fill="white" stroke="#666666" points="1008.75,-20.75 950,-20.75 950,0 1008.75,0 1008.75,-20.75"/>
<text xml:space="preserve" text-anchor="middle" x="979.38" y="-7.25" font-family="Helvetica,sans-Serif" font-size="10.00">Who.hpp</text>
</a>
</g>
</g>
<!-- Node1&#45;&gt;Node14 -->
<g id="edge13_Node000001_Node000014" class="edge">
<title>Node1&#45;&gt;Node14</title>
<g id="a_edge13_Node000001_Node000014"><a xlink:title=" ">
<path fill="none" stroke="#63b8ff" d="M557.28,-62.69C641.46,-57.05 803.92,-44.08 940.38,-20.75 943.4,-20.23 946.53,-19.62 949.65,-18.95"/>
<polygon fill="#63b8ff" stroke="#63b8ff" points="557.19,-59.19 547.45,-63.33 557.65,-66.17 557.19,-59.19"/>
</a>
</g>
</g>
</g>
</svg>
