<?xml version="1.0" encoding="UTF-8" standalone="no"?>
<!DOCTYPE svg PUBLIC "-//W3C//DTD SVG 1.1//EN"
 "http://www.w3.org/Graphics/SVG/1.1/DTD/svg11.dtd">
<!-- Generated by graphviz version 14.0.1 (0)
 -->
<!-- Title: Server.hpp Pages: 1 -->
<svg width="229pt" height="86pt"
 viewBox="0.00 0.00 229.00 86.00" xmlns="http://www.w3.org/2000/svg" xmlns:xlink="http://www.w3.org/1999/xlink">
<g id="graph0" class="graph" transform="scale(1 1) rotate(0) translate(4 81.5)">
<title>Server.hpp</title>
<!-- Node1 -->
<g id="Node000001" class="node">
<title>Node1</title>
<g id="a_Node000001"><a xlink:title=" ">
<polygon fill="#999999" stroke="#666666" points="147.25,-77.5 79.5,-77.5 79.5,-56.75 147.25,-56.75 147.25,-77.5"/>
<text xml:space="preserve" text-anchor="middle" x="113.38" y="-64" font-family="Helvetica,sans-Serif" font-size="10.00">Server.hpp</text>
</a>
</g>
</g>
<!-- Node2 -->
<g id="Node000002" class="node">
<title>Node2</title>
<g id="a_Node000002"><a xlink:href="../../d0/d9f/Invite_8hpp.html" target="_top" xlink:title=" ">
<polygon fill="white" stroke="#666666" points="64.75,-20.75 0,-20.75 0,0 64.75,0 64.75,-20.75"/>
<text xml:space="preserve" text-anchor="middle" x="32.38" y="-7.25" font-family="Helvetica,sans-Serif" font-size="10.00">Invite.hpp</text>
</a>
</g>
</g>
<!-- Node1&#45;&gt;Node2 -->
<g id="edge1_Node000001_Node000002" class="edge">
<title>Node1&#45;&gt;Node2</title>
<g id="a_edge1_Node000001_Node000002"><a xlink:title=" ">
<path fill="none" stroke="#63b8ff" d="M89.46,-49.96C75.58,-40.58 58.56,-29.07 46.73,-21.08"/>
<polygon fill="#63b8ff" stroke="#63b8ff" points="87.39,-52.79 97.64,-55.49 91.31,-46.99 87.39,-52.79"/>
</a>
</g>
</g>
<!-- Node3 -->
<g id="Node000003" class="node">
<title>Node3</title>
<g id="a_Node000003"><a xlink:href="../../de/d3e/Motd_8hpp.html" target="_top" xlink:title=" ">
<polygon fill="white" stroke="#666666" points="144.25,-20.75 82.5,-20.75 82.5,0 144.25,0 144.25,-20.75"/>
<text xml:space="preserve" text-anchor="middle" x="113.38" y="-7.25" font-family="Helvetica,sans-Serif" font-size="10.00">Motd.hpp</text>
</a>
</g>
</g>
<!-- Node1&#45;&gt;Node3 -->
<g id="edge2_Node000001_Node000003" class="edge">
<title>Node1&#45;&gt;Node3</title>
<g id="a_edge2_Node000001_Node000003"><a xlink:title=" ">
<path fill="none" stroke="#63b8ff" d="M113.38,-44.88C113.38,-36.66 113.38,-27.68 113.38,-21.08"/>
<polygon fill="#63b8ff" stroke="#63b8ff" points="109.88,-44.82 113.38,-54.82 116.88,-44.82 109.88,-44.82"/>
</a>
</g>
</g>
<!-- Node4 -->
<g id="Node000004" class="node">
<title>Node4</title>
<g id="a_Node000004"><a xlink:href="../../df/d93/Who_8hpp.html" target="_top" xlink:title="Implements IRC WHO command.">
<polygon fill="white" stroke="#666666" points="220.75,-20.75 162,-20.75 162,0 220.75,0 220.75,-20.75"/>
<text xml:space="preserve" text-anchor="middle" x="191.38" y="-7.25" font-family="Helvetica,sans-Serif" font-size="10.00">Who.hpp</text>
</a>
</g>
</g>
<!-- Node1&#45;&gt;Node4 -->
<g id="edge3_Node000001_Node000004" class="edge">
<title>Node1&#45;&gt;Node4</title>
<g id="a_edge3_Node000001_Node000004"><a xlink:title=" ">
<path fill="none" stroke="#63b8ff" d="M136.4,-49.96C149.77,-40.58 166.16,-29.07 177.55,-21.08"/>
<polygon fill="#63b8ff" stroke="#63b8ff" points="134.73,-46.86 128.56,-55.47 138.75,-52.59 134.73,-46.86"/>
</a>
</g>
</g>
</g>
</svg>
