<?xml version="1.0" encoding="UTF-8" standalone="no"?>
<!DOCTYPE svg PUBLIC "-//W3C//DTD SVG 1.1//EN"
 "http://www.w3.org/Graphics/SVG/1.1/DTD/svg11.dtd">
<!-- Generated by graphviz version 14.0.1 (0)
 -->
<!-- Title: Server.hpp Pages: 1 -->
<svg width="300pt" height="86pt"
 viewBox="0.00 0.00 300.00 86.00" xmlns="http://www.w3.org/2000/svg" xmlns:xlink="http://www.w3.org/1999/xlink">
<g id="graph0" class="graph" transform="scale(1 1) rotate(0) translate(4 81.5)">
<title>Server.hpp</title>
<!-- Node1 -->
<g id="Node000001" class="node">
<title>Node1</title>
<g id="a_Node000001"><a xlink:title="Server class.">
<polygon fill="#999999" stroke="#666666" points="177.62,-77.5 109.88,-77.5 109.88,-56.75 177.62,-56.75 177.62,-77.5"/>
<text xml:space="preserve" text-anchor="middle" x="143.75" y="-64" font-family="Helvetica,sans-Serif" font-size="10.00">Server.hpp</text>
</a>
</g>
</g>
<!-- Node2 -->
<g id="Node000002" class="node">
<title>Node2</title>
<g id="a_Node000002"><a xlink:href="../../d8/d55/Bot_8hpp.html" target="_top" xlink:title="Implements BOT Command (non RFC)">
<polygon fill="white" stroke="#666666" points="53.5,-20.75 0,-20.75 0,0 53.5,0 53.5,-20.75"/>
<text xml:space="preserve" text-anchor="middle" x="26.75" y="-7.25" font-family="Helvetica,sans-Serif" font-size="10.00">Bot.hpp</text>
</a>
</g>
</g>
<!-- Node1&#45;&gt;Node2 -->
<g id="edge1_Node000001_Node000002" class="edge">
<title>Node1&#45;&gt;Node2</title>
<g id="a_edge1_Node000001_Node000002"><a xlink:title=" ">
<path fill="none" stroke="#63b8ff" d="M112.66,-51.58C92.05,-41.93 65.57,-29.54 47.49,-21.08"/>
<polygon fill="#63b8ff" stroke="#63b8ff" points="110.92,-54.63 121.46,-55.7 113.89,-48.29 110.92,-54.63"/>
</a>
</g>
</g>
<!-- Node3 -->
<g id="Node000003" class="node">
<title>Node3</title>
<g id="a_Node000003"><a xlink:href="../../d0/d9f/Invite_8hpp.html" target="_top" xlink:title="Implements IRC INVITE command.">
<polygon fill="white" stroke="#666666" points="136.12,-20.75 71.38,-20.75 71.38,0 136.12,0 136.12,-20.75"/>
<text xml:space="preserve" text-anchor="middle" x="103.75" y="-7.25" font-family="Helvetica,sans-Serif" font-size="10.00">Invite.hpp</text>
</a>
</g>
</g>
<!-- Node1&#45;&gt;Node3 -->
<g id="edge2_Node000001_Node000003" class="edge">
<title>Node1&#45;&gt;Node3</title>
<g id="a_edge2_Node000001_Node000003"><a xlink:title=" ">
<path fill="none" stroke="#63b8ff" d="M129.9,-47.17C123.48,-38.38 116.11,-28.3 110.84,-21.08"/>
<polygon fill="#63b8ff" stroke="#63b8ff" points="126.98,-49.1 135.71,-55.11 132.63,-44.98 126.98,-49.1"/>
</a>
</g>
</g>
<!-- Node4 -->
<g id="Node000004" class="node">
<title>Node4</title>
<g id="a_Node000004"><a xlink:href="../../de/d3e/Motd_8hpp.html" target="_top" xlink:title="Implements IRC MOTD command.">
<polygon fill="white" stroke="#666666" points="215.62,-20.75 153.88,-20.75 153.88,0 215.62,0 215.62,-20.75"/>
<text xml:space="preserve" text-anchor="middle" x="184.75" y="-7.25" font-family="Helvetica,sans-Serif" font-size="10.00">Motd.hpp</text>
</a>
</g>
</g>
<!-- Node1&#45;&gt;Node4 -->
<g id="edge3_Node000001_Node000004" class="edge">
<title>Node1&#45;&gt;Node4</title>
<g id="a_edge3_Node000001_Node000004"><a xlink:title=" ">
<path fill="none" stroke="#63b8ff" d="M157.94,-47.17C164.53,-38.38 172.08,-28.3 177.48,-21.08"/>
<polygon fill="#63b8ff" stroke="#63b8ff" points="155.18,-45.02 151.99,-55.13 160.78,-49.22 155.18,-45.02"/>
</a>
</g>
</g>
<!-- Node5 -->
<g id="Node000005" class="node">
<title>Node5</title>
<g id="a_Node000005"><a xlink:href="../../df/d93/Who_8hpp.html" target="_top" xlink:title="Implements IRC WHO command.">
<polygon fill="white" stroke="#666666" points="292.12,-20.75 233.38,-20.75 233.38,0 292.12,0 292.12,-20.75"/>
<text xml:space="preserve" text-anchor="middle" x="262.75" y="-7.25" font-family="Helvetica,sans-Serif" font-size="10.00">Who.hpp</text>
</a>
</g>
</g>
<!-- Node1&#45;&gt;Node5 -->
<g id="edge4_Node000001_Node000005" class="edge">
<title>Node1&#45;&gt;Node5</title>
<g id="a_edge4_Node000001_Node000005"><a xlink:title=" ">
<path fill="none" stroke="#63b8ff" d="M175.37,-51.58C196.34,-41.93 223.27,-29.54 241.66,-21.08"/>
<polygon fill="#63b8ff" stroke="#63b8ff" points="174.02,-48.34 166.4,-55.7 176.95,-54.7 174.02,-48.34"/>
</a>
</g>
</g>
</g>
</svg>
