<?xml version="1.0" encoding="UTF-8" standalone="no"?>
<!DOCTYPE svg PUBLIC "-//W3C//DTD SVG 1.1//EN"
 "http://www.w3.org/Graphics/SVG/1.1/DTD/svg11.dtd">
<!-- Generated by graphviz version 14.0.1 (0)
 -->
<!-- Title: Server.hpp Pages: 1 -->
<svg width="370pt" height="199pt"
 viewBox="0.00 0.00 370.00 199.00" xmlns="http://www.w3.org/2000/svg" xmlns:xlink="http://www.w3.org/1999/xlink">
<g id="graph0" class="graph" transform="scale(1 1) rotate(0) translate(4 195)">
<title>Server.hpp</title>
<!-- Node1 -->
<g id="Node000001" class="node">
<title>Node1</title>
<g id="a_Node000001"><a xlink:title="Server class.">
<polygon fill="#999999" stroke="#666666" points="269.75,-191 202,-191 202,-170.25 269.75,-170.25 269.75,-191"/>
<text xml:space="preserve" text-anchor="middle" x="235.88" y="-177.5" font-family="Helvetica,sans-Serif" font-size="10.00">Server.hpp</text>
</a>
</g>
</g>
<!-- Node2 -->
<g id="Node000002" class="node">
<title>Node2</title>
<g id="a_Node000002"><a xlink:href="../../da/d81/TcpSocket_8hpp.html" target="_top" xlink:title="TcpSocket class.">
<polygon fill="white" stroke="#666666" points="167.38,-134.25 82.38,-134.25 82.38,-113.5 167.38,-113.5 167.38,-134.25"/>
<text xml:space="preserve" text-anchor="middle" x="124.88" y="-120.75" font-family="Helvetica,sans-Serif" font-size="10.00">TcpSocket.hpp</text>
</a>
</g>
</g>
<!-- Node1&#45;&gt;Node2 -->
<g id="edge1_Node000001_Node000002" class="edge">
<title>Node1&#45;&gt;Node2</title>
<g id="a_edge1_Node000001_Node000002"><a xlink:title=" ">
<path fill="none" stroke="#63b8ff" d="M216.03,-169.84C198.98,-161.43 174.15,-149.18 154.71,-139.59"/>
<polygon fill="#63b8ff" stroke="#63b8ff" points="156.42,-136.53 145.91,-135.25 153.33,-142.81 156.42,-136.53"/>
</a>
</g>
</g>
<!-- Node4 -->
<g id="Node000004" class="node">
<title>Node4</title>
<g id="a_Node000004"><a xlink:title=" ">
<polygon fill="#e0e0e0" stroke="#999999" points="43.75,-20.75 0,-20.75 0,0 43.75,0 43.75,-20.75"/>
<text xml:space="preserve" text-anchor="middle" x="21.88" y="-7.25" font-family="Helvetica,sans-Serif" font-size="10.00">string</text>
</a>
</g>
</g>
<!-- Node1&#45;&gt;Node4 -->
<g id="edge9_Node000001_Node000004" class="edge">
<title>Node1&#45;&gt;Node4</title>
<g id="a_edge9_Node000001_Node000004"><a xlink:title=" ">
<path fill="none" stroke="#63b8ff" d="M201.59,-176.15C166.8,-171.29 112.56,-159.98 72.88,-134.25 45.4,-116.43 37.9,-107.96 25.88,-77.5 20.24,-63.23 19.39,-45.88 19.87,-32.54"/>
<polygon fill="#63b8ff" stroke="#63b8ff" points="23.35,-32.92 20.52,-22.71 16.37,-32.45 23.35,-32.92"/>
</a>
</g>
</g>
<!-- Node5 -->
<g id="Node000005" class="node">
<title>Node5</title>
<g id="a_Node000005"><a xlink:title=" ">
<polygon fill="#e0e0e0" stroke="#999999" points="183.25,-20.75 136.5,-20.75 136.5,0 183.25,0 183.25,-20.75"/>
<text xml:space="preserve" text-anchor="middle" x="159.88" y="-7.25" font-family="Helvetica,sans-Serif" font-size="10.00">vector</text>
</a>
</g>
</g>
<!-- Node1&#45;&gt;Node5 -->
<g id="edge10_Node000001_Node000005" class="edge">
<title>Node1&#45;&gt;Node5</title>
<g id="a_edge10_Node000001_Node000005"><a xlink:title=" ">
<path fill="none" stroke="#63b8ff" d="M236.66,-169.92C237.95,-148.08 238.55,-94.09 216.88,-56.75 209.97,-44.86 198.65,-34.88 187.91,-27.34"/>
<polygon fill="#63b8ff" stroke="#63b8ff" points="189.91,-24.47 179.62,-21.94 186.09,-30.33 189.91,-24.47"/>
</a>
</g>
</g>
<!-- Node7 -->
<g id="Node000007" class="node">
<title>Node7</title>
<g id="a_Node000007"><a xlink:title=" ">
<polygon fill="#e0e0e0" stroke="#999999" points="301.75,-134.25 264,-134.25 264,-113.5 301.75,-113.5 301.75,-134.25"/>
<text xml:space="preserve" text-anchor="middle" x="282.88" y="-120.75" font-family="Helvetica,sans-Serif" font-size="10.00">map</text>
</a>
</g>
</g>
<!-- Node1&#45;&gt;Node7 -->
<g id="edge7_Node000001_Node000007" class="edge">
<title>Node1&#45;&gt;Node7</title>
<g id="a_edge7_Node000001_Node000007"><a xlink:title=" ">
<path fill="none" stroke="#63b8ff" d="M244.28,-169.84C250.63,-162.44 259.53,-152.07 267.18,-143.16"/>
<polygon fill="#63b8ff" stroke="#63b8ff" points="269.7,-145.59 273.56,-135.73 264.39,-141.03 269.7,-145.59"/>
</a>
</g>
</g>
<!-- Node8 -->
<g id="Node000008" class="node">
<title>Node8</title>
<g id="a_Node000008"><a xlink:title=" ">
<polygon fill="#e0e0e0" stroke="#999999" points="362.38,-134.25 319.38,-134.25 319.38,-113.5 362.38,-113.5 362.38,-134.25"/>
<text xml:space="preserve" text-anchor="middle" x="340.88" y="-120.75" font-family="Helvetica,sans-Serif" font-size="10.00">poll.h</text>
</a>
</g>
</g>
<!-- Node1&#45;&gt;Node8 -->
<g id="edge8_Node000001_Node000008" class="edge">
<title>Node1&#45;&gt;Node8</title>
<g id="a_edge8_Node000001_Node000008"><a xlink:title=" ">
<path fill="none" stroke="#63b8ff" d="M254.65,-169.84C270.62,-161.51 293.83,-149.41 312.14,-139.86"/>
<polygon fill="#63b8ff" stroke="#63b8ff" points="313.67,-143.01 320.92,-135.28 310.44,-136.8 313.67,-143.01"/>
</a>
</g>
</g>
<!-- Node3 -->
<g id="Node000003" class="node">
<title>Node3</title>
<g id="a_Node000003"><a xlink:href="../../df/dd7/consts_8hpp.html" target="_top" xlink:title="constants used throughout IRC server program">
<polygon fill="white" stroke="#666666" points="118.12,-77.5 49.62,-77.5 49.62,-56.75 118.12,-56.75 118.12,-77.5"/>
<text xml:space="preserve" text-anchor="middle" x="83.88" y="-64" font-family="Helvetica,sans-Serif" font-size="10.00">consts.hpp</text>
</a>
</g>
</g>
<!-- Node2&#45;&gt;Node3 -->
<g id="edge2_Node000002_Node000003" class="edge">
<title>Node2&#45;&gt;Node3</title>
<g id="a_edge2_Node000002_Node000003"><a xlink:title=" ">
<path fill="none" stroke="#63b8ff" d="M117.55,-113.09C112.12,-105.85 104.57,-95.76 97.99,-86.97"/>
<polygon fill="#63b8ff" stroke="#63b8ff" points="100.84,-84.95 92.05,-79.04 95.24,-89.14 100.84,-84.95"/>
</a>
</g>
</g>
<!-- Node2&#45;&gt;Node4 -->
<g id="edge6_Node000002_Node000004" class="edge">
<title>Node2&#45;&gt;Node4</title>
<g id="a_edge6_Node000002_Node000004"><a xlink:title=" ">
<path fill="none" stroke="#63b8ff" d="M94.09,-113.08C76.17,-105.9 54.49,-94.42 40.88,-77.5 30.45,-64.55 25.74,-46.12 23.62,-32.01"/>
<polygon fill="#63b8ff" stroke="#63b8ff" points="27.14,-32 22.51,-22.47 20.19,-32.81 27.14,-32"/>
</a>
</g>
</g>
<!-- Node6 -->
<g id="Node000006" class="node">
<title>Node6</title>
<g id="a_Node000006"><a xlink:title=" ">
<polygon fill="#e0e0e0" stroke="#999999" points="207.62,-77.5 136.12,-77.5 136.12,-56.75 207.62,-56.75 207.62,-77.5"/>
<text xml:space="preserve" text-anchor="middle" x="171.88" y="-64" font-family="Helvetica,sans-Serif" font-size="10.00">netinet/in.h</text>
</a>
</g>
</g>
<!-- Node2&#45;&gt;Node6 -->
<g id="edge5_Node000002_Node000006" class="edge">
<title>Node2&#45;&gt;Node6</title>
<g id="a_edge5_Node000002_Node000006"><a xlink:title=" ">
<path fill="none" stroke="#63b8ff" d="M133.28,-113.09C139.63,-105.69 148.53,-95.32 156.18,-86.41"/>
<polygon fill="#63b8ff" stroke="#63b8ff" points="158.7,-88.84 162.56,-78.98 153.39,-84.28 158.7,-88.84"/>
</a>
</g>
</g>
<!-- Node3&#45;&gt;Node4 -->
<g id="edge3_Node000003_Node000004" class="edge">
<title>Node3&#45;&gt;Node4</title>
<g id="a_edge3_Node000003_Node000004"><a xlink:title=" ">
<path fill="none" stroke="#63b8ff" d="M72.79,-56.34C64.06,-48.63 51.68,-37.7 41.31,-28.54"/>
<polygon fill="#63b8ff" stroke="#63b8ff" points="43.81,-26.08 34,-22.08 39.18,-31.32 43.81,-26.08"/>
</a>
</g>
</g>
<!-- Node3&#45;&gt;Node5 -->
<g id="edge4_Node000003_Node000005" class="edge">
<title>Node3&#45;&gt;Node5</title>
<g id="a_edge4_Node000003_Node000005"><a xlink:title=" ">
<path fill="none" stroke="#63b8ff" d="M97.46,-56.34C108.49,-48.4 124.26,-37.03 137.2,-27.71"/>
<polygon fill="#63b8ff" stroke="#63b8ff" points="139.11,-30.65 145.18,-21.96 135.02,-24.97 139.11,-30.65"/>
</a>
</g>
</g>
</g>
</svg>
