<?xml version="1.0" encoding="UTF-8" standalone="no"?>
<!DOCTYPE svg PUBLIC "-//W3C//DTD SVG 1.1//EN"
 "http://www.w3.org/Graphics/SVG/1.1/DTD/svg11.dtd">
<!-- Generated by graphviz version 14.0.1 (0)
 -->
<!-- Title: Server.hpp Pages: 1 -->
<svg width="408pt" height="199pt"
 viewBox="0.00 0.00 408.00 199.00" xmlns="http://www.w3.org/2000/svg" xmlns:xlink="http://www.w3.org/1999/xlink">
<g id="graph0" class="graph" transform="scale(1 1) rotate(0) translate(4 195)">
<title>Server.hpp</title>
<!-- Node1 -->
<g id="Node000001" class="node">
<title>Node1</title>
<g id="a_Node000001"><a xlink:title=" ">
<polygon fill="#999999" stroke="#666666" points="307.75,-191 240,-191 240,-170.25 307.75,-170.25 307.75,-191"/>
<text xml:space="preserve" text-anchor="middle" x="273.88" y="-177.5" font-family="Helvetica,sans-Serif" font-size="10.00">Server.hpp</text>
</a>
</g>
</g>
<!-- Node2 -->
<g id="Node000002" class="node">
<title>Node2</title>
<g id="a_Node000002"><a xlink:href="../../da/d81/TcpSocket_8hpp.html" target="_top" xlink:title=" ">
<polygon fill="white" stroke="#666666" points="216.38,-134.25 131.38,-134.25 131.38,-113.5 216.38,-113.5 216.38,-134.25"/>
<text xml:space="preserve" text-anchor="middle" x="173.88" y="-120.75" font-family="Helvetica,sans-Serif" font-size="10.00">TcpSocket.hpp</text>
</a>
</g>
</g>
<!-- Node1&#45;&gt;Node2 -->
<g id="edge1_Node000001_Node000002" class="edge">
<title>Node1&#45;&gt;Node2</title>
<g id="a_edge1_Node000001_Node000002"><a xlink:title=" ">
<path fill="none" stroke="#63b8ff" d="M256,-169.84C240.78,-161.51 218.68,-149.41 201.24,-139.86"/>
<polygon fill="#63b8ff" stroke="#63b8ff" points="203.38,-137.04 192.93,-135.31 200.02,-143.18 203.38,-137.04"/>
</a>
</g>
</g>
<!-- Node4 -->
<g id="Node000004" class="node">
<title>Node4</title>
<g id="a_Node000004"><a xlink:title=" ">
<polygon fill="#e0e0e0" stroke="#999999" points="43.75,-20.75 0,-20.75 0,0 43.75,0 43.75,-20.75"/>
<text xml:space="preserve" text-anchor="middle" x="21.88" y="-7.25" font-family="Helvetica,sans-Serif" font-size="10.00">string</text>
</a>
</g>
</g>
<!-- Node1&#45;&gt;Node4 -->
<g id="edge10_Node000001_Node000004" class="edge">
<title>Node1&#45;&gt;Node4</title>
<g id="a_edge10_Node000001_Node000004"><a xlink:title=" ">
<path fill="none" stroke="#63b8ff" d="M239.66,-177.71C182.69,-172.41 70.17,-152.49 24.88,-77.5 16.78,-64.09 16.45,-46.22 17.92,-32.44"/>
<polygon fill="#63b8ff" stroke="#63b8ff" points="21.36,-33.08 19.37,-22.67 14.44,-32.05 21.36,-33.08"/>
</a>
</g>
</g>
<!-- Node5 -->
<g id="Node000005" class="node">
<title>Node5</title>
<g id="a_Node000005"><a xlink:title=" ">
<polygon fill="#e0e0e0" stroke="#999999" points="259.25,-20.75 212.5,-20.75 212.5,0 259.25,0 259.25,-20.75"/>
<text xml:space="preserve" text-anchor="middle" x="235.88" y="-7.25" font-family="Helvetica,sans-Serif" font-size="10.00">vector</text>
</a>
</g>
</g>
<!-- Node1&#45;&gt;Node5 -->
<g id="edge11_Node000001_Node000005" class="edge">
<title>Node1&#45;&gt;Node5</title>
<g id="a_edge11_Node000001_Node000005"><a xlink:title=" ">
<path fill="none" stroke="#63b8ff" d="M271.72,-170.1C265.74,-143.62 248.82,-68.68 240.54,-32.05"/>
<polygon fill="#63b8ff" stroke="#63b8ff" points="244.05,-31.68 238.43,-22.69 237.22,-33.22 244.05,-31.68"/>
</a>
</g>
</g>
<!-- Node7 -->
<g id="Node000007" class="node">
<title>Node7</title>
<g id="a_Node000007"><a xlink:title=" ">
<polygon fill="#e0e0e0" stroke="#999999" points="339.75,-134.25 302,-134.25 302,-113.5 339.75,-113.5 339.75,-134.25"/>
<text xml:space="preserve" text-anchor="middle" x="320.88" y="-120.75" font-family="Helvetica,sans-Serif" font-size="10.00">map</text>
</a>
</g>
</g>
<!-- Node1&#45;&gt;Node7 -->
<g id="edge8_Node000001_Node000007" class="edge">
<title>Node1&#45;&gt;Node7</title>
<g id="a_edge8_Node000001_Node000007"><a xlink:title=" ">
<path fill="none" stroke="#63b8ff" d="M282.28,-169.84C288.63,-162.44 297.53,-152.07 305.18,-143.16"/>
<polygon fill="#63b8ff" stroke="#63b8ff" points="307.7,-145.59 311.56,-135.73 302.39,-141.03 307.7,-145.59"/>
</a>
</g>
</g>
<!-- Node8 -->
<g id="Node000008" class="node">
<title>Node8</title>
<g id="a_Node000008"><a xlink:title=" ">
<polygon fill="#e0e0e0" stroke="#999999" points="400.38,-134.25 357.38,-134.25 357.38,-113.5 400.38,-113.5 400.38,-134.25"/>
<text xml:space="preserve" text-anchor="middle" x="378.88" y="-120.75" font-family="Helvetica,sans-Serif" font-size="10.00">poll.h</text>
</a>
</g>
</g>
<!-- Node1&#45;&gt;Node8 -->
<g id="edge9_Node000001_Node000008" class="edge">
<title>Node1&#45;&gt;Node8</title>
<g id="a_edge9_Node000001_Node000008"><a xlink:title=" ">
<path fill="none" stroke="#63b8ff" d="M292.65,-169.84C308.62,-161.51 331.83,-149.41 350.14,-139.86"/>
<polygon fill="#63b8ff" stroke="#63b8ff" points="351.67,-143.01 358.92,-135.28 348.44,-136.8 351.67,-143.01"/>
</a>
</g>
</g>
<!-- Node3 -->
<g id="Node000003" class="node">
<title>Node3</title>
<g id="a_Node000003"><a xlink:href="../../df/dd7/consts_8hpp.html" target="_top" xlink:title=" ">
<polygon fill="white" stroke="#666666" points="208.12,-77.5 139.62,-77.5 139.62,-56.75 208.12,-56.75 208.12,-77.5"/>
<text xml:space="preserve" text-anchor="middle" x="173.88" y="-64" font-family="Helvetica,sans-Serif" font-size="10.00">consts.hpp</text>
</a>
</g>
</g>
<!-- Node2&#45;&gt;Node3 -->
<g id="edge2_Node000002_Node000003" class="edge">
<title>Node2&#45;&gt;Node3</title>
<g id="a_edge2_Node000002_Node000003"><a xlink:title=" ">
<path fill="none" stroke="#63b8ff" d="M173.88,-113.09C173.88,-106.47 173.88,-97.47 173.88,-89.27"/>
<polygon fill="#63b8ff" stroke="#63b8ff" points="177.38,-89.34 173.88,-79.34 170.38,-89.34 177.38,-89.34"/>
</a>
</g>
</g>
<!-- Node2&#45;&gt;Node4 -->
<g id="edge6_Node000002_Node000004" class="edge">
<title>Node2&#45;&gt;Node4</title>
<g id="a_edge6_Node000002_Node000004"><a xlink:title=" ">
<path fill="none" stroke="#63b8ff" d="M130.89,-118.55C101.73,-113.41 64.34,-102.15 40.88,-77.5 29.28,-65.32 24.69,-46.54 22.91,-32.11"/>
<polygon fill="#63b8ff" stroke="#63b8ff" points="26.41,-31.99 22.09,-22.32 19.44,-32.58 26.41,-31.99"/>
</a>
</g>
</g>
<!-- Node2&#45;&gt;Node5 -->
<g id="edge7_Node000002_Node000005" class="edge">
<title>Node2&#45;&gt;Node5</title>
<g id="a_edge7_Node000002_Node000005"><a xlink:title=" ">
<path fill="none" stroke="#63b8ff" d="M185.73,-113.25C195.42,-104.78 208.8,-91.63 216.88,-77.5 224.95,-63.37 229.81,-45.54 232.59,-31.96"/>
<polygon fill="#63b8ff" stroke="#63b8ff" points="235.99,-32.86 234.33,-22.4 229.1,-31.61 235.99,-32.86"/>
</a>
</g>
</g>
<!-- Node6 -->
<g id="Node000006" class="node">
<title>Node6</title>
<g id="a_Node000006"><a xlink:title=" ">
<polygon fill="#e0e0e0" stroke="#999999" points="121.62,-77.5 50.12,-77.5 50.12,-56.75 121.62,-56.75 121.62,-77.5"/>
<text xml:space="preserve" text-anchor="middle" x="85.88" y="-64" font-family="Helvetica,sans-Serif" font-size="10.00">netinet/in.h</text>
</a>
</g>
</g>
<!-- Node2&#45;&gt;Node6 -->
<g id="edge5_Node000002_Node000006" class="edge">
<title>Node2&#45;&gt;Node6</title>
<g id="a_edge5_Node000002_Node000006"><a xlink:title=" ">
<path fill="none" stroke="#63b8ff" d="M158.14,-113.09C145,-104.91 126.03,-93.11 110.82,-83.65"/>
<polygon fill="#63b8ff" stroke="#63b8ff" points="113.1,-80.94 102.76,-78.63 109.4,-86.88 113.1,-80.94"/>
</a>
</g>
</g>
<!-- Node3&#45;&gt;Node4 -->
<g id="edge3_Node000003_Node000004" class="edge">
<title>Node3&#45;&gt;Node4</title>
<g id="a_edge3_Node000003_Node000004"><a xlink:title=" ">
<path fill="none" stroke="#63b8ff" d="M146.7,-56.34C120.88,-47.04 82.03,-33.04 54.54,-23.14"/>
<polygon fill="#63b8ff" stroke="#63b8ff" points="55.9,-19.91 45.31,-19.82 53.53,-26.5 55.9,-19.91"/>
</a>
</g>
</g>
<!-- Node3&#45;&gt;Node5 -->
<g id="edge4_Node000003_Node000005" class="edge">
<title>Node3&#45;&gt;Node5</title>
<g id="a_edge4_Node000003_Node000005"><a xlink:title=" ">
<path fill="none" stroke="#63b8ff" d="M184.96,-56.34C193.69,-48.63 206.07,-37.7 216.44,-28.54"/>
<polygon fill="#63b8ff" stroke="#63b8ff" points="218.57,-31.32 223.75,-22.08 213.94,-26.08 218.57,-31.32"/>
</a>
</g>
</g>
</g>
</svg>
