<?xml version="1.0" encoding="UTF-8" standalone="no"?>
<!DOCTYPE svg PUBLIC "-//W3C//DTD SVG 1.1//EN"
 "http://www.w3.org/Graphics/SVG/1.1/DTD/svg11.dtd">
<!-- Generated by graphviz version 14.0.1 (0)
 -->
<!-- Title: LogManager.hpp Pages: 1 -->
<svg width="670pt" height="313pt"
 viewBox="0.00 0.00 670.00 313.00" xmlns="http://www.w3.org/2000/svg" xmlns:xlink="http://www.w3.org/1999/xlink">
<g id="graph0" class="graph" transform="scale(1 1) rotate(0) translate(4 308.5)">
<title>LogManager.hpp</title>
<!-- Node1 -->
<g id="Node000001" class="node">
<title>Node1</title>
<g id="a_Node000001"><a xlink:title="LogManager class.">
<polygon fill="#999999" stroke="#666666" points="507.38,-304.5 411.12,-304.5 411.12,-283.75 507.38,-283.75 507.38,-304.5"/>
<text xml:space="preserve" text-anchor="middle" x="459.25" y="-291" font-family="Helvetica,sans-Serif" font-size="10.00">LogManager.hpp</text>
</a>
</g>
</g>
<!-- Node2 -->
<g id="Node000002" class="node">
<title>Node2</title>
<g id="a_Node000002"><a xlink:href="../../d9/d11/Logger_8hpp.html" target="_top" xlink:title="Logger class.">
<polygon fill="white" stroke="#666666" points="493.88,-247.75 424.62,-247.75 424.62,-227 493.88,-227 493.88,-247.75"/>
<text xml:space="preserve" text-anchor="middle" x="459.25" y="-234.25" font-family="Helvetica,sans-Serif" font-size="10.00">Logger.hpp</text>
</a>
</g>
</g>
<!-- Node1&#45;&gt;Node2 -->
<g id="edge1_Node000001_Node000002" class="edge">
<title>Node1&#45;&gt;Node2</title>
<g id="a_edge1_Node000001_Node000002"><a xlink:title=" ">
<path fill="none" stroke="#63b8ff" d="M459.25,-283.34C459.25,-276.72 459.25,-267.72 459.25,-259.52"/>
<polygon fill="#63b8ff" stroke="#63b8ff" points="462.75,-259.59 459.25,-249.59 455.75,-259.59 462.75,-259.59"/>
</a>
</g>
</g>
<!-- Node3 -->
<g id="Node000003" class="node">
<title>Node3</title>
<g id="a_Node000003"><a xlink:href="../../d3/d8e/Client_8hpp.html" target="_top" xlink:title="Client class.">
<polygon fill="white" stroke="#666666" points="333,-191 267.5,-191 267.5,-170.25 333,-170.25 333,-191"/>
<text xml:space="preserve" text-anchor="middle" x="300.25" y="-177.5" font-family="Helvetica,sans-Serif" font-size="10.00">Client.hpp</text>
</a>
</g>
</g>
<!-- Node2&#45;&gt;Node3 -->
<g id="edge2_Node000002_Node000003" class="edge">
<title>Node2&#45;&gt;Node3</title>
<g id="a_edge2_Node000002_Node000003"><a xlink:title=" ">
<path fill="none" stroke="#63b8ff" d="M430.82,-226.59C405.35,-217.82 367.75,-204.87 339.43,-195.12"/>
<polygon fill="#63b8ff" stroke="#63b8ff" points="340.72,-191.86 330.13,-191.91 338.44,-198.48 340.72,-191.86"/>
</a>
</g>
</g>
<!-- Node6 -->
<g id="Node000006" class="node">
<title>Node6</title>
<g id="a_Node000006"><a xlink:title=" ">
<polygon fill="#e0e0e0" stroke="#999999" points="182.12,-20.75 138.38,-20.75 138.38,0 182.12,0 182.12,-20.75"/>
<text xml:space="preserve" text-anchor="middle" x="160.25" y="-7.25" font-family="Helvetica,sans-Serif" font-size="10.00">string</text>
</a>
</g>
</g>
<!-- Node2&#45;&gt;Node6 -->
<g id="edge16_Node000002_Node000006" class="edge">
<title>Node2&#45;&gt;Node6</title>
<g id="a_edge16_Node000002_Node000006"><a xlink:title=" ">
<path fill="none" stroke="#63b8ff" d="M456.75,-226.82C449.82,-200.98 429.79,-130.46 413.25,-113.5 352.08,-50.75 247.19,-25.36 193.72,-16.1"/>
<polygon fill="#63b8ff" stroke="#63b8ff" points="194.43,-12.67 184,-14.52 193.3,-19.58 194.43,-12.67"/>
</a>
</g>
</g>
<!-- Node10 -->
<g id="Node000010" class="node">
<title>Node10</title>
<g id="a_Node000010"><a xlink:title=" ">
<polygon fill="#e0e0e0" stroke="#999999" points="404.12,-134.25 366.38,-134.25 366.38,-113.5 404.12,-113.5 404.12,-134.25"/>
<text xml:space="preserve" text-anchor="middle" x="385.25" y="-120.75" font-family="Helvetica,sans-Serif" font-size="10.00">map</text>
</a>
</g>
</g>
<!-- Node2&#45;&gt;Node10 -->
<g id="edge14_Node000002_Node000010" class="edge">
<title>Node2&#45;&gt;Node10</title>
<g id="a_edge14_Node000002_Node000010"><a xlink:title=" ">
<path fill="none" stroke="#63b8ff" d="M448.95,-226.59C440.1,-217.83 427.35,-204.33 418.25,-191 408.41,-176.57 399.7,-158.79 393.71,-145.3"/>
<polygon fill="#63b8ff" stroke="#63b8ff" points="396.93,-143.95 389.77,-136.14 390.5,-146.71 396.93,-143.95"/>
</a>
</g>
</g>
<!-- Node11 -->
<g id="Node000011" class="node">
<title>Node11</title>
<g id="a_Node000011"><a xlink:title=" ">
<polygon fill="#e0e0e0" stroke="#999999" points="514.38,-191 460.12,-191 460.12,-170.25 514.38,-170.25 514.38,-191"/>
<text xml:space="preserve" text-anchor="middle" x="487.25" y="-177.5" font-family="Helvetica,sans-Serif" font-size="10.00">fstream</text>
</a>
</g>
</g>
<!-- Node2&#45;&gt;Node11 -->
<g id="edge12_Node000002_Node000011" class="edge">
<title>Node2&#45;&gt;Node11</title>
<g id="a_edge12_Node000002_Node000011"><a xlink:title=" ">
<path fill="none" stroke="#63b8ff" d="M464.26,-226.59C467.84,-219.58 472.79,-209.91 477.17,-201.33"/>
<polygon fill="#63b8ff" stroke="#63b8ff" points="480.16,-203.17 481.6,-192.68 473.93,-199.99 480.16,-203.17"/>
</a>
</g>
</g>
<!-- Node12 -->
<g id="Node000012" class="node">
<title>Node12</title>
<g id="a_Node000012"><a xlink:title=" ">
<polygon fill="#e0e0e0" stroke="#999999" points="588.12,-191 532.38,-191 532.38,-170.25 588.12,-170.25 588.12,-191"/>
<text xml:space="preserve" text-anchor="middle" x="560.25" y="-177.5" font-family="Helvetica,sans-Serif" font-size="10.00">iomanip</text>
</a>
</g>
</g>
<!-- Node2&#45;&gt;Node12 -->
<g id="edge13_Node000002_Node000012" class="edge">
<title>Node2&#45;&gt;Node12</title>
<g id="a_edge13_Node000002_Node000012"><a xlink:title=" ">
<path fill="none" stroke="#63b8ff" d="M477.31,-226.59C492.67,-218.26 514.99,-206.16 532.61,-196.61"/>
<polygon fill="#63b8ff" stroke="#63b8ff" points="533.9,-199.89 541.02,-192.05 530.56,-193.74 533.9,-199.89"/>
</a>
</g>
</g>
<!-- Node13 -->
<g id="Node000013" class="node">
<title>Node13</title>
<g id="a_Node000013"><a xlink:title=" ">
<polygon fill="#e0e0e0" stroke="#999999" points="662.12,-191 606.38,-191 606.38,-170.25 662.12,-170.25 662.12,-191"/>
<text xml:space="preserve" text-anchor="middle" x="634.25" y="-177.5" font-family="Helvetica,sans-Serif" font-size="10.00">sstream</text>
</a>
</g>
</g>
<!-- Node2&#45;&gt;Node13 -->
<g id="edge15_Node000002_Node000013" class="edge">
<title>Node2&#45;&gt;Node13</title>
<g id="a_edge15_Node000002_Node000013"><a xlink:title=" ">
<path fill="none" stroke="#63b8ff" d="M490.54,-226.59C519.91,-217.4 563.94,-203.62 595.52,-193.74"/>
<polygon fill="#63b8ff" stroke="#63b8ff" points="596.18,-197.2 604.68,-190.88 594.09,-190.52 596.18,-197.2"/>
</a>
</g>
</g>
<!-- Node4 -->
<g id="Node000004" class="node">
<title>Node4</title>
<g id="a_Node000004"><a xlink:href="../../da/d81/TcpSocket_8hpp.html" target="_top" xlink:title="TcpSocket class.">
<polygon fill="white" stroke="#666666" points="167.75,-134.25 82.75,-134.25 82.75,-113.5 167.75,-113.5 167.75,-134.25"/>
<text xml:space="preserve" text-anchor="middle" x="125.25" y="-120.75" font-family="Helvetica,sans-Serif" font-size="10.00">TcpSocket.hpp</text>
</a>
</g>
</g>
<!-- Node3&#45;&gt;Node4 -->
<g id="edge3_Node000003_Node000004" class="edge">
<title>Node3&#45;&gt;Node4</title>
<g id="a_edge3_Node000003_Node000004"><a xlink:title=" ">
<path fill="none" stroke="#63b8ff" d="M268.96,-169.84C240.56,-160.95 198.44,-147.77 167.14,-137.98"/>
<polygon fill="#63b8ff" stroke="#63b8ff" points="168.59,-134.77 158,-135.12 166.5,-141.45 168.59,-134.77"/>
</a>
</g>
</g>
<!-- Node3&#45;&gt;Node6 -->
<g id="edge11_Node000003_Node000006" class="edge">
<title>Node3&#45;&gt;Node6</title>
<g id="a_edge11_Node000003_Node000006"><a xlink:title=" ">
<path fill="none" stroke="#63b8ff" d="M284.39,-169.83C271.97,-161.55 254.9,-148.74 243.25,-134.25 219.21,-104.35 227.49,-88 205.25,-56.75 197.99,-46.55 188.39,-36.53 179.92,-28.51"/>
<polygon fill="#63b8ff" stroke="#63b8ff" points="182.51,-26.14 172.77,-21.97 177.79,-31.3 182.51,-26.14"/>
</a>
</g>
</g>
<!-- Node9 -->
<g id="Node000009" class="node">
<title>Node9</title>
<g id="a_Node000009"><a xlink:href="../../d8/d9c/reply__codes_8hpp.html" target="_top" xlink:title="Numerical reply codes.">
<polygon fill="white" stroke="#666666" points="348,-134.25 252.5,-134.25 252.5,-113.5 348,-113.5 348,-134.25"/>
<text xml:space="preserve" text-anchor="middle" x="300.25" y="-120.75" font-family="Helvetica,sans-Serif" font-size="10.00">reply_codes.hpp</text>
</a>
</g>
</g>
<!-- Node3&#45;&gt;Node9 -->
<g id="edge9_Node000003_Node000009" class="edge">
<title>Node3&#45;&gt;Node9</title>
<g id="a_edge9_Node000003_Node000009"><a xlink:title=" ">
<path fill="none" stroke="#63b8ff" d="M300.25,-169.84C300.25,-163.22 300.25,-154.22 300.25,-146.02"/>
<polygon fill="#63b8ff" stroke="#63b8ff" points="303.75,-146.09 300.25,-136.09 296.75,-146.09 303.75,-146.09"/>
</a>
</g>
</g>
<!-- Node3&#45;&gt;Node10 -->
<g id="edge10_Node000003_Node000010" class="edge">
<title>Node3&#45;&gt;Node10</title>
<g id="a_edge10_Node000003_Node000010"><a xlink:title=" ">
<path fill="none" stroke="#63b8ff" d="M315.45,-169.84C328.02,-161.74 346.11,-150.08 360.73,-140.67"/>
<polygon fill="#63b8ff" stroke="#63b8ff" points="362.4,-143.76 368.91,-135.4 358.61,-137.87 362.4,-143.76"/>
</a>
</g>
</g>
<!-- Node5 -->
<g id="Node000005" class="node">
<title>Node5</title>
<g id="a_Node000005"><a xlink:href="../../df/dd7/consts_8hpp.html" target="_top" xlink:title="constants used throughout IRC server program">
<polygon fill="white" stroke="#666666" points="68.5,-77.5 0,-77.5 0,-56.75 68.5,-56.75 68.5,-77.5"/>
<text xml:space="preserve" text-anchor="middle" x="34.25" y="-64" font-family="Helvetica,sans-Serif" font-size="10.00">consts.hpp</text>
</a>
</g>
</g>
<!-- Node4&#45;&gt;Node5 -->
<g id="edge4_Node000004_Node000005" class="edge">
<title>Node4&#45;&gt;Node5</title>
<g id="a_edge4_Node000004_Node000005"><a xlink:title=" ">
<path fill="none" stroke="#63b8ff" d="M108.98,-113.09C95.39,-104.91 75.78,-93.11 60.05,-83.65"/>
<polygon fill="#63b8ff" stroke="#63b8ff" points="62.05,-80.77 51.68,-78.61 58.44,-86.76 62.05,-80.77"/>
</a>
</g>
</g>
<!-- Node4&#45;&gt;Node6 -->
<g id="edge8_Node000004_Node000006" class="edge">
<title>Node4&#45;&gt;Node6</title>
<g id="a_edge8_Node000004_Node000006"><a xlink:title=" ">
<path fill="none" stroke="#63b8ff" d="M120.65,-113.07C115.11,-99.81 107.47,-75.65 115.25,-56.75 119.83,-45.63 128.59,-35.8 137.18,-28.15"/>
<polygon fill="#63b8ff" stroke="#63b8ff" points="139.2,-31.02 144.71,-21.97 134.76,-25.61 139.2,-31.02"/>
</a>
</g>
</g>
<!-- Node8 -->
<g id="Node000008" class="node">
<title>Node8</title>
<g id="a_Node000008"><a xlink:title=" ">
<polygon fill="#e0e0e0" stroke="#999999" points="196,-77.5 124.5,-77.5 124.5,-56.75 196,-56.75 196,-77.5"/>
<text xml:space="preserve" text-anchor="middle" x="160.25" y="-64" font-family="Helvetica,sans-Serif" font-size="10.00">netinet/in.h</text>
</a>
</g>
</g>
<!-- Node4&#45;&gt;Node8 -->
<g id="edge7_Node000004_Node000008" class="edge">
<title>Node4&#45;&gt;Node8</title>
<g id="a_edge7_Node000004_Node000008"><a xlink:title=" ">
<path fill="none" stroke="#63b8ff" d="M131.51,-113.09C136.09,-105.92 142.45,-95.98 148.02,-87.26"/>
<polygon fill="#63b8ff" stroke="#63b8ff" points="150.79,-89.41 153.23,-79.1 144.9,-85.64 150.79,-89.41"/>
</a>
</g>
</g>
<!-- Node5&#45;&gt;Node6 -->
<g id="edge5_Node000005_Node000006" class="edge">
<title>Node5&#45;&gt;Node6</title>
<g id="a_edge5_Node000005_Node000006"><a xlink:title=" ">
<path fill="none" stroke="#63b8ff" d="M56.78,-56.34C76.49,-47.77 105.36,-35.23 127.6,-25.56"/>
<polygon fill="#63b8ff" stroke="#63b8ff" points="128.75,-28.88 136.53,-21.68 125.96,-22.46 128.75,-28.88"/>
</a>
</g>
</g>
<!-- Node7 -->
<g id="Node000007" class="node">
<title>Node7</title>
<g id="a_Node000007"><a xlink:title=" ">
<polygon fill="#e0e0e0" stroke="#999999" points="57.62,-20.75 10.88,-20.75 10.88,0 57.62,0 57.62,-20.75"/>
<text xml:space="preserve" text-anchor="middle" x="34.25" y="-7.25" font-family="Helvetica,sans-Serif" font-size="10.00">vector</text>
</a>
</g>
</g>
<!-- Node5&#45;&gt;Node7 -->
<g id="edge6_Node000005_Node000007" class="edge">
<title>Node5&#45;&gt;Node7</title>
<g id="a_edge6_Node000005_Node000007"><a xlink:title=" ">
<path fill="none" stroke="#63b8ff" d="M34.25,-56.34C34.25,-49.72 34.25,-40.72 34.25,-32.52"/>
<polygon fill="#63b8ff" stroke="#63b8ff" points="37.75,-32.59 34.25,-22.59 30.75,-32.59 37.75,-32.59"/>
</a>
</g>
</g>
</g>
</svg>
