<?xml version="1.0" encoding="UTF-8" standalone="no"?>
<!DOCTYPE svg PUBLIC "-//W3C//DTD SVG 1.1//EN"
 "http://www.w3.org/Graphics/SVG/1.1/DTD/svg11.dtd">
<!-- Generated by graphviz version 14.0.1 (0)
 -->
<!-- Title: TcpSocket.hpp Pages: 1 -->
<svg width="379pt" height="313pt"
 viewBox="0.00 0.00 379.00 313.00" xmlns="http://www.w3.org/2000/svg" xmlns:xlink="http://www.w3.org/1999/xlink">
<g id="graph0" class="graph" transform="scale(1 1) rotate(0) translate(4 308.5)">
<title>TcpSocket.hpp</title>
<!-- Node1 -->
<g id="Node000001" class="node">
<title>Node1</title>
<g id="a_Node000001"><a xlink:title=" ">
<polygon fill="#999999" stroke="#666666" points="140.88,-304.5 55.88,-304.5 55.88,-283.75 140.88,-283.75 140.88,-304.5"/>
<text xml:space="preserve" text-anchor="middle" x="98.38" y="-291" font-family="Helvetica,sans-Serif" font-size="10.00">TcpSocket.hpp</text>
</a>
</g>
</g>
<!-- Node2 -->
<g id="Node000002" class="node">
<title>Node2</title>
<g id="a_Node000002"><a xlink:href="../../d3/d8e/Client_8hpp.html" target="_top" xlink:title=" ">
<polygon fill="white" stroke="#666666" points="247.12,-247.75 181.62,-247.75 181.62,-227 247.12,-227 247.12,-247.75"/>
<text xml:space="preserve" text-anchor="middle" x="214.38" y="-234.25" font-family="Helvetica,sans-Serif" font-size="10.00">Client.hpp</text>
</a>
</g>
</g>
<!-- Node1&#45;&gt;Node2 -->
<g id="edge1_Node000001_Node000002" class="edge">
<title>Node1&#45;&gt;Node2</title>
<g id="a_edge1_Node000001_Node000002"><a xlink:title=" ">
<path fill="none" stroke="#63b8ff" d="M129.48,-278.45C149.88,-268.82 175.97,-256.5 193.82,-248.08"/>
<polygon fill="#63b8ff" stroke="#63b8ff" points="128.03,-275.26 120.48,-282.69 131.02,-281.59 128.03,-275.26"/>
</a>
</g>
</g>
<!-- Node13 -->
<g id="Node000013" class="node">
<title>Node13</title>
<g id="a_Node000013"><a xlink:href="../../de/d3d/Server_8hpp.html" target="_top" xlink:title=" ">
<polygon fill="white" stroke="#666666" points="119.25,-134.25 51.5,-134.25 51.5,-113.5 119.25,-113.5 119.25,-134.25"/>
<text xml:space="preserve" text-anchor="middle" x="85.38" y="-120.75" font-family="Helvetica,sans-Serif" font-size="10.00">Server.hpp</text>
</a>
</g>
</g>
<!-- Node1&#45;&gt;Node13 -->
<g id="edge18_Node000001_Node000013" class="edge">
<title>Node1&#45;&gt;Node13</title>
<g id="a_edge18_Node000001_Node000013"><a xlink:title=" ">
<path fill="none" stroke="#63b8ff" d="M96.71,-272.07C95.08,-251.42 92.53,-219.05 90.38,-191 88.84,-171.03 87.08,-147.66 86.11,-134.73"/>
<polygon fill="#63b8ff" stroke="#63b8ff" points="93.2,-272.07 97.47,-281.76 100.18,-271.51 93.2,-272.07"/>
</a>
</g>
</g>
<!-- Node3 -->
<g id="Node000003" class="node">
<title>Node3</title>
<g id="a_Node000003"><a xlink:href="../../d0/d9f/Invite_8hpp.html" target="_top" xlink:title=" ">
<polygon fill="white" stroke="#666666" points="64.75,-20.75 0,-20.75 0,0 64.75,0 64.75,-20.75"/>
<text xml:space="preserve" text-anchor="middle" x="32.38" y="-7.25" font-family="Helvetica,sans-Serif" font-size="10.00">Invite.hpp</text>
</a>
</g>
</g>
<!-- Node2&#45;&gt;Node3 -->
<g id="edge2_Node000002_Node000003" class="edge">
<title>Node2&#45;&gt;Node3</title>
<g id="a_edge2_Node000002_Node000003"><a xlink:title=" ">
<path fill="none" stroke="#63b8ff" d="M170.36,-226.28C145.39,-219.13 114.41,-207.79 90.38,-191 63.29,-172.08 54.98,-164.78 42.38,-134.25 26.12,-94.88 29.09,-42.47 31.22,-21.08"/>
<polygon fill="#63b8ff" stroke="#63b8ff" points="169.34,-229.62 179.91,-228.87 171.18,-222.87 169.34,-229.62"/>
</a>
</g>
</g>
<!-- Node4 -->
<g id="Node000004" class="node">
<title>Node4</title>
<g id="a_Node000004"><a xlink:href="../../da/dac/Join_8hpp.html" target="_top" xlink:title=" ">
<polygon fill="white" stroke="#666666" points="241.88,-191 186.88,-191 186.88,-170.25 241.88,-170.25 241.88,-191"/>
<text xml:space="preserve" text-anchor="middle" x="214.38" y="-177.5" font-family="Helvetica,sans-Serif" font-size="10.00">Join.hpp</text>
</a>
</g>
</g>
<!-- Node2&#45;&gt;Node4 -->
<g id="edge3_Node000002_Node000004" class="edge">
<title>Node2&#45;&gt;Node4</title>
<g id="a_edge3_Node000002_Node000004"><a xlink:title=" ">
<path fill="none" stroke="#63b8ff" d="M214.38,-215.13C214.38,-206.91 214.38,-197.93 214.38,-191.33"/>
<polygon fill="#63b8ff" stroke="#63b8ff" points="210.88,-215.07 214.38,-225.07 217.88,-215.07 210.88,-215.07"/>
</a>
</g>
</g>
<!-- Node5 -->
<g id="Node000005" class="node">
<title>Node5</title>
<g id="a_Node000005"><a xlink:href="../../d9/d11/Logger_8hpp.html" target="_top" xlink:title=" ">
<polygon fill="white" stroke="#666666" points="169,-191 99.75,-191 99.75,-170.25 169,-170.25 169,-191"/>
<text xml:space="preserve" text-anchor="middle" x="134.38" y="-177.5" font-family="Helvetica,sans-Serif" font-size="10.00">Logger.hpp</text>
</a>
</g>
</g>
<!-- Node2&#45;&gt;Node5 -->
<g id="edge4_Node000002_Node000005" class="edge">
<title>Node2&#45;&gt;Node5</title>
<g id="a_edge4_Node000002_Node000005"><a xlink:title=" ">
<path fill="none" stroke="#63b8ff" d="M190.76,-220.21C177.05,-210.83 160.23,-199.32 148.55,-191.33"/>
<polygon fill="#63b8ff" stroke="#63b8ff" points="188.59,-222.97 198.82,-225.73 192.55,-217.2 188.59,-222.97"/>
</a>
</g>
</g>
<!-- Node10 -->
<g id="Node000010" class="node">
<title>Node10</title>
<g id="a_Node000010"><a xlink:href="../../df/d93/Who_8hpp.html" target="_top" xlink:title=" ">
<polygon fill="white" stroke="#666666" points="313.75,-20.75 255,-20.75 255,0 313.75,0 313.75,-20.75"/>
<text xml:space="preserve" text-anchor="middle" x="284.38" y="-7.25" font-family="Helvetica,sans-Serif" font-size="10.00">Who.hpp</text>
</a>
</g>
</g>
<!-- Node2&#45;&gt;Node10 -->
<g id="edge14_Node000002_Node000010" class="edge">
<title>Node2&#45;&gt;Node10</title>
<g id="a_edge14_Node000002_Node000010"><a xlink:title=" ">
<path fill="none" stroke="#63b8ff" d="M256.91,-222.49C294.44,-207.53 346.08,-179.57 365.38,-134.25 379.4,-101.3 364.83,-85.42 343.38,-56.75 332.15,-41.75 314.71,-29.18 301.7,-21.11"/>
<polygon fill="#63b8ff" stroke="#63b8ff" points="255.77,-219.18 247.67,-226.01 258.26,-225.72 255.77,-219.18"/>
</a>
</g>
</g>
<!-- Node11 -->
<g id="Node000011" class="node">
<title>Node11</title>
<g id="a_Node000011"><a xlink:href="../../de/d3e/Motd_8hpp.html" target="_top" xlink:title=" ">
<polygon fill="white" stroke="#666666" points="318.25,-77.5 256.5,-77.5 256.5,-56.75 318.25,-56.75 318.25,-77.5"/>
<text xml:space="preserve" text-anchor="middle" x="287.38" y="-64" font-family="Helvetica,sans-Serif" font-size="10.00">Motd.hpp</text>
</a>
</g>
</g>
<!-- Node2&#45;&gt;Node11 -->
<g id="edge13_Node000002_Node000011" class="edge">
<title>Node2&#45;&gt;Node11</title>
<g id="a_edge13_Node000002_Node000011"><a xlink:title=" ">
<path fill="none" stroke="#63b8ff" d="M231.81,-218.43C238.71,-210.53 246.2,-200.83 251.38,-191 271.98,-151.86 282.3,-99.32 285.88,-77.87"/>
<polygon fill="#63b8ff" stroke="#63b8ff" points="229.37,-215.91 225.19,-225.65 234.53,-220.64 229.37,-215.91"/>
</a>
</g>
</g>
<!-- Node12 -->
<g id="Node000012" class="node">
<title>Node12</title>
<g id="a_Node000012"><a xlink:href="../../df/d93/utils_8hpp.html" target="_top" xlink:title=" ">
<polygon fill="white" stroke="#666666" points="356.38,-134.25 298.38,-134.25 298.38,-113.5 356.38,-113.5 356.38,-134.25"/>
<text xml:space="preserve" text-anchor="middle" x="327.38" y="-120.75" font-family="Helvetica,sans-Serif" font-size="10.00">utils.hpp</text>
</a>
</g>
</g>
<!-- Node2&#45;&gt;Node12 -->
<g id="edge15_Node000002_Node000012" class="edge">
<title>Node2&#45;&gt;Node12</title>
<g id="a_edge15_Node000002_Node000012"><a xlink:title=" ">
<path fill="none" stroke="#63b8ff" d="M243.77,-221.06C257.12,-213.22 272.53,-202.82 284.38,-191 301.82,-173.58 315.99,-147.97 322.87,-134.29"/>
<polygon fill="#63b8ff" stroke="#63b8ff" points="242.37,-217.84 235.38,-225.81 245.81,-223.93 242.37,-217.84"/>
</a>
</g>
</g>
<!-- Node6 -->
<g id="Node000006" class="node">
<title>Node6</title>
<g id="a_Node000006"><a xlink:href="../../de/d1c/LogManager_8hpp.html" target="_top" xlink:title=" ">
<polygon fill="white" stroke="#666666" points="239.5,-134.25 143.25,-134.25 143.25,-113.5 239.5,-113.5 239.5,-134.25"/>
<text xml:space="preserve" text-anchor="middle" x="191.38" y="-120.75" font-family="Helvetica,sans-Serif" font-size="10.00">LogManager.hpp</text>
</a>
</g>
</g>
<!-- Node5&#45;&gt;Node6 -->
<g id="edge5_Node000005_Node000006" class="edge">
<title>Node5&#45;&gt;Node6</title>
<g id="a_edge5_Node000005_Node000006"><a xlink:title=" ">
<path fill="none" stroke="#63b8ff" d="M152.64,-162.08C162.13,-152.97 173.35,-142.18 181.27,-134.58"/>
<polygon fill="#63b8ff" stroke="#63b8ff" points="150.44,-159.34 145.66,-168.79 155.29,-164.39 150.44,-159.34"/>
</a>
</g>
</g>
<!-- Node7 -->
<g id="Node000007" class="node">
<title>Node7</title>
<g id="a_Node000007"><a xlink:href="../../d7/d42/Channel_8hpp.html" target="_top" xlink:title=" ">
<polygon fill="white" stroke="#666666" points="162.75,-77.5 86,-77.5 86,-56.75 162.75,-56.75 162.75,-77.5"/>
<text xml:space="preserve" text-anchor="middle" x="124.38" y="-64" font-family="Helvetica,sans-Serif" font-size="10.00">Channel.hpp</text>
</a>
</g>
</g>
<!-- Node6&#45;&gt;Node7 -->
<g id="edge6_Node000006_Node000007" class="edge">
<title>Node6&#45;&gt;Node7</title>
<g id="a_edge6_Node000006_Node000007"><a xlink:title=" ">
<path fill="none" stroke="#63b8ff" d="M170.58,-105.89C159.3,-96.66 145.75,-85.59 136.25,-77.83"/>
<polygon fill="#63b8ff" stroke="#63b8ff" points="168.27,-108.51 178.22,-112.13 172.7,-103.09 168.27,-108.51"/>
</a>
</g>
</g>
<!-- Node6&#45;&gt;Node10 -->
<g id="edge12_Node000006_Node000010" class="edge">
<title>Node6&#45;&gt;Node10</title>
<g id="a_edge12_Node000006_Node000010"><a xlink:title=" ">
<path fill="none" stroke="#63b8ff" d="M206.64,-104.58C226.54,-80.72 260.64,-39.83 276.2,-21.18"/>
<polygon fill="#63b8ff" stroke="#63b8ff" points="203.99,-102.29 200.27,-112.21 209.37,-106.77 203.99,-102.29"/>
</a>
</g>
</g>
<!-- Node6&#45;&gt;Node11 -->
<g id="edge11_Node000006_Node000011" class="edge">
<title>Node6&#45;&gt;Node11</title>
<g id="a_edge11_Node000006_Node000011"><a xlink:title=" ">
<path fill="none" stroke="#63b8ff" d="M218.29,-107.53C234.99,-98 255.93,-86.06 270.36,-77.83"/>
<polygon fill="#63b8ff" stroke="#63b8ff" points="216.81,-104.34 209.85,-112.34 220.27,-110.42 216.81,-104.34"/>
</a>
</g>
</g>
<!-- Node7&#45;&gt;Node3 -->
<g id="edge7_Node000007_Node000003" class="edge">
<title>Node7&#45;&gt;Node3</title>
<g id="a_edge7_Node000007_Node000003"><a xlink:title=" ">
<path fill="none" stroke="#63b8ff" d="M98.13,-50.51C82.2,-41.03 62.37,-29.23 48.68,-21.08"/>
<polygon fill="#63b8ff" stroke="#63b8ff" points="96.24,-53.46 106.63,-55.56 99.82,-47.44 96.24,-53.46"/>
</a>
</g>
</g>
<!-- Node8 -->
<g id="Node000008" class="node">
<title>Node8</title>
<g id="a_Node000008"><a xlink:href="../../df/d5f/Pass_8hpp.html" target="_top" xlink:title=" ">
<polygon fill="white" stroke="#666666" points="141.75,-20.75 83,-20.75 83,0 141.75,0 141.75,-20.75"/>
<text xml:space="preserve" text-anchor="middle" x="112.38" y="-7.25" font-family="Helvetica,sans-Serif" font-size="10.00">Pass.hpp</text>
</a>
</g>
</g>
<!-- Node7&#45;&gt;Node8 -->
<g id="edge8_Node000007_Node000008" class="edge">
<title>Node7&#45;&gt;Node8</title>
<g id="a_edge8_Node000007_Node000008"><a xlink:title=" ">
<path fill="none" stroke="#63b8ff" d="M119.78,-45.17C117.96,-36.88 115.96,-27.75 114.5,-21.08"/>
<polygon fill="#63b8ff" stroke="#63b8ff" points="116.35,-45.84 121.91,-54.86 123.18,-44.34 116.35,-45.84"/>
</a>
</g>
</g>
<!-- Node9 -->
<g id="Node000009" class="node">
<title>Node9</title>
<g id="a_Node000009"><a xlink:href="../../d6/df8/Privmsg_8hpp.html" target="_top" xlink:title="Implements IRC PRIVMSG command.">
<polygon fill="white" stroke="#666666" points="236.75,-20.75 160,-20.75 160,0 236.75,0 236.75,-20.75"/>
<text xml:space="preserve" text-anchor="middle" x="198.38" y="-7.25" font-family="Helvetica,sans-Serif" font-size="10.00">Privmsg.hpp</text>
</a>
</g>
</g>
<!-- Node7&#45;&gt;Node9 -->
<g id="edge9_Node000007_Node000009" class="edge">
<title>Node7&#45;&gt;Node9</title>
<g id="a_edge9_Node000007_Node000009"><a xlink:title=" ">
<path fill="none" stroke="#63b8ff" d="M146.59,-49.69C159.2,-40.36 174.56,-29 185.26,-21.08"/>
<polygon fill="#63b8ff" stroke="#63b8ff" points="144.78,-46.68 138.82,-55.44 148.94,-52.3 144.78,-46.68"/>
</a>
</g>
</g>
<!-- Node7&#45;&gt;Node10 -->
<g id="edge10_Node000007_Node000010" class="edge">
<title>Node7&#45;&gt;Node10</title>
<g id="a_edge10_Node000007_Node000010"><a xlink:title=" ">
<path fill="none" stroke="#63b8ff" d="M163.78,-52.64C192.27,-42.89 230.11,-29.94 255.75,-21.17"/>
<polygon fill="#63b8ff" stroke="#63b8ff" points="162.74,-49.3 154.41,-55.85 165.01,-55.92 162.74,-49.3"/>
</a>
</g>
</g>
<!-- Node12&#45;&gt;Node10 -->
<g id="edge17_Node000012_Node000010" class="edge">
<title>Node12&#45;&gt;Node10</title>
<g id="a_edge17_Node000012_Node000010"><a xlink:title=" ">
<path fill="none" stroke="#63b8ff" d="M331.28,-101.68C332.81,-88.32 333.04,-70.97 327.38,-56.75 321.51,-42.03 308.35,-29.34 298.12,-21.16"/>
<polygon fill="#63b8ff" stroke="#63b8ff" points="327.82,-101.13 329.79,-111.54 334.74,-102.17 327.82,-101.13"/>
</a>
</g>
</g>
<!-- Node12&#45;&gt;Node11 -->
<g id="edge16_Node000012_Node000011" class="edge">
<title>Node12&#45;&gt;Node11</title>
<g id="a_edge16_Node000012_Node000011"><a xlink:title=" ">
<path fill="none" stroke="#63b8ff" d="M313.53,-103.92C307.1,-95.13 299.74,-85.05 294.46,-77.83"/>
<polygon fill="#63b8ff" stroke="#63b8ff" points="310.61,-105.85 319.33,-111.86 316.26,-101.73 310.61,-105.85"/>
</a>
</g>
</g>
<!-- Node13&#45;&gt;Node3 -->
<g id="edge19_Node000013_Node000003" class="edge">
<title>Node13&#45;&gt;Node3</title>
<g id="a_edge19_Node000013_Node000003"><a xlink:title=" ">
<path fill="none" stroke="#63b8ff" d="M76.07,-103.29C64.65,-79.27 45.74,-39.5 37.03,-21.18"/>
<polygon fill="#63b8ff" stroke="#63b8ff" points="72.75,-104.47 80.21,-112 79.07,-101.47 72.75,-104.47"/>
</a>
</g>
</g>
<!-- Node13&#45;&gt;Node10 -->
<g id="edge21_Node000013_Node000010" class="edge">
<title>Node13&#45;&gt;Node10</title>
<g id="a_edge21_Node000013_Node000010"><a xlink:title=" ">
<path fill="none" stroke="#63b8ff" d="M114.4,-107.97C131.15,-99.26 152.56,-87.96 171.38,-77.5 206.14,-58.17 246.18,-34.37 268.04,-21.24"/>
<polygon fill="#63b8ff" stroke="#63b8ff" points="113.25,-104.62 105.98,-112.33 116.47,-110.84 113.25,-104.62"/>
</a>
</g>
</g>
<!-- Node13&#45;&gt;Node11 -->
<g id="edge20_Node000013_Node000011" class="edge">
<title>Node13&#45;&gt;Node11</title>
<g id="a_edge20_Node000013_Node000011"><a xlink:title=" ">
<path fill="none" stroke="#63b8ff" d="M130.48,-110.65C168.75,-100.28 222.64,-85.67 256.26,-76.56"/>
<polygon fill="#63b8ff" stroke="#63b8ff" points="129.84,-107.2 121.1,-113.19 131.67,-113.95 129.84,-107.2"/>
</a>
</g>
</g>
</g>
</svg>
