<?xml version="1.0" encoding="UTF-8" standalone="no"?>
<!DOCTYPE svg PUBLIC "-//W3C//DTD SVG 1.1//EN"
 "http://www.w3.org/Graphics/SVG/1.1/DTD/svg11.dtd">
<!-- Generated by graphviz version 14.0.1 (0)
 -->
<!-- Title: Join.hpp Pages: 1 -->
<svg width="330pt" height="256pt"
 viewBox="0.00 0.00 330.00 256.00" xmlns="http://www.w3.org/2000/svg" xmlns:xlink="http://www.w3.org/1999/xlink">
<g id="graph0" class="graph" transform="scale(1 1) rotate(0) translate(4 251.75)">
<title>Join.hpp</title>
<!-- Node1 -->
<g id="Node000001" class="node">
<title>Node1</title>
<g id="a_Node000001"><a xlink:title="Implement IRC JOIN Command.">
<polygon fill="#999999" stroke="#666666" points="136.69,-247.75 81.69,-247.75 81.69,-227 136.69,-227 136.69,-247.75"/>
<text xml:space="preserve" text-anchor="middle" x="109.19" y="-234.25" font-family="Helvetica,sans-Serif" font-size="10.00">Join.hpp</text>
</a>
</g>
</g>
<!-- Node2 -->
<g id="Node000002" class="node">
<title>Node2</title>
<g id="a_Node000002"><a xlink:href="../../d3/d8e/Client_8hpp.html" target="_top" xlink:title="Client class.">
<polygon fill="white" stroke="#666666" points="141.94,-191 76.44,-191 76.44,-170.25 141.94,-170.25 141.94,-191"/>
<text xml:space="preserve" text-anchor="middle" x="109.19" y="-177.5" font-family="Helvetica,sans-Serif" font-size="10.00">Client.hpp</text>
</a>
</g>
</g>
<!-- Node1&#45;&gt;Node2 -->
<g id="edge1_Node000001_Node000002" class="edge">
<title>Node1&#45;&gt;Node2</title>
<g id="a_edge1_Node000001_Node000002"><a xlink:title=" ">
<path fill="none" stroke="#63b8ff" d="M109.19,-226.59C109.19,-219.97 109.19,-210.97 109.19,-202.77"/>
<polygon fill="#63b8ff" stroke="#63b8ff" points="112.69,-202.84 109.19,-192.84 105.69,-202.84 112.69,-202.84"/>
</a>
</g>
</g>
<!-- Node5 -->
<g id="Node000005" class="node">
<title>Node5</title>
<g id="a_Node000005"><a xlink:title=" ">
<polygon fill="#e0e0e0" stroke="#999999" points="52.07,-20.75 8.32,-20.75 8.32,0 52.07,0 52.07,-20.75"/>
<text xml:space="preserve" text-anchor="middle" x="30.19" y="-7.25" font-family="Helvetica,sans-Serif" font-size="10.00">string</text>
</a>
</g>
</g>
<!-- Node1&#45;&gt;Node5 -->
<g id="edge13_Node000001_Node000005" class="edge">
<title>Node1&#45;&gt;Node5</title>
<g id="a_edge13_Node000001_Node000005"><a xlink:title=" ">
<path fill="none" stroke="#63b8ff" d="M94.18,-226.64C70.97,-210.61 27.19,-176.21 9.19,-134.25 -4.39,-102.58 -0.82,-90.26 7.19,-56.75 9.34,-47.76 13.58,-38.53 17.84,-30.77"/>
<polygon fill="#63b8ff" stroke="#63b8ff" points="20.8,-32.64 22.88,-22.25 14.78,-29.07 20.8,-32.64"/>
</a>
</g>
</g>
<!-- Node10 -->
<g id="Node000010" class="node">
<title>Node10</title>
<g id="a_Node000010"><a xlink:href="../../de/dd6/ICommand_8hpp.html" target="_top" xlink:title="command interface">
<polygon fill="white" stroke="#666666" points="322.32,-191 232.07,-191 232.07,-170.25 322.32,-170.25 322.32,-191"/>
<text xml:space="preserve" text-anchor="middle" x="277.19" y="-177.5" font-family="Helvetica,sans-Serif" font-size="10.00">ICommand.hpp</text>
</a>
</g>
</g>
<!-- Node1&#45;&gt;Node10 -->
<g id="edge11_Node000001_Node000010" class="edge">
<title>Node1&#45;&gt;Node10</title>
<g id="a_edge11_Node000001_Node000010"><a xlink:title=" ">
<path fill="none" stroke="#63b8ff" d="M136.93,-227.33C163.99,-218.52 205.47,-205 236.31,-194.95"/>
<polygon fill="#63b8ff" stroke="#63b8ff" points="237.28,-198.31 245.7,-191.89 235.11,-191.66 237.28,-198.31"/>
</a>
</g>
</g>
<!-- Node3 -->
<g id="Node000003" class="node">
<title>Node3</title>
<g id="a_Node000003"><a xlink:href="../../da/d81/TcpSocket_8hpp.html" target="_top" xlink:title="TcpSocket class.">
<polygon fill="white" stroke="#666666" points="115.69,-134.25 30.69,-134.25 30.69,-113.5 115.69,-113.5 115.69,-134.25"/>
<text xml:space="preserve" text-anchor="middle" x="73.19" y="-120.75" font-family="Helvetica,sans-Serif" font-size="10.00">TcpSocket.hpp</text>
</a>
</g>
</g>
<!-- Node2&#45;&gt;Node3 -->
<g id="edge2_Node000002_Node000003" class="edge">
<title>Node2&#45;&gt;Node3</title>
<g id="a_edge2_Node000002_Node000003"><a xlink:title=" ">
<path fill="none" stroke="#63b8ff" d="M102.76,-169.84C98.05,-162.67 91.51,-152.73 85.77,-144.01"/>
<polygon fill="#63b8ff" stroke="#63b8ff" points="88.82,-142.28 80.4,-135.84 82.97,-146.12 88.82,-142.28"/>
</a>
</g>
</g>
<!-- Node2&#45;&gt;Node5 -->
<g id="edge10_Node000002_Node000005" class="edge">
<title>Node2&#45;&gt;Node5</title>
<g id="a_edge10_Node000002_Node000005"><a xlink:title=" ">
<path fill="none" stroke="#63b8ff" d="M76.01,-171.79C56.38,-165.26 33.09,-153.77 21.19,-134.25 1.97,-102.72 12.77,-57.83 21.84,-31.94"/>
<polygon fill="#63b8ff" stroke="#63b8ff" points="25.1,-33.21 25.36,-22.61 18.55,-30.73 25.1,-33.21"/>
</a>
</g>
</g>
<!-- Node8 -->
<g id="Node000008" class="node">
<title>Node8</title>
<g id="a_Node000008"><a xlink:href="../../d8/d9c/reply__codes_8hpp.html" target="_top" xlink:title="Numerical reply codes.">
<polygon fill="white" stroke="#666666" points="228.94,-134.25 133.44,-134.25 133.44,-113.5 228.94,-113.5 228.94,-134.25"/>
<text xml:space="preserve" text-anchor="middle" x="181.19" y="-120.75" font-family="Helvetica,sans-Serif" font-size="10.00">reply_codes.hpp</text>
</a>
</g>
</g>
<!-- Node2&#45;&gt;Node8 -->
<g id="edge8_Node000002_Node000008" class="edge">
<title>Node2&#45;&gt;Node8</title>
<g id="a_edge8_Node000002_Node000008"><a xlink:title=" ">
<path fill="none" stroke="#63b8ff" d="M122.07,-169.84C132.41,-161.97 147.16,-150.75 159.35,-141.49"/>
<polygon fill="#63b8ff" stroke="#63b8ff" points="161.39,-144.33 167.23,-135.49 157.15,-138.76 161.39,-144.33"/>
</a>
</g>
</g>
<!-- Node9 -->
<g id="Node000009" class="node">
<title>Node9</title>
<g id="a_Node000009"><a xlink:title=" ">
<polygon fill="#e0e0e0" stroke="#999999" points="285.07,-134.25 247.32,-134.25 247.32,-113.5 285.07,-113.5 285.07,-134.25"/>
<text xml:space="preserve" text-anchor="middle" x="266.19" y="-120.75" font-family="Helvetica,sans-Serif" font-size="10.00">map</text>
</a>
</g>
</g>
<!-- Node2&#45;&gt;Node9 -->
<g id="edge9_Node000002_Node000009" class="edge">
<title>Node2&#45;&gt;Node9</title>
<g id="a_edge9_Node000002_Node000009"><a xlink:title=" ">
<path fill="none" stroke="#63b8ff" d="M137.26,-169.84C165.29,-160.06 208.2,-145.1 236.72,-135.15"/>
<polygon fill="#63b8ff" stroke="#63b8ff" points="237.53,-138.58 245.82,-131.98 235.22,-131.97 237.53,-138.58"/>
</a>
</g>
</g>
<!-- Node4 -->
<g id="Node000004" class="node">
<title>Node4</title>
<g id="a_Node000004"><a xlink:href="../../df/dd7/consts_8hpp.html" target="_top" xlink:title="constants used throughout IRC server program">
<polygon fill="white" stroke="#666666" points="136.44,-77.5 67.94,-77.5 67.94,-56.75 136.44,-56.75 136.44,-77.5"/>
<text xml:space="preserve" text-anchor="middle" x="102.19" y="-64" font-family="Helvetica,sans-Serif" font-size="10.00">consts.hpp</text>
</a>
</g>
</g>
<!-- Node3&#45;&gt;Node4 -->
<g id="edge3_Node000003_Node000004" class="edge">
<title>Node3&#45;&gt;Node4</title>
<g id="a_edge3_Node000003_Node000004"><a xlink:title=" ">
<path fill="none" stroke="#63b8ff" d="M78.38,-113.09C82.09,-106.08 87.21,-96.41 91.76,-87.83"/>
<polygon fill="#63b8ff" stroke="#63b8ff" points="94.76,-89.64 96.34,-79.17 88.57,-86.36 94.76,-89.64"/>
</a>
</g>
</g>
<!-- Node3&#45;&gt;Node5 -->
<g id="edge7_Node000003_Node000005" class="edge">
<title>Node3&#45;&gt;Node5</title>
<g id="a_edge7_Node000003_Node000005"><a xlink:title=" ">
<path fill="none" stroke="#63b8ff" d="M69.53,-113.37C62.58,-95.36 47.36,-55.89 38.02,-31.68"/>
<polygon fill="#63b8ff" stroke="#63b8ff" points="41.38,-30.66 34.52,-22.59 34.85,-33.18 41.38,-30.66"/>
</a>
</g>
</g>
<!-- Node7 -->
<g id="Node000007" class="node">
<title>Node7</title>
<g id="a_Node000007"><a xlink:title=" ">
<polygon fill="#e0e0e0" stroke="#999999" points="225.94,-77.5 154.44,-77.5 154.44,-56.75 225.94,-56.75 225.94,-77.5"/>
<text xml:space="preserve" text-anchor="middle" x="190.19" y="-64" font-family="Helvetica,sans-Serif" font-size="10.00">netinet/in.h</text>
</a>
</g>
</g>
<!-- Node3&#45;&gt;Node7 -->
<g id="edge6_Node000003_Node000007" class="edge">
<title>Node3&#45;&gt;Node7</title>
<g id="a_edge6_Node000003_Node000007"><a xlink:title=" ">
<path fill="none" stroke="#63b8ff" d="M94.11,-113.09C112.16,-104.64 138.49,-92.32 159.03,-82.71"/>
<polygon fill="#63b8ff" stroke="#63b8ff" points="160.51,-85.88 168.09,-78.47 157.55,-79.54 160.51,-85.88"/>
</a>
</g>
</g>
<!-- Node4&#45;&gt;Node5 -->
<g id="edge4_Node000004_Node000005" class="edge">
<title>Node4&#45;&gt;Node5</title>
<g id="a_edge4_Node000004_Node000005"><a xlink:title=" ">
<path fill="none" stroke="#63b8ff" d="M89.32,-56.34C78.98,-48.47 64.22,-37.25 52.04,-27.99"/>
<polygon fill="#63b8ff" stroke="#63b8ff" points="54.24,-25.26 44.16,-21.99 50,-30.83 54.24,-25.26"/>
</a>
</g>
</g>
<!-- Node6 -->
<g id="Node000006" class="node">
<title>Node6</title>
<g id="a_Node000006"><a xlink:title=" ">
<polygon fill="#e0e0e0" stroke="#999999" points="134.57,-20.75 87.82,-20.75 87.82,0 134.57,0 134.57,-20.75"/>
<text xml:space="preserve" text-anchor="middle" x="111.19" y="-7.25" font-family="Helvetica,sans-Serif" font-size="10.00">vector</text>
</a>
</g>
</g>
<!-- Node4&#45;&gt;Node6 -->
<g id="edge5_Node000004_Node000006" class="edge">
<title>Node4&#45;&gt;Node6</title>
<g id="a_edge5_Node000004_Node000006"><a xlink:title=" ">
<path fill="none" stroke="#63b8ff" d="M103.8,-56.34C104.9,-49.64 106.4,-40.51 107.77,-32.23"/>
<polygon fill="#63b8ff" stroke="#63b8ff" points="111.18,-33.01 109.35,-22.57 104.28,-31.87 111.18,-33.01"/>
</a>
</g>
</g>
<!-- Node10&#45;&gt;Node6 -->
<g id="edge12_Node000010_Node000006" class="edge">
<title>Node10&#45;&gt;Node6</title>
<g id="a_edge12_Node000010_Node000006"><a xlink:title=" ">
<path fill="none" stroke="#63b8ff" d="M283.53,-169.91C291.26,-156.75 302.36,-132.7 294.19,-113.5 269.09,-54.53 191.88,-28.36 146.16,-17.77"/>
<polygon fill="#63b8ff" stroke="#63b8ff" points="146.99,-14.37 136.47,-15.67 145.5,-21.21 146.99,-14.37"/>
</a>
</g>
</g>
</g>
</svg>
