<?xml version="1.0" encoding="UTF-8" standalone="no"?>
<!DOCTYPE svg PUBLIC "-//W3C//DTD SVG 1.1//EN"
 "http://www.w3.org/Graphics/SVG/1.1/DTD/svg11.dtd">
<!-- Generated by graphviz version 14.0.1 (0)
 -->
<!-- Title: Join.hpp Pages: 1 -->
<svg width="356pt" height="256pt"
 viewBox="0.00 0.00 356.00 256.00" xmlns="http://www.w3.org/2000/svg" xmlns:xlink="http://www.w3.org/1999/xlink">
<g id="graph0" class="graph" transform="scale(1 1) rotate(0) translate(4 251.75)">
<title>Join.hpp</title>
<!-- Node1 -->
<g id="Node000001" class="node">
<title>Node1</title>
<g id="a_Node000001"><a xlink:title=" ">
<polygon fill="#999999" stroke="#666666" points="234.14,-247.75 179.14,-247.75 179.14,-227 234.14,-227 234.14,-247.75"/>
<text xml:space="preserve" text-anchor="middle" x="206.64" y="-234.25" font-family="Helvetica,sans-Serif" font-size="10.00">Join.hpp</text>
</a>
</g>
</g>
<!-- Node2 -->
<g id="Node000002" class="node">
<title>Node2</title>
<g id="a_Node000002"><a xlink:href="../../d3/d8e/Client_8hpp.html" target="_top" xlink:title=" ">
<polygon fill="white" stroke="#666666" points="163.39,-191 97.89,-191 97.89,-170.25 163.39,-170.25 163.39,-191"/>
<text xml:space="preserve" text-anchor="middle" x="130.64" y="-177.5" font-family="Helvetica,sans-Serif" font-size="10.00">Client.hpp</text>
</a>
</g>
</g>
<!-- Node1&#45;&gt;Node2 -->
<g id="edge1_Node000001_Node000002" class="edge">
<title>Node1&#45;&gt;Node2</title>
<g id="a_edge1_Node000001_Node000002"><a xlink:title=" ">
<path fill="none" stroke="#63b8ff" d="M193.05,-226.59C182.03,-218.65 166.25,-207.28 153.32,-197.96"/>
<polygon fill="#63b8ff" stroke="#63b8ff" points="155.49,-195.22 145.33,-192.21 151.4,-200.9 155.49,-195.22"/>
</a>
</g>
</g>
<!-- Node5 -->
<g id="Node000005" class="node">
<title>Node5</title>
<g id="a_Node000005"><a xlink:title=" ">
<polygon fill="#e0e0e0" stroke="#999999" points="50.51,-20.75 6.76,-20.75 6.76,0 50.51,0 50.51,-20.75"/>
<text xml:space="preserve" text-anchor="middle" x="28.64" y="-7.25" font-family="Helvetica,sans-Serif" font-size="10.00">string</text>
</a>
</g>
</g>
<!-- Node1&#45;&gt;Node5 -->
<g id="edge15_Node000001_Node000005" class="edge">
<title>Node1&#45;&gt;Node5</title>
<g id="a_edge15_Node000001_Node000005"><a xlink:title=" ">
<path fill="none" stroke="#63b8ff" d="M178.69,-231.79C133.2,-222.6 44.77,-197.14 10.64,-134.25 -5.81,-103.96 0.22,-90.41 7.64,-56.75 9.57,-47.98 13.37,-38.89 17.21,-31.16"/>
<polygon fill="#63b8ff" stroke="#63b8ff" points="20.29,-32.83 21.94,-22.36 14.13,-29.51 20.29,-32.83"/>
</a>
</g>
</g>
<!-- Node6 -->
<g id="Node000006" class="node">
<title>Node6</title>
<g id="a_Node000006"><a xlink:title=" ">
<polygon fill="#e0e0e0" stroke="#999999" points="317.01,-20.75 270.26,-20.75 270.26,0 317.01,0 317.01,-20.75"/>
<text xml:space="preserve" text-anchor="middle" x="293.64" y="-7.25" font-family="Helvetica,sans-Serif" font-size="10.00">vector</text>
</a>
</g>
</g>
<!-- Node1&#45;&gt;Node6 -->
<g id="edge16_Node000001_Node000006" class="edge">
<title>Node1&#45;&gt;Node6</title>
<g id="a_edge16_Node000001_Node000006"><a xlink:title=" ">
<path fill="none" stroke="#63b8ff" d="M234.39,-235.27C264.5,-232.42 311.25,-222.77 333.64,-191 368.82,-141.06 329.13,-65.51 306.78,-30.47"/>
<polygon fill="#63b8ff" stroke="#63b8ff" points="309.77,-28.64 301.34,-22.23 303.93,-32.5 309.77,-28.64"/>
</a>
</g>
</g>
<!-- Node8 -->
<g id="Node000008" class="node">
<title>Node8</title>
<g id="a_Node000008"><a xlink:href="../../d8/d9c/reply__codes_8hpp.html" target="_top" xlink:title=" ">
<polygon fill="white" stroke="#666666" points="286.39,-134.25 190.89,-134.25 190.89,-113.5 286.39,-113.5 286.39,-134.25"/>
<text xml:space="preserve" text-anchor="middle" x="238.64" y="-120.75" font-family="Helvetica,sans-Serif" font-size="10.00">reply_codes.hpp</text>
</a>
</g>
</g>
<!-- Node1&#45;&gt;Node8 -->
<g id="edge14_Node000001_Node000008" class="edge">
<title>Node1&#45;&gt;Node8</title>
<g id="a_edge14_Node000001_Node000008"><a xlink:title=" ">
<path fill="none" stroke="#63b8ff" d="M209.36,-226.87C214.51,-208.94 225.76,-169.75 232.71,-145.51"/>
<polygon fill="#63b8ff" stroke="#63b8ff" points="236.01,-146.71 235.41,-136.13 229.28,-144.78 236.01,-146.71"/>
</a>
</g>
</g>
<!-- Node10 -->
<g id="Node000010" class="node">
<title>Node10</title>
<g id="a_Node000010"><a xlink:href="../../de/dd6/ICommand_8hpp.html" target="_top" xlink:title="command interface">
<polygon fill="white" stroke="#666666" points="324.76,-191 234.51,-191 234.51,-170.25 324.76,-170.25 324.76,-191"/>
<text xml:space="preserve" text-anchor="middle" x="279.64" y="-177.5" font-family="Helvetica,sans-Serif" font-size="10.00">ICommand.hpp</text>
</a>
</g>
</g>
<!-- Node1&#45;&gt;Node10 -->
<g id="edge12_Node000001_Node000010" class="edge">
<title>Node1&#45;&gt;Node10</title>
<g id="a_edge12_Node000001_Node000010"><a xlink:title=" ">
<path fill="none" stroke="#63b8ff" d="M219.69,-226.59C230.28,-218.65 245.43,-207.28 257.85,-197.96"/>
<polygon fill="#63b8ff" stroke="#63b8ff" points="259.59,-201.04 265.49,-192.24 255.39,-195.44 259.59,-201.04"/>
</a>
</g>
</g>
<!-- Node3 -->
<g id="Node000003" class="node">
<title>Node3</title>
<g id="a_Node000003"><a xlink:href="../../da/d81/TcpSocket_8hpp.html" target="_top" xlink:title=" ">
<polygon fill="white" stroke="#666666" points="173.14,-134.25 88.14,-134.25 88.14,-113.5 173.14,-113.5 173.14,-134.25"/>
<text xml:space="preserve" text-anchor="middle" x="130.64" y="-120.75" font-family="Helvetica,sans-Serif" font-size="10.00">TcpSocket.hpp</text>
</a>
</g>
</g>
<!-- Node2&#45;&gt;Node3 -->
<g id="edge2_Node000002_Node000003" class="edge">
<title>Node2&#45;&gt;Node3</title>
<g id="a_edge2_Node000002_Node000003"><a xlink:title=" ">
<path fill="none" stroke="#63b8ff" d="M130.64,-169.84C130.64,-163.22 130.64,-154.22 130.64,-146.02"/>
<polygon fill="#63b8ff" stroke="#63b8ff" points="134.14,-146.09 130.64,-136.09 127.14,-146.09 134.14,-146.09"/>
</a>
</g>
</g>
<!-- Node2&#45;&gt;Node5 -->
<g id="edge11_Node000002_Node000005" class="edge">
<title>Node2&#45;&gt;Node5</title>
<g id="a_edge11_Node000002_Node000005"><a xlink:title=" ">
<path fill="none" stroke="#63b8ff" d="M97.61,-175.35C72.64,-170.19 39.96,-158.9 23.64,-134.25 3.18,-103.36 12.75,-57.89 21.04,-31.8"/>
<polygon fill="#63b8ff" stroke="#63b8ff" points="24.32,-33.02 24.27,-22.43 17.71,-30.75 24.32,-33.02"/>
</a>
</g>
</g>
<!-- Node2&#45;&gt;Node8 -->
<g id="edge9_Node000002_Node000008" class="edge">
<title>Node2&#45;&gt;Node8</title>
<g id="a_edge9_Node000002_Node000008"><a xlink:title=" ">
<path fill="none" stroke="#63b8ff" d="M149.94,-169.84C166.45,-161.47 190.47,-149.29 209.34,-139.72"/>
<polygon fill="#63b8ff" stroke="#63b8ff" points="210.81,-142.91 218.14,-135.26 207.64,-136.66 210.81,-142.91"/>
</a>
</g>
</g>
<!-- Node9 -->
<g id="Node000009" class="node">
<title>Node9</title>
<g id="a_Node000009"><a xlink:title=" ">
<polygon fill="#e0e0e0" stroke="#999999" points="70.51,-134.25 32.76,-134.25 32.76,-113.5 70.51,-113.5 70.51,-134.25"/>
<text xml:space="preserve" text-anchor="middle" x="51.64" y="-120.75" font-family="Helvetica,sans-Serif" font-size="10.00">map</text>
</a>
</g>
</g>
<!-- Node2&#45;&gt;Node9 -->
<g id="edge10_Node000002_Node000009" class="edge">
<title>Node2&#45;&gt;Node9</title>
<g id="a_edge10_Node000002_Node000009"><a xlink:title=" ">
<path fill="none" stroke="#63b8ff" d="M116.51,-169.84C104.94,-161.82 88.33,-150.31 74.82,-140.94"/>
<polygon fill="#63b8ff" stroke="#63b8ff" points="77.09,-138.26 66.88,-135.44 73.11,-144.01 77.09,-138.26"/>
</a>
</g>
</g>
<!-- Node4 -->
<g id="Node000004" class="node">
<title>Node4</title>
<g id="a_Node000004"><a xlink:href="../../df/dd7/consts_8hpp.html" target="_top" xlink:title=" ">
<polygon fill="white" stroke="#666666" points="243.89,-77.5 175.39,-77.5 175.39,-56.75 243.89,-56.75 243.89,-77.5"/>
<text xml:space="preserve" text-anchor="middle" x="209.64" y="-64" font-family="Helvetica,sans-Serif" font-size="10.00">consts.hpp</text>
</a>
</g>
</g>
<!-- Node3&#45;&gt;Node4 -->
<g id="edge3_Node000003_Node000004" class="edge">
<title>Node3&#45;&gt;Node4</title>
<g id="a_edge3_Node000003_Node000004"><a xlink:title=" ">
<path fill="none" stroke="#63b8ff" d="M144.76,-113.09C156.33,-105.07 172.94,-93.56 186.46,-84.19"/>
<polygon fill="#63b8ff" stroke="#63b8ff" points="188.17,-87.26 194.39,-78.69 184.18,-81.51 188.17,-87.26"/>
</a>
</g>
</g>
<!-- Node3&#45;&gt;Node5 -->
<g id="edge7_Node000003_Node000005" class="edge">
<title>Node3&#45;&gt;Node5</title>
<g id="a_edge7_Node000003_Node000005"><a xlink:title=" ">
<path fill="none" stroke="#63b8ff" d="M117.42,-113.24C105.98,-104.56 89.32,-91.12 76.64,-77.5 62.92,-62.78 49.67,-44.07 40.58,-30.31"/>
<polygon fill="#63b8ff" stroke="#63b8ff" points="43.69,-28.67 35.32,-22.18 37.81,-32.47 43.69,-28.67"/>
</a>
</g>
</g>
<!-- Node3&#45;&gt;Node6 -->
<g id="edge8_Node000003_Node000006" class="edge">
<title>Node3&#45;&gt;Node6</title>
<g id="a_edge8_Node000003_Node000006"><a xlink:title=" ">
<path fill="none" stroke="#63b8ff" d="M173.4,-114.32C198.56,-107.61 229.82,-96.18 252.64,-77.5 267.65,-65.21 278.72,-45.9 285.55,-31.32"/>
<polygon fill="#63b8ff" stroke="#63b8ff" points="288.72,-32.81 289.5,-22.24 282.3,-30.01 288.72,-32.81"/>
</a>
</g>
</g>
<!-- Node7 -->
<g id="Node000007" class="node">
<title>Node7</title>
<g id="a_Node000007"><a xlink:title=" ">
<polygon fill="#e0e0e0" stroke="#999999" points="157.39,-77.5 85.89,-77.5 85.89,-56.75 157.39,-56.75 157.39,-77.5"/>
<text xml:space="preserve" text-anchor="middle" x="121.64" y="-64" font-family="Helvetica,sans-Serif" font-size="10.00">netinet/in.h</text>
</a>
</g>
</g>
<!-- Node3&#45;&gt;Node7 -->
<g id="edge6_Node000003_Node000007" class="edge">
<title>Node3&#45;&gt;Node7</title>
<g id="a_edge6_Node000003_Node000007"><a xlink:title=" ">
<path fill="none" stroke="#63b8ff" d="M129.03,-113.09C127.93,-106.39 126.43,-97.26 125.06,-88.98"/>
<polygon fill="#63b8ff" stroke="#63b8ff" points="128.55,-88.62 123.48,-79.32 121.64,-89.76 128.55,-88.62"/>
</a>
</g>
</g>
<!-- Node4&#45;&gt;Node5 -->
<g id="edge4_Node000004_Node000005" class="edge">
<title>Node4&#45;&gt;Node5</title>
<g id="a_edge4_Node000004_Node000005"><a xlink:title=" ">
<path fill="none" stroke="#63b8ff" d="M177.28,-56.34C144.71,-46.49 94.73,-31.37 61.86,-21.43"/>
<polygon fill="#63b8ff" stroke="#63b8ff" points="63.04,-18.13 52.46,-18.58 61.02,-24.83 63.04,-18.13"/>
</a>
</g>
</g>
<!-- Node4&#45;&gt;Node6 -->
<g id="edge5_Node000004_Node000006" class="edge">
<title>Node4&#45;&gt;Node6</title>
<g id="a_edge5_Node000004_Node000006"><a xlink:title=" ">
<path fill="none" stroke="#63b8ff" d="M224.65,-56.34C237.08,-48.24 254.96,-36.58 269.41,-27.17"/>
<polygon fill="#63b8ff" stroke="#63b8ff" points="271.01,-30.3 277.48,-21.9 267.19,-24.43 271.01,-30.3"/>
</a>
</g>
</g>
<!-- Node10&#45;&gt;Node6 -->
<g id="edge13_Node000010_Node000006" class="edge">
<title>Node10&#45;&gt;Node6</title>
<g id="a_edge13_Node000010_Node000006"><a xlink:title=" ">
<path fill="none" stroke="#63b8ff" d="M284.2,-169.79C288.12,-160.77 293.47,-146.93 295.64,-134.25 301.7,-98.79 298.91,-56.74 296.3,-32.16"/>
<polygon fill="#63b8ff" stroke="#63b8ff" points="299.81,-32.06 295.17,-22.53 292.86,-32.87 299.81,-32.06"/>
</a>
</g>
</g>
</g>
</svg>
